<?xml version="1.0" encoding="UTF-8" standalone="no"?>
<svg
   xmlns:dc="http://purl.org/dc/elements/1.1/"
   xmlns:cc="http://creativecommons.org/ns#"
   xmlns:rdf="http://www.w3.org/1999/02/22-rdf-syntax-ns#"
   xmlns:svg="http://www.w3.org/2000/svg"
   xmlns="http://www.w3.org/2000/svg"
   xmlns:sodipodi="http://sodipodi.sourceforge.net/DTD/sodipodi-0.dtd"
   xmlns:inkscape="http://www.inkscape.org/namespaces/inkscape"
   inkscape:version="1.0beta2 (2b71d25, 2019-12-03)"
   sodipodi:docname="pie.svg"
   id="svg8"
   version="1.1"
   viewBox="0 0 338.66667 285.75"
   height="1080"
   width="1280">
  <style
     id="style56"></style>
  <defs
     id="defs2" />
  <sodipodi:namedview
     inkscape:window-maximized="0"
     inkscape:window-y="23"
     inkscape:window-x="0"
     inkscape:window-height="755"
     inkscape:window-width="1280"
     units="px"
     showgrid="false"
     inkscape:document-rotation="0"
     inkscape:current-layer="layer1"
     inkscape:document-units="px"
     inkscape:cy="551.12012"
     inkscape:cx="584.81272"
     inkscape:zoom="0.80745154"
     inkscape:pageshadow="2"
     inkscape:pageopacity="0.0"
     borderopacity="1.0"
     bordercolor="#666666"
     pagecolor="#ffffff"
     id="base" />
  <metadata
     id="metadata5">
    <rdf:RDF>
      <cc:Work
         rdf:about="">
        <dc:format>image/svg+xml</dc:format>
        <dc:type
           rdf:resource="http://purl.org/dc/dcmitype/StillImage" />
        <dc:title></dc:title>
      </cc:Work>
    </rdf:RDF>
  </metadata>
  <g
     id="layer1"
     inkscape:groupmode="layer"
     inkscape:label="Layer 1">
    <path
       transform="scale(0.26458333)"
       d="M 674.78906 417.43945 L 825.84766 230.30859 A 359.99999 359.99999 0 0 0 610.13867 158.58594 A 359.99999 359.99999 0 0 0 597.37695 158.81641 A 359.99999 359.99999 0 0 0 407.55078 221.05469 L 559.8418 409.67188 A 120 120 0 0 1 605.93555 398.66211 A 120 120 0 0 1 609.61914 398.58594 A 120 120 0 0 1 674.78906 417.43945 z "
       style="opacity:0.8192;fill:#002455;fill-opacity:1;stroke:#00ffff;stroke-width:1.9;stroke-linecap:round;stroke-linejoin:round;stroke-miterlimit:4;stroke-dasharray:none;stop-color:#000000"
       id="path872" />
    <path
       transform="scale(0.26458333)"
       d="M 727.0625 545.91016 L 952.23633 630.93555 A 359.99999 359.99999 0 0 0 970.2168 518.58594 L 969.80859 501.4707 A 359.99999 359.99999 0 0 0 834.61914 237.08398 L 699.94336 438.90625 A 120 120 0 0 1 730.08008 512.88086 L 730.21484 518.58594 A 120 120 0 0 1 727.0625 545.91016 z "
       style="opacity:0.8192;fill:#002455;fill-opacity:1;stroke:#00ffff;stroke-width:1.9;stroke-linecap:round;stroke-linejoin:round;stroke-miterlimit:4;stroke-dasharray:none;stop-color:#000000"
       id="path934" />
    <path
       transform="scale(0.26458333)"
       d="M 623.63086 637.83203 L 614.05078 878.56445 A 359.99999 359.99999 0 0 0 614.49609 878.56055 A 359.99999 359.99999 0 0 0 948.44922 641.87109 L 715.32617 576.47461 A 120 120 0 0 1 623.63086 637.83203 z "
       style="opacity:0.8192;fill:#002455;fill-opacity:1;stroke:#00ffff;stroke-width:1.9;stroke-linecap:round;stroke-linejoin:round;stroke-miterlimit:4;stroke-dasharray:none;stop-color:#000000"
       id="path930" />
    <path
       transform="scale(0.26458333)"
       d="M 499.60156 565.10352 L 266.85938 626.77539 A 359.99999 359.99999 0 0 0 602.99023 878.51172 L 590.76953 636.99805 A 120 120 0 0 1 499.60156 565.10352 z "
       style="opacity:0.8192;fill:#002455;fill-opacity:1;stroke:#00ffff;stroke-width:1.9;stroke-linecap:round;stroke-linejoin:round;stroke-miterlimit:4;stroke-dasharray:none;stop-color:#000000"
       id="path926" />
    <path
       transform="scale(0.26458333)"
       d="M 398.49414 227.42969 A 359.99999 359.99999 0 0 0 250.31836 527.14648 A 359.99999 359.99999 0 0 0 263.7168 616.24414 L 491.17773 533.73633 A 120 120 0 0 1 490.25 521.43945 A 120 120 0 0 1 532.48242 427.16797 L 398.49414 227.42969 z "
       style="opacity:0.8192;fill:#002455;fill-opacity:1;stroke:#00ffff;stroke-width:1.9;stroke-linecap:round;stroke-linejoin:round;stroke-miterlimit:4;stroke-dasharray:none;stop-color:#000000"
       id="path922" />
    <text
       id="text941"
       y="58.102421"
       x="141.54456"
       style="font-style:normal;font-weight:normal;font-size:6.8791667px;line-height:1.25;font-family:sans-serif;fill:#ffffff;fill-opacity:1;stroke:none;stroke-width:0.264583"
       xml:space="preserve"><tspan
         style="fill:#ffffff;stroke-width:0.264583;"
         y="58.102421"
         x="141.54456"
         id="tspan939"
         sodipodi:role="line">UI/ UX Flow</tspan></text>
    <text
       id="text949"
       y="177.40503"
       x="173.36134"
       style="font-style:normal;font-weight:normal;font-size:7.05556px;line-height:1.05;font-family:sans-serif;fill:#000000;fill-opacity:1;stroke:none;stroke-width:0.264583"
       xml:space="preserve"><tspan
         y="177.40503"
         x="173.36134"
         id="tspan973"
         sodipodi:role="line"
         style="font-size:6.87917px;fill:#ffffff;stroke-width:0.264583">Design </tspan><tspan
         dy="0 0 0 0 0"
         id="tspan951"
         style="font-size:6.87917px;fill:#ffffff;stroke-width:0.264583"
         y="184.81337"
         x="173.36134"
         sodipodi:role="line">Database &amp;</tspan><tspan
         id="tspan953"
         style="font-size:6.87917px;fill:#ffffff;stroke-width:0.264583"
         y="192.22171"
         x="173.36134"
         sodipodi:role="line">Backend</tspan></text>
    <text
       id="text957"
       y="101.49176"
       x="202.99283"
       style="font-style:normal;font-weight:normal;font-size:6.87917px;line-height:1.05;font-family:sans-serif;fill:#000000;fill-opacity:1;stroke:none;stroke-width:0.264583"
       xml:space="preserve"><tspan
         style="fill:#ffffff;stroke-width:0.264583"
         y="101.49176"
         x="202.99283"
         id="tspan955"
         sodipodi:role="line">Create a </tspan><tspan
         dy="0 0 0 0 0"
         id="tspan959"
         style="fill:#ffffff;stroke-width:0.264583"
         y="108.71489"
         x="202.99283"
         sodipodi:role="line">Responsive</tspan><tspan
         id="tspan961"
         style="fill:#ffffff;stroke-width:0.264583"
         y="115.93802"
         x="202.99283"
         sodipodi:role="line">Front-End</tspan></text>
    <text
       id="text32"
       y="174.97955"
       x="103.21828"
       style="font-style:normal;font-weight:normal;font-size:6.8791667px;line-height:1.25;font-family:sans-serif;fill:#ffffff;fill-opacity:1;stroke:none;stroke-width:0.264583"
       xml:space="preserve"><tspan
         id="tspan34"
         style="stroke-width:0.264583;fill:#ffffff;"
         y="174.97955"
         x="103.21828"
         sodipodi:role="line">Q/A </tspan></text>
    <text
       id="text48"
       y="105.83969"
       x="79.953201"
       style="font-size:6.87917px;line-height:1.25;font-family:sans-serif;fill:#ffffff;stroke-width:0.264583"
       xml:space="preserve"><tspan
         style="fill:#ffffff;stroke-width:0.264583"
         y="105.83969"
         x="79.953201"
         id="tspan46"
         sodipodi:role="line">CI/CD </tspan><tspan
         id="tspan52"
         style="fill:#ffffff;stroke-width:0.264583"
         y="114.43865"
         x="79.953201"
         sodipodi:role="line">Deployment</tspan></text>
  </g>
</svg>
