<?xml version="1.0" encoding="UTF-8" standalone="no"?>
<!DOCTYPE svg PUBLIC "-//W3C//DTD SVG 1.1//EN" "http://www.w3.org/Graphics/SVG/1.1/DTD/svg11.dtd">
<!-- Created with Vectornator (http://vectornator.io/) -->
<svg height="400px" stroke-miterlimit="10" style="fill-rule:nonzero;clip-rule:evenodd;stroke-linecap:round;stroke-linejoin:round;" version="1.1" viewBox="50 50 5000 5000" width="100%" xml:space="preserve" xmlns="http://www.w3.org/2000/svg" xmlns:vectornator="http://vectornator.io" xmlns:xlink="http://www.w3.org/1999/xlink">
<defs/>
<g id="Layer-1" vectornator:layerName="Layer 1">
<g opacity="1">
<path d="M1447.3 1586.85C1444.04 1591.2 1439.67 1593.36 1434.24 1593.36C1425.52 1592.29 1417.36 1592 1409.75 1592.55C1402.12 1593.1 1394.49 1593.36 1386.89 1593.36L1378.73 1593.36L1378.73 1601.54L1378.73 1683.17L1378.73 1689.69C1376.54 1696.21 1373.27 1699.49 1368.93 1699.49C1367.83 1700.57 1366.2 1701.12 1364.04 1701.12L1306.89 1701.12C1304.69 1701.12 1303.34 1700.86 1302.81 1700.3C1302.25 1699.76 1300.89 1699.47 1298.73 1699.47C1294.36 1697.31 1292.2 1694.59 1292.2 1691.31L1292.2 1681.5L1292.2 1397.46L1292.2 1046.42L1292.2 1036.63C1291.1 1035.55 1289.46 1036.08 1287.3 1038.26C1281.85 1045.89 1276.93 1053.52 1272.61 1061.12C1268.24 1068.75 1263.34 1076.37 1257.91 1083.97C1239.4 1111.18 1221.18 1138.41 1203.22 1165.61C1185.26 1192.82 1167.02 1220.04 1148.53 1247.24C1146.33 1251.59 1143.63 1253.77 1140.36 1253.77C1133.83 1255.96 1128.93 1254.33 1125.67 1248.87L1122.4 1245.61C1101.71 1214.06 1081.01 1182.49 1060.36 1150.91C1039.67 1119.36 1018.44 1087.8 996.688 1056.22C995.586 1055.14 993.953 1052.42 991.79 1048.05C990.688 1050.24 990.157 1051.88 990.157 1052.95L990.157 1061.12L990.157 1679.89L990.157 1689.69C987.967 1696.21 984.171 1699.49 978.728 1699.49C977.626 1700.57 975.994 1701.12 973.83 1701.12L910.157 1701.12C906.891 1701.12 904.701 1700.57 903.626 1699.49C898.17 1699.49 895.463 1696.22 895.463 1689.69C894.361 1688.62 893.83 1686.43 893.83 1683.17L893.83 1601.54L893.83 1593.36C892.728 1593.36 891.639 1593.1 890.565 1592.55C889.463 1592 888.374 1591.72 887.299 1591.72L848.115 1591.72L841.585 1591.72C837.217 1590.66 834.496 1587.92 833.421 1583.55L833.421 1578.66L833.421 1572.14L833.421 670.909L833.421 662.746C833.421 656.215 837.217 651.875 844.85 649.684L849.748 649.684L973.83 649.684L978.728 649.684C980.892 649.684 983.626 651.317 986.892 654.582C986.892 655.684 987.967 657.317 990.157 659.48C1010.82 691.059 1031.23 721.807 1051.38 751.726C1071.5 781.672 1091.38 811.876 1110.97 842.339C1115.31 847.794 1119.4 853.767 1123.22 860.298C1127.02 866.829 1131.1 872.815 1135.46 878.257C1137.63 880.448 1139.26 882.625 1140.36 884.788C1141.44 883.713 1143.07 881.522 1145.26 878.257C1155.06 863.019 1164.85 848.339 1174.65 834.175C1184.44 820.039 1194.77 805.345 1205.67 790.093C1219.8 768.325 1233.68 746.828 1247.3 725.603C1260.91 704.379 1275.32 682.895 1290.57 661.113C1294.91 655.684 1297.91 652.405 1299.55 651.317C1301.18 650.242 1305.26 649.684 1311.79 649.684L1427.71 649.684L1430.98 649.684C1437.51 649.684 1442.94 651.875 1447.3 656.215L1447.3 1586.85ZM893.83 1565.61L893.83 1554.18L893.83 909.278L893.83 901.114C893.83 898.938 894.374 896.774 895.463 894.584C895.463 891.318 898.728 888.611 905.259 886.42C908.524 884.244 912.32 885.346 916.687 889.686C916.687 890.788 917.762 892.42 919.953 894.584L959.136 953.36C959.136 955.55 960.769 957.183 964.034 958.258L964.034 950.094L964.034 868.461L964.034 858.665C966.198 853.237 967.83 850.502 968.932 850.502C977.64 846.162 984.171 847.794 988.524 855.4C1002.66 876.094 1016.54 896.502 1030.16 916.625C1043.76 936.775 1057.1 956.625 1070.16 976.217C1071.23 978.407 1072.87 980.571 1075.06 982.748C1078.32 978.407 1081.3 974.326 1084.04 970.503C1086.74 966.707 1089.75 962.625 1093.01 958.258C1095.18 953.917 1097.63 949.836 1100.36 946.013C1103.07 942.217 1106.08 938.121 1109.34 933.768C1111.5 929.428 1114.24 925.346 1117.5 921.523C1120.77 917.713 1123.48 913.632 1125.67 909.278C1124.57 907.114 1123.75 905.754 1123.22 905.196C1122.65 904.652 1121.83 903.305 1120.77 901.114C1108.78 883.713 1096.81 866.284 1084.85 848.869C1072.87 831.468 1060.91 813.508 1048.93 794.991C1036.95 775.399 1024.44 756.093 1011.38 737.032C998.32 717.998 985.803 698.664 973.83 679.072L970.565 675.807L859.544 675.807L857.911 677.44L857.911 685.603C857.911 691.059 858.17 696.773 858.728 702.746C859.258 708.732 859.544 714.447 859.544 719.889L859.544 1554.18L859.544 1562.34L859.544 1565.61C862.809 1566.7 868.252 1567.24 875.871 1567.24C883.476 1567.24 889.476 1566.7 893.83 1565.61ZM964.034 1673.36L964.034 1663.57L964.034 1017.03L964.034 1012.14C964.034 1007.8 962.932 1005.07 960.769 1003.97C949.871 985.482 937.34 966.421 923.218 946.829C923.218 944.652 922.116 944.121 919.953 945.196L919.953 953.36L919.953 1663.57L919.953 1670.09L921.585 1673.35L964.034 1673.35L964.034 1673.36ZM991.79 904.38C990.688 906.57 990.157 909.278 990.157 912.543L990.157 992.544C990.157 996.911 991.232 1001.26 993.422 1005.6C1003.22 1020.87 1012.73 1035.28 1021.99 1048.87C1031.23 1062.49 1040.77 1076.37 1050.57 1090.5C1063.63 1111.2 1076.95 1131.32 1090.57 1150.91C1104.17 1170.5 1117.5 1190.65 1130.57 1211.32C1131.64 1212.42 1132.46 1213.51 1133.02 1214.59C1133.56 1215.69 1134.91 1216.78 1137.1 1217.85C1138.17 1216.78 1138.99 1215.69 1139.55 1214.59C1140.09 1213.51 1140.91 1212.41 1141.99 1211.32C1151.79 1196.1 1161.83 1180.86 1172.2 1165.61C1182.54 1150.37 1192.61 1135.14 1202.4 1119.89C1217.63 1098.14 1232.05 1076.91 1245.67 1056.22C1259.26 1035.55 1273.14 1014.33 1287.3 992.544C1290.57 989.278 1292.2 985.469 1292.2 981.115C1291.1 969.156 1290.81 957.183 1291.38 945.196C1291.93 933.237 1292.2 921.264 1292.2 909.278C1292.2 908.203 1291.91 907.387 1291.38 906.829C1290.81 906.285 1290.57 905.468 1290.57 904.38C1288.38 905.482 1287.3 906.57 1287.3 907.645C1287.3 908.747 1286.73 909.836 1285.67 910.91C1274.77 927.237 1263.87 943.564 1253.02 959.89C1242.12 976.217 1231.22 993.101 1220.36 1010.5L1215.46 1015.4C1213.27 1017.59 1211.64 1018.67 1210.57 1018.67C1202.93 1020.87 1197.51 1019.24 1194.24 1013.77L1190.97 1007.24C1183.34 995.278 1175.71 983.85 1168.12 972.952C1160.48 962.081 1152.87 950.652 1145.26 938.666C1144.16 937.591 1143.63 936.502 1143.63 935.4C1143.63 934.326 1142.53 933.768 1140.36 933.768L1137.1 937.033C1128.36 949.019 1120.48 960.707 1113.42 972.135C1106.33 983.564 1098.44 995.278 1089.75 1007.24C1088.65 1009.43 1087.83 1010.79 1087.3 1011.32C1086.73 1011.89 1085.93 1013.24 1084.85 1015.4C1082.66 1017.59 1079.95 1018.67 1076.69 1018.67C1071.23 1020.87 1066.89 1018.67 1063.63 1012.14C1062.52 1011.06 1061.99 1009.97 1061.99 1008.87C1050.01 992.544 1038.85 976.503 1028.52 960.707C1018.17 944.938 1007.54 928.87 996.688 912.543C995.586 911.468 993.953 908.747 991.79 904.38ZM1422.81 1565.61L1422.81 1554.18L1422.81 830.91C1422.81 805.889 1422.53 780.855 1422 755.807C1421.42 730.787 1421.71 705.753 1422.81 680.705L1422.81 675.807L1310.16 675.807C1309.06 676.909 1308.53 677.725 1308.53 678.256C1308.53 678.827 1307.97 679.644 1306.89 680.705C1299.26 692.691 1291.63 704.936 1284.04 717.44C1276.4 729.957 1268.24 742.202 1259.55 754.175L1161.59 901.114C1160.48 903.305 1159.4 904.652 1158.32 905.196C1157.22 905.754 1156.69 907.114 1156.69 909.278C1157.76 910.38 1158.32 911.482 1158.32 912.543C1165.93 923.441 1173.56 934.326 1181.18 945.196C1188.78 956.094 1196.42 967.523 1204.04 979.482L1207.3 982.748C1208.38 980.571 1209.19 979.224 1209.75 978.666C1210.29 978.135 1211.1 976.775 1212.2 974.584C1225.26 956.094 1238.32 937.319 1251.38 918.257C1264.44 899.223 1278.04 879.89 1292.2 860.298C1295.46 855.958 1299.81 853.767 1305.26 853.767C1312.87 855.958 1316.69 859.754 1316.69 865.196L1316.69 870.094L1316.69 897.849L1316.69 941.931C1316.69 944.121 1317.23 945.196 1318.32 945.196C1320.49 943.033 1322.12 940.856 1323.22 938.666C1328.65 932.135 1333.55 925.346 1337.91 918.257C1342.25 911.183 1347.15 903.836 1352.61 896.216C1352.61 895.142 1353.68 893.509 1355.87 891.318C1359.14 885.89 1363.48 884.244 1368.93 886.42C1374.36 888.611 1377.63 892.407 1378.73 897.849L1378.73 906.012L1378.73 1552.55L1378.73 1560.72L1378.73 1565.61C1382 1566.7 1389.06 1567.24 1399.96 1567.24C1410.83 1567.24 1418.45 1566.7 1422.81 1565.61ZM1350.98 1673.36C1350.98 1672.3 1351.23 1654.59 1351.79 1620.3C1352.34 1586.02 1352.61 1543.04 1352.61 1491.34C1352.61 1439.65 1352.61 1383.58 1352.61 1323.17C1352.61 1262.76 1352.61 1205.89 1352.61 1152.56C1352.61 1099.24 1352.61 1053.52 1352.61 1015.41C1352.61 977.333 1352.61 954.475 1352.61 946.843C1352.61 945.768 1352.04 944.666 1350.98 943.577C1349.87 944.679 1349.34 945.496 1349.34 946.026C1349.34 946.584 1348.79 947.4 1347.71 948.475C1337.91 963.727 1328.65 977.333 1319.95 989.292C1317.75 993.646 1316.69 997.455 1316.69 1000.72L1316.69 1085.62L1316.69 1663.58L1316.69 1670.1C1316.69 1671.2 1317.23 1672.3 1318.32 1673.36C1320.49 1674.45 1325.4 1675 1333.02 1675C1340.62 1675 1346.62 1674.45 1350.98 1673.36Z" fill="none" opacity="1" stroke="#b494f9" stroke-linecap="butt" stroke-linejoin="miter" stroke-width="10" vectornator:layerName="path"/>
<path d="M1905.28 652.876L2081.59 652.876C2089.23 652.876 2094.67 653.447 2097.93 654.508C2103.35 654.508 2106.1 657.243 2106.1 662.672C2107.16 665.937 2107.74 669.76 2107.74 674.1L2107.74 758.999C2107.74 764.454 2107.16 768.795 2106.1 772.06C2106.1 776.414 2103.92 778.591 2099.57 778.591C2098.48 778.591 2097.39 778.876 2096.3 779.407C2095.21 779.965 2094.12 780.223 2093.06 780.223L2078.37 780.223L1799.17 780.223C1754.53 780.223 1713.71 790.577 1676.72 811.244C1666.92 816.7 1661.21 820.509 1659.58 822.673C1657.94 824.877 1656.03 831.938 1653.86 843.897C1648.41 872.224 1647.33 898.333 1650.6 922.265C1652.76 940.782 1656.03 958.184 1660.39 974.51C1675.63 1016.96 1701.21 1050.18 1737.14 1074.1C1765.41 1091.53 1798.08 1103.49 1835.09 1110.02C1840.53 1111.12 1846.25 1111.65 1852.23 1111.65C1858.22 1111.65 1863.92 1111.65 1869.37 1111.65C1891.14 1111.65 1911.84 1114.92 1931.43 1121.45C1958.61 1127.98 1983.12 1138.35 2004.9 1152.47C2056.06 1184.05 2088.15 1228.67 2101.23 1286.35C2104.49 1300.51 2106.38 1314.68 2106.94 1328.8C2107.47 1342.96 2107.77 1357.66 2107.77 1372.88C2105.57 1392.47 2102.3 1412.06 2097.96 1431.64C2085.97 1475.19 2064.22 1509.48 2032.64 1534.51L2027.76 1539.4C2024.49 1541.6 2022.87 1544.3 2022.87 1547.57C2020.67 1549.77 2019.61 1552.47 2019.61 1555.75C2004.35 1591.66 1981.5 1621.04 1951.02 1643.9C1916.18 1668.95 1878.11 1685.28 1836.73 1692.88C1828.01 1693.98 1820.15 1694.8 1813.09 1695.34C1806 1695.9 1798.1 1696.16 1789.41 1696.16L1681.66 1696.16L1518.39 1696.16C1511.86 1696.16 1506.96 1695.62 1503.7 1694.53C1497.17 1694.53 1493.9 1691.26 1493.9 1684.73L1493.9 1678.22L1493.9 1591.67C1493.9 1585.15 1494.43 1580.24 1495.54 1576.99C1497.7 1572.65 1500.42 1570.46 1503.7 1570.46L1513.49 1570.46L1544.52 1570.46C1576.07 1570.46 1607.37 1570.2 1638.39 1569.64C1669.4 1569.11 1700.69 1569.37 1732.26 1570.46C1775.78 1570.46 1816.6 1559.6 1854.71 1537.82C1860.15 1535.64 1864.78 1532.92 1868.6 1529.64C1872.39 1526.39 1876.46 1523.68 1880.82 1521.48C1912.38 1496.46 1933.06 1464.89 1942.87 1426.78C1946.14 1416.98 1948.31 1407.47 1949.4 1398.21C1950.46 1388.96 1951.55 1379.44 1952.67 1369.63C1953.73 1351.14 1952.67 1330.44 1949.4 1307.59C1949.4 1304.32 1948.31 1300.51 1946.14 1296.16C1946.14 1293.98 1945.05 1291.82 1942.87 1289.63C1937.43 1284.2 1931.72 1279.83 1925.73 1276.57C1919.73 1273.3 1913.48 1270.04 1906.94 1266.77C1888.42 1258.08 1869.92 1251 1851.43 1245.55C1832.91 1240.12 1813.32 1237.38 1792.68 1237.38C1764.35 1237.38 1737.97 1233.06 1713.5 1224.32C1688.99 1215.63 1665.32 1203.65 1642.48 1188.4C1606.54 1163.38 1580.96 1129.1 1565.73 1085.54C1565.73 1083.37 1565.44 1082.02 1564.91 1081.46C1564.35 1080.93 1564.08 1079.57 1564.08 1077.38C1561.89 1073.04 1559.2 1068.69 1555.92 1064.32C1524.34 1032.77 1505.3 993.041 1498.77 945.136C1496.58 931 1495.22 916.85 1494.69 902.687C1494.13 888.55 1494.41 874.387 1495.52 860.237C1496.58 850.441 1498.22 841.203 1500.41 832.482C1502.57 823.788 1504.75 815.081 1506.94 806.359C1522.16 762.835 1547.75 728.549 1583.67 703.502C1620.67 677.379 1661.48 661.052 1706.12 654.522C1711.56 654.522 1716.99 654.263 1722.46 653.706C1727.88 653.175 1733.33 652.889 1738.78 652.889L1905.28 652.889L1905.28 652.876ZM1707.73 1594.91L1583.63 1594.91L1533.02 1594.91C1528.65 1594.91 1525.39 1595.47 1523.21 1596.55C1521.02 1596.55 1519.96 1597.64 1519.96 1599.81L1519.96 1607.98C1518.86 1616.7 1518.57 1624.85 1519.13 1632.46C1519.67 1640.11 1519.96 1648.26 1519.96 1656.96L1519.96 1665.13C1519.96 1668.39 1521.59 1670.02 1524.84 1670.02L1539.54 1670.02L1727.29 1670.02L1794.23 1670.02C1799.67 1670.02 1805.39 1670.02 1811.37 1670.02C1817.36 1670.02 1823.62 1669.48 1830.16 1668.39C1866.07 1661.86 1897.63 1649.37 1924.84 1630.84C1947.7 1617.78 1965.66 1599.82 1978.74 1576.96C1980.89 1574.8 1982.53 1572.62 1983.62 1570.43L1983.62 1568.8L1980.35 1568.8C1978.18 1569.9 1973.82 1571.53 1967.31 1573.7C1949.88 1581.33 1932.45 1587.03 1915.06 1590.84C1897.63 1594.66 1879.66 1596.02 1861.17 1594.92L1849.74 1594.92L1707.73 1594.92L1707.73 1594.91ZM1552.61 1015.33L1550.98 1015.33C1553.15 1013.16 1553.97 1010.71 1553.44 1007.98C1552.88 1005.27 1552.61 1002.82 1552.61 1000.63C1552.61 979.966 1554.24 959.816 1557.51 940.224C1562.94 915.204 1571.1 892.061 1582 870.836C1592.87 849.611 1608.67 830.836 1629.35 814.509C1634.77 809.081 1638.04 804.169 1639.14 799.815C1639.14 797.638 1640.22 795.475 1642.41 793.285C1656.53 759.556 1676.69 732.345 1702.8 711.651C1708.24 706.223 1713.96 701.855 1719.97 698.59C1725.93 695.325 1732.19 691.515 1738.73 687.161C1740.91 686.087 1742.27 685.27 1742.83 684.713C1743.36 684.168 1744.72 683.352 1746.9 682.264L1746.9 680.631C1729.5 678.468 1713.69 678.998 1699.56 682.264C1661.44 688.794 1627.71 702.413 1598.33 723.08C1568.94 743.774 1547.71 770.985 1534.65 804.713C1527.02 825.407 1522.12 847.72 1519.96 871.652C1519.96 883.639 1519.96 895.326 1519.96 906.755C1519.96 918.183 1521.02 929.898 1523.21 941.857C1525.39 953.843 1528.37 965.272 1532.19 976.143C1535.98 987.041 1540.61 997.925 1546.08 1008.8C1546.08 1009.9 1547.14 1011.53 1549.35 1013.69C1550.42 1013.69 1551.52 1014.25 1552.61 1015.33ZM1748.54 1111.65L1746.9 1108.39C1741.46 1105.12 1736.3 1101.86 1731.4 1098.59C1726.49 1095.33 1721.31 1092.06 1715.88 1088.8C1677.77 1062.67 1651.1 1026.76 1635.88 981.041C1632.61 969.082 1629.89 957.367 1627.71 945.939C1625.52 934.51 1624.45 922.823 1624.45 910.836C1622.26 892.346 1622.82 876.02 1626.08 861.856C1626.08 859.68 1625.52 858.591 1624.45 858.591L1624.45 856.958L1622.82 856.958L1617.93 861.856C1607.03 876.02 1598.34 891.802 1591.79 909.204C1588.54 919 1585.81 929.068 1583.63 939.408C1581.44 949.762 1580.37 960.388 1580.37 971.245C1579.28 984.306 1578.99 997.367 1579.55 1010.43C1580.08 1023.49 1581.44 1036.55 1583.63 1049.61C1583.63 1052.88 1585.79 1056.7 1590.16 1061.04C1601.02 1069.78 1613.55 1077.93 1627.71 1085.53C1653.84 1099.69 1684.29 1108.39 1719.14 1111.65L1748.54 1111.65ZM1928.12 1247.16C1928.12 1248.27 1928.65 1248.8 1929.77 1248.8L1929.77 1247.16C1929.77 1246.09 1929.18 1246.09 1928.12 1247.16C1928.12 1243.9 1927.57 1241.74 1926.5 1240.63C1919.97 1227.57 1910.69 1215.07 1898.74 1203.08C1881.33 1185.7 1862.25 1172.06 1841.61 1162.27C1804.59 1144.88 1768.67 1136.72 1733.85 1137.78C1725.1 1137.78 1717.24 1137.23 1710.18 1136.14C1703.09 1135.07 1695.74 1133.98 1688.12 1132.88C1676.15 1130.7 1664.18 1127.16 1652.22 1122.27C1640.23 1117.37 1628.26 1112.21 1616.3 1106.76C1614.11 1105.68 1612.2 1104.86 1610.58 1104.31C1608.95 1103.76 1607.03 1102.95 1604.86 1101.86C1603.77 1101.86 1603.24 1102.43 1603.24 1103.49C1602.13 1103.49 1602.13 1104.06 1603.24 1105.12C1606.49 1112.76 1610.84 1120.37 1616.3 1127.98C1634.79 1153.03 1657.65 1172.06 1684.88 1185.12C1719.7 1203.64 1756.71 1212.88 1795.88 1212.88C1803.51 1212.88 1810.84 1213.16 1817.93 1213.7C1825.01 1214.25 1832.34 1215.07 1839.96 1216.14C1862.84 1220.5 1885.69 1228.13 1908.54 1239C1910.69 1241.19 1913.17 1242.55 1915.88 1243.08C1918.59 1243.64 1921.03 1245 1923.24 1247.16L1928.12 1247.16ZM1923.24 754.101L2060.38 754.101L2075.08 754.101C2079.4 754.101 2081.59 751.393 2081.59 745.937L2081.59 744.305L2081.59 688.794L2081.59 683.896C2081.59 680.631 2079.97 678.998 2076.71 678.998L2063.66 678.998L1866.1 678.998C1860.65 678.998 1854.94 679.284 1848.95 679.815C1842.98 680.386 1837.27 681.202 1831.81 682.264C1813.29 684.454 1796.44 688.794 1781.21 695.325C1765.93 701.855 1750.71 709.488 1735.48 718.182C1712.63 733.434 1694.67 751.393 1681.62 772.06C1679.43 774.25 1678.35 775.883 1678.35 776.958L1678.35 780.223L1679.99 781.856C1683.25 780.781 1687.05 779.148 1691.4 776.958C1727.33 761.733 1763.25 754.101 1799.16 754.101L1923.24 754.101ZM1854.65 1137.78C1852.48 1139.97 1853.03 1141.04 1856.3 1141.04L1880.78 1155.74C1918.89 1179.7 1945.01 1211.82 1959.14 1252.06C1963.5 1260.8 1966.22 1267.33 1967.33 1271.65C1969.48 1278.19 1972.22 1282.55 1975.5 1284.72C2001.62 1310.84 2019.02 1343.49 2027.74 1382.68C2036.44 1415.33 2039.17 1446.91 2035.91 1477.37C2035.91 1482.83 2035.35 1487.17 2034.29 1490.43L2035.91 1492.06C2036.97 1493.17 2038.08 1493.17 2039.17 1492.06C2041.35 1489.9 2042.44 1488.27 2042.44 1487.17C2046.76 1481.75 2050.6 1476.3 2053.87 1470.85C2057.13 1465.41 2060.4 1459.98 2063.68 1454.53C2069.09 1442.55 2072.9 1430.85 2075.1 1419.42C2077.25 1407.98 2079.43 1396.32 2081.62 1384.32C2082.71 1370.19 2082.98 1356.57 2082.45 1343.51C2081.89 1330.44 2080.53 1316.85 2078.38 1302.69C2075.12 1280.92 2068.02 1260.8 2057.14 1242.28C2048.42 1225.95 2037.8 1211.82 2025.31 1199.83C2012.76 1187.87 1998.9 1177.53 1983.66 1168.81C1964.08 1157.94 1943.37 1149.78 1921.61 1144.32C1909.62 1142.16 1898.49 1140.24 1888.15 1138.61C1877.77 1136.96 1866.64 1136.7 1854.65 1137.78ZM2011.4 1446.35C2010.29 1436.55 2009.2 1426.5 2008.14 1416.15C2007.02 1405.82 2005.4 1395.21 2003.23 1384.31C2001.05 1375.6 1998.34 1367.17 1995.06 1359C1991.8 1350.84 1987.43 1342.95 1982.01 1335.33C1980.9 1335.33 1980.37 1334.78 1980.37 1333.7C1979.28 1333.7 1978.75 1334.8 1978.75 1336.96C1978.75 1340.23 1978.75 1343.76 1978.75 1347.57C1978.75 1351.4 1978.19 1355.49 1977.1 1359.82C1977.1 1371.81 1976.3 1383.78 1974.65 1395.74C1973.04 1407.74 1971.12 1419.7 1968.94 1431.66C1955.89 1479.56 1930.3 1516.55 1892.19 1542.68C1884.56 1548.13 1875.88 1553.57 1866.07 1559C1863.89 1561.19 1860.63 1563.37 1856.29 1565.52C1853.02 1565.52 1852.46 1566.62 1854.64 1568.79C1855.73 1568.79 1856.29 1569.07 1856.29 1569.62C1856.29 1570.17 1856.82 1570.43 1857.91 1570.43C1881.85 1570.43 1906.33 1567.18 1931.37 1560.64C1952.06 1554.11 1972.72 1544.88 1993.43 1532.88C1999.95 1528.54 2003.77 1523.08 2004.86 1516.55C2004.86 1515.49 2005.1 1514.39 2005.69 1513.29C2006.22 1512.23 2006.49 1511.13 2006.49 1510.02C2009.76 1490.43 2011.4 1469.19 2011.4 1446.35Z" fill="none" opacity="1" stroke="#b494f9" stroke-linecap="butt" stroke-linejoin="miter" stroke-width="10" vectornator:layerName="path"/>
<path d="M541.38 1182.29C541.38 665.985 959.925 247.441 1476.23 247.441C1992.53 247.441 2411.07 665.985 2411.07 1182.29C2411.07 1698.59 1992.53 2117.13 1476.23 2117.13C959.925 2117.13 541.38 1698.59 541.38 1182.29Z" fill="none" opacity="1" stroke="#b595f9" stroke-linecap="butt" stroke-linejoin="miter" stroke-width="10"/>
</g>
</g>
</svg>
