<?xml version="1.0" encoding="UTF-8" standalone="no"?>
<!DOCTYPE svg PUBLIC "-//W3C//DTD SVG 1.1//EN" "http://www.w3.org/Graphics/SVG/1.1/DTD/svg11.dtd">
<!-- Created with Vectornator (http://vectornator.io/) -->
<svg height="100%" stroke-miterlimit="10" style="fill-rule:nonzero;clip-rule:evenodd;stroke-linecap:round;stroke-linejoin:round;" version="1.1" viewBox="0 0 2880 1800" width="100%" xml:space="preserve" xmlns="http://www.w3.org/2000/svg" xmlns:vectornator="http://vectornator.io" xmlns:xlink="http://www.w3.org/1999/xlink">
<defs/>
<g id="Layer-1" vectornator:layerName="Layer 1">
<g opacity="1" vectornator:layerName="g">
<path d="M1055.02 1279.32C1052.63 1282.51 1049.42 1284.1 1045.42 1284.1C1039.02 1283.31 1033.02 1283.1 1027.43 1283.51C1021.82 1283.91 1016.21 1284.1 1010.63 1284.1L1004.63 1284.1L1004.63 1290.11L1004.63 1350.1L1004.63 1354.9C1003.02 1359.69 1000.62 1362.1 997.427 1362.1C996.618 1362.89 995.42 1363.3 993.833 1363.3L951.832 1363.3C950.215 1363.3 949.223 1363.11 948.833 1362.69C948.422 1362.3 947.422 1362.08 945.835 1362.08C942.623 1360.5 941.036 1358.5 941.036 1356.09L941.036 1348.88L941.036 1140.13L941.036 882.142L941.036 874.947C940.227 874.153 939.022 874.542 937.435 876.145C933.429 881.752 929.814 887.36 926.639 892.945C923.427 898.552 919.826 904.153 915.835 909.738C902.232 929.735 888.841 949.747 875.642 969.737C862.443 989.735 849.038 1009.74 835.449 1029.73C833.832 1032.93 831.848 1034.53 829.445 1034.53C824.646 1036.14 821.045 1034.94 818.649 1030.93L816.246 1028.53C801.04 1005.34 785.827 982.143 770.651 958.934C755.445 935.747 739.843 912.553 723.857 889.344C723.047 888.55 721.847 886.551 720.257 883.339C719.447 884.949 719.057 886.154 719.057 886.941L719.057 892.945L719.057 1347.69L719.057 1354.9C717.448 1359.69 714.658 1362.1 710.658 1362.1C709.848 1362.89 708.648 1363.3 707.058 1363.3L660.263 1363.3C657.863 1363.3 656.253 1362.89 655.463 1362.1C651.454 1362.1 649.464 1359.7 649.464 1354.9C648.654 1354.11 648.264 1352.5 648.264 1350.1L648.264 1290.11L648.264 1284.1C647.454 1284.1 646.654 1283.91 645.864 1283.51C645.055 1283.1 644.254 1282.9 643.464 1282.9L614.667 1282.9L609.868 1282.9C606.658 1282.12 604.658 1280.1 603.868 1276.89L603.868 1273.3L603.868 1268.51L603.868 606.169L603.868 600.17C603.868 595.37 606.658 592.181 612.267 590.571L615.867 590.571L707.058 590.571L710.658 590.571C712.248 590.571 714.257 591.771 716.657 594.17C716.657 594.98 717.448 596.18 719.057 597.77C734.243 620.978 749.243 643.576 764.051 665.564C778.838 687.572 793.448 709.769 807.845 732.157C811.035 736.166 814.041 740.556 816.848 745.356C819.641 750.156 822.639 754.555 825.844 758.554C827.439 760.165 828.636 761.765 829.445 763.354C830.239 762.564 831.437 760.954 833.046 758.554C840.248 747.356 847.443 736.567 854.645 726.158C861.84 715.769 869.432 704.97 877.443 693.761C887.827 677.763 898.028 661.964 908.038 646.365C918.04 630.767 928.63 614.978 939.838 598.97C943.027 594.98 945.232 592.57 946.438 591.771C947.635 590.981 950.634 590.571 955.433 590.571L1040.63 590.571L1043.03 590.571C1047.83 590.571 1051.82 592.181 1055.02 595.37L1055.02 1279.32ZM648.264 1263.71L648.264 1255.31L648.264 781.353L648.264 775.353C648.264 773.753 648.664 772.163 649.464 770.554C649.464 768.153 651.864 766.164 656.663 764.554C659.063 762.954 661.853 763.764 665.062 766.954C665.062 767.764 665.852 768.963 667.462 770.554L696.259 813.749C696.259 815.359 697.459 816.559 699.859 817.349L699.859 811.349L699.859 751.355L699.859 744.156C701.449 740.167 702.648 738.157 703.458 738.157C709.858 734.967 714.658 736.166 717.857 741.756C728.246 756.965 738.447 771.963 748.456 786.752C758.451 801.561 768.255 816.149 777.853 830.548C778.64 832.157 779.845 833.748 781.454 835.347C783.85 832.157 786.04 829.158 788.054 826.348C790.038 823.559 792.25 820.559 794.646 817.349C796.241 814.159 798.042 811.16 800.048 808.35C802.04 805.56 804.252 802.55 806.648 799.351C808.235 796.161 810.249 793.161 812.645 790.352C815.048 787.552 817.039 784.552 818.649 781.353C817.84 779.762 817.238 778.763 816.848 778.353C816.429 777.953 815.827 776.963 815.048 775.353C806.236 762.564 797.439 749.755 788.649 736.957C779.845 724.168 771.055 710.969 762.251 697.36C753.446 682.962 744.252 668.773 734.654 654.765C725.056 640.776 715.857 626.567 707.058 612.169L704.658 609.769L623.066 609.769L621.866 610.969L621.866 616.968C621.866 620.978 622.057 625.177 622.467 629.567C622.856 633.966 623.066 638.166 623.066 642.166L623.066 1255.31L623.066 1261.3L623.066 1263.71C625.466 1264.51 629.466 1264.9 635.065 1264.9C640.655 1264.9 645.064 1264.51 648.264 1263.71ZM699.859 1342.9L699.859 1335.7L699.859 860.542L699.859 856.948C699.859 853.759 699.049 851.752 697.459 850.944C689.45 837.357 680.241 823.348 669.862 808.95C669.862 807.35 669.052 806.96 667.462 807.75L667.462 813.749L667.462 1335.7L667.462 1340.49L668.662 1342.89L699.859 1342.89L699.859 1342.9ZM720.257 777.753C719.447 779.362 719.057 781.353 719.057 783.752L719.057 842.547C719.057 845.756 719.847 848.952 721.457 852.142C728.657 863.364 735.646 873.955 742.452 883.942C749.243 893.952 756.254 904.153 763.456 914.537C773.054 929.75 782.843 944.537 792.853 958.934C802.848 973.331 812.645 988.14 822.25 1003.33C823.036 1004.14 823.639 1004.94 824.051 1005.73C824.447 1006.54 825.44 1007.34 827.049 1008.13C827.835 1007.34 828.438 1006.54 828.85 1005.73C829.246 1004.94 829.849 1004.13 830.643 1003.33C837.845 992.145 845.224 980.945 852.845 969.737C860.444 958.537 867.845 947.344 875.04 936.136C886.233 920.152 896.83 904.549 906.84 889.344C916.827 874.153 927.028 858.558 937.435 842.547C939.838 840.147 941.036 837.347 941.036 834.147C940.227 825.358 940.014 816.559 940.433 807.75C940.837 798.961 941.036 790.161 941.036 781.353C941.036 780.563 940.823 779.963 940.433 779.553C940.014 779.153 939.838 778.552 939.838 777.753C938.228 778.563 937.435 779.362 937.435 780.152C937.435 780.962 937.016 781.763 936.237 782.552C928.226 794.551 920.215 806.55 912.241 818.549C904.231 830.548 896.22 842.956 888.239 855.743L884.638 859.344C883.028 860.954 881.83 861.747 881.044 861.747C875.429 863.364 871.446 862.166 869.043 858.146L866.639 853.347C861.032 844.556 855.424 836.157 849.846 828.148C844.232 820.159 838.639 811.759 833.046 802.951C832.238 802.16 831.848 801.36 831.848 800.55C831.848 799.761 831.04 799.351 829.445 799.351L827.049 801.75C820.626 810.559 814.835 819.149 809.646 827.548C804.435 835.947 798.637 844.556 792.25 853.347C791.442 854.957 790.839 855.956 790.45 856.346C790.031 856.765 789.443 857.757 788.649 859.344C787.04 860.954 785.048 861.747 782.652 861.747C778.64 863.364 775.45 861.747 773.054 856.948C772.238 856.155 771.849 855.354 771.849 854.545C763.044 842.547 754.843 830.758 747.251 819.149C739.644 807.56 731.832 795.751 723.857 783.752C723.047 782.962 721.847 780.962 720.257 777.753ZM1037.02 1263.71L1037.02 1255.31L1037.02 723.758C1037.02 705.369 1036.82 686.971 1036.43 668.563C1036 650.175 1036.22 631.777 1037.02 613.369L1037.02 609.769L954.235 609.769C953.427 610.579 953.037 611.179 953.037 611.569C953.037 611.988 952.626 612.589 951.832 613.369C946.224 622.177 940.617 631.177 935.039 640.366C929.424 649.565 923.427 658.564 917.041 667.364L845.047 775.353C844.232 776.963 843.438 777.953 842.644 778.353C841.836 778.763 841.446 779.762 841.446 781.353C842.233 782.162 842.644 782.972 842.644 783.752C848.237 791.761 853.844 799.761 859.445 807.75C865.03 815.759 870.645 824.158 876.245 832.947L878.641 835.347C879.434 833.748 880.03 832.758 880.441 832.347C880.838 831.957 881.433 830.958 882.242 829.348C891.84 815.759 901.438 801.961 911.036 787.951C920.634 773.963 930.629 759.755 941.036 745.356C943.432 742.166 946.629 740.556 950.634 740.556C956.227 742.166 959.034 744.956 959.034 748.956L959.034 752.555L959.034 772.953L959.034 805.35C959.034 806.96 959.431 807.75 960.232 807.75C961.827 806.16 963.025 804.56 963.833 802.951C967.824 798.151 971.425 793.161 974.629 787.951C977.819 782.753 981.42 777.353 985.433 771.753C985.433 770.964 986.219 769.764 987.828 768.153C990.232 764.164 993.421 762.954 997.427 764.554C1001.42 766.164 1003.82 768.954 1004.63 772.953L1004.63 778.952L1004.63 1254.11L1004.63 1260.11L1004.63 1263.71C1007.03 1264.51 1012.22 1264.9 1020.23 1264.9C1028.22 1264.9 1033.82 1264.51 1037.02 1263.71ZM984.235 1342.9C984.235 1342.12 984.418 1329.1 984.83 1303.9C985.234 1278.71 985.433 1247.12 985.433 1209.12C985.433 1171.14 985.433 1129.93 985.433 1085.53C985.433 1041.14 985.433 999.34 985.433 960.146C985.433 920.96 985.433 887.36 985.433 859.352C985.433 831.368 985.433 814.569 985.433 808.96C985.433 808.17 985.014 807.36 984.235 806.56C983.419 807.37 983.029 807.97 983.029 808.36C983.029 808.77 982.625 809.369 981.831 810.159C974.629 821.368 967.824 831.368 961.43 840.157C959.813 843.357 959.034 846.156 959.034 848.556L959.034 910.951L959.034 1335.71L959.034 1340.5C959.034 1341.31 959.431 1342.12 960.232 1342.9C961.827 1343.7 965.435 1344.1 971.035 1344.1C976.621 1344.1 981.03 1343.7 984.235 1342.9Z" fill="none" opacity="1" stroke="#ffffff" stroke-linecap="butt" stroke-linejoin="miter" stroke-width="10" vectornator:layerName="path"/>
<path d="M1391.6 592.916L1521.18 592.916C1526.79 592.916 1530.79 593.336 1533.19 594.116C1537.17 594.116 1539.19 596.126 1539.19 600.116C1539.97 602.515 1540.4 605.325 1540.4 608.514L1540.4 670.909C1540.4 674.918 1539.97 678.108 1539.19 680.508C1539.19 683.708 1537.59 685.307 1534.39 685.307C1533.59 685.307 1532.79 685.517 1531.99 685.907C1531.19 686.317 1530.39 686.507 1529.61 686.507L1518.81 686.507L1313.62 686.507C1280.81 686.507 1250.81 694.116 1223.63 709.305C1216.43 713.315 1212.23 716.114 1211.03 717.704C1209.83 719.324 1208.42 724.513 1206.83 733.302C1202.82 754.121 1202.03 773.309 1204.43 790.897C1206.02 804.506 1208.42 817.295 1211.63 829.293C1222.83 860.491 1241.63 884.905 1268.03 902.484C1288.81 915.294 1312.82 924.084 1340.02 928.883C1344.02 929.691 1348.22 930.081 1352.62 930.081C1357.02 930.081 1361.21 930.081 1365.21 930.081C1381.21 930.081 1396.42 932.484 1410.82 937.283C1430.8 942.082 1448.81 949.703 1464.82 960.08C1502.42 983.289 1526 1016.08 1535.61 1058.47C1538.01 1068.88 1539.4 1079.29 1539.81 1089.67C1540.2 1100.08 1540.42 1110.88 1540.42 1122.07C1538.8 1136.46 1536.4 1150.86 1533.21 1165.25C1524.4 1197.26 1508.41 1222.46 1485.2 1240.85L1481.62 1244.44C1479.21 1246.06 1478.02 1248.05 1478.02 1250.45C1476.41 1252.07 1475.63 1254.05 1475.63 1256.46C1464.41 1282.85 1447.62 1304.44 1425.22 1321.24C1399.61 1339.65 1371.64 1351.66 1341.22 1357.24C1334.82 1358.05 1329.04 1358.65 1323.85 1359.05C1318.64 1359.46 1312.83 1359.65 1306.45 1359.65L1227.26 1359.65L1107.27 1359.65C1102.47 1359.65 1098.87 1359.25 1096.47 1358.45C1091.67 1358.45 1089.27 1356.05 1089.27 1351.25L1089.27 1346.47L1089.27 1282.86C1089.27 1278.07 1089.66 1274.46 1090.48 1272.07C1092.06 1268.88 1094.06 1267.27 1096.47 1267.27L1103.67 1267.27L1126.47 1267.27C1149.66 1267.27 1172.66 1267.08 1195.46 1266.67C1218.25 1266.28 1241.25 1266.47 1264.45 1267.27C1296.43 1267.27 1326.43 1259.29 1354.44 1243.28C1358.44 1241.68 1361.84 1239.68 1364.65 1237.27C1367.43 1234.88 1370.42 1232.89 1373.63 1231.27C1396.82 1212.89 1412.02 1189.69 1419.23 1161.68C1421.63 1154.48 1423.23 1147.49 1424.03 1140.68C1424.81 1133.88 1425.61 1126.89 1426.43 1119.68C1427.21 1106.09 1426.43 1090.87 1424.03 1074.08C1424.03 1071.68 1423.23 1068.88 1421.63 1065.68C1421.63 1064.08 1420.83 1062.49 1419.23 1060.88C1415.23 1056.89 1411.03 1053.68 1406.63 1051.28C1402.22 1048.88 1397.63 1046.49 1392.82 1044.08C1379.21 1037.7 1365.62 1032.49 1352.03 1028.49C1338.42 1024.5 1324.02 1022.48 1308.85 1022.48C1288.03 1022.48 1268.64 1019.31 1250.66 1012.88C1232.65 1006.5 1215.25 997.694 1198.47 986.486C1172.05 968.098 1153.25 942.905 1142.06 910.892C1142.06 909.297 1141.85 908.305 1141.46 907.893C1141.05 907.504 1140.85 906.504 1140.85 904.895C1139.24 901.705 1137.26 898.508 1134.85 895.297C1111.64 872.11 1097.65 842.912 1092.85 807.705C1091.24 797.317 1090.24 786.917 1089.85 776.509C1089.44 766.119 1089.64 755.71 1090.46 745.311C1091.24 738.112 1092.44 731.323 1094.05 724.913C1095.64 718.524 1097.24 712.125 1098.85 705.715C1110.04 673.728 1128.85 648.53 1155.24 630.123C1182.44 610.924 1212.43 598.925 1245.24 594.126C1249.23 594.126 1253.22 593.936 1257.24 593.526C1261.23 593.136 1265.23 592.926 1269.24 592.926L1391.6 592.926L1391.6 592.916ZM1246.42 1285.24L1155.21 1285.24L1118.02 1285.24C1114.81 1285.24 1112.41 1285.65 1110.81 1286.45C1109.2 1286.45 1108.42 1287.25 1108.42 1288.84L1108.42 1294.85C1107.61 1301.25 1107.4 1307.24 1107.81 1312.84C1108.21 1318.46 1108.42 1324.45 1108.42 1330.84L1108.42 1336.85C1108.42 1339.24 1109.62 1340.44 1112.01 1340.44L1122.81 1340.44L1260.79 1340.44L1309.99 1340.44C1313.99 1340.44 1318.19 1340.44 1322.59 1340.44C1326.99 1340.44 1331.59 1340.04 1336.4 1339.24C1362.79 1334.44 1385.98 1325.26 1405.98 1311.65C1422.78 1302.05 1435.98 1288.85 1445.59 1272.05C1447.17 1270.46 1448.38 1268.86 1449.18 1267.25L1449.18 1266.05L1446.77 1266.05C1445.18 1266.86 1441.98 1268.06 1437.19 1269.65C1424.38 1275.26 1411.57 1279.45 1398.79 1282.25C1385.98 1285.06 1372.77 1286.06 1359.19 1285.25L1350.79 1285.25L1246.42 1285.25L1246.42 1285.24ZM1132.42 859.293L1131.22 859.293C1132.81 857.698 1133.42 855.897 1133.03 853.891C1132.62 851.899 1132.42 850.099 1132.42 848.489C1132.42 833.303 1133.62 818.494 1136.02 804.096C1140.01 785.708 1146.01 768.699 1154.02 753.101C1162.01 737.502 1173.62 723.704 1188.82 711.704C1192.8 707.715 1195.2 704.105 1196.01 700.906C1196.01 699.306 1196.8 697.716 1198.41 696.106C1208.79 671.318 1223.61 651.32 1242.8 636.112C1246.79 632.122 1251 628.912 1255.41 626.513C1259.79 624.113 1264.4 621.313 1269.2 618.113C1270.8 617.324 1271.8 616.724 1272.21 616.314C1272.6 615.914 1273.6 615.314 1275.21 614.514L1275.21 613.314C1262.42 611.725 1250.8 612.114 1240.41 614.514C1212.4 619.313 1187.61 629.322 1166.02 644.511C1144.42 659.72 1128.82 679.718 1119.22 704.505C1113.61 719.714 1110.01 736.112 1108.42 753.7C1108.42 762.51 1108.42 771.099 1108.42 779.498C1108.42 787.897 1109.2 796.507 1110.81 805.296C1112.41 814.104 1114.6 822.504 1117.41 830.493C1120.2 838.502 1123.6 846.501 1127.62 854.494C1127.62 855.302 1128.4 856.5 1130.02 858.087C1130.81 858.087 1131.62 858.499 1132.42 859.293ZM1276.41 930.081L1275.21 927.685C1271.21 925.282 1267.42 922.886 1263.81 920.483C1260.21 918.087 1256.4 915.684 1252.41 913.288C1224.4 894.084 1204.8 867.693 1193.61 834.093C1191.21 825.304 1189.21 816.694 1187.61 808.296C1186 799.896 1185.21 791.307 1185.21 782.498C1183.6 768.909 1184.02 756.91 1186.41 746.501C1186.41 744.902 1186 744.101 1185.21 744.101L1185.21 742.901L1184.02 742.901L1180.42 746.501C1172.41 756.91 1166.03 768.509 1161.21 781.298C1158.82 788.497 1156.82 795.897 1155.21 803.496C1153.61 811.105 1152.82 818.915 1152.82 826.894C1152.02 836.492 1151.8 846.091 1152.22 855.692C1152.61 865.29 1153.61 874.888 1155.21 884.486C1155.21 886.889 1156.8 889.697 1160.01 892.886C1168 899.309 1177.2 905.299 1187.61 910.884C1206.81 921.291 1229.19 927.685 1254.8 930.081L1276.41 930.081ZM1408.39 1029.67C1408.39 1030.49 1408.78 1030.88 1409.6 1030.88L1409.6 1029.67C1409.6 1028.88 1409.17 1028.88 1408.39 1029.67C1408.39 1027.27 1407.98 1025.69 1407.2 1024.87C1402.4 1015.27 1395.58 1006.09 1386.8 997.275C1374 984.502 1359.98 974.477 1344.81 967.283C1317.6 954.502 1291.21 948.505 1265.62 949.284C1259.18 949.284 1253.41 948.88 1248.22 948.079C1243.01 947.293 1237.61 946.492 1232.01 945.683C1223.21 944.081 1214.41 941.479 1205.62 937.886C1196.81 934.284 1188.01 930.492 1179.22 926.487C1177.62 925.693 1176.21 925.091 1175.02 924.686C1173.82 924.282 1172.41 923.687 1170.82 922.886C1170.02 922.886 1169.63 923.305 1169.63 924.084C1168.81 924.084 1168.81 924.503 1169.63 925.282C1172.02 930.896 1175.21 936.489 1179.22 942.082C1192.81 960.492 1209.61 974.477 1229.63 984.076C1255.22 997.686 1282.42 1004.48 1311.2 1004.48C1316.81 1004.48 1322.2 1004.68 1327.41 1005.08C1332.61 1005.48 1338 1006.09 1343.6 1006.87C1360.41 1010.08 1377.21 1015.68 1394 1023.67C1395.58 1025.28 1397.4 1026.28 1399.39 1026.67C1401.39 1027.08 1403.18 1028.08 1404.8 1029.67L1408.39 1029.67ZM1404.8 667.309L1505.59 667.309L1516.39 667.309C1519.57 667.309 1521.18 665.319 1521.18 661.309L1521.18 660.11L1521.18 619.313L1521.18 615.714C1521.18 613.314 1519.99 612.114 1517.59 612.114L1508 612.114L1362.81 612.114C1358.8 612.114 1354.61 612.324 1350.21 612.715C1345.82 613.134 1341.62 613.734 1337.61 614.514C1324 616.124 1311.61 619.313 1300.42 624.113C1289.19 628.912 1278.01 634.522 1266.81 640.911C1250.02 652.12 1236.82 665.319 1227.23 680.508C1225.62 682.117 1224.83 683.317 1224.83 684.107L1224.83 686.507L1226.03 687.707C1228.43 686.917 1231.22 685.717 1234.42 684.107C1260.82 672.918 1287.22 667.309 1313.61 667.309L1404.8 667.309ZM1354.39 949.284C1352.8 950.894 1353.2 951.68 1355.61 951.68L1373.6 962.484C1401.61 980.092 1420.8 1003.7 1431.19 1033.27C1434.39 1039.69 1436.39 1044.49 1437.21 1047.67C1438.79 1052.48 1440.8 1055.68 1443.21 1057.27C1462.41 1076.47 1475.19 1100.47 1481.6 1129.27C1488 1153.26 1490 1176.47 1487.61 1198.86C1487.61 1202.87 1487.19 1206.06 1486.42 1208.46L1487.61 1209.65C1488.39 1210.47 1489.2 1210.47 1490 1209.65C1491.6 1208.07 1492.41 1206.87 1492.41 1206.06C1495.58 1202.08 1498.4 1198.07 1500.81 1194.07C1503.2 1190.07 1505.6 1186.08 1508.02 1182.07C1511.99 1173.27 1514.79 1164.67 1516.41 1156.27C1517.99 1147.86 1519.59 1139.29 1521.2 1130.47C1522 1120.09 1522.2 1110.08 1521.81 1100.48C1521.4 1090.87 1520.4 1080.89 1518.82 1070.48C1516.42 1054.48 1511.2 1039.69 1503.21 1026.08C1496.8 1014.08 1489 1003.7 1479.82 994.886C1470.59 986.097 1460.41 978.498 1449.21 972.089C1434.82 964.1 1419.6 958.103 1403.6 954.091C1394.79 952.503 1386.61 951.092 1379.01 949.894C1371.39 948.682 1363.21 948.491 1354.39 949.284ZM1469.59 1176.06C1468.78 1168.86 1467.98 1161.47 1467.2 1153.87C1466.37 1146.27 1465.18 1138.48 1463.59 1130.47C1461.99 1124.06 1460 1117.87 1457.58 1111.86C1455.19 1105.87 1451.98 1100.07 1447.99 1094.47C1447.18 1094.47 1446.79 1094.06 1446.79 1093.27C1445.99 1093.27 1445.6 1094.08 1445.6 1095.67C1445.6 1098.07 1445.6 1100.66 1445.6 1103.46C1445.6 1106.28 1445.19 1109.28 1444.39 1112.47C1444.39 1121.28 1443.8 1130.08 1442.59 1138.87C1441.4 1147.68 1439.99 1156.47 1438.39 1165.26C1428.8 1200.47 1409.99 1227.65 1381.98 1246.86C1376.38 1250.86 1370 1254.86 1362.79 1258.85C1361.18 1260.46 1358.79 1262.06 1355.6 1263.64C1353.2 1263.64 1352.78 1264.45 1354.39 1266.04C1355.19 1266.04 1355.6 1266.25 1355.6 1266.65C1355.6 1267.06 1355.99 1267.25 1356.79 1267.25C1374.38 1267.25 1392.37 1264.86 1410.78 1260.05C1425.98 1255.26 1441.17 1248.47 1456.39 1239.65C1461.18 1236.46 1463.99 1232.45 1464.79 1227.65C1464.79 1226.87 1464.96 1226.06 1465.4 1225.26C1465.79 1224.48 1465.99 1223.67 1465.99 1222.85C1468.39 1208.46 1469.59 1192.85 1469.59 1176.06Z" fill="none" opacity="1" stroke="#ffffff" stroke-linecap="butt" stroke-linejoin="miter" stroke-width="10" vectornator:layerName="path"/>
<path d="M389.24 981.996C389.24 602.551 696.839 294.952 1076.28 294.952C1455.73 294.952 1763.32 602.551 1763.32 981.996C1763.32 1361.44 1455.73 1669.03 1076.28 1669.03C696.839 1669.03 389.24 1361.44 389.24 981.996Z" fill="none" opacity="1" stroke="#ffffff" stroke-linecap="butt" stroke-linejoin="miter" stroke-width="10" vectornator:layerName="path"/>
</g>
</g>
</svg>
