<svg xmlns="http://www.w3.org/2000/svg" width="1440" height="100%" viewBox="0 0 1440 4860" preserveAspectRatio="xMaxYMin meet">
  <g id="smlrecs" transform="translate(131.566 -411.434)" opacity="0.52">
    <g id="Rectangle_763" data-name="Rectangle 763" transform="translate(-131.566 5148) rotate(-34)" fill="none" stroke="#2985aa" stroke-width="49">
      <rect width="654" height="320" rx="70" stroke="none"/>
      <rect x="24.5" y="24.5" width="605" height="271" rx="45.5" fill="none"/>
    </g>
    <g id="Rectangle_764" data-name="Rectangle 764" transform="translate(458.901 5056) rotate(-34)" fill="none" stroke="#2985aa" stroke-width="49">
      <rect width="848" height="262" rx="70" stroke="none"/>
      <rect x="24.5" y="24.5" width="799" height="213" rx="45.5" fill="none"/>
    </g>
    <g id="Rectangle_765" data-name="Rectangle 765" transform="matrix(0.799, -0.602, 0.602, 0.799, 70.754, 3989.483)" fill="none" stroke="#2985aa" stroke-width="49">
      <rect width="654" height="431" rx="70" stroke="none"/>
      <rect x="24.5" y="24.5" width="605" height="382" rx="45.5" fill="none"/>
    </g>
    <g id="Rectangle_767" data-name="Rectangle 767" transform="translate(105.106 2456.894) rotate(-34)" fill="none" stroke="#2985aa" stroke-width="49">
      <rect width="654" height="509" rx="70" stroke="none"/>
      <rect x="24.5" y="24.5" width="605" height="460" rx="45.5" fill="none"/>
    </g>
    <g id="Rectangle_768" data-name="Rectangle 768" transform="translate(886.57 1363.712) rotate(-34)" fill="none" stroke="#2985aa" stroke-width="49">
      <rect width="150" height="320" rx="70" stroke="none"/>
      <rect x="24.5" y="24.5" width="101" height="271" rx="45.5" fill="none"/>
    </g>
    <g id="Rectangle_771" data-name="Rectangle 771" transform="translate(265.79 411.434) rotate(56)" fill="none" stroke="#2985aa" stroke-width="49">
      <rect width="654" height="320" rx="70" stroke="none"/>
      <rect x="24.5" y="24.5" width="605" height="271" rx="45.5" fill="none"/>
    </g>
    <g id="Rectangle_77 2" data-name="Rectangle 772" transform="translate(904.091 3283.939) rotate(56)" fill="none" stroke="#2985aa" stroke-width="49">
      <rect width="654" height="207" rx="70" stroke="none"/>
      <rect x="24.5" y="24.5" width="605" height="158" rx="45.5" fill="none"/>
    </g>
  </g>
</svg>