<?xml version="1.0" standalone="no"?>
<!DOCTYPE svg PUBLIC "-//W3C//DTD SVG 1.1//EN" "http://www.w3.org/Graphics/SVG/1.1/DTD/svg11.dtd" >
<svg xmlns="http://www.w3.org/2000/svg" xmlns:xlink="http://www.w3.org/1999/xlink" version="1.1">
<metadata>
Created by FontForge 20170731 at Mon Oct  1 03:30:37 2018
 By Aleksey,,,
Copyright (c) 2015 by Nikita Prokopov
</metadata>
<defs>
<font id="FiraCode-Retina" horiz-adv-x="600" >
  <font-face 
    font-family="Fira Code Retina"
    font-weight="450"
    font-stretch="normal"
    units-per-em="1000"
    panose-1="2 11 5 9 5 0 0 2 0 4"
    ascent="800"
    descent="-200"
    x-height="527"
    cap-height="689"
    bbox="-1781 -500 1192 1050"
    underline-thickness="50"
    underline-position="-200"
    unicode-range="U+000D-1F310"
  />
<missing-glyph 
d="M90 1050h420v-1400h-420v1400zM456 -298v1296h-311v-1296h311zM307 173q0 -11 -7.5 -17.5t-17.5 -6.5t-17.5 6.5t-7.5 17.5v84q53 3 72 19.5t19 57.5q0 33 -13 51t-48 18q-29 0 -52 -11q-7 -3 -13 -3q-24 0 -24 23q0 19 29.5 29t63.5 10q111 0 111 -115q0 -104 -95 -118
v-45zM247 85q0 15 10 25t25 10t25 -10t10 -25q0 -16 -10 -26.5t-25 -10.5t-25 10.5t-10 26.5z" />
    <glyph glyph-name=".notdef" 
d="M90 1050h420v-1400h-420v1400zM456 -298v1296h-311v-1296h311zM307 173q0 -11 -7.5 -17.5t-17.5 -6.5t-17.5 6.5t-7.5 17.5v84q53 3 72 19.5t19 57.5q0 33 -13 51t-48 18q-29 0 -52 -11q-7 -3 -13 -3q-24 0 -24 23q0 19 29.5 29t63.5 10q111 0 111 -115q0 -104 -95 -118
v-45zM247 85q0 15 10 25t25 10t25 -10t10 -25q0 -16 -10 -26.5t-25 -10.5t-25 10.5t-10 26.5z" />
    <glyph glyph-name=".null" horiz-adv-x="0" 
 />
    <glyph glyph-name="nonmarkingreturn" horiz-adv-x="333" 
 />
    <glyph glyph-name="CR" unicode="&#xd;" 
 />
    <glyph glyph-name="space" unicode=" " 
 />
    <glyph glyph-name="exclam" unicode="!" 
d="M351 689l-10 -457h-84l-12 457h106zM299 129q31 0 51 -20.5t20 -49.5q0 -30 -20 -50.5t-51 -20.5q-30 0 -50 20.5t-20 50.5q0 29 20 49.5t50 20.5z" />
    <glyph glyph-name="quotedbl" unicode="&#x22;" 
d="M174 476l-16 263h113l-17 -263h-80zM346 476l-17 263h113l-16 -263h-80z" />
    <glyph glyph-name="numbersign" unicode="#" 
d="M464 454l-29 -217h78v-71h-88l-21 -166h-81l22 166h-138l-22 -166h-81l22 166h-76v71h85l30 217h-78v73h87l22 162h81l-22 -162h138l22 162h81l-23 -162h77v-73h-86zM216 237h138l30 217h-139z" />
    <glyph glyph-name="dollar" unicode="$" 
d="M346 849v-149q108 -11 186 -80l-55 -58q-56 52 -131 61v-219q91 -29 143 -78t52 -134q0 -77 -51 -132.5t-144 -67.5v-146h-70v143q-123 8 -211 94l54 61q70 -70 157 -77v265q-93 32 -139.5 78.5t-46.5 114.5q0 67 48.5 116t137.5 58v150h70zM276 621q-41 -7 -64.5 -30.5
t-23.5 -61.5q0 -34 19 -57.5t69 -43.5v193zM346 308v-237q95 20 95 117q0 41 -21.5 69t-73.5 51z" />
    <glyph glyph-name="percent" unicode="%" 
d="M492 708l58 -35l-452 -694l-57 35zM163 702q67 0 106.5 -46t39.5 -114t-39.5 -114.5t-106.5 -46.5t-107 46.5t-40 114.5t39.5 114t107.5 46zM163 639q-30 0 -47.5 -24.5t-17.5 -72.5q0 -46 17.5 -72.5t47.5 -26.5q64 0 64 99q0 97 -64 97zM439 315q67 0 106.5 -46
t39.5 -114t-39.5 -114.5t-106.5 -46.5t-107 46.5t-40 114.5t39.5 114t107.5 46zM439 252q-65 0 -65 -97q0 -46 17.5 -72.5t47.5 -26.5q64 0 64 99q0 97 -64 97z" />
    <glyph glyph-name="ampersand" unicode="&#x26;" 
d="M279 701q103 0 171 -76l-55 -50q-51 55 -114 55q-49 0 -74.5 -26.5t-25.5 -71.5t34 -77.5t84 -32.5h275v-72h-85v-271q-75 -91 -212 -91q-110 0 -168 60t-58 147q0 78 40 127t116 65v3q-120 29 -120 145q0 70 53 118t139 48zM401 350h-114q-69 0 -105.5 -45.5
t-36.5 -104.5t34.5 -98t101.5 -39q79 0 120 49v238z" />
    <glyph glyph-name="quotesingle" unicode="'" 
d="M260 476l-16 263h112l-16 -263h-80z" />
    <glyph glyph-name="parenleft" unicode="(" 
d="M221 350q0 -145 48 -241t161 -200l-51 -52q-87 71 -140.5 137t-85.5 156t-32 200t32 200t85.5 156t140.5 137l51 -52q-113 -104 -161 -199.5t-48 -241.5z" />
    <glyph glyph-name="parenright" unicode=")" 
d="M379 350q0 146 -48 241.5t-161 199.5l51 52q87 -71 140.5 -137t85.5 -156t32 -200t-32 -200t-85.5 -156t-140.5 -137l-51 52q113 104 161 200t48 241z" />
    <glyph glyph-name="asterisk" unicode="*" 
d="M252 581l9 -200l-187 69l-29 -89l192 -54l-124 -157l76 -55l111 167l111 -167l76 55l-124 157l192 54l-29 89l-187 -69l9 200h-96z" />
    <glyph glyph-name="plus" unicode="+" 
d="M342 551v-201h198v-78h-198v-200h-86v200h-196v78h196v201h86z" />
    <glyph glyph-name="comma" unicode="," 
d="M300 171q37 0 61.5 -24.5t24.5 -59.5q0 -37 -24 -88l-79 -182h-81l48 200q-35 25 -35 70q0 35 24.5 59.5t60.5 24.5z" />
    <glyph glyph-name="hyphen" unicode="-" 
d="M97 273v80h406v-80h-406z" />
    <glyph glyph-name="period" unicode="." 
d="M208 80q0 38 26 64.5t65 26.5t65.5 -26.5t26.5 -64.5q0 -39 -26 -65.5t-66 -26.5q-39 0 -65 26.5t-26 65.5z" />
    <glyph glyph-name="slash" unicode="/" 
d="M126 -104l-77 34l426 880l76 -36z" />
    <glyph glyph-name="zero" unicode="0" 
d="M300 702q112 0 170.5 -92.5t58.5 -264.5q0 -173 -58.5 -265t-170.5 -92t-170.5 92t-58.5 265q0 172 58.5 264.5t170.5 92.5zM300 626q-131 0 -131 -281q0 -113 16 -174l204 412q-30 43 -89 43zM300 63q131 0 131 282q0 103 -14 168l-202 -411q29 -39 85 -39z" />
    <glyph glyph-name="one" unicode="1" 
d="M382 77h141v-77h-406v77h169v511l-155 -95l-42 68l208 128h85v-612z" />
    <glyph glyph-name="two" unicode="2" 
d="M270 702q99 0 156 -55t57 -139q0 -91 -65 -181t-238 -247h319l-11 -80h-418v75q193 186 253 267.5t60 161.5q0 55 -31.5 87t-86.5 32q-47 0 -79.5 -17t-65.5 -56l-64 50q82 102 214 102z" />
    <glyph glyph-name="three" unicode="3" 
d="M269 702q97 0 156.5 -50.5t59.5 -123.5q0 -61 -39 -105t-97 -56q67 -6 112.5 -49.5t45.5 -119.5q0 -90 -68 -150t-176 -60q-140 0 -217 93l62 52q58 -68 151 -68q69 0 108.5 36t39.5 98q0 127 -139 127h-58l11 73h41q53 0 90 30t37 86q0 52 -35.5 81.5t-90.5 29.5
q-78 0 -144 -63l-52 57q86 82 202 82z" />
    <glyph glyph-name="four" unicode="4" 
d="M532 240v-76h-86v-164h-92v164h-286v68l200 470l80 -33l-179 -429h186l8 190h83v-190h86z" />
    <glyph glyph-name="five" unicode="5" 
d="M492 689l-14 -74h-269v-207q54 29 116 29q86 0 138 -57.5t52 -159.5q0 -105 -65.5 -168.5t-173.5 -63.5q-121 0 -205 86l58 56q62 -65 145 -65q67 0 104 40.5t37 115.5q0 143 -120 143q-45 0 -103 -23h-75v348h375z" />
    <glyph glyph-name="six" unicode="6" 
d="M335 451q84 0 139.5 -57t55.5 -162q0 -110 -63 -177t-159 -67q-234 0 -234 335q0 174 70.5 276.5t193.5 102.5q76 0 139 -42l-38 -63q-47 29 -102 29q-74 0 -118 -70.5t-47 -192.5q63 88 163 88zM308 63q61 0 92.5 44t31.5 122q0 147 -115 147q-89 0 -144 -90
q2 -116 34 -169.5t101 -53.5z" />
    <glyph glyph-name="seven" unicode="7" 
d="M236 -10l-90 27l266 595h-320v77h417v-71z" />
    <glyph glyph-name="eight" unicode="8" 
d="M510 525q0 -49 -29 -85.5t-88 -69.5q145 -61 145 -185q0 -86 -65 -141.5t-175 -55.5t-173 55t-63 140q0 117 136 179q-56 28 -82 64.5t-26 93.5q0 87 64 134.5t146 47.5q87 0 148.5 -46t61.5 -131zM183 519q0 -51 32.5 -75t111.5 -50q48 28 69 56t21 71q0 50 -30.5 79
t-86.5 29t-86.5 -29t-30.5 -81zM438 184q0 32 -11 55t-39 41t-52 27.5t-74 27.5q-100 -48 -100 -150q0 -57 35 -89.5t101 -32.5q67 0 103.5 34t36.5 87z" />
    <glyph glyph-name="nine" unicode="9" 
d="M290 701q114 0 172 -71t58 -197q0 -108 -21 -183t-69.5 -127t-115 -84.5t-170.5 -60.5l-22 71q144 38 217.5 103t79.5 178q-62 -79 -159 -80q-87 -1 -142 59t-55 161q0 108 64 169.5t163 61.5zM281 325q79 1 140 82q2 119 -29 168.5t-102 49.5q-128 0 -128 -156
q0 -74 31 -109.5t88 -34.5z" />
    <glyph glyph-name="colon" unicode=":" 
d="M215 431q0 36 24 60.5t60 24.5t60.5 -24.5t24.5 -60.5q0 -35 -24.5 -60t-60.5 -25t-60 25t-24 60zM215 73q0 35 24 59.5t60 24.5t60.5 -24.5t24.5 -59.5q0 -36 -24 -60.5t-61 -24.5q-36 0 -60 24.5t-24 60.5z" />
    <glyph glyph-name="semicolon" unicode=";" 
d="M299 516q36 0 60.5 -24.5t24.5 -60.5q0 -35 -24.5 -60t-60.5 -25t-60 25t-24 60q0 36 24 60.5t60 24.5zM299 171q36 0 60.5 -24.5t24.5 -60.5q0 -38 -23 -87l-79 -182h-81l48 199q-34 26 -34 70q0 36 24 60.5t60 24.5z" />
    <glyph glyph-name="less" unicode="&#x3c;" 
d="M470 597l46 -71l-349 -213l349 -213l-49 -70l-382 238v91z" />
    <glyph glyph-name="equal" unicode="=" 
d="M500 448v-81h-400v81h400zM500 255v-81h-400v81h400z" />
    <glyph glyph-name="greater" unicode="&#x3e;" 
d="M131 597l385 -238v-91l-382 -238l-49 70l348 213l-348 212z" />
    <glyph glyph-name="question" unicode="?" 
d="M299 702q91 0 147 -47t56 -110q0 -37 -13.5 -66.5t-33.5 -46.5t-44 -35l-44 -33t-33.5 -41t-13.5 -59v-32h-94v37q0 45 18 79.5t44 55.5t51.5 39t43.5 42t18 53q0 40 -31.5 62.5t-80.5 22.5q-80 0 -139 -72l-66 50q86 101 215 101zM276 129q30 0 50.5 -20.5t20.5 -49.5
q0 -30 -20.5 -50.5t-50.5 -20.5t-50.5 20.5t-20.5 50.5q0 29 20.5 49.5t50.5 20.5z" />
    <glyph glyph-name="at" unicode="@" 
d="M284 702q74 0 129.5 -23.5t88 -61t52.5 -93.5t27 -112t7 -125q0 -201 -31 -289.5t-118 -88.5q-56 0 -86.5 46t-31.5 96h-4q-38 -97 -137 -97q-79 0 -116 61.5t-37 167.5q0 128 51.5 193.5t147.5 65.5q75 0 146 -38v-296q0 -71 17 -99t48 -28q21 0 34 19.5t18 69t6 89.5
t1 125q0 63 -5 110.5t-18.5 92.5t-36.5 73.5t-61.5 46t-90.5 17.5q-122 0 -226 -92l-51 59q128 111 277 111zM229 374q-62 0 -86.5 -45.5t-24.5 -145.5q0 -160 75 -160q23 0 40.5 8.5t28.5 24t16 26t10 26.5v253q-27 13 -59 13z" />
    <glyph glyph-name="A" unicode="A" 
d="M428 172h-261l-52 -172h-100l223 689h124l223 -689h-105zM190 251h215l-107 358z" />
    <glyph glyph-name="B" unicode="B" 
d="M545 197q0 -54 -22 -94t-61 -61.5t-83.5 -31.5t-96.5 -10h-192v689h178q50 0 91.5 -8.5t78 -27.5t57 -54t20.5 -84q0 -62 -36.5 -100t-91.5 -50q158 -27 158 -168zM414 508q0 104 -131 104h-94v-213h102q123 0 123 109zM441 196q0 125 -143 125h-109v-241h105
q147 0 147 116z" />
    <glyph glyph-name="C" unicode="C" 
d="M358 702q117 0 203 -69l-53 -63q-61 51 -144 51q-90 0 -146 -66t-56 -210q0 -142 54.5 -208t146.5 -66q86 0 159 58l49 -63q-78 -78 -210 -78q-133 0 -218 94t-85 263q0 167 86 262t214 95z" />
    <glyph glyph-name="D" unicode="D" 
d="M556 348q0 -83 -19 -146.5t-49 -101t-73 -61t-84.5 -31.5t-89.5 -8h-163v689h152q54 0 97.5 -7.5t87.5 -30t74 -59.5t48.5 -99t18.5 -145zM451 348q0 67 -12 116t-30.5 76.5t-46.5 44t-53.5 21.5t-57.5 5h-74v-533h75q199 0 199 270z" />
    <glyph glyph-name="E" unicode="E" 
d="M219 611v-222h254v-78h-254v-233h310v-78h-409v689h402l-12 -78h-291z" />
    <glyph glyph-name="F" unicode="F" 
d="M233 611v-232h265v-78h-265v-301h-100v689h414l-11 -78h-303z" />
    <glyph glyph-name="G" unicode="G" 
d="M316 -12q-129 0 -201.5 91t-72.5 266q0 169 85.5 263t208.5 94q65 0 111 -19t89 -59l-58 -60q-61 57 -141 57q-83 0 -136.5 -66t-53.5 -210q0 -145 43.5 -211t131.5 -66q68 0 124 32v201h-128l-11 79h237v-331q-112 -61 -228 -61z" />
    <glyph glyph-name="H" unicode="H" 
d="M423 0v321h-246v-321h-99v689h99v-286h246v286h99v-689h-99z" />
    <glyph glyph-name="I" unicode="I" 
d="M502 689v-77h-152v-534h152v-78h-404v78h152v534h-152v77h404z" />
    <glyph glyph-name="J" unicode="J" 
d="M502 689v-457q0 -48 -13 -90t-40 -77.5t-76 -56t-114 -20.5q-107 0 -192 63l42 64q76 -47 148 -47q68 0 106.5 44.5t38.5 123.5v375h-205v78h305z" />
    <glyph glyph-name="K" unicode="K" 
d="M197 0h-99v689h99v-689zM202 368l257 321h112l-257 -315l276 -374h-121z" />
    <glyph glyph-name="L" unicode="L" 
d="M129 0v689h99v-603h312l-11 -86h-400z" />
    <glyph glyph-name="M" unicode="M" 
d="M533 689l39 -689h-94l-19 350q-6 118 -3 250l-110 -477h-93l-118 477q7 -110 1 -251l-17 -349h-91l39 689h129l106 -467l101 467h130z" />
    <glyph glyph-name="N" unicode="N" 
d="M388 0l-233 597q13 -221 13 -266v-331h-90v689h132l235 -599q0 6 -2.5 38t-4.5 62.5t-4 77.5t-2 90v331h90v-689h-134z" />
    <glyph glyph-name="O" unicode="O" 
d="M557 344q0 -162 -66.5 -259t-190.5 -97q-125 0 -191 95.5t-66 259.5q0 163 66.5 261t190.5 98q125 0 191 -96.5t66 -261.5zM454 344q0 139 -36.5 208t-117.5 69t-117.5 -69t-36.5 -209q0 -275 154 -275q81 0 117.5 68.5t36.5 207.5z" />
    <glyph glyph-name="P" unicode="P" 
d="M560 475q0 -115 -71.5 -169t-195.5 -54h-87v-252h-99v689h182q130 0 200.5 -53.5t70.5 -160.5zM455 475q0 138 -156 138h-93v-284h92q74 0 115.5 33t41.5 113z" />
    <glyph glyph-name="Q" unicode="Q" 
d="M557 344q0 -237 -143 -315q75 -14 117.5 -51t67.5 -113l-98 -38q-34 85 -80 124t-131 39q-119 0 -183 95t-64 258t66.5 261t190.5 98q125 0 191 -96.5t66 -261.5zM454 344q0 139 -36.5 208t-117.5 69t-117 -69.5t-36 -208.5q0 -138 37 -206.5t116 -68.5q81 0 117.5 68.5
t36.5 207.5z" />
    <glyph glyph-name="R" unicode="R" 
d="M541 493q0 -73 -45 -121.5t-118 -68.5l201 -303h-118l-182 290h-85v-290h-99v689h183q263 0 263 -196zM436 493q0 63 -36.5 91.5t-113.5 28.5h-92v-247h94q73 0 110.5 30t37.5 97z" />
    <glyph glyph-name="S" unicode="S" 
d="M542 193q0 -92 -68.5 -148.5t-188.5 -56.5q-155 0 -247 89l57 64q78 -73 191 -73q65 0 108.5 31.5t43.5 89.5q0 49 -30.5 77t-115.5 52q-113 34 -167.5 79.5t-54.5 122.5q0 81 64 131.5t165 50.5q132 0 224 -81l-55 -62q-71 62 -165 62q-58 0 -95 -24.5t-37 -71.5
q0 -43 36 -68.5t132 -53.5q98 -29 150.5 -75t52.5 -135z" />
    <glyph glyph-name="T" unicode="T" 
d="M348 606v-606h-99v606h-212v83h526l-10 -83h-205z" />
    <glyph glyph-name="U" unicode="U" 
d="M533 689v-465q0 -106 -63 -171t-171 -65q-109 0 -170.5 64.5t-61.5 171.5v465h100v-457q0 -162 132 -162q133 0 133 162v457h101z" />
    <glyph glyph-name="V" unicode="V" 
d="M302 104l177 585h100l-225 -689h-108l-225 689h106z" />
    <glyph glyph-name="W" unicode="W" 
d="M596 689l-100 -689h-123l-75 516l-76 -516h-126l-92 689h97l65 -587l79 507h112l75 -507l74 587h90z" />
    <glyph glyph-name="X" unicode="X" 
d="M44 689h113l143 -257l145 257h106l-194 -317l217 -372h-113l-163 303l-165 -303h-106l212 367z" />
    <glyph glyph-name="Y" unicode="Y" 
d="M350 265v-265h-100v264l-232 425h110l174 -337l176 337h104z" />
    <glyph glyph-name="Z" unicode="Z" 
d="M178 84h355l-11 -84h-456v79l358 527h-322v83h430v-80z" />
    <glyph glyph-name="bracketleft" unicode="[" 
d="M179 -116v932h261v-79h-170v-775h170v-78h-261z" />
    <glyph glyph-name="backslash" unicode="\" 
d="M49 774l76 36l426 -880l-77 -34z" />
    <glyph glyph-name="bracketright" unicode="]" 
d="M421 816v-932h-261v78h170v775h-170v79h261z" />
    <glyph glyph-name="asciicircum" unicode="^" 
d="M343 840l189 -313h-102l-131 231l-130 -231h-101l189 313h86z" />
    <glyph glyph-name="underscore" unicode="_" 
d="M50 -182v81h500v-81h-500z" />
    <glyph glyph-name="grave" unicode="`" 
d="M389 622l-208 93l48 80l190 -121z" />
    <glyph glyph-name="a" unicode="a" 
d="M484 121q0 -31 9.5 -45.5t32.5 -21.5l-23 -66q-79 10 -102 74q-57 -74 -166 -74q-80 0 -126 44.5t-46 118.5q0 82 64.5 126.5t184.5 44.5h76v39q0 101 -121 101q-62 0 -139 -27l-25 70q96 35 178 35q100 0 151.5 -45.5t51.5 -127.5v-246zM261 59q38 0 71.5 19t55.5 53
v128h-70q-153 0 -153 -106q0 -94 96 -94z" />
    <glyph glyph-name="b" unicode="b" 
d="M191 461q60 79 149 79q101 0 149 -72.5t48 -203.5q0 -123 -55.5 -199.5t-154.5 -76.5q-90 0 -141 66l-6 -54h-85v739l96 12v-290zM304 63q130 0 130 201q0 200 -118 200q-71 0 -125 -81v-255q44 -65 113 -65z" />
    <glyph glyph-name="c" unicode="c" 
d="M341 69q66 0 134 45l45 -62q-35 -29 -83.5 -46.5t-97.5 -17.5q-119 0 -185 74t-66 199q0 122 67.5 200.5t184.5 78.5q102 0 179 -63l-45 -62q-67 46 -133 46q-69 0 -109.5 -50.5t-40.5 -149.5q0 -98 40.5 -145t109.5 -47z" />
    <glyph glyph-name="d" unicode="d" 
d="M409 751l96 -12v-739h-85l-8 67q-55 -79 -149 -79q-100 0 -150 73.5t-50 201.5q0 122 56 199.5t152 77.5q85 0 138 -61v272zM296 464q-130 0 -130 -201q0 -200 120 -200q71 0 123 80v257q-45 64 -113 64z" />
    <glyph glyph-name="e" unicode="e" 
d="M173 231q4 -83 45.5 -124.5t104.5 -41.5q70 0 140 47l43 -61q-79 -63 -186 -63q-117 0 -182 75t-65 200q0 121 64 199t171 78q102 0 161 -70t59 -191q0 -24 -2 -48h-353zM309 465q-58 0 -94.5 -41.5t-41.5 -122.5h262q-1 79 -34.5 121.5t-91.5 42.5z" />
    <glyph glyph-name="f" unicode="f" 
d="M411 751q79 0 149 -30l-30 -69q-50 22 -113 22q-107 0 -107 -85v-101h178l-11 -74h-167v-414h-96v414h-123v74h123v100q0 74 55 118.5t142 44.5z" />
    <glyph glyph-name="g" unicode="g" 
d="M531 588l27 -85q-49 -16 -154 -16q94 -43 94 -134q0 -79 -54.5 -129t-148.5 -50q-45 0 -76 10q-25 -20 -25 -48q0 -42 68 -42h94q82 0 135.5 -41.5t53.5 -103.5q0 -78 -66.5 -120.5t-190.5 -42.5q-126 0 -177 39t-51 122h87q0 -47 29 -67t112 -20q160 0 160 83
q0 34 -31 53t-81 19h-92q-68 0 -103 28.5t-35 71.5q0 56 58 94q-89 47 -89 146q0 82 59.5 133.5t154.5 51.5q89 -1 138 10.5t104 37.5zM289 471q-57 0 -86.5 -31.5t-29.5 -84.5q0 -54 30 -85.5t88 -31.5q53 0 81 30.5t28 87.5q0 115 -111 115z" />
    <glyph glyph-name="h" unicode="h" 
d="M191 749v-291q65 82 167 82q148 0 148 -157v-383h-96v375q0 47 -20.5 68.5t-64.5 21.5q-39 0 -74.5 -24.5t-59.5 -59.5v-381h-96v738z" />
    <glyph glyph-name="i" unicode="i" 
d="M300 779q30 0 48.5 -18.5t18.5 -45.5q0 -28 -18.5 -46t-48.5 -18q-29 0 -47.5 18t-18.5 46q0 27 18.5 45.5t47.5 18.5zM371 527v-454h147v-73h-403v73h160v381h-155v73h251z" />
    <glyph glyph-name="j" unicode="j" 
d="M367 779q30 0 48.5 -18.5t18.5 -45.5q0 -28 -18.5 -46t-48.5 -18q-29 0 -47.5 18t-18.5 46q0 27 18.5 45.5t47.5 18.5zM449 527v-431q0 -134 -86 -207t-256 -103l-15 74q127 23 194 75.5t67 154.5v364h-214v73h310z" />
    <glyph glyph-name="k" unicode="k" 
d="M196 751v-751h-96v739zM547 527l-227 -237l252 -290h-122l-245 288l224 239h118z" />
    <glyph glyph-name="l" unicode="l" 
d="M312 739v-603q0 -69 84 -69q41 0 87 18l24 -69q-54 -28 -129 -28t-118.5 41.5t-43.5 113.5v523h-160v73h256z" />
    <glyph glyph-name="m" unicode="m" 
d="M450 540q103 0 103 -148v-392h-87v378q0 50 -6.5 68.5t-31.5 18.5q-47 0 -86 -59v-406h-84v378q0 50 -6.5 68.5t-31.5 18.5q-47 0 -86 -59v-406h-87v527h73l7 -59q51 72 114 72q72 0 93 -69q49 69 116 69z" />
    <glyph glyph-name="n" unicode="n" 
d="M95 0v527h83l7 -71q32 40 78.5 62t94.5 22q148 0 148 -157v-383h-96v324q0 81 -16 111t-68 30q-40 0 -75.5 -24.5t-59.5 -59.5v-381h-96z" />
    <glyph glyph-name="o" unicode="o" 
d="M301 540q111 0 171 -74t60 -202q0 -126 -61 -201t-171 -75q-112 0 -172 73.5t-60 201.5q0 126 61 201.5t172 75.5zM301 463q-131 0 -131 -200q0 -199 130 -199t130 200q0 199 -129 199z" />
    <glyph glyph-name="p" unicode="p" horiz-adv-x="601" 
d="M341 540q191 0 191 -276q0 -124 -52.5 -200t-150.5 -76q-85 0 -138 59v-249l-96 -12v741h83l7 -71q61 84 156 84zM316 464q-71 0 -125 -81v-255q44 -63 114 -63q125 0 125 199q0 200 -114 200z" />
    <glyph glyph-name="q" unicode="q" 
d="M271 540q90 0 144 -68l7 55h83v-741l-96 12v265q-56 -75 -147 -75q-194 0 -194 275q0 123 53.5 200t149.5 77zM295 464q-125 0 -125 -201q0 -198 115 -198q73 0 124 78v257q-43 64 -114 64z" />
    <glyph glyph-name="r" unicode="r" 
d="M459 539q36 0 77 -12l-15 -185h-74v110h-1q-119 0 -169 -170v-211h107v-71h-284v71h81v385h-81v71h154l17 -123q31 68 75.5 101.5t112.5 33.5z" />
    <glyph glyph-name="s" unicode="s" 
d="M280 64q58 0 91 21t33 57q0 37 -24 57t-103 40q-90 23 -133.5 56t-43.5 97q0 67 56 107.5t148 40.5q115 0 196 -60l-42 -63q-70 47 -151 47q-108 0 -108 -64q0 -32 27.5 -49.5t109.5 -39.5q86 -23 128.5 -58.5t42.5 -104.5q0 -80 -65.5 -120t-161.5 -40q-127 0 -210 72
l52 61q69 -57 158 -57z" />
    <glyph glyph-name="t" unicode="t" 
d="M524 27q-62 -39 -147 -39q-87 0 -134.5 45t-47.5 120v302h-119v72h119v119l96 11v-130h181l-12 -72h-169v-301q0 -44 23 -65.5t74 -21.5q53 0 100 25z" />
    <glyph glyph-name="u" unicode="u" 
d="M191 527v-371q0 -49 20.5 -71.5t62.5 -22.5q39 0 76 23t59 57v385h96v-527h-83l-7 70q-30 -39 -75 -60.5t-93 -21.5q-75 0 -113.5 40.5t-38.5 115.5v383h96z" />
    <glyph glyph-name="v" unicode="v" 
d="M545 527l-190 -527h-111l-189 527h103l144 -444l144 444h99z" />
    <glyph glyph-name="w" unicode="w" 
d="M496 0h-128l-65 381l-70 -381h-125l-93 527h95l63 -467l79 400h105l74 -400l63 467h91z" />
    <glyph glyph-name="x" unicode="x" 
d="M158 0h-108l193 278l-170 249h112l116 -191l117 191h108l-169 -245l193 -282h-115l-138 222z" />
    <glyph glyph-name="y" unicode="y" 
d="M544 527l-184 -530q-31 -93 -87.5 -147t-157.5 -64l-13 75q76 13 110.5 44t57.5 95h-33l-181 527h102l144 -457l143 457h99z" />
    <glyph glyph-name="z" unicode="z" 
d="M214 80h288l-11 -80h-394v72l288 375h-265v80h379v-72z" />
    <glyph glyph-name="braceleft" unicode="{" 
d="M454 836v-73q-128 0 -120 -77l19 -196q7 -65 -19 -97.5t-84 -42.5q59 -10 84.5 -41.5t18.5 -98.5l-19 -196q-4 -42 28.5 -59.5t91.5 -17.5v-73q-103 0 -160.5 36.5t-48.5 123.5l20 183q6 54 -26.5 79t-123.5 25v78q92 0 124 24.5t26 78.5l-20 184q-9 87 48.5 123.5
t160.5 36.5z" />
    <glyph glyph-name="bar" unicode="|" 
d="M343 807v-909h-87v909h87z" />
    <glyph glyph-name="braceright" unicode="}" 
d="M146 836q103 0 160.5 -36.5t48.5 -123.5l-20 -184q-5 -53 29.5 -78t120.5 -25v-78q-86 0 -120.5 -25.5t-29.5 -78.5l20 -183q9 -87 -48.5 -123.5t-160.5 -36.5v73q128 0 120 77l-19 196q-7 67 19.5 98.5t92.5 40.5q-64 11 -91.5 43.5t-20.5 97.5l19 196q4 41 -28.5 59
t-91.5 18v73z" />
    <glyph glyph-name="asciitilde" unicode="~" 
d="M205 406q34 0 64 -15.5t47.5 -34.5t39.5 -34.5t42 -15.5q53 0 98 83l64 -32q-30 -60 -68 -96t-97 -36q-32 0 -61 15.5t-47 34.5t-41 34.5t-44 15.5q-52 0 -98 -84l-64 32q30 60 67.5 96.5t97.5 36.5z" />
    <glyph glyph-name="uni00A0" unicode="&#xa0;" 
 />
    <glyph glyph-name="exclamdown" unicode="&#xa1;" 
d="M299 501q30 0 50.5 -21t20.5 -51q0 -29 -20.5 -49.5t-50.5 -20.5t-50 20.5t-20 49.5q0 30 20 51t50 21zM340 257l14 -455h-109l14 455h81z" />
    <glyph glyph-name="cent" unicode="&#xa2;" 
d="M376 684v-149q69 -10 122 -53l-46 -62q-55 41 -113 41q-64 0 -99 -50t-35 -150q0 -192 134 -192q56 0 114 43l45 -66q-51 -43 -122 -53v-147h-81v148q-94 13 -143.5 83t-49.5 184q0 111 50 184.5t144 87.5v151h80z" />
    <glyph glyph-name="sterling" unicode="&#xa3;" 
d="M347 702q119 0 184 -89l-63 -48q-47 58 -116 58q-105 0 -105 -117v-116h203v-63h-203v-116q0 -96 -62 -131h336l-11 -80h-441v75q54 17 68 46.5t14 87.5v118h-80v63h80v123q0 83 53 136t143 53z" />
    <glyph glyph-name="currency" unicode="&#xa4;" 
d="M91 610l87 -88q52 32 123 32t121 -32l87 87l57 -57l-85 -86q35 -53 35 -124q0 -70 -36 -126l86 -85l-57 -57l-88 86q-51 -31 -120 -31q-70 0 -123 31l-87 -87l-57 57l87 87q-34 53 -34 125q0 71 33 123l-86 88zM301 480q-60 0 -91.5 -36.5t-31.5 -101.5q0 -66 31.5 -102
t91.5 -36t91 36t31 102t-31 102t-91 36z" />
    <glyph glyph-name="yen" unicode="&#xa5;" 
d="M566 689l-191 -343h116v-62h-141v-83h141v-62h-141v-139h-100v139h-138v62h138v83h-138v62h113l-191 343h107l160 -311h4l160 311h101z" />
    <glyph glyph-name="brokenbar" unicode="&#xa6;" 
d="M343 807v-356h-87v356h87zM343 254v-356h-87v356h87z" />
    <glyph glyph-name="section" unicode="&#xa7;" 
d="M317 702q96 0 171 -55l-42 -62q-61 41 -132 41q-42 0 -67 -18t-25 -48q0 -33 23.5 -51.5t99.5 -43.5q82 -27 117.5 -61t35.5 -92q0 -78 -80 -127q58 -44 58 -109q0 -68 -54.5 -108t-142.5 -40q-102 0 -175 55l42 63q65 -43 135 -43q43 0 70 18.5t27 48.5q0 33 -23.5 51.5
t-99.5 42.5q-83 28 -118.5 62t-35.5 92q0 76 82 125q-59 45 -59 110q0 67 55 108t138 41zM239 413q-45 -39 -45 -82q0 -39 28 -57t139 -58q45 40 45 83q0 37 -28.5 55t-138.5 59z" />
    <glyph glyph-name="dieresis" unicode="&#xa8;" 
d="M194 646q-25 0 -42 16.5t-17 41.5t17 41.5t42 16.5t42 -16.5t17 -41.5t-17 -41.5t-42 -16.5zM405 646q-25 0 -42 16.5t-17 41.5t17 41.5t42 16.5q26 0 42.5 -16.5t16.5 -41.5t-17 -41.5t-42 -16.5z" />
    <glyph glyph-name="copyright" unicode="&#xa9;" 
d="M301 749q127 0 200 -90t73 -226q0 -135 -73.5 -224.5t-199.5 -89.5q-127 0 -201 89.5t-74 224.5q0 136 74 226t201 90zM301 696q-104 0 -159.5 -74t-55.5 -189q0 -114 55.5 -187t159.5 -73t159 73t55 187q0 115 -55 189t-159 74zM305 625q66 0 117 -41l-37 -49
q-37 28 -75 28q-41 0 -65.5 -31.5t-24.5 -97.5q0 -62 24.5 -94t65.5 -32q46 0 83 34l34 -51q-53 -47 -121 -47q-74 0 -119 50t-45 140q0 89 47 140t116 51z" />
    <glyph glyph-name="ordfeminine" unicode="&#xaa;" 
d="M290 751q85 0 127.5 -37t42.5 -105v-192q0 -39 33 -50l-20 -60q-67 8 -88 59q-51 -59 -134 -59q-68 0 -110 36.5t-42 96.5q0 66 57 102.5t160 36.5h58v27q0 75 -96 75q-53 0 -121 -24l-25 63q83 31 158 31zM374 518h-54q-127 0 -127 -74q0 -72 80 -72q61 0 101 54v92z
M501 81v-81h-396v81h396z" />
    <glyph glyph-name="guillemotleft" unicode="&#xab;" 
d="M309 85l-57 -36l-175 210v67l175 210l57 -36l-132 -207zM522 85l-57 -36l-176 210v67l176 210l57 -36l-132 -207z" />
    <glyph glyph-name="logicalnot" unicode="&#xac;" 
d="M490 353v-224h-86v144h-294v80h380z" />
    <glyph glyph-name="uni00AD" unicode="&#xad;" 
d="M143 273v80h314v-80h-314z" />
    <glyph glyph-name="registered" unicode="&#xae;" 
d="M300 749q107 0 181.5 -75.5t74.5 -182.5t-74.5 -181.5t-181.5 -74.5t-182 74.5t-75 181.5t75 182.5t182 75.5zM300 699q-86 0 -143.5 -60.5t-57.5 -147.5t57.5 -146.5t143.5 -59.5t143 59.5t57 146.5t-57.5 147.5t-142.5 60.5zM285 636q124 0 124 -85q0 -60 -65 -79
l84 -118h-69l-73 108h-28v-108h-58v282h85zM287 590h-29v-83h31q59 0 59 44q0 39 -61 39z" />
    <glyph glyph-name="macron" unicode="&#xaf;" 
d="M437 673h-275v71h275v-71z" />
    <glyph glyph-name="degree" unicode="&#xb0;" 
d="M231 751q67 0 116 -43.5t49 -115.5t-49 -115.5t-116 -43.5q-66 0 -115.5 43.5t-49.5 116.5q0 72 49.5 115t115.5 43zM231 686q-36 0 -61 -24t-25 -69q0 -46 25 -70.5t61 -24.5q37 0 61.5 24.5t24.5 69.5t-24.5 69.5t-61.5 24.5z" />
    <glyph glyph-name="plusminus" unicode="&#xb1;" 
d="M344 541v-150h146v-79h-146v-147h-88v147h-146v79h146v150h88zM490 81v-81h-380v81h380z" />
    <glyph glyph-name="uni00B2" unicode="&#xb2;" 
d="M436 536q0 -46 -34.5 -78.5t-129.5 -78.5h175l-10 -64h-278v56q125 75 159.5 102.5t34.5 58.5q0 21 -15 33.5t-41 12.5q-52 0 -90 -46l-54 40q61 70 149 70q63 0 98.5 -29t35.5 -77z" />
    <glyph glyph-name="uni00B3" unicode="&#xb3;" 
d="M308 642q61 0 96 -24t35 -65q0 -55 -70 -67q44 -7 64 -24t20 -52q0 -46 -41.5 -73.5t-113.5 -27.5q-96 0 -153 58l49 41q45 -39 106 -39q71 0 71 44t-68 44h-47l8 47h36q59 0 59 38q0 41 -58 41q-54 0 -102 -37l-42 44q63 52 151 52z" />
    <glyph glyph-name="acute" unicode="&#xb4;" 
d="M383 803l42 -79l-214 -87l-29 51z" />
    <glyph glyph-name="uni00B5" unicode="&#xb5;" 
d="M490 527v-356q0 -73 25 -171l-89 -12q-16 28 -22 83q-23 -38 -60.5 -60.5t-76.5 -22.5q-38 0 -59.5 11t-41.5 39q13 -62 13 -98v-142l-94 -11v740h96v-296q0 -87 15 -124.5t68 -37.5q78 0 130 76v382h96z" />
    <glyph glyph-name="paragraph" unicode="&#xb6;" 
d="M560 689v-891l-86 -11v826h-107v-815l-86 -11v498q-117 1 -179.5 57t-62.5 144q0 89 66.5 146t187.5 57h267z" />
    <glyph glyph-name="periodcentered" unicode="&#xb7;" 
d="M208 342q0 38 26 64.5t65 26.5t65.5 -26.5t26.5 -64.5q0 -39 -26 -65.5t-66 -26.5q-39 0 -65 26.5t-26 65.5z" />
    <glyph glyph-name="cedilla" unicode="&#xb8;" 
d="M337 -141q0 24 -21.5 32.5t-65.5 8.5l9 116h63v-72q47 -4 70.5 -28t23.5 -57q0 -48 -36 -74.5t-90 -26.5q-64 0 -107 25l28 52q32 -16 67 -16q59 0 59 40z" />
    <glyph glyph-name="uni00B9" unicode="&#xb9;" 
d="M327 315v234l-93 -50l-38 53l145 84h63v-321h-77z" />
    <glyph glyph-name="ordmasculine" unicode="&#xba;" 
d="M300 751q95 0 150.5 -60.5t55.5 -161.5q0 -99 -56 -160.5t-150 -61.5q-95 0 -151 60.5t-56 161.5q0 98 56.5 160t150.5 62zM300 681q-54 0 -84 -38t-30 -114q0 -152 114 -152q113 0 113 152t-113 152zM499 81v-81h-397v81h397z" />
    <glyph glyph-name="guillemotright" unicode="&#xbb;" 
d="M209 293l-132 207l58 36l174 -210v-67l-174 -210l-58 36zM421 293l-132 207l57 36l176 -210v-67l-176 -210l-57 36z" />
    <glyph glyph-name="onequarter" unicode="&#xbc;" 
d="M127 368v234l-93 -50l-38 53l145 84h63v-321h-77zM46 183l-32 57l535 256l31 -57zM550 56v-56h-77v56h-180v51l134 224l66 -26l-112 -187h92l7 84h70v-84h54v-62h-54z" />
    <glyph glyph-name="onehalf" unicode="&#xbd;" 
d="M124 368v234l-93 -50l-38 53l145 84h63v-321h-77zM42 183l-32 57l535 256l31 -57zM596 221q0 -46 -34.5 -78.5t-129.5 -78.5h175l-10 -64h-278v56q125 75 159.5 102.5t34.5 58.5q0 21 -15 33.5t-41 12.5q-52 0 -90 -46l-54 40q61 70 149 70q63 0 98.5 -29t35.5 -77z" />
    <glyph glyph-name="threequarters" unicode="&#xbe;" 
d="M158 695q61 0 96 -24t35 -65q0 -55 -70 -67q44 -7 64 -24t20 -52q0 -46 -41.5 -73.5t-113.5 -27.5q-96 0 -153 58l49 41q45 -39 106 -39q71 0 71 44t-68 44h-47l8 47h36q59 0 59 38q0 41 -58 41q-54 0 -102 -37l-42 44q63 52 151 52zM55 183l-32 57l535 256l31 -57z
M551 56v-56h-77v56h-180v51l134 224l66 -26l-112 -187h92l7 84h70v-84h54v-62h-54z" />
    <glyph glyph-name="questiondown" unicode="&#xbf;" 
d="M323 501q29 0 50 -21t21 -51q0 -29 -21 -49.5t-50 -20.5q-30 0 -50.5 20.5t-20.5 49.5q0 30 20.5 51t50.5 21zM373 257v-38q0 -45 -18 -79.5t-43.5 -55.5t-51.5 -39t-44 -42t-18 -53q0 -40 31.5 -62.5t80.5 -22.5q80 0 139 72l66 -50q-86 -101 -215 -101q-91 0 -146.5 47
t-55.5 110q0 37 13.5 66.5t33.5 46.5t43.5 35t43.5 33.5t33.5 41.5t13.5 59v32h94z" />
    <glyph glyph-name="Agrave" unicode="&#xc0;" 
d="M230 916l189 -110l-27 -51l-211 82zM428 172h-261l-52 -172h-100l223 689h124l223 -689h-105zM190 251h215l-107 358z" />
    <glyph glyph-name="Aacute" unicode="&#xc1;" 
d="M382 914l41 -80l-217 -79l-25 51zM428 172h-261l-52 -172h-100l223 689h124l223 -689h-105zM190 251h215l-107 358z" />
    <glyph glyph-name="Acircumflex" unicode="&#xc2;" 
d="M332 916l135 -111l-40 -47l-127 82l-126 -82l-41 47l136 111h63zM428 172h-261l-52 -172h-100l223 689h124l223 -689h-105zM190 251h215l-107 358z" />
    <glyph glyph-name="Atilde" unicode="&#xc3;" 
d="M358 775q-29 0 -64.5 24t-51.5 24q-28 0 -53 -46l-57 28q41 90 110 90q30 0 65 -24t51 -24q27 0 53 44l57 -28q-39 -88 -110 -88zM428 172h-261l-52 -172h-100l223 689h124l223 -689h-105zM190 251h215l-107 358z" />
    <glyph glyph-name="Adieresis" unicode="&#xc4;" 
d="M194 766q-25 0 -42 16.5t-17 41.5t17 41.5t42 16.5t42 -16.5t17 -41.5t-17 -41.5t-42 -16.5zM405 766q-25 0 -42 16.5t-17 41.5t17 41.5t42 16.5q26 0 42.5 -16.5t16.5 -41.5t-17 -41.5t-42 -16.5zM428 172h-261l-52 -172h-100l223 689h124l223 -689h-105zM190 251h215
l-107 358z" />
    <glyph glyph-name="Aring" unicode="&#xc5;" 
d="M300 950q50 0 82.5 -31t32.5 -76t-32.5 -76t-82.5 -31t-83 31t-33 76t33 76t83 31zM300 898q-24 0 -38.5 -14.5t-14.5 -40.5t14.5 -41t38.5 -15q25 0 38.5 15t13.5 41q0 55 -52 55zM428 172h-261l-52 -172h-100l223 689h124l223 -689h-105zM190 251h215l-107 358z" />
    <glyph glyph-name="AE" unicode="&#xc6;" 
d="M327 172h-193l-46 -172h-100l198 689h380l-11 -77h-228l49 -224h181v-77h-167l49 -234h168v-77h-246zM155 251h156l-70 363z" />
    <glyph glyph-name="Ccedilla" unicode="&#xc7;" 
d="M372 -56q47 -4 70.5 -28t23.5 -57q0 -48 -36 -74.5t-90 -26.5q-64 0 -107 25l28 52q32 -16 67 -16q59 0 59 40q0 24 -21.5 32.5t-65.5 8.5l7 92q-112 19 -180.5 110.5t-68.5 242.5q0 167 86 262t214 95q117 0 203 -69l-53 -63q-61 51 -144 51q-90 0 -146 -66t-56 -210
q0 -142 54.5 -208t146.5 -66q86 0 159 58l49 -63q-74 -74 -199 -78v-44z" />
    <glyph glyph-name="Egrave" unicode="&#xc8;" 
d="M251 916l189 -110l-27 -51l-211 82zM219 611v-222h254v-78h-254v-233h310v-78h-409v689h402l-12 -78h-291z" />
    <glyph glyph-name="Eacute" unicode="&#xc9;" 
d="M403 914l41 -80l-217 -79l-25 51zM219 611v-222h254v-78h-254v-233h310v-78h-409v689h402l-12 -78h-291z" />
    <glyph glyph-name="Ecircumflex" unicode="&#xca;" 
d="M353 916l135 -111l-40 -47l-127 82l-126 -82l-41 47l136 111h63zM219 611v-222h254v-78h-254v-233h310v-78h-409v689h402l-12 -78h-291z" />
    <glyph glyph-name="Edieresis" unicode="&#xcb;" 
d="M215 766q-25 0 -42 16.5t-17 41.5t17 41.5t42 16.5t42 -16.5t17 -41.5t-17 -41.5t-42 -16.5zM426 766q-25 0 -42 16.5t-17 41.5t17 41.5t42 16.5q26 0 42.5 -16.5t16.5 -41.5t-17 -41.5t-42 -16.5zM219 611v-222h254v-78h-254v-233h310v-78h-409v689h402l-12 -78h-291z
" />
    <glyph glyph-name="Igrave" unicode="&#xcc;" 
d="M230 916l189 -110l-27 -51l-211 82zM502 689v-77h-152v-534h152v-78h-404v78h152v534h-152v77h404z" />
    <glyph glyph-name="Iacute" unicode="&#xcd;" 
d="M382 914l41 -80l-217 -79l-25 51zM502 689v-77h-152v-534h152v-78h-404v78h152v534h-152v77h404z" />
    <glyph glyph-name="Icircumflex" unicode="&#xce;" 
d="M332 916l135 -111l-40 -47l-127 82l-126 -82l-41 47l136 111h63zM502 689v-77h-152v-534h152v-78h-404v78h152v534h-152v77h404z" />
    <glyph glyph-name="Idieresis" unicode="&#xcf;" 
d="M194 766q-25 0 -42 16.5t-17 41.5t17 41.5t42 16.5t42 -16.5t17 -41.5t-17 -41.5t-42 -16.5zM405 766q-25 0 -42 16.5t-17 41.5t17 41.5t42 16.5q26 0 42.5 -16.5t16.5 -41.5t-17 -41.5t-42 -16.5zM502 689v-77h-152v-534h152v-78h-404v78h152v534h-152v77h404z" />
    <glyph glyph-name="Eth" unicode="&#xd0;" 
d="M240 689q54 0 97.5 -7.5t87.5 -30t74 -59.5t48.5 -99t18.5 -145t-19 -146.5t-49 -101t-73 -61t-84.5 -31.5t-89.5 -8h-163v317h-70v72h70v300h152zM262 78q199 0 199 270q0 67 -12 116t-30.5 76.5t-46.5 44t-53.5 21.5t-57.5 5h-74v-222h153v-72h-153v-239h75z" />
    <glyph glyph-name="Ntilde" unicode="&#xd1;" 
d="M359 775q-29 0 -64.5 24t-51.5 24q-28 0 -53 -46l-57 28q41 90 110 90q30 0 65 -24t51 -24q27 0 53 44l57 -28q-39 -88 -110 -88zM388 0l-233 597q13 -221 13 -266v-331h-90v689h132l235 -599q0 6 -2.5 38t-4.5 62.5t-4 77.5t-2 90v331h90v-689h-134z" />
    <glyph glyph-name="Ograve" unicode="&#xd2;" 
d="M230 916l189 -110l-27 -51l-211 82zM557 344q0 -162 -66.5 -259t-190.5 -97q-125 0 -191 95.5t-66 259.5q0 163 66.5 261t190.5 98q125 0 191 -96.5t66 -261.5zM454 344q0 139 -36.5 208t-117.5 69t-117.5 -69t-36.5 -209q0 -275 154 -275q81 0 117.5 68.5t36.5 207.5z
" />
    <glyph glyph-name="Oacute" unicode="&#xd3;" 
d="M382 914l41 -80l-217 -79l-25 51zM557 344q0 -162 -66.5 -259t-190.5 -97q-125 0 -191 95.5t-66 259.5q0 163 66.5 261t190.5 98q125 0 191 -96.5t66 -261.5zM454 344q0 139 -36.5 208t-117.5 69t-117.5 -69t-36.5 -209q0 -275 154 -275q81 0 117.5 68.5t36.5 207.5z" />
    <glyph glyph-name="Ocircumflex" unicode="&#xd4;" 
d="M332 916l135 -111l-40 -47l-127 82l-126 -82l-41 47l136 111h63zM557 344q0 -162 -66.5 -259t-190.5 -97q-125 0 -191 95.5t-66 259.5q0 163 66.5 261t190.5 98q125 0 191 -96.5t66 -261.5zM454 344q0 139 -36.5 208t-117.5 69t-117.5 -69t-36.5 -209q0 -275 154 -275
q81 0 117.5 68.5t36.5 207.5z" />
    <glyph glyph-name="Otilde" unicode="&#xd5;" 
d="M358 775q-29 0 -64.5 24t-51.5 24q-28 0 -53 -46l-57 28q41 90 110 90q30 0 65 -24t51 -24q27 0 53 44l57 -28q-39 -88 -110 -88zM557 344q0 -162 -66.5 -259t-190.5 -97q-125 0 -191 95.5t-66 259.5q0 163 66.5 261t190.5 98q125 0 191 -96.5t66 -261.5zM454 344
q0 139 -36.5 208t-117.5 69t-117.5 -69t-36.5 -209q0 -275 154 -275q81 0 117.5 68.5t36.5 207.5z" />
    <glyph glyph-name="Odieresis" unicode="&#xd6;" 
d="M194 766q-25 0 -42 16.5t-17 41.5t17 41.5t42 16.5t42 -16.5t17 -41.5t-17 -41.5t-42 -16.5zM405 766q-25 0 -42 16.5t-17 41.5t17 41.5t42 16.5q26 0 42.5 -16.5t16.5 -41.5t-17 -41.5t-42 -16.5zM557 344q0 -162 -66.5 -259t-190.5 -97q-125 0 -191 95.5t-66 259.5
q0 163 66.5 261t190.5 98q125 0 191 -96.5t66 -261.5zM454 344q0 139 -36.5 208t-117.5 69t-117.5 -69t-36.5 -209q0 -275 154 -275q81 0 117.5 68.5t36.5 207.5z" />
    <glyph glyph-name="multiply" unicode="&#xd7;" 
d="M422 487l57 -58l-121 -122l121 -122l-57 -57l-122 121l-122 -121l-57 57l121 122l-121 122l57 58l122 -122z" />
    <glyph glyph-name="Oslash" unicode="&#xd8;" 
d="M437 660q120 -88 120 -316q0 -162 -66.5 -259t-190.5 -97q-34 0 -61 7l-32 -105l-81 22l37 118q-120 85 -120 313q0 163 66.5 261t190.5 98q28 0 63 -7l31 108l81 -22zM300 621q-81 0 -117.5 -69t-36.5 -209q0 -176 53 -236l147 509q-23 5 -46 5zM300 68q81 0 117.5 68.5
t36.5 207.5q0 179 -53 238l-147 -508q21 -6 46 -6z" />
    <glyph glyph-name="Ugrave" unicode="&#xd9;" 
d="M230 916l189 -110l-27 -51l-211 82zM533 689v-465q0 -106 -63 -171t-171 -65q-109 0 -170.5 64.5t-61.5 171.5v465h100v-457q0 -162 132 -162q133 0 133 162v457h101z" />
    <glyph glyph-name="Uacute" unicode="&#xda;" 
d="M382 914l41 -80l-217 -79l-25 51zM533 689v-465q0 -106 -63 -171t-171 -65q-109 0 -170.5 64.5t-61.5 171.5v465h100v-457q0 -162 132 -162q133 0 133 162v457h101z" />
    <glyph glyph-name="Ucircumflex" unicode="&#xdb;" 
d="M332 916l135 -111l-40 -47l-127 82l-126 -82l-41 47l136 111h63zM533 689v-465q0 -106 -63 -171t-171 -65q-109 0 -170.5 64.5t-61.5 171.5v465h100v-457q0 -162 132 -162q133 0 133 162v457h101z" />
    <glyph glyph-name="Udieresis" unicode="&#xdc;" 
d="M194 766q-25 0 -42 16.5t-17 41.5t17 41.5t42 16.5t42 -16.5t17 -41.5t-17 -41.5t-42 -16.5zM405 766q-25 0 -42 16.5t-17 41.5t17 41.5t42 16.5q26 0 42.5 -16.5t16.5 -41.5t-17 -41.5t-42 -16.5zM533 689v-465q0 -106 -63 -171t-171 -65q-109 0 -170.5 64.5
t-61.5 171.5v465h100v-457q0 -162 132 -162q133 0 133 162v457h101z" />
    <glyph glyph-name="Yacute" unicode="&#xdd;" 
d="M385 914l41 -80l-217 -79l-25 51zM350 265v-265h-100v264l-232 425h110l174 -337l176 337h104z" />
    <glyph glyph-name="Thorn" unicode="&#xde;" 
d="M199 689v-116h91q130 0 199.5 -54t69.5 -164q0 -116 -71 -172.5t-195 -56.5h-94v-126h-100v689h100zM300 497h-101v-293h102q74 0 114 34t40 115q0 144 -155 144z" />
    <glyph glyph-name="germandbls" unicode="&#xdf;" 
d="M296 751q80 0 129 -41t49 -105q0 -33 -17 -59.5t-38 -41.5t-38 -35t-17 -40q0 -23 20.5 -43t49.5 -38t57.5 -39.5t49 -58t20.5 -83.5q0 -84 -54 -131.5t-135 -47.5q-75 0 -129 34l37 65q38 -22 83 -22q48 0 74 24.5t26 73.5q0 34 -19.5 61t-47.5 45t-56 36.5t-47.5 46.5
t-19.5 64q0 32 17 58t37.5 40.5t37.5 36.5t17 46q0 32 -21 55.5t-66 23.5q-55 0 -82 -32.5t-27 -104.5v-539h-96v533q0 106 54 162t152 56z" />
    <glyph glyph-name="agrave" unicode="&#xe0;" 
d="M381 622l-208 93l48 80l190 -121zM484 121q0 -31 9.5 -45.5t32.5 -21.5l-23 -66q-79 10 -102 74q-57 -74 -166 -74q-80 0 -126 44.5t-46 118.5q0 82 64.5 126.5t184.5 44.5h76v39q0 101 -121 101q-62 0 -139 -27l-25 70q96 35 178 35q100 0 151.5 -45.5t51.5 -127.5v-246
zM261 59q38 0 71.5 19t55.5 53v128h-70q-153 0 -153 -106q0 -94 96 -94z" />
    <glyph glyph-name="aacute" unicode="&#xe1;" 
d="M375 803l42 -79l-214 -87l-29 51zM484 121q0 -31 9.5 -45.5t32.5 -21.5l-23 -66q-79 10 -102 74q-57 -74 -166 -74q-80 0 -126 44.5t-46 118.5q0 82 64.5 126.5t184.5 44.5h76v39q0 101 -121 101q-62 0 -139 -27l-25 70q96 35 178 35q100 0 151.5 -45.5t51.5 -127.5v-246
zM261 59q38 0 71.5 19t55.5 53v128h-70q-153 0 -153 -106q0 -94 96 -94z" />
    <glyph glyph-name="acircumflex" unicode="&#xe2;" 
d="M167 626l-42 45l136 122h63l135 -122l-41 -45l-125 91zM484 121q0 -31 9.5 -45.5t32.5 -21.5l-23 -66q-79 10 -102 74q-57 -74 -166 -74q-80 0 -126 44.5t-46 118.5q0 82 64.5 126.5t184.5 44.5h76v39q0 101 -121 101q-62 0 -139 -27l-25 70q96 35 178 35
q100 0 151.5 -45.5t51.5 -127.5v-246zM261 59q38 0 71.5 19t55.5 53v128h-70q-153 0 -153 -106q0 -94 96 -94z" />
    <glyph glyph-name="atilde" unicode="&#xe3;" 
d="M350 655q-29 0 -64.5 24t-51.5 24q-28 0 -53 -46l-57 28q41 90 110 90q30 0 65 -24t51 -24q27 0 53 44l57 -28q-39 -88 -110 -88zM484 121q0 -31 9.5 -45.5t32.5 -21.5l-23 -66q-79 10 -102 74q-57 -74 -166 -74q-80 0 -126 44.5t-46 118.5q0 82 64.5 126.5t184.5 44.5
h76v39q0 101 -121 101q-62 0 -139 -27l-25 70q96 35 178 35q100 0 151.5 -45.5t51.5 -127.5v-246zM261 59q38 0 71.5 19t55.5 53v128h-70q-153 0 -153 -106q0 -94 96 -94z" />
    <glyph glyph-name="adieresis" unicode="&#xe4;" 
d="M186 646q-25 0 -42 16.5t-17 41.5t17 41.5t42 16.5t42 -16.5t17 -41.5t-17 -41.5t-42 -16.5zM397 646q-25 0 -42 16.5t-17 41.5t17 41.5t42 16.5q26 0 42.5 -16.5t16.5 -41.5t-17 -41.5t-42 -16.5zM484 121q0 -31 9.5 -45.5t32.5 -21.5l-23 -66q-79 10 -102 74
q-57 -74 -166 -74q-80 0 -126 44.5t-46 118.5q0 82 64.5 126.5t184.5 44.5h76v39q0 101 -121 101q-62 0 -139 -27l-25 70q96 35 178 35q100 0 151.5 -45.5t51.5 -127.5v-246zM261 59q38 0 71.5 19t55.5 53v128h-70q-153 0 -153 -106q0 -94 96 -94z" />
    <glyph glyph-name="aring" unicode="&#xe5;" 
d="M292 830q50 0 82.5 -31t32.5 -76t-32.5 -76t-82.5 -31t-83 31t-33 76t33 76t83 31zM292 778q-24 0 -38.5 -14.5t-14.5 -40.5t14.5 -41t38.5 -15q25 0 38.5 15t13.5 41q0 55 -52 55zM484 121q0 -31 9.5 -45.5t32.5 -21.5l-23 -66q-79 10 -102 74q-57 -74 -166 -74
q-80 0 -126 44.5t-46 118.5q0 82 64.5 126.5t184.5 44.5h76v39q0 101 -121 101q-62 0 -139 -27l-25 70q96 35 178 35q100 0 151.5 -45.5t51.5 -127.5v-246zM261 59q38 0 71.5 19t55.5 53v128h-70q-153 0 -153 -106q0 -94 96 -94z" />
    <glyph glyph-name="ae" unicode="&#xe6;" 
d="M434 540q172 0 172 -261q0 -21 -2 -47h-265q7 -87 33 -127.5t77 -40.5q48 0 98 38l42 -61q-66 -53 -142 -53q-99 0 -151 88q-34 -47 -67.5 -67.5t-82.5 -20.5q-69 0 -110.5 44.5t-41.5 118.5q0 83 54 126.5t158 43.5h45v40q0 104 -91 104q-41 0 -102 -27l-25 67
q73 35 137 35q101 0 138 -85q31 85 126 85zM430 465q-43 0 -64 -37t-27 -127h179q-2 85 -21.5 124.5t-66.5 39.5zM251 259h-39q-65 0 -93 -26.5t-28 -76.5q0 -47 19 -72t51 -25q30 0 53 21.5t50 69.5q-13 46 -13 109z" />
    <glyph glyph-name="ccedilla" unicode="&#xe7;" 
d="M361 -56q47 -4 70.5 -28t23.5 -57q0 -48 -36 -74.5t-90 -26.5q-64 0 -107 25l28 52q32 -16 67 -16q59 0 59 40q0 24 -21.5 32.5t-65.5 8.5l7 91q-99 13 -153.5 85t-54.5 185q0 122 67.5 200.5t184.5 78.5q102 0 179 -63l-45 -62q-67 46 -133 46q-69 0 -109.5 -50.5
t-40.5 -149.5q0 -98 40.5 -145t109.5 -47q66 0 134 45l45 -62q-64 -55 -159 -63v-45z" />
    <glyph glyph-name="egrave" unicode="&#xe8;" 
d="M399 622l-208 93l48 80l190 -121zM173 231q4 -83 45.5 -124.5t104.5 -41.5q70 0 140 47l43 -61q-79 -63 -186 -63q-117 0 -182 75t-65 200q0 121 64 199t171 78q102 0 161 -70t59 -191q0 -24 -2 -48h-353zM309 465q-58 0 -94.5 -41.5t-41.5 -122.5h262q-1 79 -34.5 121.5
t-91.5 42.5z" />
    <glyph glyph-name="eacute" unicode="&#xe9;" 
d="M393 803l42 -79l-214 -87l-29 51zM173 231q4 -83 45.5 -124.5t104.5 -41.5q70 0 140 47l43 -61q-79 -63 -186 -63q-117 0 -182 75t-65 200q0 121 64 199t171 78q102 0 161 -70t59 -191q0 -24 -2 -48h-353zM309 465q-58 0 -94.5 -41.5t-41.5 -122.5h262q-1 79 -34.5 121.5
t-91.5 42.5z" />
    <glyph glyph-name="ecircumflex" unicode="&#xea;" 
d="M185 626l-42 45l136 122h63l135 -122l-41 -45l-125 91zM173 231q4 -83 45.5 -124.5t104.5 -41.5q70 0 140 47l43 -61q-79 -63 -186 -63q-117 0 -182 75t-65 200q0 121 64 199t171 78q102 0 161 -70t59 -191q0 -24 -2 -48h-353zM309 465q-58 0 -94.5 -41.5t-41.5 -122.5
h262q-1 79 -34.5 121.5t-91.5 42.5z" />
    <glyph glyph-name="edieresis" unicode="&#xeb;" 
d="M204 646q-25 0 -42 16.5t-17 41.5t17 41.5t42 16.5t42 -16.5t17 -41.5t-17 -41.5t-42 -16.5zM415 646q-25 0 -42 16.5t-17 41.5t17 41.5t42 16.5q26 0 42.5 -16.5t16.5 -41.5t-17 -41.5t-42 -16.5zM173 231q4 -83 45.5 -124.5t104.5 -41.5q70 0 140 47l43 -61
q-79 -63 -186 -63q-117 0 -182 75t-65 200q0 121 64 199t171 78q102 0 161 -70t59 -191q0 -24 -2 -48h-353zM309 465q-58 0 -94.5 -41.5t-41.5 -122.5h262q-1 79 -34.5 121.5t-91.5 42.5z" />
    <glyph glyph-name="igrave" unicode="&#xec;" 
d="M390 622l-208 93l48 80l190 -121zM371 527v-454h147v-73h-403v73h160v381h-155v73h251z" />
    <glyph glyph-name="iacute" unicode="&#xed;" 
d="M384 803l42 -79l-214 -87l-29 51zM371 527v-454h147v-73h-403v73h160v381h-155v73h251z" />
    <glyph glyph-name="icircumflex" unicode="&#xee;" 
d="M176 626l-42 45l136 122h63l135 -122l-41 -45l-125 91zM371 527v-454h147v-73h-403v73h160v381h-155v73h251z" />
    <glyph glyph-name="idieresis" unicode="&#xef;" 
d="M195 646q-25 0 -42 16.5t-17 41.5t17 41.5t42 16.5t42 -16.5t17 -41.5t-17 -41.5t-42 -16.5zM406 646q-25 0 -42 16.5t-17 41.5t17 41.5t42 16.5q26 0 42.5 -16.5t16.5 -41.5t-17 -41.5t-42 -16.5zM371 527v-454h147v-73h-403v73h160v381h-155v73h251z" />
    <glyph glyph-name="eth" unicode="&#xf0;" 
d="M163 563l76 81q-45 22 -112 34l20 72q91 -17 149 -47l70 74l56 -48l-60 -63q174 -119 174 -400q0 -126 -65.5 -202t-175.5 -76q-100 0 -166 66t-66 181q0 108 62.5 177t150.5 69q93 0 153 -66q-28 122 -125 192l-75 -76zM439 265q0 35 -3 67q-50 75 -145 75
q-56 0 -93 -42.5t-37 -125.5q0 -85 36 -130.5t97 -45.5q69 0 107 52t38 150z" />
    <glyph glyph-name="ntilde" unicode="&#xf1;" 
d="M358 655q-29 0 -64.5 24t-51.5 24q-28 0 -53 -46l-57 28q41 90 110 90q30 0 65 -24t51 -24q27 0 53 44l57 -28q-39 -88 -110 -88zM95 0v527h83l7 -71q32 40 78.5 62t94.5 22q148 0 148 -157v-383h-96v324q0 81 -16 111t-68 30q-40 0 -75.5 -24.5t-59.5 -59.5v-381h-96z
" />
    <glyph glyph-name="ograve" unicode="&#xf2;" 
d="M389 622l-208 93l48 80l190 -121zM301 540q111 0 171 -74t60 -202q0 -126 -61 -201t-171 -75q-112 0 -172 73.5t-60 201.5q0 126 61 201.5t172 75.5zM301 463q-131 0 -131 -200q0 -199 130 -199t130 200q0 199 -129 199z" />
    <glyph glyph-name="oacute" unicode="&#xf3;" 
d="M383 803l42 -79l-214 -87l-29 51zM301 540q111 0 171 -74t60 -202q0 -126 -61 -201t-171 -75q-112 0 -172 73.5t-60 201.5q0 126 61 201.5t172 75.5zM301 463q-131 0 -131 -200q0 -199 130 -199t130 200q0 199 -129 199z" />
    <glyph glyph-name="ocircumflex" unicode="&#xf4;" 
d="M175 626l-42 45l136 122h63l135 -122l-41 -45l-125 91zM301 540q111 0 171 -74t60 -202q0 -126 -61 -201t-171 -75q-112 0 -172 73.5t-60 201.5q0 126 61 201.5t172 75.5zM301 463q-131 0 -131 -200q0 -199 130 -199t130 200q0 199 -129 199z" />
    <glyph glyph-name="otilde" unicode="&#xf5;" 
d="M358 655q-29 0 -64.5 24t-51.5 24q-28 0 -53 -46l-57 28q41 90 110 90q30 0 65 -24t51 -24q27 0 53 44l57 -28q-39 -88 -110 -88zM301 540q111 0 171 -74t60 -202q0 -126 -61 -201t-171 -75q-112 0 -172 73.5t-60 201.5q0 126 61 201.5t172 75.5zM301 463
q-131 0 -131 -200q0 -199 130 -199t130 200q0 199 -129 199z" />
    <glyph glyph-name="odieresis" unicode="&#xf6;" 
d="M194 646q-25 0 -42 16.5t-17 41.5t17 41.5t42 16.5t42 -16.5t17 -41.5t-17 -41.5t-42 -16.5zM405 646q-25 0 -42 16.5t-17 41.5t17 41.5t42 16.5q26 0 42.5 -16.5t16.5 -41.5t-17 -41.5t-42 -16.5zM301 540q111 0 171 -74t60 -202q0 -126 -61 -201t-171 -75
q-112 0 -172 73.5t-60 201.5q0 126 61 201.5t172 75.5zM301 463q-131 0 -131 -200q0 -199 130 -199t130 200q0 199 -129 199z" />
    <glyph glyph-name="divide" unicode="&#xf7;" 
d="M300 583q30 0 50.5 -21t20.5 -50t-20.5 -49.5t-50.5 -20.5t-50.5 20.5t-20.5 49.5t20.5 50t50.5 21zM490 353v-80h-380v80h380zM300 185q30 0 50.5 -21t20.5 -50t-20.5 -50t-50.5 -21t-50.5 21t-20.5 50t20.5 50t50.5 21z" />
    <glyph glyph-name="oslash" unicode="&#xf8;" 
d="M421 509q111 -69 111 -245q0 -126 -61 -201t-171 -75q-27 0 -47 4l-37 -123l-77 22l41 128q-112 67 -112 244q0 126 61 201.5t172 75.5q26 0 46 -4l38 119l77 -22zM301 463q-131 0 -131 -200q0 -128 47 -171l114 368q-13 3 -30 3zM300 64q130 0 130 200q0 125 -45 170
l-115 -368q20 -2 30 -2z" />
    <glyph glyph-name="ugrave" unicode="&#xf9;" 
d="M389 622l-208 93l48 80l190 -121zM191 527v-371q0 -49 20.5 -71.5t62.5 -22.5q39 0 76 23t59 57v385h96v-527h-83l-7 70q-30 -39 -75 -60.5t-93 -21.5q-75 0 -113.5 40.5t-38.5 115.5v383h96z" />
    <glyph glyph-name="uacute" unicode="&#xfa;" 
d="M383 803l42 -79l-214 -87l-29 51zM191 527v-371q0 -49 20.5 -71.5t62.5 -22.5q39 0 76 23t59 57v385h96v-527h-83l-7 70q-30 -39 -75 -60.5t-93 -21.5q-75 0 -113.5 40.5t-38.5 115.5v383h96z" />
    <glyph glyph-name="ucircumflex" unicode="&#xfb;" 
d="M175 626l-42 45l136 122h63l135 -122l-41 -45l-125 91zM191 527v-371q0 -49 20.5 -71.5t62.5 -22.5q39 0 76 23t59 57v385h96v-527h-83l-7 70q-30 -39 -75 -60.5t-93 -21.5q-75 0 -113.5 40.5t-38.5 115.5v383h96z" />
    <glyph glyph-name="udieresis" unicode="&#xfc;" 
d="M194 646q-25 0 -42 16.5t-17 41.5t17 41.5t42 16.5t42 -16.5t17 -41.5t-17 -41.5t-42 -16.5zM405 646q-25 0 -42 16.5t-17 41.5t17 41.5t42 16.5q26 0 42.5 -16.5t16.5 -41.5t-17 -41.5t-42 -16.5zM191 527v-371q0 -49 20.5 -71.5t62.5 -22.5q39 0 76 23t59 57v385h96
v-527h-83l-7 70q-30 -39 -75 -60.5t-93 -21.5q-75 0 -113.5 40.5t-38.5 115.5v383h96z" />
    <glyph glyph-name="yacute" unicode="&#xfd;" 
d="M383 803l42 -79l-214 -87l-29 51zM544 527l-184 -530q-31 -93 -87.5 -147t-157.5 -64l-13 75q76 13 110.5 44t57.5 95h-33l-181 527h102l144 -457l143 457h99z" />
    <glyph glyph-name="thorn" unicode="&#xfe;" 
d="M191 751v-287q59 76 150 76q191 0 191 -276q0 -124 -52.5 -200t-150.5 -76q-85 0 -138 59v-249l-96 -12v953zM316 464q-71 0 -125 -81v-255q44 -63 114 -63q125 0 125 199q0 200 -114 200z" />
    <glyph glyph-name="ydieresis" unicode="&#xff;" 
d="M194 646q-25 0 -42 16.5t-17 41.5t17 41.5t42 16.5t42 -16.5t17 -41.5t-17 -41.5t-42 -16.5zM405 646q-25 0 -42 16.5t-17 41.5t17 41.5t42 16.5q26 0 42.5 -16.5t16.5 -41.5t-17 -41.5t-42 -16.5zM544 527l-184 -530q-31 -93 -87.5 -147t-157.5 -64l-13 75
q76 13 110.5 44t57.5 95h-33l-181 527h102l144 -457l143 457h99z" />
    <glyph glyph-name="Amacron" unicode="&#x100;" 
d="M437 793h-275v71h275v-71zM428 172h-261l-52 -172h-100l223 689h124l223 -689h-105zM190 251h215l-107 358z" />
    <glyph glyph-name="amacron" unicode="&#x101;" 
d="M429 673h-275v71h275v-71zM484 121q0 -31 9.5 -45.5t32.5 -21.5l-23 -66q-79 10 -102 74q-57 -74 -166 -74q-80 0 -126 44.5t-46 118.5q0 82 64.5 126.5t184.5 44.5h76v39q0 101 -121 101q-62 0 -139 -27l-25 70q96 35 178 35q100 0 151.5 -45.5t51.5 -127.5v-246z
M261 59q38 0 71.5 19t55.5 53v128h-70q-153 0 -153 -106q0 -94 96 -94z" />
    <glyph glyph-name="Abreve" unicode="&#x102;" 
d="M298 758q-62 0 -103.5 34.5t-47.5 89.5l62 14q23 -66 89 -66q69 0 92 66l62 -14q-6 -55 -49 -89.5t-105 -34.5zM428 172h-261l-52 -172h-100l223 689h124l223 -689h-105zM190 251h215l-107 358z" />
    <glyph glyph-name="abreve" unicode="&#x103;" 
d="M290 627q-65 0 -104.5 43.5t-46.5 98.5l62 13q24 -84 89 -84q68 0 92 84l62 -13q-7 -55 -47.5 -98.5t-106.5 -43.5zM484 121q0 -31 9.5 -45.5t32.5 -21.5l-23 -66q-79 10 -102 74q-57 -74 -166 -74q-80 0 -126 44.5t-46 118.5q0 82 64.5 126.5t184.5 44.5h76v39
q0 101 -121 101q-62 0 -139 -27l-25 70q96 35 178 35q100 0 151.5 -45.5t51.5 -127.5v-246zM261 59q38 0 71.5 19t55.5 53v128h-70q-153 0 -153 -106q0 -94 96 -94z" />
    <glyph glyph-name="Aogonek" unicode="&#x104;" 
d="M538 0q-71 -30 -97 -56.5t-26 -57.5q0 -48 56 -48q27 0 61 7l-9 -71q-35 -7 -63 -7q-58 0 -92.5 28.5t-34.5 73.5q0 96 142 149l-47 154h-261l-52 -172h-100l223 689h124l223 -689h-47zM190 251h215l-107 358z" />
    <glyph glyph-name="aogonek" unicode="&#x105;" 
d="M503 -12q-71 -30 -97 -56.5t-26 -57.5q0 -48 56 -48q27 0 61 7l-9 -71q-35 -7 -63 -7q-58 0 -92.5 28.5t-34.5 73.5q0 96 146 150q-30 19 -43 55q-57 -74 -166 -74q-80 0 -126 44.5t-46 118.5q0 82 64.5 126.5t184.5 44.5h76v39q0 101 -121 101q-62 0 -139 -27l-25 70
q96 35 178 35q100 0 151.5 -45.5t51.5 -127.5v-246q0 -31 9.5 -45.5t32.5 -21.5zM388 131v128h-70q-153 0 -153 -106q0 -94 96 -94q38 0 71.5 19t55.5 53z" />
    <glyph glyph-name="Cacute" unicode="&#x106;" 
d="M447 914l41 -80l-217 -79l-25 51zM358 702q117 0 203 -69l-53 -63q-61 51 -144 51q-90 0 -146 -66t-56 -210q0 -142 54.5 -208t146.5 -66q86 0 159 58l49 -63q-78 -78 -210 -78q-133 0 -218 94t-85 263q0 167 86 262t214 95z" />
    <glyph glyph-name="cacute" unicode="&#x107;" 
d="M427 794l42 -79l-214 -87l-29 51zM341 69q66 0 134 45l45 -62q-35 -29 -83.5 -46.5t-97.5 -17.5q-119 0 -185 74t-66 199q0 122 67.5 200.5t184.5 78.5q102 0 179 -63l-45 -62q-67 46 -133 46q-69 0 -109.5 -50.5t-40.5 -149.5q0 -98 40.5 -145t109.5 -47z" />
    <glyph glyph-name="Ccircumflex" unicode="&#x108;" 
d="M397 916l135 -111l-40 -47l-127 82l-126 -82l-41 47l136 111h63zM358 702q117 0 203 -69l-53 -63q-61 51 -144 51q-90 0 -146 -66t-56 -210q0 -142 54.5 -208t146.5 -66q86 0 159 58l49 -63q-78 -78 -210 -78q-133 0 -218 94t-85 263q0 167 86 262t214 95z" />
    <glyph glyph-name="ccircumflex" unicode="&#x109;" 
d="M219 617l-42 45l136 122h63l135 -122l-41 -45l-125 91zM341 69q66 0 134 45l45 -62q-35 -29 -83.5 -46.5t-97.5 -17.5q-119 0 -185 74t-66 199q0 122 67.5 200.5t184.5 78.5q102 0 179 -63l-45 -62q-67 46 -133 46q-69 0 -109.5 -50.5t-40.5 -149.5q0 -98 40.5 -145
t109.5 -47z" />
    <glyph glyph-name="Cdotaccent" unicode="&#x10a;" 
d="M364 899q30 0 48.5 -18.5t18.5 -45.5q0 -28 -18.5 -46t-48.5 -18q-29 0 -47.5 18t-18.5 46q0 27 18.5 45.5t47.5 18.5zM358 702q117 0 203 -69l-53 -63q-61 51 -144 51q-90 0 -146 -66t-56 -210q0 -142 54.5 -208t146.5 -66q86 0 159 58l49 -63q-78 -78 -210 -78
q-133 0 -218 94t-85 263q0 167 86 262t214 95z" />
    <glyph glyph-name="cdotaccent" unicode="&#x10b;" 
d="M343 770q30 0 48.5 -18.5t18.5 -45.5q0 -28 -18.5 -46t-48.5 -18q-29 0 -47.5 18t-18.5 46q0 27 18.5 45.5t47.5 18.5zM341 69q66 0 134 45l45 -62q-35 -29 -83.5 -46.5t-97.5 -17.5q-119 0 -185 74t-66 199q0 122 67.5 200.5t184.5 78.5q102 0 179 -63l-45 -62
q-67 46 -133 46q-69 0 -109.5 -50.5t-40.5 -149.5q0 -98 40.5 -145t109.5 -47z" />
    <glyph glyph-name="Ccaron" unicode="&#x10c;" 
d="M492 911l40 -46l-135 -111h-63l-136 111l41 46l126 -81zM358 702q117 0 203 -69l-53 -63q-61 51 -144 51q-90 0 -146 -66t-56 -210q0 -142 54.5 -208t146.5 -66q86 0 159 58l49 -63q-78 -78 -210 -78q-133 0 -218 94t-85 263q0 167 86 262t214 95z" />
    <glyph glyph-name="ccaron" unicode="&#x10d;" 
d="M470 784l41 -45l-135 -122h-63l-136 122l42 45l126 -91zM341 69q66 0 134 45l45 -62q-35 -29 -83.5 -46.5t-97.5 -17.5q-119 0 -185 74t-66 199q0 122 67.5 200.5t184.5 78.5q102 0 179 -63l-45 -62q-67 46 -133 46q-69 0 -109.5 -50.5t-40.5 -149.5q0 -98 40.5 -145
t109.5 -47z" />
    <glyph glyph-name="Dcaron" unicode="&#x10e;" 
d="M411 911l40 -46l-135 -111h-63l-136 111l41 46l126 -81zM556 348q0 -83 -19 -146.5t-49 -101t-73 -61t-84.5 -31.5t-89.5 -8h-163v689h152q54 0 97.5 -7.5t87.5 -30t74 -59.5t48.5 -99t18.5 -145zM451 348q0 67 -12 116t-30.5 76.5t-46.5 44t-53.5 21.5t-57.5 5h-74v-533
h75q199 0 199 270z" />
    <glyph glyph-name="dcaron" unicode="&#x10f;" 
d="M378 751l96 -12v-739h-85l-8 67q-55 -79 -149 -79q-100 0 -150 73.5t-50 201.5q0 122 56 199.5t152 77.5q85 0 138 -61v272zM540 750l87 -11l-58 -187l-56 9zM265 464q-130 0 -130 -201q0 -200 120 -200q71 0 123 80v257q-45 64 -113 64z" />
    <glyph glyph-name="Dcroat" unicode="&#x110;" 
d="M240 689q54 0 97.5 -7.5t87.5 -30t74 -59.5t48.5 -99t18.5 -145t-19 -146.5t-49 -101t-73 -61t-84.5 -31.5t-89.5 -8h-163v317h-70v72h70v300h152zM262 78q199 0 199 270q0 67 -12 116t-30.5 76.5t-46.5 44t-53.5 21.5t-57.5 5h-74v-222h153v-72h-153v-239h75z" />
    <glyph glyph-name="dcroat" unicode="&#x111;" 
d="M583 668v-71h-79v-597h-85l-8 67q-55 -79 -149 -79q-100 0 -150 73.5t-50 201.5q0 122 56 199.5t152 77.5q85 0 138 -61v118h-164v71h164v83l96 -12v-71h79zM408 143v257q-45 64 -113 64q-130 0 -130 -201q0 -200 120 -200q71 0 123 80z" />
    <glyph glyph-name="Emacron" unicode="&#x112;" 
d="M458 793h-275v71h275v-71zM219 611v-222h254v-78h-254v-233h310v-78h-409v689h402l-12 -78h-291z" />
    <glyph glyph-name="emacron" unicode="&#x113;" 
d="M447 673h-275v71h275v-71zM173 231q4 -83 45.5 -124.5t104.5 -41.5q70 0 140 47l43 -61q-79 -63 -186 -63q-117 0 -182 75t-65 200q0 121 64 199t171 78q102 0 161 -70t59 -191q0 -24 -2 -48h-353zM309 465q-58 0 -94.5 -41.5t-41.5 -122.5h262q-1 79 -34.5 121.5
t-91.5 42.5z" />
    <glyph glyph-name="Ebreve" unicode="&#x114;" 
d="M319 758q-62 0 -103.5 34.5t-47.5 89.5l62 14q23 -66 89 -66q69 0 92 66l62 -14q-6 -55 -49 -89.5t-105 -34.5zM219 611v-222h254v-78h-254v-233h310v-78h-409v689h402l-12 -78h-291z" />
    <glyph glyph-name="ebreve" unicode="&#x115;" 
d="M308 627q-65 0 -104.5 43.5t-46.5 98.5l62 13q24 -84 89 -84q68 0 92 84l62 -13q-7 -55 -47.5 -98.5t-106.5 -43.5zM173 231q4 -83 45.5 -124.5t104.5 -41.5q70 0 140 47l43 -61q-79 -63 -186 -63q-117 0 -182 75t-65 200q0 121 64 199t171 78q102 0 161 -70t59 -191
q0 -24 -2 -48h-353zM309 465q-58 0 -94.5 -41.5t-41.5 -122.5h262q-1 79 -34.5 121.5t-91.5 42.5z" />
    <glyph glyph-name="Edotaccent" unicode="&#x116;" 
d="M320 899q30 0 48.5 -18.5t18.5 -45.5q0 -28 -18.5 -46t-48.5 -18q-29 0 -47.5 18t-18.5 46q0 27 18.5 45.5t47.5 18.5zM219 611v-222h254v-78h-254v-233h310v-78h-409v689h402l-12 -78h-291z" />
    <glyph glyph-name="edotaccent" unicode="&#x117;" 
d="M309 779q30 0 48.5 -18.5t18.5 -45.5q0 -28 -18.5 -46t-48.5 -18q-29 0 -47.5 18t-18.5 46q0 27 18.5 45.5t47.5 18.5zM173 231q4 -83 45.5 -124.5t104.5 -41.5q70 0 140 47l43 -61q-79 -63 -186 -63q-117 0 -182 75t-65 200q0 121 64 199t171 78q102 0 161 -70t59 -191
q0 -24 -2 -48h-353zM309 465q-58 0 -94.5 -41.5t-41.5 -122.5h262q-1 79 -34.5 121.5t-91.5 42.5z" />
    <glyph glyph-name="Eogonek" unicode="&#x118;" 
d="M219 78h310v-78h-61q-71 -30 -97 -56.5t-26 -57.5q0 -48 56 -48q27 0 61 7l-9 -71q-35 -7 -63 -7q-58 0 -92.5 28.5t-34.5 73.5q0 82 100 131h-243v689h402l-12 -78h-291v-222h254v-78h-254v-233z" />
    <glyph glyph-name="eogonek" unicode="&#x119;" 
d="M528 279q0 -24 -2 -48h-353q4 -83 45.5 -124.5t104.5 -41.5q70 0 140 47l43 -61q-41 -34 -101 -51q-71 -30 -97 -56.5t-26 -57.5q0 -48 56 -48q27 0 61 7l-9 -71q-35 -7 -63 -7q-58 0 -92.5 28.5t-34.5 73.5q0 77 95 120q-105 8 -163.5 82t-58.5 192q0 121 64 199t171 78
q102 0 161 -70t59 -191zM173 301h262q-1 79 -34.5 121.5t-91.5 42.5t-94.5 -41.5t-41.5 -122.5z" />
    <glyph glyph-name="Ecaron" unicode="&#x11a;" 
d="M448 911l40 -46l-135 -111h-63l-136 111l41 46l126 -81zM219 611v-222h254v-78h-254v-233h310v-78h-409v689h402l-12 -78h-291z" />
    <glyph glyph-name="ecaron" unicode="&#x11b;" 
d="M436 793l41 -45l-135 -122h-63l-136 122l42 45l126 -91zM173 231q4 -83 45.5 -124.5t104.5 -41.5q70 0 140 47l43 -61q-79 -63 -186 -63q-117 0 -182 75t-65 200q0 121 64 199t171 78q102 0 161 -70t59 -191q0 -24 -2 -48h-353zM309 465q-58 0 -94.5 -41.5t-41.5 -122.5
h262q-1 79 -34.5 121.5t-91.5 42.5z" />
    <glyph glyph-name="Gcircumflex" unicode="&#x11c;" 
d="M362 916l135 -111l-40 -47l-127 82l-126 -82l-41 47l136 111h63zM316 -12q-129 0 -201.5 91t-72.5 266q0 169 85.5 263t208.5 94q65 0 111 -19t89 -59l-58 -60q-61 57 -141 57q-83 0 -136.5 -66t-53.5 -210q0 -145 43.5 -211t131.5 -66q68 0 124 32v201h-128l-11 79h237
v-331q-112 -61 -228 -61z" />
    <glyph glyph-name="gcircumflex" unicode="&#x11d;" 
d="M169 626l-42 45l136 122h63l135 -122l-41 -45l-125 91zM531 588l27 -85q-49 -16 -154 -16q94 -43 94 -134q0 -79 -54.5 -129t-148.5 -50q-45 0 -76 10q-25 -20 -25 -48q0 -42 68 -42h94q82 0 135.5 -41.5t53.5 -103.5q0 -78 -66.5 -120.5t-190.5 -42.5q-126 0 -177 39
t-51 122h87q0 -47 29 -67t112 -20q160 0 160 83q0 34 -31 53t-81 19h-92q-68 0 -103 28.5t-35 71.5q0 56 58 94q-89 47 -89 146q0 82 59.5 133.5t154.5 51.5q89 -1 138 10.5t104 37.5zM289 471q-57 0 -86.5 -31.5t-29.5 -84.5q0 -54 30 -85.5t88 -31.5q53 0 81 30.5t28 87.5
q0 115 -111 115z" />
    <glyph glyph-name="Gbreve" unicode="&#x11e;" 
d="M328 758q-62 0 -103.5 34.5t-47.5 89.5l62 14q23 -66 89 -66q69 0 92 66l62 -14q-6 -55 -49 -89.5t-105 -34.5zM316 -12q-129 0 -201.5 91t-72.5 266q0 169 85.5 263t208.5 94q65 0 111 -19t89 -59l-58 -60q-61 57 -141 57q-83 0 -136.5 -66t-53.5 -210q0 -145 43.5 -211
t131.5 -66q68 0 124 32v201h-128l-11 79h237v-331q-112 -61 -228 -61z" />
    <glyph glyph-name="gbreve" unicode="&#x11f;" 
d="M292 627q-65 0 -104.5 43.5t-46.5 98.5l62 13q24 -84 89 -84q68 0 92 84l62 -13q-7 -55 -47.5 -98.5t-106.5 -43.5zM531 588l27 -85q-49 -16 -154 -16q94 -43 94 -134q0 -79 -54.5 -129t-148.5 -50q-45 0 -76 10q-25 -20 -25 -48q0 -42 68 -42h94q82 0 135.5 -41.5
t53.5 -103.5q0 -78 -66.5 -120.5t-190.5 -42.5q-126 0 -177 39t-51 122h87q0 -47 29 -67t112 -20q160 0 160 83q0 34 -31 53t-81 19h-92q-68 0 -103 28.5t-35 71.5q0 56 58 94q-89 47 -89 146q0 82 59.5 133.5t154.5 51.5q89 -1 138 10.5t104 37.5zM289 471
q-57 0 -86.5 -31.5t-29.5 -84.5q0 -54 30 -85.5t88 -31.5q53 0 81 30.5t28 87.5q0 115 -111 115z" />
    <glyph glyph-name="Gdotaccent" unicode="&#x120;" 
d="M329 899q30 0 48.5 -18.5t18.5 -45.5q0 -28 -18.5 -46t-48.5 -18q-29 0 -47.5 18t-18.5 46q0 27 18.5 45.5t47.5 18.5zM316 -12q-129 0 -201.5 91t-72.5 266q0 169 85.5 263t208.5 94q65 0 111 -19t89 -59l-58 -60q-61 57 -141 57q-83 0 -136.5 -66t-53.5 -210
q0 -145 43.5 -211t131.5 -66q68 0 124 32v201h-128l-11 79h237v-331q-112 -61 -228 -61z" />
    <glyph glyph-name="gdotaccent" unicode="&#x121;" 
d="M293 779q30 0 48.5 -18.5t18.5 -45.5q0 -28 -18.5 -46t-48.5 -18q-29 0 -47.5 18t-18.5 46q0 27 18.5 45.5t47.5 18.5zM531 588l27 -85q-49 -16 -154 -16q94 -43 94 -134q0 -79 -54.5 -129t-148.5 -50q-45 0 -76 10q-25 -20 -25 -48q0 -42 68 -42h94q82 0 135.5 -41.5
t53.5 -103.5q0 -78 -66.5 -120.5t-190.5 -42.5q-126 0 -177 39t-51 122h87q0 -47 29 -67t112 -20q160 0 160 83q0 34 -31 53t-81 19h-92q-68 0 -103 28.5t-35 71.5q0 56 58 94q-89 47 -89 146q0 82 59.5 133.5t154.5 51.5q89 -1 138 10.5t104 37.5zM289 471
q-57 0 -86.5 -31.5t-29.5 -84.5q0 -54 30 -85.5t88 -31.5q53 0 81 30.5t28 87.5q0 115 -111 115z" />
    <glyph glyph-name="Gcommaaccent" unicode="&#x122;" 
d="M316 -12q-129 0 -201.5 91t-72.5 266q0 169 85.5 263t208.5 94q65 0 111 -19t89 -59l-58 -60q-61 57 -141 57q-83 0 -136.5 -66t-53.5 -210q0 -145 43.5 -211t131.5 -66q68 0 124 32v201h-128l-11 79h237v-331q-112 -61 -228 -61zM333 -70q25 0 41.5 -16t16.5 -41
q0 -24 -16 -59l-50 -106h-56l29 117q-23 18 -23 48q0 25 16.5 41t41.5 16z" />
    <glyph glyph-name="gcommaaccent" unicode="&#x123;" 
d="M291 597q-25 0 -41.5 16t-16.5 41q0 24 16 59l50 106h56l-29 -117q23 -18 23 -48q0 -25 -16.5 -41t-41.5 -16zM531 588l27 -85q-49 -16 -154 -16q94 -43 94 -134q0 -79 -54.5 -129t-148.5 -50q-45 0 -76 10q-25 -20 -25 -48q0 -42 68 -42h94q82 0 135.5 -41.5
t53.5 -103.5q0 -78 -66.5 -120.5t-190.5 -42.5q-126 0 -177 39t-51 122h87q0 -47 29 -67t112 -20q160 0 160 83q0 34 -31 53t-81 19h-92q-68 0 -103 28.5t-35 71.5q0 56 58 94q-89 47 -89 146q0 82 59.5 133.5t154.5 51.5q89 -1 138 10.5t104 37.5zM289 471
q-57 0 -86.5 -31.5t-29.5 -84.5q0 -54 30 -85.5t88 -31.5q53 0 81 30.5t28 87.5q0 115 -111 115z" />
    <glyph glyph-name="Hcircumflex" unicode="&#x124;" 
d="M332 916l135 -111l-40 -47l-127 82l-126 -82l-41 47l136 111h63zM423 0v321h-246v-321h-99v689h99v-286h246v286h99v-689h-99z" />
    <glyph glyph-name="hcircumflex" unicode="&#x125;" 
d="M332 966l135 -111l-40 -47l-127 82l-126 -82l-41 47l136 111h63zM191 749v-291q65 82 167 82q148 0 148 -157v-383h-96v375q0 47 -20.5 68.5t-64.5 21.5q-39 0 -74.5 -24.5t-59.5 -59.5v-381h-96v738z" />
    <glyph glyph-name="Hbar" unicode="&#x126;" 
d="M598 578v-70h-77v-508h-99v321h-244v-321h-99v508h-77v70h77v111h99v-111h244v111h99v-111h77zM422 402v106h-244v-106h244z" />
    <glyph glyph-name="hbar" unicode="&#x127;" 
d="M358 540q148 0 148 -157v-383h-96v375q0 47 -20.5 68.5t-64.5 21.5q-39 0 -74.5 -24.5t-59.5 -59.5v-381h-96v597h-78v71h78v70l96 11v-81h165v-71h-165v-139q65 82 167 82z" />
    <glyph glyph-name="Itilde" unicode="&#x128;" 
d="M358 775q-29 0 -64.5 24t-51.5 24q-28 0 -53 -46l-57 28q41 90 110 90q30 0 65 -24t51 -24q27 0 53 44l57 -28q-39 -88 -110 -88zM502 689v-77h-152v-534h152v-78h-404v78h152v534h-152v77h404z" />
    <glyph glyph-name="itilde" unicode="&#x129;" 
d="M359 655q-29 0 -64.5 24t-51.5 24q-28 0 -53 -46l-57 28q41 90 110 90q30 0 65 -24t51 -24q27 0 53 44l57 -28q-39 -88 -110 -88zM371 527v-454h147v-73h-403v73h160v381h-155v73h251z" />
    <glyph glyph-name="Imacron" unicode="&#x12a;" 
d="M437 793h-275v71h275v-71zM502 689v-77h-152v-534h152v-78h-404v78h152v534h-152v77h404z" />
    <glyph glyph-name="imacron" unicode="&#x12b;" 
d="M438 673h-275v71h275v-71zM371 527v-454h147v-73h-403v73h160v381h-155v73h251z" />
    <glyph glyph-name="Ibreve" unicode="&#x12c;" 
d="M298 758q-62 0 -103.5 34.5t-47.5 89.5l62 14q23 -66 89 -66q69 0 92 66l62 -14q-6 -55 -49 -89.5t-105 -34.5zM502 689v-77h-152v-534h152v-78h-404v78h152v534h-152v77h404z" />
    <glyph glyph-name="ibreve" unicode="&#x12d;" 
d="M299 627q-65 0 -104.5 43.5t-46.5 98.5l62 13q24 -84 89 -84q68 0 92 84l62 -13q-7 -55 -47.5 -98.5t-106.5 -43.5zM371 527v-454h147v-73h-403v73h160v381h-155v73h251z" />
    <glyph glyph-name="Iogonek" unicode="&#x12e;" 
d="M502 612h-152v-534h152v-78h-152q-71 -30 -97 -56.5t-26 -57.5q0 -48 56 -48q27 0 61 7l-9 -71q-35 -7 -63 -7q-58 0 -92.5 28.5t-34.5 73.5q0 82 100 131h-147v78h152v534h-152v77h404v-77z" />
    <glyph glyph-name="iogonek" unicode="&#x12f;" 
d="M300 651q-29 0 -47.5 18t-18.5 46q0 27 18.5 45.5t47.5 18.5q30 0 48.5 -18.5t18.5 -45.5q0 -28 -18.5 -46t-48.5 -18zM371 73h147v-73h-147q-71 -30 -97 -56.5t-26 -57.5q0 -48 56 -48q27 0 61 7l-9 -71q-35 -7 -63 -7q-58 0 -92.5 28.5t-34.5 73.5q0 82 100 131h-151
v73h160v381h-155v73h251v-454z" />
    <glyph glyph-name="Idotaccent" unicode="&#x130;" 
d="M299 899q30 0 48.5 -18.5t18.5 -45.5q0 -28 -18.5 -46t-48.5 -18q-29 0 -47.5 18t-18.5 46q0 27 18.5 45.5t47.5 18.5zM502 689v-77h-152v-534h152v-78h-404v78h152v534h-152v77h404z" />
    <glyph glyph-name="dotlessi" unicode="&#x131;" 
d="M371 527v-454h147v-73h-403v73h160v381h-155v73h251z" />
    <glyph glyph-name="IJ" unicode="&#x132;" 
d="M192 -71q142 16 193.5 78t51.5 181v425h-231v-536h75v-77h-270v77h95v536h-95v76h525v-504q0 -65 -15 -116.5t-50.5 -97.5t-103 -75.5t-163.5 -39.5z" />
    <glyph glyph-name="ij" unicode="&#x133;" 
d="M184 779q29 0 48 -18.5t19 -45.5q0 -28 -19 -46t-48 -18t-47.5 18t-18.5 46q0 27 18.5 45.5t47.5 18.5zM449 779q29 0 48 -18.5t19 -45.5q0 -28 -19 -46t-48 -18t-47 18t-18 46q0 27 18 45.5t47 18.5zM507 527v-461q0 -109 -69 -174.5t-193 -105.5l-29 74q44 16 74 31.5
t61 38.5t46.5 55.5t15.5 73.5v397h-184v-383h89v-73h-272v73h90v383h-85v71h456z" />
    <glyph glyph-name="Jcircumflex" unicode="&#x134;" 
d="M382 916l135 -111l-40 -47l-127 82l-126 -82l-41 47l136 111h63zM502 689v-457q0 -48 -13 -90t-40 -77.5t-76 -56t-114 -20.5q-107 0 -192 63l42 64q76 -47 148 -47q68 0 106.5 44.5t38.5 123.5v375h-205v78h305z" />
    <glyph glyph-name="jcircumflex" unicode="&#x135;" 
d="M243 626l-42 45l136 122h63l135 -122l-41 -45l-125 91zM449 527v-431q0 -134 -86 -207t-256 -103l-15 74q127 23 194 75.5t67 154.5v364h-214v73h310z" />
    <glyph glyph-name="Kcommaaccent" unicode="&#x136;" 
d="M197 0h-99v689h99v-689zM202 368l257 321h112l-257 -315l276 -374h-121zM322 -70q25 0 41.5 -16t16.5 -41q0 -24 -16 -59l-50 -106h-56l29 117q-23 18 -23 48q0 25 16.5 41t41.5 16z" />
    <glyph glyph-name="kcommaaccent" unicode="&#x137;" 
d="M196 751v-751h-96v739zM547 527l-227 -237l252 -290h-122l-245 288l224 239h118zM308 -70q25 0 41.5 -16t16.5 -41q0 -24 -16 -59l-50 -106h-56l29 117q-23 18 -23 48q0 25 16.5 41t41.5 16z" />
    <glyph glyph-name="kgreenlandic" unicode="&#x138;" 
d="M191 527v-527h-96v527h96zM542 527l-229 -239l254 -288h-121l-246 282l224 245h118z" />
    <glyph glyph-name="Lacute" unicode="&#x139;" 
d="M261 914l41 -80l-217 -79l-25 51zM129 0v689h99v-603h312l-11 -86h-400z" />
    <glyph glyph-name="lacute" unicode="&#x13a;" 
d="M347 1015l42 -79l-214 -87l-29 51zM312 739v-603q0 -69 84 -69q41 0 87 18l24 -69q-54 -28 -129 -28t-118.5 41.5t-43.5 113.5v523h-160v73h256z" />
    <glyph glyph-name="Lcommaaccent" unicode="&#x13b;" 
d="M129 0v689h99v-603h312l-11 -86h-400zM332 -70q25 0 41.5 -16t16.5 -41q0 -24 -16 -59l-50 -106h-56l29 117q-23 18 -23 48q0 25 16.5 41t41.5 16z" />
    <glyph glyph-name="lcommaaccent" unicode="&#x13c;" 
d="M312 739v-603q0 -69 84 -69q41 0 87 18l24 -69q-54 -28 -129 -28t-118.5 41.5t-43.5 113.5v523h-160v73h256zM363 -70q25 0 41.5 -16t16.5 -41q0 -24 -16 -59l-50 -106h-56l29 117q-23 18 -23 48q0 25 16.5 41t41.5 16z" />
    <glyph glyph-name="Lcaron" unicode="&#x13d;" 
d="M314 700l87 -11l-58 -187l-56 9zM129 0v689h99v-603h312l-11 -86h-400z" />
    <glyph glyph-name="lcaron" unicode="&#x13e;" 
d="M388 750l87 -11l-58 -187l-56 9zM312 739v-603q0 -69 84 -69q41 0 87 18l24 -69q-54 -28 -129 -28t-118.5 41.5t-43.5 113.5v523h-160v73h256z" />
    <glyph glyph-name="Ldot" unicode="&#x13f;" 
d="M129 0v689h99v-603h312l-11 -86h-400zM471 443q30 0 48.5 -18.5t18.5 -45.5q0 -28 -18.5 -46t-48.5 -18q-29 0 -47.5 18t-18.5 46q0 27 18.5 45.5t47.5 18.5z" />
    <glyph glyph-name="ldot" unicode="&#x140;" 
d="M312 739v-603q0 -69 84 -69q41 0 87 18l24 -69q-54 -28 -129 -28t-118.5 41.5t-43.5 113.5v523h-160v73h256zM561 446q30 0 48.5 -18.5t18.5 -45.5q0 -28 -18.5 -46t-48.5 -18q-29 0 -47.5 18t-18.5 46q0 27 18.5 45.5t47.5 18.5z" />
    <glyph glyph-name="Lslash" unicode="&#x141;" 
d="M229 86h312l-11 -86h-400v262l-56 -35l-39 62l95 57v343h99v-281l158 98l40 -60l-198 -123v-237z" />
    <glyph glyph-name="lslash" unicode="&#x142;" 
d="M483 85l24 -69q-54 -28 -129 -28t-118.5 41.5t-43.5 113.5v155l-64 -39l-39 60l103 62v285h-160v73h256v-298l86 53l39 -60l-125 -77v-221q0 -69 84 -69q41 0 87 18z" />
    <glyph glyph-name="Nacute" unicode="&#x143;" 
d="M383 914l41 -80l-217 -79l-25 51zM388 0l-233 597q13 -221 13 -266v-331h-90v689h132l235 -599q0 6 -2.5 38t-4.5 62.5t-4 77.5t-2 90v331h90v-689h-134z" />
    <glyph glyph-name="nacute" unicode="&#x144;" 
d="M383 803l42 -79l-214 -87l-29 51zM95 0v527h83l7 -71q32 40 78.5 62t94.5 22q148 0 148 -157v-383h-96v324q0 81 -16 111t-68 30q-40 0 -75.5 -24.5t-59.5 -59.5v-381h-96z" />
    <glyph glyph-name="Ncommaaccent" unicode="&#x145;" 
d="M388 0l-233 597q13 -221 13 -266v-331h-90v689h132l235 -599q0 6 -2.5 38t-4.5 62.5t-4 77.5t-2 90v331h90v-689h-134zM303 -70q25 0 41.5 -16t16.5 -41q0 -24 -16 -59l-50 -106h-56l29 117q-23 18 -23 48q0 25 16.5 41t41.5 16z" />
    <glyph glyph-name="ncommaaccent" unicode="&#x146;" 
d="M95 0v527h83l7 -71q32 40 78.5 62t94.5 22q148 0 148 -157v-383h-96v324q0 81 -16 111t-68 30q-40 0 -75.5 -24.5t-59.5 -59.5v-381h-96zM304 -70q25 0 41.5 -16t16.5 -41q0 -24 -16 -59l-50 -106h-56l29 117q-23 18 -23 48q0 25 16.5 41t41.5 16z" />
    <glyph glyph-name="Ncaron" unicode="&#x147;" 
d="M428 911l40 -46l-135 -111h-63l-136 111l41 46l126 -81zM388 0l-233 597q13 -221 13 -266v-331h-90v689h132l235 -599q0 6 -2.5 38t-4.5 62.5t-4 77.5t-2 90v331h90v-689h-134z" />
    <glyph glyph-name="ncaron" unicode="&#x148;" 
d="M426 793l41 -45l-135 -122h-63l-136 122l42 45l126 -91zM95 0v527h83l7 -71q32 40 78.5 62t94.5 22q148 0 148 -157v-383h-96v324q0 81 -16 111t-68 30q-40 0 -75.5 -24.5t-59.5 -59.5v-381h-96z" />
    <glyph glyph-name="napostrophe" unicode="&#x149;" 
d="M63 754q24 0 41 -16.5t17 -40.5t-26 -77l-41 -86h-54l28 115q-24 21 -24 48q0 24 17 40.5t42 16.5zM106 0v527h83l7 -71q32 40 78.5 62t94.5 22q148 0 148 -157v-383h-96v324q0 81 -16 111t-68 30q-40 0 -75.5 -24.5t-59.5 -59.5v-381h-96z" />
    <glyph glyph-name="Eng" unicode="&#x14a;" 
d="M432 689h90v-745q0 -78 -41 -118.5t-113 -40.5q-67 0 -116 39l37 62q39 -22 73 -22q61 0 61 73v63h-35l-233 597q13 -221 13 -266v-331h-90v689h132l235 -599q0 6 -2.5 38t-4.5 62.5t-4 77.5t-2 90v331z" />
    <glyph glyph-name="eng" unicode="&#x14b;" 
d="M506 34q0 -75 -20 -122.5t-52 -72.5t-92 -52l-36 70q58 27 81 59.5t23 110.5v297q0 81 -15.5 111t-69.5 30q-39 0 -74.5 -24.5t-59.5 -59.5v-381h-96v527h83l7 -71q32 40 78.5 62t94.5 22q148 0 148 -157v-349z" />
    <glyph glyph-name="Omacron" unicode="&#x14c;" 
d="M437 793h-275v71h275v-71zM557 344q0 -162 -66.5 -259t-190.5 -97q-125 0 -191 95.5t-66 259.5q0 163 66.5 261t190.5 98q125 0 191 -96.5t66 -261.5zM454 344q0 139 -36.5 208t-117.5 69t-117.5 -69t-36.5 -209q0 -275 154 -275q81 0 117.5 68.5t36.5 207.5z" />
    <glyph glyph-name="omacron" unicode="&#x14d;" 
d="M437 673h-275v71h275v-71zM301 540q111 0 171 -74t60 -202q0 -126 -61 -201t-171 -75q-112 0 -172 73.5t-60 201.5q0 126 61 201.5t172 75.5zM301 463q-131 0 -131 -200q0 -199 130 -199t130 200q0 199 -129 199z" />
    <glyph glyph-name="Obreve" unicode="&#x14e;" 
d="M298 758q-62 0 -103.5 34.5t-47.5 89.5l62 14q23 -66 89 -66q69 0 92 66l62 -14q-6 -55 -49 -89.5t-105 -34.5zM557 344q0 -162 -66.5 -259t-190.5 -97q-125 0 -191 95.5t-66 259.5q0 163 66.5 261t190.5 98q125 0 191 -96.5t66 -261.5zM454 344q0 139 -36.5 208
t-117.5 69t-117.5 -69t-36.5 -209q0 -275 154 -275q81 0 117.5 68.5t36.5 207.5z" />
    <glyph glyph-name="obreve" unicode="&#x14f;" 
d="M298 627q-65 0 -104.5 43.5t-46.5 98.5l62 13q24 -84 89 -84q68 0 92 84l62 -13q-7 -55 -47.5 -98.5t-106.5 -43.5zM301 540q111 0 171 -74t60 -202q0 -126 -61 -201t-171 -75q-112 0 -172 73.5t-60 201.5q0 126 61 201.5t172 75.5zM301 463q-131 0 -131 -200
q0 -199 130 -199t130 200q0 199 -129 199z" />
    <glyph glyph-name="Ohungarumlaut" unicode="&#x150;" 
d="M179 782l81 177l80 -38l-102 -167zM343 782l89 177l79 -41l-111 -166zM557 344q0 -162 -66.5 -259t-190.5 -97q-125 0 -191 95.5t-66 259.5q0 163 66.5 261t190.5 98q125 0 191 -96.5t66 -261.5zM454 344q0 139 -36.5 208t-117.5 69t-117.5 -69t-36.5 -209
q0 -275 154 -275q81 0 117.5 68.5t36.5 207.5z" />
    <glyph glyph-name="ohungarumlaut" unicode="&#x151;" 
d="M174 662l81 177l80 -38l-102 -167zM338 662l89 177l79 -41l-111 -166zM301 540q111 0 171 -74t60 -202q0 -126 -61 -201t-171 -75q-112 0 -172 73.5t-60 201.5q0 126 61 201.5t172 75.5zM301 463q-131 0 -131 -200q0 -199 130 -199t130 200q0 199 -129 199z" />
    <glyph glyph-name="OE" unicode="&#x152;" 
d="M214 702q34 0 75 -13h317l-11 -77h-234q54 -68 61 -224h148v-77h-148q-4 -159 -65 -234h257v-77h-328q-39 -12 -72 -12q-213 0 -213 355q0 175 53 267t160 92zM214 623q-59 0 -86 -65.5t-27 -214.5q0 -148 27.5 -213t85.5 -65q60 0 87 65t27 214q0 150 -26.5 214.5
t-87.5 64.5z" />
    <glyph glyph-name="oe" unicode="&#x153;" 
d="M447 540q167 0 167 -261q0 -27 -3 -47h-258q7 -88 32 -128t75 -40q45 0 94 38l43 -61q-66 -53 -139 -53q-108 0 -150 98q-20 -48 -52.5 -73t-87.5 -25q-86 0 -128.5 72.5t-42.5 202.5q0 129 42 203t129 74q57 0 89.5 -25.5t51.5 -74.5q42 100 138 100zM444 465
q-43 0 -64 -37t-27 -127h173q-2 85 -19.5 124.5t-62.5 39.5zM178 464q-46 0 -65.5 -48t-19.5 -153q0 -107 19.5 -153t65.5 -46t65 45t19 155q0 104 -19.5 152t-64.5 48z" />
    <glyph glyph-name="Racute" unicode="&#x154;" 
d="M382 914l41 -80l-217 -79l-25 51zM541 493q0 -73 -45 -121.5t-118 -68.5l201 -303h-118l-182 290h-85v-290h-99v689h183q263 0 263 -196zM436 493q0 63 -36.5 91.5t-113.5 28.5h-92v-247h94q73 0 110.5 30t37.5 97z" />
    <glyph glyph-name="racute" unicode="&#x155;" 
d="M455 724l-214 -87l-29 51l201 115zM459 539q36 0 77 -12l-15 -185h-74v110h-1q-119 0 -169 -170v-211h107v-71h-284v71h81v385h-81v71h154l17 -123q31 68 75.5 101.5t112.5 33.5z" />
    <glyph glyph-name="Rcommaaccent" unicode="&#x156;" 
d="M541 493q0 -73 -45 -121.5t-118 -68.5l201 -303h-118l-182 290h-85v-290h-99v689h183q263 0 263 -196zM436 493q0 63 -36.5 91.5t-113.5 28.5h-92v-247h94q73 0 110.5 30t37.5 97zM304 -70q25 0 41.5 -16t16.5 -41q0 -24 -16 -59l-50 -106h-56l29 117q-23 18 -23 48
q0 25 16.5 41t41.5 16z" />
    <glyph glyph-name="rcommaaccent" unicode="&#x157;" 
d="M459 539q36 0 77 -12l-15 -185h-74v110h-1q-119 0 -169 -170v-211h107v-71h-284v71h81v385h-81v71h154l17 -123q31 68 75.5 101.5t112.5 33.5zM232 -70q25 0 41.5 -16t16.5 -41q0 -24 -16 -59l-50 -106h-56l29 117q-23 18 -23 48q0 25 16.5 41t41.5 16z" />
    <glyph glyph-name="Rcaron" unicode="&#x158;" 
d="M427 911l40 -46l-135 -111h-63l-136 111l41 46l126 -81zM541 493q0 -73 -45 -121.5t-118 -68.5l201 -303h-118l-182 290h-85v-290h-99v689h183q263 0 263 -196zM436 493q0 63 -36.5 91.5t-113.5 28.5h-92v-247h94q73 0 110.5 30t37.5 97z" />
    <glyph glyph-name="rcaron" unicode="&#x159;" 
d="M362 626h-63l-136 122l42 45l126 -91l125 91l41 -45zM459 539q36 0 77 -12l-15 -185h-74v110h-1q-119 0 -169 -170v-211h107v-71h-284v71h81v385h-81v71h154l17 -123q31 68 75.5 101.5t112.5 33.5z" />
    <glyph glyph-name="Sacute" unicode="&#x15a;" 
d="M388 914l41 -80l-217 -79l-25 51zM542 193q0 -92 -68.5 -148.5t-188.5 -56.5q-155 0 -247 89l57 64q78 -73 191 -73q65 0 108.5 31.5t43.5 89.5q0 49 -30.5 77t-115.5 52q-113 34 -167.5 79.5t-54.5 122.5q0 81 64 131.5t165 50.5q132 0 224 -81l-55 -62q-71 62 -165 62
q-58 0 -95 -24.5t-37 -71.5q0 -43 36 -68.5t132 -53.5q98 -29 150.5 -75t52.5 -135z" />
    <glyph glyph-name="sacute" unicode="&#x15b;" 
d="M391 803l42 -79l-214 -87l-29 51zM280 64q58 0 91 21t33 57q0 37 -24 57t-103 40q-90 23 -133.5 56t-43.5 97q0 67 56 107.5t148 40.5q115 0 196 -60l-42 -63q-70 47 -151 47q-108 0 -108 -64q0 -32 27.5 -49.5t109.5 -39.5q86 -23 128.5 -58.5t42.5 -104.5
q0 -80 -65.5 -120t-161.5 -40q-127 0 -210 72l52 61q69 -57 158 -57z" />
    <glyph glyph-name="Scircumflex" unicode="&#x15c;" 
d="M338 916l135 -111l-40 -47l-127 82l-126 -82l-41 47l136 111h63zM542 193q0 -92 -68.5 -148.5t-188.5 -56.5q-155 0 -247 89l57 64q78 -73 191 -73q65 0 108.5 31.5t43.5 89.5q0 49 -30.5 77t-115.5 52q-113 34 -167.5 79.5t-54.5 122.5q0 81 64 131.5t165 50.5
q132 0 224 -81l-55 -62q-71 62 -165 62q-58 0 -95 -24.5t-37 -71.5q0 -43 36 -68.5t132 -53.5q98 -29 150.5 -75t52.5 -135z" />
    <glyph glyph-name="scircumflex" unicode="&#x15d;" 
d="M183 626l-42 45l136 122h63l135 -122l-41 -45l-125 91zM280 64q58 0 91 21t33 57q0 37 -24 57t-103 40q-90 23 -133.5 56t-43.5 97q0 67 56 107.5t148 40.5q115 0 196 -60l-42 -63q-70 47 -151 47q-108 0 -108 -64q0 -32 27.5 -49.5t109.5 -39.5q86 -23 128.5 -58.5
t42.5 -104.5q0 -80 -65.5 -120t-161.5 -40q-127 0 -210 72l52 61q69 -57 158 -57z" />
    <glyph glyph-name="Scedilla" unicode="&#x15e;" 
d="M542 193q0 -85 -59 -140.5t-164 -63.5v-45q47 -4 70.5 -28t23.5 -57q0 -48 -36 -74.5t-90 -26.5q-64 0 -107 25l28 52q32 -16 67 -16q59 0 59 40q0 24 -21.5 32.5t-65.5 8.5l7 89q-134 9 -216 88l57 64q78 -73 191 -73q65 0 108.5 31.5t43.5 89.5q0 49 -30.5 77
t-115.5 52q-113 34 -167.5 79.5t-54.5 122.5q0 81 64 131.5t165 50.5q132 0 224 -81l-55 -62q-71 62 -165 62q-58 0 -95 -24.5t-37 -71.5q0 -43 36 -68.5t132 -53.5q98 -29 150.5 -75t52.5 -135z" />
    <glyph glyph-name="scedilla" unicode="&#x15f;" 
d="M507 148q0 -71 -53 -111t-135 -47v-46q47 -4 70.5 -28t23.5 -57q0 -48 -36 -74.5t-90 -26.5q-64 0 -107 25l28 52q32 -16 67 -16q59 0 59 40q0 24 -21.5 32.5t-65.5 8.5l7 89q-109 7 -184 71l52 61q69 -57 158 -57q58 0 91 21t33 57q0 37 -24 57t-103 40
q-90 23 -133.5 56t-43.5 97q0 67 56 107.5t148 40.5q115 0 196 -60l-42 -63q-70 47 -151 47q-108 0 -108 -64q0 -32 27.5 -49.5t109.5 -39.5q86 -23 128.5 -58.5t42.5 -104.5z" />
    <glyph glyph-name="Scaron" unicode="&#x160;" 
d="M433 911l40 -46l-135 -111h-63l-136 111l41 46l126 -81zM542 193q0 -92 -68.5 -148.5t-188.5 -56.5q-155 0 -247 89l57 64q78 -73 191 -73q65 0 108.5 31.5t43.5 89.5q0 49 -30.5 77t-115.5 52q-113 34 -167.5 79.5t-54.5 122.5q0 81 64 131.5t165 50.5q132 0 224 -81
l-55 -62q-71 62 -165 62q-58 0 -95 -24.5t-37 -71.5q0 -43 36 -68.5t132 -53.5q98 -29 150.5 -75t52.5 -135z" />
    <glyph glyph-name="scaron" unicode="&#x161;" 
d="M434 793l41 -45l-135 -122h-63l-136 122l42 45l126 -91zM280 64q58 0 91 21t33 57q0 37 -24 57t-103 40q-90 23 -133.5 56t-43.5 97q0 67 56 107.5t148 40.5q115 0 196 -60l-42 -63q-70 47 -151 47q-108 0 -108 -64q0 -32 27.5 -49.5t109.5 -39.5q86 -23 128.5 -58.5
t42.5 -104.5q0 -80 -65.5 -120t-161.5 -40q-127 0 -210 72l52 61q69 -57 158 -57z" />
    <glyph glyph-name="uni0162" unicode="&#x162;" 
d="M348 0h-17v-56q47 -4 70.5 -28t23.5 -57q0 -48 -36 -74.5t-90 -26.5q-64 0 -107 25l28 52q32 -16 67 -16q59 0 59 40q0 24 -21.5 32.5t-65.5 8.5l8 100h-18v606h-212v83h526l-10 -83h-205v-606z" />
    <glyph glyph-name="uni0163" unicode="&#x163;" 
d="M391 -56q47 -4 70.5 -28t23.5 -57q0 -48 -36 -74.5t-90 -26.5q-64 0 -107 25l28 52q32 -16 67 -16q59 0 59 40q0 24 -21.5 32.5t-65.5 8.5l7 93q-63 12 -97 54.5t-34 105.5v302h-119v72h119v119l96 11v-130h181l-12 -72h-169v-301q0 -44 23 -65.5t74 -21.5q53 0 100 25
l36 -65q-54 -34 -133 -39v-44z" />
    <glyph glyph-name="Tcaron" unicode="&#x164;" 
d="M426 911l40 -46l-135 -111h-63l-136 111l41 46l126 -81zM348 606v-606h-99v606h-212v83h526l-10 -83h-205z" />
    <glyph glyph-name="tcaron" unicode="&#x165;" 
d="M368 773l87 -11l-58 -187l-56 9zM524 27q-62 -39 -147 -39q-87 0 -134.5 45t-47.5 120v302h-119v72h119v119l96 11v-130h181l-12 -72h-169v-301q0 -44 23 -65.5t74 -21.5q53 0 100 25z" />
    <glyph glyph-name="Tbar" unicode="&#x166;" 
d="M553 606h-205v-191h129v-71h-129v-344h-99v344h-128v71h128v191h-212v83h526z" />
    <glyph glyph-name="tbar" unicode="&#x167;" 
d="M488 92l36 -65q-62 -39 -147 -39q-87 0 -134.5 45t-47.5 120v131h-108v69h108v102h-119v72h119v119l96 11v-130h181l-12 -72h-169v-102h170v-69h-170v-130q0 -44 23 -65.5t74 -21.5q53 0 100 25z" />
    <glyph glyph-name="Utilde" unicode="&#x168;" 
d="M358 775q-29 0 -64.5 24t-51.5 24q-28 0 -53 -46l-57 28q41 90 110 90q30 0 65 -24t51 -24q27 0 53 44l57 -28q-39 -88 -110 -88zM533 689v-465q0 -106 -63 -171t-171 -65q-109 0 -170.5 64.5t-61.5 171.5v465h100v-457q0 -162 132 -162q133 0 133 162v457h101z" />
    <glyph glyph-name="utilde" unicode="&#x169;" 
d="M358 655q-29 0 -64.5 24t-51.5 24q-28 0 -53 -46l-57 28q41 90 110 90q30 0 65 -24t51 -24q27 0 53 44l57 -28q-39 -88 -110 -88zM191 527v-371q0 -49 20.5 -71.5t62.5 -22.5q39 0 76 23t59 57v385h96v-527h-83l-7 70q-30 -39 -75 -60.5t-93 -21.5q-75 0 -113.5 40.5
t-38.5 115.5v383h96z" />
    <glyph glyph-name="Umacron" unicode="&#x16a;" 
d="M437 793h-275v71h275v-71zM533 689v-465q0 -106 -63 -171t-171 -65q-109 0 -170.5 64.5t-61.5 171.5v465h100v-457q0 -162 132 -162q133 0 133 162v457h101z" />
    <glyph glyph-name="umacron" unicode="&#x16b;" 
d="M437 673h-275v71h275v-71zM191 527v-371q0 -49 20.5 -71.5t62.5 -22.5q39 0 76 23t59 57v385h96v-527h-83l-7 70q-30 -39 -75 -60.5t-93 -21.5q-75 0 -113.5 40.5t-38.5 115.5v383h96z" />
    <glyph glyph-name="Ubreve" unicode="&#x16c;" 
d="M298 758q-62 0 -103.5 34.5t-47.5 89.5l62 14q23 -66 89 -66q69 0 92 66l62 -14q-6 -55 -49 -89.5t-105 -34.5zM533 689v-465q0 -106 -63 -171t-171 -65q-109 0 -170.5 64.5t-61.5 171.5v465h100v-457q0 -162 132 -162q133 0 133 162v457h101z" />
    <glyph glyph-name="ubreve" unicode="&#x16d;" 
d="M298 627q-65 0 -104.5 43.5t-46.5 98.5l62 13q24 -84 89 -84q68 0 92 84l62 -13q-7 -55 -47.5 -98.5t-106.5 -43.5zM191 527v-371q0 -49 20.5 -71.5t62.5 -22.5q39 0 76 23t59 57v385h96v-527h-83l-7 70q-30 -39 -75 -60.5t-93 -21.5q-75 0 -113.5 40.5t-38.5 115.5v383
h96z" />
    <glyph glyph-name="Uring" unicode="&#x16e;" 
d="M300 950q50 0 82.5 -31t32.5 -76t-32.5 -76t-82.5 -31t-83 31t-33 76t33 76t83 31zM300 898q-24 0 -38.5 -14.5t-14.5 -40.5t14.5 -41t38.5 -15q25 0 38.5 15t13.5 41q0 55 -52 55zM533 689v-465q0 -106 -63 -171t-171 -65q-109 0 -170.5 64.5t-61.5 171.5v465h100v-457
q0 -162 132 -162q133 0 133 162v457h101z" />
    <glyph glyph-name="uring" unicode="&#x16f;" 
d="M300 830q50 0 82.5 -31t32.5 -76t-32.5 -76t-82.5 -31t-83 31t-33 76t33 76t83 31zM300 778q-24 0 -38.5 -14.5t-14.5 -40.5t14.5 -41t38.5 -15q25 0 38.5 15t13.5 41q0 55 -52 55zM191 527v-371q0 -49 20.5 -71.5t62.5 -22.5q39 0 76 23t59 57v385h96v-527h-83l-7 70
q-30 -39 -75 -60.5t-93 -21.5q-75 0 -113.5 40.5t-38.5 115.5v383h96z" />
    <glyph glyph-name="Uhungarumlaut" unicode="&#x170;" 
d="M179 782l81 177l80 -38l-102 -167zM343 782l89 177l79 -41l-111 -166zM533 689v-465q0 -106 -63 -171t-171 -65q-109 0 -170.5 64.5t-61.5 171.5v465h100v-457q0 -162 132 -162q133 0 133 162v457h101z" />
    <glyph glyph-name="uhungarumlaut" unicode="&#x171;" 
d="M174 662l81 177l80 -38l-102 -167zM338 662l89 177l79 -41l-111 -166zM191 527v-371q0 -49 20.5 -71.5t62.5 -22.5q39 0 76 23t59 57v385h96v-527h-83l-7 70q-30 -39 -75 -60.5t-93 -21.5q-75 0 -113.5 40.5t-38.5 115.5v383h96z" />
    <glyph glyph-name="Uogonek" unicode="&#x172;" 
d="M432 689h101v-465q0 -84 -40.5 -143.5t-113.5 -81.5q-70 -30 -95.5 -56t-25.5 -57q0 -48 56 -48q27 0 61 7l-9 -71q-35 -7 -63 -7q-58 0 -92.5 28.5t-34.5 73.5q0 75 83 122q-91 12 -141.5 74.5t-50.5 158.5v465h100v-457q0 -162 132 -162q133 0 133 162v457z" />
    <glyph glyph-name="uogonek" unicode="&#x173;" 
d="M505 0q-71 -30 -97 -56.5t-26 -57.5q0 -48 56 -48q27 0 61 7l-9 -71q-35 -7 -63 -7q-58 0 -92.5 28.5t-34.5 73.5q0 89 121 141l-6 60q-30 -39 -75 -60.5t-93 -21.5q-75 0 -113.5 40.5t-38.5 115.5v383h96v-371q0 -49 20.5 -71.5t62.5 -22.5q39 0 76 23t59 57v385h96
v-527z" />
    <glyph glyph-name="Wcircumflex" unicode="&#x174;" 
d="M332 916l135 -111l-40 -47l-127 82l-126 -82l-41 47l136 111h63zM596 689l-100 -689h-123l-75 516l-76 -516h-126l-92 689h97l65 -587l79 507h112l75 -507l74 587h90z" />
    <glyph glyph-name="wcircumflex" unicode="&#x175;" 
d="M175 626l-42 45l136 122h63l135 -122l-41 -45l-125 91zM496 0h-128l-65 381l-70 -381h-125l-93 527h95l63 -467l79 400h105l74 -400l63 467h91z" />
    <glyph glyph-name="Ycircumflex" unicode="&#x176;" 
d="M335 916l135 -111l-40 -47l-127 82l-126 -82l-41 47l136 111h63zM350 265v-265h-100v264l-232 425h110l174 -337l176 337h104z" />
    <glyph glyph-name="ycircumflex" unicode="&#x177;" 
d="M175 626l-42 45l136 122h63l135 -122l-41 -45l-125 91zM544 527l-184 -530q-31 -93 -87.5 -147t-157.5 -64l-13 75q76 13 110.5 44t57.5 95h-33l-181 527h102l144 -457l143 457h99z" />
    <glyph glyph-name="Ydieresis" unicode="&#x178;" 
d="M197 766q-25 0 -42 16.5t-17 41.5t17 41.5t42 16.5t42 -16.5t17 -41.5t-17 -41.5t-42 -16.5zM408 766q-25 0 -42 16.5t-17 41.5t17 41.5t42 16.5q26 0 42.5 -16.5t16.5 -41.5t-17 -41.5t-42 -16.5zM350 265v-265h-100v264l-232 425h110l174 -337l176 337h104z" />
    <glyph glyph-name="Zacute" unicode="&#x179;" 
d="M400 914l41 -80l-217 -79l-25 51zM178 84h355l-11 -84h-456v79l358 527h-322v83h430v-80z" />
    <glyph glyph-name="zacute" unicode="&#x17a;" 
d="M393 803l42 -79l-214 -87l-29 51zM214 80h288l-11 -80h-394v72l288 375h-265v80h379v-72z" />
    <glyph glyph-name="Zdotaccent" unicode="&#x17b;" 
d="M317 899q30 0 48.5 -18.5t18.5 -45.5q0 -28 -18.5 -46t-48.5 -18q-29 0 -47.5 18t-18.5 46q0 27 18.5 45.5t47.5 18.5zM178 84h355l-11 -84h-456v79l358 527h-322v83h430v-80z" />
    <glyph glyph-name="zdotaccent" unicode="&#x17c;" 
d="M309 779q30 0 48.5 -18.5t18.5 -45.5q0 -28 -18.5 -46t-48.5 -18q-29 0 -47.5 18t-18.5 46q0 27 18.5 45.5t47.5 18.5zM214 80h288l-11 -80h-394v72l288 375h-265v80h379v-72z" />
    <glyph glyph-name="Zcaron" unicode="&#x17d;" 
d="M445 911l40 -46l-135 -111h-63l-136 111l41 46l126 -81zM178 84h355l-11 -84h-456v79l358 527h-322v83h430v-80z" />
    <glyph glyph-name="zcaron" unicode="&#x17e;" 
d="M436 793l41 -45l-135 -122h-63l-136 122l42 45l126 -91zM214 80h288l-11 -80h-394v72l288 375h-265v80h379v-72z" />
    <glyph glyph-name="florin" unicode="&#x192;" 
d="M370 751q64 0 128 -29l-31 -68q-44 20 -90 20q-43 0 -61 -18.5t-18 -58.5v-70h129l-11 -73h-118v-411q0 -114 -36.5 -165.5t-126.5 -90.5l-34 69q57 27 79.5 60t22.5 111v427h-84v73h84v70q0 69 44 111.5t123 42.5z" />
    <glyph glyph-name="AEacute" unicode="&#x1fc;" 
d="M441 914l41 -80l-217 -79l-25 51zM327 172h-193l-46 -172h-100l198 689h380l-11 -77h-228l49 -224h181v-77h-167l49 -234h168v-77h-246zM155 251h156l-70 363z" />
    <glyph glyph-name="aeacute" unicode="&#x1fd;" 
d="M391 803l42 -79l-214 -87l-29 51zM434 540q172 0 172 -261q0 -21 -2 -47h-265q7 -87 33 -127.5t77 -40.5q48 0 98 38l42 -61q-66 -53 -142 -53q-99 0 -151 88q-34 -47 -67.5 -67.5t-82.5 -20.5q-69 0 -110.5 44.5t-41.5 118.5q0 83 54 126.5t158 43.5h45v40
q0 104 -91 104q-41 0 -102 -27l-25 67q73 35 137 35q101 0 138 -85q31 85 126 85zM430 465q-43 0 -64 -37t-27 -127h179q-2 85 -21.5 124.5t-66.5 39.5zM251 259h-39q-65 0 -93 -26.5t-28 -76.5q0 -47 19 -72t51 -25q30 0 53 21.5t50 69.5q-13 46 -13 109z" />
    <glyph glyph-name="Oslashacute" unicode="&#x1fe;" 
d="M423 834l-217 -79l-25 51l201 108zM437 660q120 -88 120 -316q0 -162 -66.5 -259t-190.5 -97q-34 0 -61 7l-32 -105l-81 22l37 118q-120 85 -120 313q0 163 66.5 261t190.5 98q28 0 63 -7l31 108l81 -22zM300 621q-81 0 -117.5 -69t-36.5 -209q0 -176 53 -236l147 509
q-23 5 -46 5zM300 68q81 0 117.5 68.5t36.5 207.5q0 179 -53 238l-147 -508q21 -6 46 -6z" />
    <glyph glyph-name="oslashacute" unicode="&#x1ff;" 
d="M425 724l-214 -87l-29 51l201 115zM421 509q111 -69 111 -245q0 -126 -61 -201t-171 -75q-27 0 -47 4l-37 -123l-77 22l41 128q-112 67 -112 244q0 126 61 201.5t172 75.5q26 0 46 -4l38 119l77 -22zM301 463q-131 0 -131 -200q0 -128 47 -171l114 368q-13 3 -30 3z
M300 64q130 0 130 200q0 125 -45 170l-115 -368q20 -2 30 -2z" />
    <glyph glyph-name="Scommaaccent" unicode="&#x218;" 
d="M542 193q0 -92 -68.5 -148.5t-188.5 -56.5q-155 0 -247 89l57 64q78 -73 191 -73q65 0 108.5 31.5t43.5 89.5q0 49 -30.5 77t-115.5 52q-113 34 -167.5 79.5t-54.5 122.5q0 81 64 131.5t165 50.5q132 0 224 -81l-55 -62q-71 62 -165 62q-58 0 -95 -24.5t-37 -71.5
q0 -43 36 -68.5t132 -53.5q98 -29 150.5 -75t52.5 -135zM300 -70q25 0 41.5 -16t16.5 -41q0 -24 -16 -59l-50 -106h-56l29 117q-23 18 -23 48q0 25 16.5 41t41.5 16z" />
    <glyph glyph-name="scommaaccent" unicode="&#x219;" 
d="M280 64q58 0 91 21t33 57q0 37 -24 57t-103 40q-90 23 -133.5 56t-43.5 97q0 67 56 107.5t148 40.5q115 0 196 -60l-42 -63q-70 47 -151 47q-108 0 -108 -64q0 -32 27.5 -49.5t109.5 -39.5q86 -23 128.5 -58.5t42.5 -104.5q0 -80 -65.5 -120t-161.5 -40q-127 0 -210 72
l52 61q69 -57 158 -57zM300 -70q25 0 41.5 -16t16.5 -41q0 -24 -16 -59l-50 -106h-56l29 117q-23 18 -23 48q0 25 16.5 41t41.5 16z" />
    <glyph glyph-name="uni021A" unicode="&#x21a;" 
d="M348 606v-606h-99v606h-212v83h526l-10 -83h-205zM302 -70q25 0 41.5 -16t16.5 -41q0 -24 -16 -59l-50 -106h-56l29 117q-23 18 -23 48q0 25 16.5 41t41.5 16z" />
    <glyph glyph-name="uni021B" unicode="&#x21b;" 
d="M524 27q-62 -39 -147 -39q-87 0 -134.5 45t-47.5 120v302h-119v72h119v119l96 11v-130h181l-12 -72h-169v-301q0 -44 23 -65.5t74 -21.5q53 0 100 25zM372 -70q25 0 41.5 -16t16.5 -41q0 -24 -16 -59l-50 -106h-56l29 117q-23 18 -23 48q0 25 16.5 41t41.5 16z" />
    <glyph glyph-name="uni0237" unicode="&#x237;" 
d="M449 527v-431q0 -134 -86 -207t-256 -103l-15 74q127 23 194 75.5t67 154.5v364h-214v73h310z" />
    <glyph glyph-name="uni02B9" unicode="&#x2b9;" 
d="M207 426l85 263h101l-115 -263h-71z" />
    <glyph glyph-name="uni02BA" unicode="&#x2ba;" 
d="M131 426l85 263h101l-115 -263h-71zM283 426l85 263h101l-115 -263h-71z" />
    <glyph glyph-name="uni02BC" unicode="&#x2bc;" 
d="M293 750q25 0 41.5 -16t16.5 -41q0 -24 -26 -77l-41 -85h-54l28 114q-24 21 -24 48q0 25 17 41t42 16z" />
    <glyph glyph-name="circumflex" unicode="&#x2c6;" 
d="M175 626l-42 45l136 122h63l135 -122l-41 -45l-125 91z" />
    <glyph glyph-name="caron" unicode="&#x2c7;" 
d="M426 793l41 -45l-135 -122h-63l-136 122l42 45l126 -91z" />
    <glyph glyph-name="uni02C9" unicode="&#x2c9;" 
d="M437 681h-275v72h275v-72z" />
    <glyph glyph-name="breve" unicode="&#x2d8;" 
d="M298 627q-65 0 -104.5 43.5t-46.5 98.5l62 13q24 -84 89 -84q68 0 92 84l62 -13q-7 -55 -47.5 -98.5t-106.5 -43.5z" />
    <glyph glyph-name="dotaccent" unicode="&#x2d9;" 
d="M299 779q30 0 48.5 -18.5t18.5 -45.5q0 -28 -18.5 -46t-48.5 -18q-29 0 -47.5 18t-18.5 46q0 27 18.5 45.5t47.5 18.5z" />
    <glyph glyph-name="ring" unicode="&#x2da;" 
d="M300 830q50 0 82.5 -31t32.5 -76t-32.5 -76t-82.5 -31t-83 31t-33 76t33 76t83 31zM300 778q-24 0 -38.5 -14.5t-14.5 -40.5t14.5 -41t38.5 -15q25 0 38.5 15t13.5 41q0 55 -52 55z" />
    <glyph glyph-name="ogonek" unicode="&#x2db;" 
d="M386 34l15 -34q-71 -30 -97 -56.5t-26 -57.5q0 -48 56 -48q27 0 61 7l-9 -71q-35 -7 -63 -7q-58 0 -92.5 28.5t-34.5 73.5q0 56 46.5 96t143.5 69z" />
    <glyph glyph-name="tilde" unicode="&#x2dc;" 
d="M358 655q-29 0 -64.5 24t-51.5 24q-28 0 -53 -46l-57 28q41 90 110 90q30 0 65 -24t51 -24q27 0 53 44l57 -28q-39 -88 -110 -88z" />
    <glyph glyph-name="hungarumlaut" unicode="&#x2dd;" 
d="M134 662l81 177l80 -38l-102 -167zM298 662l89 177l79 -41l-111 -166z" />
    <glyph glyph-name="gravecomb" unicode="&#x300;" horiz-adv-x="0" 
d="M-380 803l200 -115l-29 -51l-213 87z" />
    <glyph glyph-name="acutecomb" unicode="&#x301;" horiz-adv-x="0" 
d="M-217 803l42 -79l-214 -87l-29 51z" />
    <glyph glyph-name="uni0302" unicode="&#x302;" horiz-adv-x="0" 
d="M-268 754l135 -111l-40 -47l-127 82l-126 -82l-41 47l136 111h63z" />
    <glyph glyph-name="tildecomb" unicode="&#x303;" horiz-adv-x="0" 
d="M-241 655q-29 0 -64.5 24t-51.5 24q-28 0 -53 -46l-57 28q41 90 110 90q30 0 65 -24t51 -24q27 0 53 44l57 -28q-39 -88 -110 -88z" />
    <glyph glyph-name="uni0304" unicode="&#x304;" horiz-adv-x="0" 
d="M-162 622h-275v71h275v-71z" />
    <glyph glyph-name="uni0305" unicode="&#x305;" horiz-adv-x="0" 
d="M-82 622h-435v71h435v-71z" />
    <glyph glyph-name="uni0306" unicode="&#x306;" horiz-adv-x="0" 
d="M-302 586q-62 0 -103.5 34.5t-47.5 90.5l62 13q23 -65 89 -65q70 0 93 65l62 -13q-6 -56 -49 -90.5t-106 -34.5z" />
    <glyph glyph-name="uni0307" unicode="&#x307;" horiz-adv-x="0" 
d="M-300 728q30 0 48.5 -18.5t18.5 -45.5q0 -28 -18.5 -46t-48.5 -18q-29 0 -47.5 18t-18.5 46q0 27 18.5 45.5t47.5 18.5z" />
    <glyph glyph-name="uni0308" unicode="&#x308;" horiz-adv-x="0" 
d="M-406 646q-25 0 -42 16.5t-17 41.5t17 41.5t42 16.5t42 -16.5t17 -41.5t-17 -41.5t-42 -16.5zM-195 646q-25 0 -42 16.5t-17 41.5t17 41.5t42 16.5q26 0 42.5 -16.5t16.5 -41.5t-17 -41.5t-42 -16.5z" />
    <glyph glyph-name="uni030A" unicode="&#x30a;" horiz-adv-x="0" 
d="M-300 779q50 0 82.5 -31t32.5 -76t-32.5 -76t-82.5 -31t-83 31t-33 76t33 76t83 31zM-300 727q-24 0 -38.5 -14.5t-14.5 -40.5t14.5 -41t38.5 -15q25 0 38.5 15t13.5 41q0 55 -52 55z" />
    <glyph glyph-name="uni030B" unicode="&#x30b;" horiz-adv-x="0" 
d="M-466 611l81 177l80 -38l-102 -167zM-302 611l89 177l79 -41l-111 -166z" />
    <glyph glyph-name="uni030C" unicode="&#x30c;" horiz-adv-x="0" 
d="M-173 740l40 -46l-135 -112h-63l-136 112l41 46l126 -81z" />
    <glyph glyph-name="uni030F" unicode="&#x30f;" horiz-adv-x="0" 
d="M-298 662l-57 -30l-111 166l79 41zM-134 662l-59 -28l-102 167l80 38z" />
    <glyph glyph-name="uni0313" unicode="&#x313;" horiz-adv-x="0" 
d="M-304 767q25 0 41.5 -16t16.5 -41q0 -24 -16 -59l-50 -106h-56l29 117q-23 18 -23 48q0 25 16.5 41t41.5 16z" />
    <glyph glyph-name="uni0314" unicode="&#x314;" horiz-adv-x="0" 
d="M-303 561q-25 0 -41.5 16t-16.5 41q0 24 16 59l50 106h56l-29 -117q23 -18 23 -48q0 -25 -16.5 -41t-41.5 -16z" />
    <glyph glyph-name="uni0326" unicode="&#x326;" horiz-adv-x="0" 
d="M-297 -70q25 0 41.5 -16t16.5 -41q0 -24 -16 -59l-50 -106h-56l29 117q-23 18 -23 48q0 25 16.5 41t41.5 16z" />
    <glyph glyph-name="uni0327" unicode="&#x327;" horiz-adv-x="0" 
d="M-262 -150q0 24 -21.5 32.5t-65.5 8.5l9 116h63v-72q47 -4 70.5 -28t23.5 -57q0 -48 -36 -74.5t-90 -26.5q-64 0 -107 25l28 52q32 -16 67 -16q59 0 59 40z" />
    <glyph glyph-name="uni0335" unicode="&#x335;" horiz-adv-x="0" 
d="M-125 278h-351v72h351v-72z" />
    <glyph glyph-name="uni0336" unicode="&#x336;" horiz-adv-x="0" 
d="M27 278h-653v72h653v-72z" />
    <glyph glyph-name="uni0342" unicode="&#x342;" horiz-adv-x="0" 
d="M-242 655q-29 0 -64.5 24t-51.5 24q-28 0 -53 -46l-57 28q41 90 110 90q30 0 65 -24t51 -24q27 0 53 44l57 -28q-39 -88 -110 -88z" />
    <glyph glyph-name="uni0345" unicode="&#x345;" horiz-adv-x="0" 
d="M-293 -191q-53 0 -83 29t-30 78v45h81v-43q0 -42 42 -42q28 0 56 17l34 -49q-46 -35 -100 -35z" />
    <glyph glyph-name="uni0370" unicode="&#x370;" 
d="M489 321h-279v-321h-99v689h99v-286h279v-82z" />
    <glyph glyph-name="uni0371" unicode="&#x371;" 
d="M525 311v-80h-297v-231h-96v359q0 86 -26 168l88 12q34 -72 34 -200v-28h297z" />
    <glyph glyph-name="uni0372" unicode="&#x372;" 
d="M33 689h535v-269h-83v186h-135v-606h-99v606h-135v-187h-83v270z" />
    <glyph glyph-name="uni0373" unicode="&#x373;" 
d="M568 527v-77h-220v-652l-96 -12v663h-128q-50 0 -90 -11l-16 74q40 15 107 15h443z" />
    <glyph glyph-name="uni0374" unicode="&#x374;" 
d="M207 426l85 263h101l-115 -263h-71z" />
    <glyph glyph-name="uni0375" unicode="&#x375;" 
d="M393 130l-85 -263h-101l115 263h71z" />
    <glyph glyph-name="uni0376" unicode="&#x376;" 
d="M78 0v689h97v-330q0 -140 -17 -271l241 601h123v-689h-97v330q0 142 17 267l-239 -597h-125z" />
    <glyph glyph-name="uni0377" unicode="&#x377;" 
d="M498 143q0 -37 10 -54t36 -30l-32 -71q-59 16 -85 52.5t-26 103.5q0 97 20 277l-218 -421h-113v527h95v-234q0 -125 -11 -184l216 418h108v-384z" />
    <glyph glyph-name="uni037A" unicode="&#x37a;" 
d="M307 -191q-53 0 -83 29t-30 78v45h81v-43q0 -42 42 -42q28 0 56 17l34 -49q-46 -35 -100 -35z" />
    <glyph glyph-name="uni037B" unicode="&#x37b;" 
d="M262 -12q-100 0 -176 58l44 62q67 -39 127 -39q153 0 153 192q0 200 -143 200q-72 0 -135 -39l-46 60q83 58 182 58q115 0 180 -76t65 -205q0 -127 -67.5 -199t-183.5 -72z" />
    <glyph glyph-name="uni037C" unicode="&#x37c;" 
d="M341 69q66 0 134 45l45 -62q-35 -29 -83.5 -46.5t-97.5 -17.5q-119 0 -185 74t-66 199q0 122 67.5 200.5t184.5 78.5q102 0 179 -63l-45 -62q-67 46 -133 46q-69 0 -109.5 -50.5t-40.5 -149.5q0 -98 40.5 -145t109.5 -47zM352 331q29 0 47.5 -18.5t18.5 -45.5
q0 -28 -18.5 -46t-47.5 -18t-47.5 18t-18.5 46q0 27 18.5 45.5t47.5 18.5z" />
    <glyph glyph-name="uni037D" unicode="&#x37d;" 
d="M262 -12q-100 0 -176 58l44 62q67 -39 127 -39q153 0 153 192q0 200 -143 200q-72 0 -135 -39l-46 60q83 58 182 58q115 0 180 -76t65 -205q0 -127 -67.5 -199t-183.5 -72zM246 331q29 0 47.5 -18.5t18.5 -45.5q0 -28 -18.5 -46t-47.5 -18t-47.5 18t-18.5 46
q0 27 18.5 45.5t47.5 18.5z" />
    <glyph glyph-name="uni037E" unicode="&#x37e;" 
d="M307 516q36 0 60.5 -24.5t24.5 -60.5q0 -35 -24.5 -60t-60.5 -25t-60 25t-24 60q0 36 24 60.5t60 24.5zM307 171q36 0 60.5 -24.5t24.5 -60.5q0 -38 -23 -87l-79 -182h-81l48 199q-34 26 -34 70q0 36 24 60.5t60 24.5z" />
    <glyph glyph-name="uni037F" unicode="&#x37f;" 
d="M502 689v-457q0 -48 -13 -90t-40 -77.5t-76 -56t-114 -20.5q-107 0 -192 63l42 64q76 -47 148 -47q68 0 106.5 44.5t38.5 123.5v375h-205v78h305z" />
    <glyph glyph-name="tonos" unicode="&#x384;" 
d="M269 814l100 -19l-69 -200l-68 11z" />
    <glyph glyph-name="dieresistonos" unicode="&#x385;" 
d="M295 920l96 -19l-61 -171l-64 10zM193 739q25 0 42 -16.5t17 -41.5t-17 -41.5t-42 -16.5t-42 16.5t-17 41.5t17 41.5t42 16.5zM406 739q25 0 42 -16.5t17 -41.5t-17 -41.5t-42 -16.5t-42 16.5t-17 41.5t17 41.5t42 16.5z" />
    <glyph glyph-name="Alphatonos" unicode="&#x386;" 
d="M77 708l107 -19l-73 -200l-71 11zM428 172h-261l-52 -172h-100l223 689h124l223 -689h-105zM190 251h215l-107 358z" />
    <glyph glyph-name="anoteleia" unicode="&#x387;" 
d="M209 342q0 38 26 64.5t65 26.5q40 0 66 -26.5t26 -64.5q0 -39 -26 -65.5t-66 -26.5q-39 0 -65 26.5t-26 65.5z" />
    <glyph glyph-name="Epsilontonos" unicode="&#x388;" 
d="M-8 708l107 -19l-73 -200l-71 11zM219 611v-222h254v-78h-254v-233h310v-78h-409v689h402l-12 -78h-291z" />
    <glyph glyph-name="Etatonos" unicode="&#x389;" 
d="M-50 708l107 -19l-73 -200l-71 11zM423 0v321h-246v-321h-99v689h99v-286h246v286h99v-689h-99z" />
    <glyph glyph-name="Iotatonos" unicode="&#x38a;" 
d="M-30 708l107 -19l-73 -200l-71 11zM502 689v-77h-152v-534h152v-78h-404v78h152v534h-152v77h404z" />
    <glyph glyph-name="Omicrontonos" unicode="&#x38c;" 
d="M-15 708l107 -19l-73 -200l-71 11zM557 344q0 -162 -66.5 -259t-190.5 -97q-125 0 -191 95.5t-66 259.5q0 163 66.5 261t190.5 98q125 0 191 -96.5t66 -261.5zM454 344q0 139 -36.5 208t-117.5 69t-117.5 -69t-36.5 -209q0 -275 154 -275q81 0 117.5 68.5t36.5 207.5z
" />
    <glyph glyph-name="Upsilontonos" unicode="&#x38e;" 
d="M-100 708l107 -19l-73 -200l-71 11zM350 265v-265h-100v264l-232 425h110l174 -337l176 337h104z" />
    <glyph glyph-name="Omegatonos" unicode="&#x38f;" 
d="M-14 708l107 -19l-73 -200l-71 11zM300 621q-77 0 -115.5 -63.5t-38.5 -203.5q0 -220 121 -281v-73h-213v78h119q-130 67 -130 276q0 163 69 255.5t188 92.5t188 -92.5t69 -255.5q0 -205 -131 -276h120v-78h-212v73q120 60 120 281q0 139 -38.5 203t-115.5 64z" />
    <glyph glyph-name="iotadieresistonos" unicode="&#x390;" 
d="M280 920l96 -19l-61 -171l-64 10zM178 739q25 0 42 -16.5t17 -41.5t-17 -41.5t-42 -16.5t-42 16.5t-17 41.5t17 41.5t42 16.5zM391 739q25 0 42 -16.5t17 -41.5t-17 -41.5t-42 -16.5t-42 16.5t-17 41.5t17 41.5t42 16.5zM234 449h-175l10 78h261v-391q0 -69 84 -69
q42 0 86 18l25 -69q-52 -28 -130 -28q-74 0 -117.5 41t-43.5 114v306z" />
    <glyph glyph-name="Alpha" unicode="&#x391;" 
d="M428 172h-261l-52 -172h-100l223 689h124l223 -689h-105zM190 251h215l-107 358z" />
    <glyph glyph-name="Beta" unicode="&#x392;" 
d="M545 197q0 -54 -22 -94t-61 -61.5t-83.5 -31.5t-96.5 -10h-192v689h178q50 0 91.5 -8.5t78 -27.5t57 -54t20.5 -84q0 -62 -36.5 -100t-91.5 -50q158 -27 158 -168zM414 508q0 104 -131 104h-94v-213h102q123 0 123 109zM441 196q0 125 -143 125h-109v-241h105
q147 0 147 116z" />
    <glyph glyph-name="Gamma" unicode="&#x393;" 
d="M547 689l-11 -85h-308v-604h-99v689h418z" />
    <glyph glyph-name="uni0394" unicode="&#x394;" 
d="M362 689l223 -689h-570l223 689h124zM298 607l-159 -526h317z" />
    <glyph glyph-name="Epsilon" unicode="&#x395;" 
d="M219 611v-222h254v-78h-254v-233h310v-78h-409v689h402l-12 -78h-291z" />
    <glyph glyph-name="Zeta" unicode="&#x396;" 
d="M178 84h355l-11 -84h-456v79l358 527h-322v83h430v-80z" />
    <glyph glyph-name="Eta" unicode="&#x397;" 
d="M423 0v321h-246v-321h-99v689h99v-286h246v286h99v-689h-99z" />
    <glyph glyph-name="Theta" unicode="&#x398;" 
d="M557 344q0 -162 -66.5 -259t-190.5 -97q-125 0 -191 95.5t-66 259.5q0 163 66.5 261t190.5 98q125 0 191 -96.5t66 -261.5zM454 344q0 140 -36.5 208.5t-117.5 68.5t-117.5 -69t-36.5 -209q0 -275 154 -275q81 0 117.5 68.5t36.5 207.5zM398 315h-197v75h197v-75z" />
    <glyph glyph-name="Iota" unicode="&#x399;" 
d="M502 689v-77h-152v-534h152v-78h-404v78h152v534h-152v77h404z" />
    <glyph glyph-name="Kappa" unicode="&#x39a;" 
d="M197 0h-99v689h99v-689zM202 368l257 321h112l-257 -315l276 -374h-121z" />
    <glyph glyph-name="Lambda" unicode="&#x39b;" 
d="M362 689l218 -689h-105l-177 602l-178 -602h-101l219 689h124z" />
    <glyph glyph-name="Mu" unicode="&#x39c;" 
d="M533 689l39 -689h-94l-19 350q-6 118 -3 250l-110 -477h-93l-118 477q7 -110 1 -251l-17 -349h-91l39 689h129l106 -467l101 467h130z" />
    <glyph glyph-name="Nu" unicode="&#x39d;" 
d="M388 0l-233 597q13 -221 13 -266v-331h-90v689h132l235 -599q0 6 -2.5 38t-4.5 62.5t-4 77.5t-2 90v331h90v-689h-134z" />
    <glyph glyph-name="Xi" unicode="&#x39e;" 
d="M519 689l-14 -87h-432v87h446zM467 393v-87h-343v87h343zM527 90v-90h-454v90h454z" />
    <glyph glyph-name="Omicron" unicode="&#x39f;" 
d="M557 344q0 -162 -66.5 -259t-190.5 -97q-125 0 -191 95.5t-66 259.5q0 163 66.5 261t190.5 98q125 0 191 -96.5t66 -261.5zM454 344q0 139 -36.5 208t-117.5 69t-117.5 -69t-36.5 -209q0 -275 154 -275q81 0 117.5 68.5t36.5 207.5z" />
    <glyph glyph-name="Pi" unicode="&#x3a0;" 
d="M423 0v606h-246v-606h-99v689h444v-689h-99z" />
    <glyph glyph-name="Rho" unicode="&#x3a1;" 
d="M560 475q0 -115 -71.5 -169t-195.5 -54h-87v-252h-99v689h182q130 0 200.5 -53.5t70.5 -160.5zM455 475q0 138 -156 138h-93v-284h92q74 0 115.5 33t41.5 113z" />
    <glyph glyph-name="Sigma" unicode="&#x3a3;" 
d="M407 315l-223 -234h346v-81h-460v80l248 264l-248 264v81h460v-80h-347l224 -232v-62z" />
    <glyph glyph-name="Tau" unicode="&#x3a4;" 
d="M348 606v-606h-99v606h-212v83h526l-10 -83h-205z" />
    <glyph glyph-name="Upsilon" unicode="&#x3a5;" 
d="M350 265v-265h-100v264l-232 425h110l174 -337l176 337h104z" />
    <glyph glyph-name="Phi" unicode="&#x3a6;" 
d="M345 689v-79q245 -12 245 -263q0 -128 -62.5 -195t-182.5 -71v-81h-90v81q-120 4 -182.5 71t-62.5 195q0 251 245 263v79h90zM258 542q-80 -2 -115.5 -46t-35.5 -149q0 -101 35 -147.5t116 -50.5v393zM342 542v-393q81 4 116 51t35 147q0 105 -36 149.5t-115 45.5z" />
    <glyph glyph-name="Chi" unicode="&#x3a7;" 
d="M44 689h113l143 -257l145 257h106l-194 -317l217 -372h-113l-163 303l-165 -303h-106l212 367z" />
    <glyph glyph-name="Psi" unicode="&#x3a8;" 
d="M251 0v191q-120 10 -179 73t-59 165v260h97v-257q0 -76 32.5 -115.5t111.5 -47.5v420h93v-419q78 8 110.5 47.5t32.5 114.5v257h97v-260q0 -100 -59.5 -163t-178.5 -74v-192h-98z" />
    <glyph glyph-name="uni03A9" unicode="&#x3a9;" 
d="M300 621q-77 0 -115.5 -63.5t-38.5 -203.5q0 -220 121 -281v-73h-213v78h119q-130 67 -130 276q0 163 69 255.5t188 92.5t188 -92.5t69 -255.5q0 -205 -131 -276h120v-78h-212v73q120 60 120 281q0 139 -38.5 203t-115.5 64z" />
    <glyph glyph-name="Iotadieresis" unicode="&#x3aa;" 
d="M194 766q-25 0 -42 16.5t-17 41.5t17 41.5t42 16.5t42 -16.5t17 -41.5t-17 -41.5t-42 -16.5zM405 766q-25 0 -42 16.5t-17 41.5t17 41.5t42 16.5q26 0 42.5 -16.5t16.5 -41.5t-17 -41.5t-42 -16.5zM502 689v-77h-152v-534h152v-78h-404v78h152v534h-152v77h404z" />
    <glyph glyph-name="Upsilondieresis" unicode="&#x3ab;" 
d="M197 766q-25 0 -42 16.5t-17 41.5t17 41.5t42 16.5t42 -16.5t17 -41.5t-17 -41.5t-42 -16.5zM408 766q-25 0 -42 16.5t-17 41.5t17 41.5t42 16.5q26 0 42.5 -16.5t16.5 -41.5t-17 -41.5t-42 -16.5zM350 265v-265h-100v264l-232 425h110l174 -337l176 337h104z" />
    <glyph glyph-name="alphatonos" unicode="&#x3ac;" 
d="M281 814l100 -19l-69 -200l-68 11zM254 540q70 0 109.5 -37.5t54.5 -124.5l27 149h87l-56 -275l26 -133q7 -39 46 -54l-33 -78q-36 6 -62 30t-33 65l-9 56q-48 -150 -164 -150q-92 0 -142 68.5t-50 202.5q0 126 52 203.5t147 77.5zM262 464q-51 0 -78.5 -52.5
t-27.5 -152.5q0 -196 102 -196q97 0 135 204q-19 111 -50 154t-81 43z" />
    <glyph glyph-name="epsilontonos" unicode="&#x3ad;" 
d="M320 814l100 -19l-69 -200l-68 11zM396 238h-92q-64 0 -92.5 -20t-28.5 -62t36 -67t100 -25q100 0 182 55l50 -62q-94 -69 -238 -69q-103 0 -168 43.5t-65 120.5q0 59 33.5 90t99.5 40q-112 24 -112 116q0 67 61 104.5t154 37.5q126 0 204 -55l-46 -57q-64 37 -152 37
q-122 0 -122 -77q0 -35 29 -55.5t81 -20.5h97z" />
    <glyph glyph-name="etatonos" unicode="&#x3ae;" 
d="M305 814l100 -19l-69 -200l-68 11zM358 540q148 0 148 -157v-585l-96 -12v538q0 81 -15.5 111t-69.5 30q-38 0 -73.5 -24.5t-59.5 -59.5v-381h-96v359q0 77 -26 168l90 12q15 -27 24 -86q33 42 79.5 64.5t94.5 22.5z" />
    <glyph glyph-name="iotatonos" unicode="&#x3af;" 
d="M289 814l100 -19l-69 -200l-68 11zM234 449h-175l10 78h261v-391q0 -69 84 -69q42 0 86 18l25 -69q-52 -28 -130 -28q-74 0 -117.5 41t-43.5 114v306z" />
    <glyph glyph-name="upsilondieresistonos" unicode="&#x3b0;" 
d="M295 920l96 -19l-61 -171l-64 10zM193 739q25 0 42 -16.5t17 -41.5t-17 -41.5t-42 -16.5t-42 16.5t-17 41.5t17 41.5t42 16.5zM406 739q25 0 42 -16.5t17 -41.5t-17 -41.5t-42 -16.5t-42 16.5t-17 41.5t17 41.5t42 16.5zM503 527q26 -140 26 -272t-70.5 -199.5
t-171.5 -67.5q-86 0 -138 45t-52 131v363h96v-355q0 -108 98 -108q60 0 100.5 46t40.5 153q0 130 -26 264h97z" />
    <glyph glyph-name="alpha" unicode="&#x3b1;" 
d="M254 540q70 0 109.5 -37.5t54.5 -124.5l27 149h87l-56 -275l26 -133q7 -39 46 -54l-33 -78q-36 6 -62 30t-33 65l-9 56q-48 -150 -164 -150q-92 0 -142 68.5t-50 202.5q0 126 52 203.5t147 77.5zM262 464q-51 0 -78.5 -52.5t-27.5 -152.5q0 -196 102 -196q97 0 135 204
q-19 111 -50 154t-81 43z" />
    <glyph glyph-name="beta" unicode="&#x3b2;" 
d="M348 404q202 -22 202 -201q0 -96 -65 -155.5t-157 -59.5q-82 0 -147 49v-238l-96 -14v756q0 99 55 154.5t151 55.5q87 0 146 -49.5t59 -130.5q0 -73 -40.5 -115t-107.5 -52zM314 64q60 0 99 36.5t39 104.5q0 77 -44 117t-126 40h-51l10 72h48q51 0 83.5 32t32.5 95
q0 57 -31 86t-82 29q-111 0 -111 -134v-431q50 -47 133 -47z" />
    <glyph glyph-name="gamma" unicode="&#x3b3;" 
d="M465 539l97 -22l-216 -499q-21 -49 -23 -103t11 -117l-77 -11q-25 48 -26.5 111t20.5 121q-36 150 -94.5 287.5t-118.5 197.5l97 35q51 -63 96.5 -176t72.5 -250z" />
    <glyph glyph-name="delta" unicode="&#x3b4;" 
d="M318 751q97 0 169 -61l-47 -56q-57 44 -125 44q-43 0 -67 -17.5t-24 -48.5t23 -48.5t92 -45.5q108 -44 155.5 -104.5t47.5 -169.5q0 -107 -65.5 -181.5t-173.5 -74.5q-110 0 -174.5 72.5t-64.5 182.5q0 85 43.5 146.5t114.5 89.5q-53 27 -75 57.5t-22 73.5
q0 66 53.5 103.5t139.5 37.5zM290 449q-67 -32 -95.5 -81.5t-28.5 -124.5q0 -84 36 -131.5t101 -47.5t100.5 46t35.5 134q0 86 -31 127t-118 78z" />
    <glyph glyph-name="epsilon" unicode="&#x3b5;" 
d="M396 238h-92q-64 0 -92.5 -20t-28.5 -62t36 -67t100 -25q100 0 182 55l50 -62q-94 -69 -238 -69q-103 0 -168 43.5t-65 120.5q0 59 33.5 90t99.5 40q-112 24 -112 116q0 67 61 104.5t154 37.5q126 0 204 -55l-46 -57q-64 37 -152 37q-122 0 -122 -77q0 -35 29 -55.5
t81 -20.5h97z" />
    <glyph glyph-name="zeta" unicode="&#x3b6;" 
d="M524 739l12 -63q-174 -146 -249 -238.5t-75 -182.5q0 -68 32.5 -99t120.5 -61q92 -31 128 -57t36 -80q0 -110 -162 -181l-38 66q49 25 73 48t24 56q0 25 -20 37.5t-86 35.5q-115 41 -163.5 88.5t-48.5 143.5q0 102 78.5 199.5t256.5 224.5q-32 -13 -152 -13h-142l11 76
h364z" />
    <glyph glyph-name="eta" unicode="&#x3b7;" 
d="M358 540q148 0 148 -157v-585l-96 -12v538q0 81 -15.5 111t-69.5 30q-38 0 -73.5 -24.5t-59.5 -59.5v-381h-96v359q0 77 -26 168l90 12q15 -27 24 -86q33 42 79.5 64.5t94.5 22.5z" />
    <glyph glyph-name="theta" unicode="&#x3b8;" 
d="M301 751q112 0 171.5 -99t59.5 -280q0 -179 -60.5 -281.5t-171.5 -102.5q-112 0 -172 101t-60 282q0 178 60.5 279t172.5 101zM301 673q-67 0 -99 -62.5t-35 -202.5h266q-3 140 -34.5 202.5t-97.5 62.5zM432 336h-265q4 -144 36 -208t97 -64t96.5 64t35.5 208z" />
    <glyph glyph-name="iota" unicode="&#x3b9;" 
d="M234 449h-175l10 78h261v-391q0 -69 84 -69q42 0 86 18l25 -69q-52 -28 -130 -28q-74 0 -117.5 41t-43.5 114v306z" />
    <glyph glyph-name="kappa" unicode="&#x3ba;" 
d="M453 539l80 -50l-215 -204l141 -152q30 -32 53 -46.5t52 -20.5l-33 -78q-43 6 -73.5 25.5t-64.5 57.5l-187 211zM175 527q27 -78 27 -200v-327h-96v341q0 92 -25 186h94z" />
    <glyph glyph-name="lambda" unicode="&#x3bb;" 
d="M236 527h37q-22 71 -59 105.5t-116 46.5l14 73q121 -17 179 -74.5t89 -185.5q45 -190 86 -300.5t98 -168.5l-98 -35q-106 135 -169 467l-159 -468l-93 21z" />
    <glyph glyph-name="uni03BC" unicode="&#x3bc;" 
d="M490 527v-356q0 -73 25 -171l-89 -12q-16 28 -22 83q-23 -38 -60.5 -60.5t-76.5 -22.5q-38 0 -59.5 11t-41.5 39q13 -62 13 -98v-142l-94 -11v740h96v-296q0 -87 15 -124.5t68 -37.5q78 0 130 76v382h96z" />
    <glyph glyph-name="nu" unicode="&#x3bd;" 
d="M231 0q-38 168 -91.5 310.5t-110.5 194.5l94 34q103 -119 172 -458l161 459l96 -22l-206 -518h-115z" />
    <glyph glyph-name="xi" unicode="&#x3be;" 
d="M357 751q114 0 198 -60l-45 -55q-68 42 -149 42q-62 0 -95.5 -25t-33.5 -73t31 -74t87 -26h118l-11 -80h-114q-66 0 -105.5 -37.5t-39.5 -93.5q0 -72 38.5 -103t149.5 -67q92 -29 127.5 -57.5t35.5 -83.5q0 -109 -162 -181l-38 66q48 23 72.5 48t24.5 60q0 24 -17 36.5
t-71 30.5t-87.5 31t-71 34.5t-57.5 45t-33.5 58t-13.5 78.5q0 79 49.5 124t110.5 55q-56 20 -89 52t-33 86q0 77 64.5 123t159.5 46z" />
    <glyph glyph-name="omicron" unicode="&#x3bf;" 
d="M301 540q111 0 171 -74t60 -202q0 -126 -61 -201t-171 -75q-112 0 -172 73.5t-60 201.5q0 126 61 201.5t172 75.5zM301 463q-131 0 -131 -200q0 -199 130 -199t130 200q0 199 -129 199z" />
    <glyph glyph-name="pi" unicode="&#x3c0;" 
d="M561 450h-81v-307q0 -38 10.5 -54.5t37.5 -24.5l-32 -76q-60 14 -86 47t-26 97v318h-177v-450h-96v450q-49 -2 -85 -12l-20 71q38 18 127 18h428v-77z" />
    <glyph glyph-name="rho" unicode="&#x3c1;" 
d="M307 540q223 0 223 -276q0 -118 -54 -197t-152 -79q-87 0 -138 59v-249l-96 -12v485q0 132 55 200.5t162 68.5zM305 465q-65 0 -92 -51.5t-27 -157.5v-128q41 -63 114 -63q127 0 127 199q0 201 -122 201z" />
    <glyph glyph-name="uni03C2" unicode="&#x3c2;" 
d="M349 540q104 0 182 -58l-46 -62q-62 41 -131 41q-66 0 -110 -49.5t-44 -139.5q0 -72 30 -104t125 -67q85 -32 121.5 -61t36.5 -84q0 -56 -37.5 -95.5t-121.5 -76.5l-40 66q47 19 71.5 40.5t24.5 54.5q0 29 -21 43.5t-98 41.5q-100 37 -146.5 90.5t-46.5 151.5
q0 124 70 196t181 72z" />
    <glyph glyph-name="sigma" unicode="&#x3c3;" 
d="M562 527v-76l-118 8q83 -54 86 -196q2 -124 -59.5 -199.5t-170.5 -75.5q-110 0 -171 74t-61 201q0 124 66.5 197t184.5 73q107 0 243 -6zM300 64q128 0 128 200q0 142 -68 198q-94 1 -142 -41t-48 -158q0 -199 130 -199z" />
    <glyph glyph-name="tau" unicode="&#x3c4;" 
d="M512 450h-194v-314q0 -69 83 -69q41 0 87 18l24 -69q-50 -28 -129 -28q-74 0 -117.5 41t-43.5 114v307h-45q-64 0 -125 -17l-16 73q58 21 150 21h326v-77z" />
    <glyph glyph-name="upsilon" unicode="&#x3c5;" 
d="M503 527q26 -140 26 -272t-70.5 -199.5t-171.5 -67.5q-86 0 -138 45t-52 131v363h96v-355q0 -108 98 -108q60 0 100.5 46t40.5 153q0 130 -26 264h97z" />
    <glyph glyph-name="phi" unicode="&#x3c6;" 
d="M402 540q87 0 127 -67.5t40 -204.5q0 -257 -234 -278v-192l-86 -12v204q-218 19 -218 249q0 141 55 288h91q-54 -163 -54 -267q0 -94 27.5 -141.5t98.5 -57.5v258q0 109 35.5 165t117.5 56zM401 468q-23 0 -37.5 -11.5t-20 -38t-7 -48.5t-1.5 -65v-245q77 10 108.5 59
t31.5 149q0 109 -16 154.5t-58 45.5z" />
    <glyph glyph-name="chi" unicode="&#x3c7;" 
d="M361 185l197 -386l-99 -13l-153 329l-157 -328l-97 11l198 384q-57 130 -99.5 196t-102.5 126l94 35q48 -51 86 -117.5t79 -177.5l133 292l99 -10z" />
    <glyph glyph-name="psi" unicode="&#x3c8;" 
d="M344 527v-459q80 10 107 54.5t27 139.5q0 115 -26 265h92q27 -137 27 -273q0 -240 -227 -261v-195l-86 -12v207q-112 9 -165.5 64t-53.5 138v332h92v-326q0 -62 28.5 -94t98.5 -39v459h86z" />
    <glyph glyph-name="omega" unicode="&#x3c9;" 
d="M525 527q51 -143 51 -288q0 -120 -39 -185.5t-114 -65.5q-106 0 -124 114q-25 -114 -123 -114q-152 0 -152 251q0 158 51 288h82q-41 -134 -41 -286q0 -87 16 -132t56 -45q69 0 69 167v123l86 13v-136q0 -83 15 -125t54 -42q40 0 56 45t16 132q0 142 -44 286h85z" />
    <glyph glyph-name="iotadieresis" unicode="&#x3ca;" 
d="M179 646q-25 0 -42 16.5t-17 41.5t17 41.5t42 16.5t42 -16.5t17 -41.5t-17 -41.5t-42 -16.5zM390 646q-25 0 -42 16.5t-17 41.5t17 41.5t42 16.5q26 0 42.5 -16.5t16.5 -41.5t-17 -41.5t-42 -16.5zM234 449h-175l10 78h261v-391q0 -69 84 -69q42 0 86 18l25 -69
q-52 -28 -130 -28q-74 0 -117.5 41t-43.5 114v306z" />
    <glyph glyph-name="upsilondieresis" unicode="&#x3cb;" 
d="M194 646q-25 0 -42 16.5t-17 41.5t17 41.5t42 16.5t42 -16.5t17 -41.5t-17 -41.5t-42 -16.5zM405 646q-25 0 -42 16.5t-17 41.5t17 41.5t42 16.5q26 0 42.5 -16.5t16.5 -41.5t-17 -41.5t-42 -16.5zM503 527q26 -140 26 -272t-70.5 -199.5t-171.5 -67.5q-86 0 -138 45
t-52 131v363h96v-355q0 -108 98 -108q60 0 100.5 46t40.5 153q0 130 -26 264h97z" />
    <glyph glyph-name="omicrontonos" unicode="&#x3cc;" 
d="M304 814l100 -19l-69 -200l-68 11zM301 540q111 0 171 -74t60 -202q0 -126 -61 -201t-171 -75q-112 0 -172 73.5t-60 201.5q0 126 61 201.5t172 75.5zM301 463q-131 0 -131 -200q0 -199 130 -199t130 200q0 199 -129 199z" />
    <glyph glyph-name="upsilontonos" unicode="&#x3cd;" 
d="M304 814l100 -19l-69 -200l-68 11zM503 527q26 -140 26 -272t-70.5 -199.5t-171.5 -67.5q-86 0 -138 45t-52 131v363h96v-355q0 -108 98 -108q60 0 100.5 46t40.5 153q0 130 -26 264h97z" />
    <glyph glyph-name="omegatonos" unicode="&#x3ce;" 
d="M304 814l100 -19l-69 -200l-68 11zM525 527q51 -143 51 -288q0 -120 -39 -185.5t-114 -65.5q-106 0 -124 114q-25 -114 -123 -114q-152 0 -152 251q0 158 51 288h82q-41 -134 -41 -286q0 -87 16 -132t56 -45q69 0 69 167v123l86 13v-136q0 -83 15 -125t54 -42q40 0 56 45
t16 132q0 142 -44 286h85z" />
    <glyph glyph-name="uni03CF" unicode="&#x3cf;" 
d="M92 0v689h99v-689h-99zM510 81h65v-136q0 -78 -41 -118.5t-113 -40.5q-67 0 -116 39l37 62q39 -22 73 -22q61 0 61 73v62h-32l-248 368l236 321h114l-237 -315z" />
    <glyph glyph-name="uni03D0" unicode="&#x3d0;" 
d="M359 437q47 0 80.5 -17.5t51.5 -48.5t26 -67t8 -80q0 -96 -61 -166t-164 -70q-119 0 -172 91t-53 266q0 191 78.5 298.5t186.5 107.5q75 0 111 -39t36 -92q0 -60 -43 -110t-121 -78q17 5 36 5zM333 678q-56 0 -100 -63.5t-54 -200.5l30 13q96 42 138.5 85t42.5 106
q0 60 -57 60zM299 64q58 0 91.5 43t33.5 113q0 80 -23.5 120.5t-85.5 40.5q-48 0 -109 -30l-30 -14q-2 -136 26.5 -204.5t96.5 -68.5z" />
    <glyph glyph-name="uni03D1" unicode="&#x3d1;" 
d="M539 480l-1 -76h-35v-2q0 -414 -237 -414q-72 0 -122 46.5t-50 129.5v185h95v-178q0 -54 21.5 -81t59.5 -26q65 1 96.5 79t31.5 259v2h-107q-105 0 -161 47t-56 124q0 74 53.5 125t134.5 51q105 0 164.5 -71.5t72.5 -199.5h40zM291 478l104 1q-16 195 -131 195
q-43 0 -69 -27t-26 -70q0 -50 33 -75t89 -24z" />
    <glyph glyph-name="uni03D2" unicode="&#x3d2;" 
d="M576 619q-16 4 -29 4q-19 0 -33 -12t-28 -42l-141 -304v-265h-100v264l-211 425h109l155 -338l102 236q28 66 58 90.5t81 24.5q32 0 57 -11z" />
    <glyph glyph-name="uni03D3" unicode="&#x3d3;" 
d="M-89 708l107 -19l-73 -200l-71 11zM576 619q-16 4 -29 4q-19 0 -33 -12t-28 -42l-141 -304v-265h-100v264l-211 425h109l155 -338l102 236q28 66 58 90.5t81 24.5q32 0 57 -11z" />
    <glyph glyph-name="uni03D4" unicode="&#x3d4;" 
d="M197 766q-25 0 -42 16.5t-17 41.5t17 41.5t42 16.5t42 -16.5t17 -41.5t-17 -41.5t-42 -16.5zM408 766q-25 0 -42 16.5t-17 41.5t17 41.5t42 16.5q26 0 42.5 -16.5t16.5 -41.5t-17 -41.5t-42 -16.5zM576 619q-16 4 -29 4q-19 0 -33 -12t-28 -42l-141 -304v-265h-100v264
l-211 425h109l155 -338l102 236q28 66 58 90.5t81 24.5q32 0 57 -11z" />
    <glyph glyph-name="uni03D5" unicode="&#x3d5;" 
d="M559 265q0 -119 -58.5 -187.5t-154.5 -74.5v-205l-92 -12v218q-100 7 -156.5 75.5t-56.5 183.5q0 119 59 187.5t154 73.5v214l92 11v-226q100 -7 156.5 -75.5t56.5 -182.5zM136 263q0 -179 122 -188v380q-122 -10 -122 -192zM342 74q122 14 122 191q0 178 -122 189v-380z
" />
    <glyph glyph-name="uni03D6" unicode="&#x3d6;" 
d="M589 527v-71h-62q44 -102 44 -217q0 -119 -39 -185t-111 -66q-101 0 -117 114q-13 -55 -43.5 -84.5t-74.5 -29.5q-72 0 -109.5 64t-37.5 187q0 116 42 215q-30 -1 -60 -10l-16 68q36 14 116 15h468zM479 241q0 118 -24 215l-302 -1q-22 -93 -22 -214q0 -177 67 -177
q64 0 64 167v103l85 13v-116q0 -82 14.5 -124.5t50.5 -42.5q67 0 67 177z" />
    <glyph glyph-name="uni03D7" unicode="&#x3d7;" 
d="M495 143q0 -39 10 -56.5t36 -29.5v-113q0 -76 -41.5 -117t-112.5 -41q-66 0 -116 38l37 61q39 -22 74 -22q64 0 64 73v89q-48 32 -48 119q0 39 9.5 137t14.5 138l-219 -427l-98 30v362q0 38 -10 55t-36 29l32 72q59 -16 85 -53t26 -103q0 -91 -25 -276l219 428l99 -31
v-362z" />
    <glyph glyph-name="uni03D8" unicode="&#x3d8;" 
d="M557 344q0 -145 -53.5 -239t-154.5 -113v-194h-97v194q-102 18 -155.5 111t-53.5 240q0 163 66.5 261t190.5 98q125 0 191 -96.5t66 -261.5zM300 68q81 0 117.5 68.5t36.5 207.5t-36.5 208t-117.5 69t-117.5 -69t-36.5 -209q0 -275 154 -275z" />
    <glyph glyph-name="uni03D9" unicode="&#x3d9;" 
d="M532 264q0 -111 -48 -183.5t-136 -88.5v-194l-96 -12v206q-89 16 -136.5 87t-47.5 184q0 126 61 201.5t172 75.5t171 -74t60 -202zM300 64q130 0 130 200q0 199 -129 199q-131 0 -131 -200q0 -199 130 -199z" />
    <glyph glyph-name="uni03DA" unicode="&#x3da;" 
d="M362 -215l-40 63q48 22 72 44.5t24 56.5q0 30 -26.5 48.5t-108.5 52.5q-111 45 -162.5 116.5t-51.5 195.5q0 67 19 124.5t57.5 103.5t104.5 72.5t153 26.5h153l-14 -83h-140q-114 0 -171.5 -65t-57.5 -177q0 -102 38 -154.5t138 -91.5q91 -36 131 -71t40 -92
q0 -55 -37 -94.5t-121 -75.5z" />
    <glyph glyph-name="uni03DB" unicode="&#x3db;" 
d="M411 578l93 -7q0 -79 -43 -112.5t-134 -55.5q-86 -20 -121.5 -48t-35.5 -97t34.5 -100.5t136.5 -63.5q84 -27 122.5 -56t38.5 -85q0 -54 -38 -93t-121 -75l-39 63q49 22 72 43.5t23 52.5q0 30 -23.5 44t-86.5 33q-11 3 -17 5q-47 14 -79.5 30t-63.5 42t-46.5 65.5
t-15.5 93.5q0 89 49.5 139.5t142.5 73.5q96 24 117 37q35 21 35 71z" />
    <glyph glyph-name="uni03DC" unicode="&#x3dc;" 
d="M527 604h-308v-218h146q62 0 107 -23l-26 -72q-40 14 -89 14h-138v-305h-99v689h418z" />
    <glyph glyph-name="uni03DD" unicode="&#x3dd;" 
d="M299 450q-43 0 -63 -20.5t-20 -64.5v-131h167q62 0 105 -22l-24 -68q-40 14 -89 14h-159v-359l-96 -14v575q0 82 44 124.5t129 42.5h236l-13 -76z" />
    <glyph glyph-name="uni03DE" unicode="&#x3de;" 
d="M516 390l18 -84l-224 -306h-111l225 306h-339l-18 84l223 299h111l-223 -299h338z" />
    <glyph glyph-name="uni03DF" unicode="&#x3df;" 
d="M490 471l28 -75l-101 -202q-65 -131 -76 -206l-84 17q4 52 21.5 100.5t57.5 119.5l77 141l-305 -88l-26 76l96 193q65 131 76 206l85 -17q-9 -91 -79 -220l-73 -132z" />
    <glyph glyph-name="uni03E0" unicode="&#x3e0;" 
d="M578 0h-98l-99 277l-87 -277l-86 2l133 387l-39 109l-181 -498h-99l239 602l-36 87h90z" />
    <glyph glyph-name="uni03E1" unicode="&#x3e1;" 
d="M95 753q217 -105 320.5 -260.5t103.5 -394.5q0 -160 -41 -311l-83 12q31 141 31 299q0 74 -11 143l-101 -241h-81l152 354q-19 50 -48 97l-216 -451h-93l253 523q-83 90 -219 165z" />
    <glyph glyph-name="uni03F0" unicode="&#x3f0;" 
d="M495 143q0 -37 10 -54.5t36 -29.5l-32 -71q-59 16 -85 52.5t-26 103.5q0 90 25 275l-219 -427l-99 30v362q0 38 -10 55t-36 29l32 72q59 -16 85 -53t26 -103q0 -54 -24 -276l218 428l99 -31v-362z" />
    <glyph glyph-name="uni03F1" unicode="&#x3f1;" 
d="M323 -98q68 -10 101.5 -30.5t45.5 -55.5l-88 -32q-11 21 -31.5 29.5t-89.5 19.5q-90 14 -130.5 54t-40.5 127v257q0 133 54.5 201t161.5 68q108 0 166 -67.5t58 -183.5q0 -110 -55.5 -188.5t-151.5 -78.5q-89 0 -137 68v-77q0 -58 26 -78.5t111 -32.5zM308 465
q-67 0 -94.5 -51.5t-27.5 -157.5v-86q40 -72 113 -72q61 0 94.5 51t33.5 140q0 86 -30.5 131t-88.5 45z" />
    <glyph glyph-name="uni03F2" unicode="&#x3f2;" 
d="M341 69q66 0 134 45l45 -62q-35 -29 -83.5 -46.5t-97.5 -17.5q-119 0 -185 74t-66 199q0 122 67.5 200.5t184.5 78.5q102 0 179 -63l-45 -62q-67 46 -133 46q-69 0 -109.5 -50.5t-40.5 -149.5q0 -98 40.5 -145t109.5 -47z" />
    <glyph glyph-name="uni03F3" unicode="&#x3f3;" 
d="M367 779q30 0 48.5 -18.5t18.5 -45.5q0 -28 -18.5 -46t-48.5 -18q-29 0 -47.5 18t-18.5 46q0 27 18.5 45.5t47.5 18.5zM449 527v-431q0 -134 -86 -207t-256 -103l-15 74q127 23 194 75.5t67 154.5v364h-214v73h310z" />
    <glyph glyph-name="uni03F4" unicode="&#x3f4;" 
d="M557 344q0 -162 -66.5 -259t-190.5 -97q-125 0 -191 95.5t-66 259.5q0 163 66.5 261t190.5 98q125 0 191 -96.5t66 -261.5zM454 344q0 140 -36.5 208.5t-117.5 68.5t-117.5 -69t-36.5 -209q0 -275 154 -275q81 0 117.5 68.5t36.5 207.5zM398 315h-197v75h197v-75z" />
    <glyph glyph-name="uni03F5" unicode="&#x3f5;" 
d="M340 540q104 0 180 -60l-44 -60q-65 44 -135 44q-62 0 -103 -40.5t-50 -117.5h235v-72h-236q6 -86 47 -127.5t107 -41.5q71 0 136 45l43 -60q-74 -62 -179 -62q-120 0 -186.5 73.5t-66.5 199.5q0 122 67.5 200.5t184.5 78.5z" />
    <glyph glyph-name="uni03F6" unicode="&#x3f6;" 
d="M278 540q119 0 180.5 -73.5t61.5 -200.5t-65 -202.5t-184 -75.5q-108 0 -183 63l45 61q63 -47 137 -47q140 0 151 169h-240v72h239q-15 158 -145 158q-76 0 -138 -45l-44 59q74 62 185 62z" />
    <glyph glyph-name="uni03F7" unicode="&#x3f7;" 
d="M199 689v-116h91q130 0 199.5 -54t69.5 -164q0 -116 -71 -172.5t-195 -56.5h-94v-126h-100v689h100zM300 497h-101v-293h102q74 0 114 34t40 115q0 144 -155 144z" />
    <glyph glyph-name="uni03F8" unicode="&#x3f8;" 
d="M191 751v-287q59 76 150 76q191 0 191 -276q0 -124 -52.5 -200t-150.5 -76q-85 0 -138 59v-249l-96 -12v953zM316 464q-71 0 -125 -81v-255q44 -63 114 -63q125 0 125 199q0 200 -114 200z" />
    <glyph glyph-name="uni03F9" unicode="&#x3f9;" 
d="M358 702q117 0 203 -69l-53 -63q-61 51 -144 51q-90 0 -146 -66t-56 -210q0 -142 54.5 -208t146.5 -66q86 0 159 58l49 -63q-78 -78 -210 -78q-133 0 -218 94t-85 263q0 167 86 262t214 95z" />
    <glyph glyph-name="uni03FA" unicode="&#x3fa;" 
d="M533 689l39 -689h-94l-19 350q-6 118 -3 250l-110 -477h-93l-118 477q7 -110 1 -251l-17 -349h-91l39 689h129l106 -467l101 467h130z" />
    <glyph glyph-name="uni03FB" unicode="&#x3fb;" 
d="M17 -214l64 741h123l90 -379l102 379h123l43 -527h-92l-18 243q-6 90 -6 202l-109 -386h-89l-100 383q0 -132 -6 -199l-35 -446z" />
    <glyph glyph-name="uni03FC" unicode="&#x3fc;" 
d="M355 -12q-87 0 -138 59v-110h156v-72h-156v-67l-96 -12v79h-79v72h79v334q0 132 55 200.5t162 68.5q223 0 223 -276q0 -118 -54 -197t-152 -79zM217 256v-128q41 -63 114 -63q127 0 127 199q0 201 -122 201q-65 0 -92 -51.5t-27 -157.5z" />
    <glyph glyph-name="uni03FD" unicode="&#x3fd;" 
d="M252 702q135 0 212.5 -92.5t77.5 -264.5q0 -169 -85 -263t-218 -94q-132 0 -210 78l49 63q73 -58 159 -58q92 0 146.5 66t54.5 208q0 147 -49.5 211.5t-143.5 64.5q-85 0 -161 -51l-45 63q96 69 213 69z" />
    <glyph glyph-name="uni03FE" unicode="&#x3fe;" 
d="M358 702q117 0 203 -69l-53 -63q-61 51 -144 51q-90 0 -146 -66t-56 -210q0 -142 54.5 -208t146.5 -66q86 0 159 58l49 -63q-78 -78 -210 -78q-133 0 -218 94t-85 263q0 167 86 262t214 95zM363 410q30 0 48.5 -18t18.5 -45q0 -28 -18.5 -46t-48.5 -18q-29 0 -47.5 18
t-18.5 46q0 27 18.5 45t47.5 18z" />
    <glyph glyph-name="uni03FF" unicode="&#x3ff;" 
d="M252 702q135 0 212.5 -92.5t77.5 -264.5q0 -169 -85 -263t-218 -94q-132 0 -210 78l49 63q73 -58 159 -58q92 0 146.5 66t54.5 208q0 147 -49.5 211.5t-143.5 64.5q-85 0 -161 -51l-45 63q96 69 213 69zM235 410q30 0 48.5 -18t18.5 -45q0 -28 -18.5 -46t-48.5 -18
q-29 0 -47.5 18t-18.5 46q0 27 18.5 45t47.5 18z" />
    <glyph glyph-name="uni0400" unicode="&#x400;" 
d="M251 916l189 -110l-27 -51l-211 82zM219 611v-222h254v-78h-254v-233h310v-78h-409v689h402l-12 -78h-291z" />
    <glyph glyph-name="uni0401" unicode="&#x401;" 
d="M215 766q-25 0 -42 16.5t-17 41.5t17 41.5t42 16.5t42 -16.5t17 -41.5t-17 -41.5t-42 -16.5zM426 766q-25 0 -42 16.5t-17 41.5t17 41.5t42 16.5q26 0 42.5 -16.5t16.5 -41.5t-17 -41.5t-42 -16.5zM219 611v-222h254v-78h-254v-233h310v-78h-409v689h402l-12 -78h-291z
" />
    <glyph glyph-name="uni0402" unicode="&#x402;" 
d="M250 610v-214q64 57 141 57q178 0 178 -206v-151q0 -101 -44.5 -154t-134.5 -83l-25 76q63 26 84.5 59.5t21.5 101.5v148q0 69 -23.5 98t-79.5 29q-64 0 -118 -50v-321h-97v610h-158v79h422l-10 -79h-157z" />
    <glyph glyph-name="uni0403" unicode="&#x403;" 
d="M428 914l41 -80l-217 -79l-25 51zM547 689l-11 -85h-308v-604h-99v689h418z" />
    <glyph glyph-name="uni0404" unicode="&#x404;" 
d="M353 702q116 0 204 -69l-50 -59q-68 49 -147 49q-83 0 -138 -55.5t-64 -173.5h296v-80h-298q6 -124 61 -185t141 -61q91 0 158 59l50 -62q-83 -77 -212 -77q-135 0 -217.5 93.5t-82.5 263.5q0 168 85.5 262.5t213.5 94.5z" />
    <glyph glyph-name="uni0405" unicode="&#x405;" 
d="M542 193q0 -92 -68.5 -148.5t-188.5 -56.5q-155 0 -247 89l57 64q78 -73 191 -73q65 0 108.5 31.5t43.5 89.5q0 49 -30.5 77t-115.5 52q-113 34 -167.5 79.5t-54.5 122.5q0 81 64 131.5t165 50.5q132 0 224 -81l-55 -62q-71 62 -165 62q-58 0 -95 -24.5t-37 -71.5
q0 -43 36 -68.5t132 -53.5q98 -29 150.5 -75t52.5 -135z" />
    <glyph glyph-name="uni0406" unicode="&#x406;" 
d="M502 689v-77h-152v-534h152v-78h-404v78h152v534h-152v77h404z" />
    <glyph glyph-name="uni0407" unicode="&#x407;" 
d="M194 766q-25 0 -42 16.5t-17 41.5t17 41.5t42 16.5t42 -16.5t17 -41.5t-17 -41.5t-42 -16.5zM405 766q-25 0 -42 16.5t-17 41.5t17 41.5t42 16.5q26 0 42.5 -16.5t16.5 -41.5t-17 -41.5t-42 -16.5zM502 689v-77h-152v-534h152v-78h-404v78h152v534h-152v77h404z" />
    <glyph glyph-name="uni0408" unicode="&#x408;" 
d="M502 689v-457q0 -48 -13 -90t-40 -77.5t-76 -56t-114 -20.5q-107 0 -192 63l42 64q76 -47 148 -47q68 0 106.5 44.5t38.5 123.5v375h-205v78h305z" />
    <glyph glyph-name="uni0409" unicode="&#x409;" 
d="M356 689v-252q123 0 183.5 -52t60.5 -161q0 -224 -237 -224h-99v612h-88l-21 -302q-9 -119 -24 -183t-32 -88t-53 -51l-47 63q26 28 40.5 79t24.5 184l29 375h263zM371 364h-15v-288h15q67 0 99.5 32t32.5 115q0 75 -32.5 108t-99.5 33z" />
    <glyph glyph-name="uni040A" unicode="&#x40a;" 
d="M357 689v-272q122 0 182.5 -49t60.5 -153q0 -215 -237 -215h-99v345h-132v-345h-93v689h93v-272h132v272h93zM371 345h-14v-270h14q69 1 100.5 30t31.5 109q0 71 -32 101t-100 30z" />
    <glyph glyph-name="uni040B" unicode="&#x40b;" 
d="M417 689l-10 -79h-157v-214q60 57 141 57q178 0 178 -206v-247h-98v244q0 69 -23.5 98t-79.5 29q-64 0 -118 -50v-321h-97v610h-158v79h422z" />
    <glyph glyph-name="uni040C" unicode="&#x40c;" 
d="M402 914l41 -80l-217 -79l-25 51zM264 322h-77v-322h-99v689h99v-287h78l202 287h104l-223 -322l242 -367h-117z" />
    <glyph glyph-name="uni040D" unicode="&#x40d;" 
d="M230 916l189 -110l-27 -51l-211 82zM78 0v689h97v-330q0 -140 -17 -271l241 601h123v-689h-97v330q0 142 17 267l-239 -597h-125z" />
    <glyph glyph-name="uni040E" unicode="&#x40e;" 
d="M308 758q-62 0 -103.5 34.5t-47.5 89.5l62 14q23 -66 89 -66q69 0 92 66l62 -14q-6 -55 -49 -89.5t-105 -34.5zM584 689l-205 -500q-40 -98 -95 -143t-165 -58l-14 76q86 12 122.5 39.5t58.5 85.5h-39l-226 500h104l188 -438l171 438h100z" />
    <glyph glyph-name="uni040F" unicode="&#x40f;" 
d="M522 689v-689h-175v-151h-78l-15 151h-176v689h99v-608h246v608h99z" />
    <glyph glyph-name="uni0410" unicode="&#x410;" 
d="M428 172h-261l-52 -172h-100l223 689h124l223 -689h-105zM190 251h215l-107 358z" />
    <glyph glyph-name="uni0411" unicode="&#x411;" 
d="M486 689l-9 -81h-284v-184h84q269 0 269 -207q0 -112 -71.5 -164.5t-195.5 -52.5h-185v689h392zM286 348h-93v-269h93q76 0 116.5 30t40.5 107q0 132 -157 132z" />
    <glyph glyph-name="uni0412" unicode="&#x412;" 
d="M545 197q0 -54 -22 -94t-61 -61.5t-83.5 -31.5t-96.5 -10h-192v689h178q50 0 91.5 -8.5t78 -27.5t57 -54t20.5 -84q0 -62 -36.5 -100t-91.5 -50q158 -27 158 -168zM414 508q0 104 -131 104h-94v-213h102q123 0 123 109zM441 196q0 125 -143 125h-109v-241h105
q147 0 147 116z" />
    <glyph glyph-name="uni0413" unicode="&#x413;" 
d="M547 689l-11 -85h-308v-604h-99v689h418z" />
    <glyph glyph-name="uni0414" unicode="&#x414;" 
d="M516 81h51v-232h-78l-15 151h-383l-15 -151h-78v232h42q38 37 54 106.5t45 300.5l24 201h353v-608zM417 81v528h-167l-14 -124q-24 -214 -42 -289.5t-62 -114.5h285z" />
    <glyph glyph-name="uni0415" unicode="&#x415;" 
d="M219 611v-222h254v-78h-254v-233h310v-78h-409v689h402l-12 -78h-291z" />
    <glyph glyph-name="uni0416" unicode="&#x416;" 
d="M259 326h-56l-100 -326h-93l121 367l-107 322h92l88 -291h55v291h82v-291h55l89 291h91l-107 -322l121 -367h-95l-99 326h-55v-326h-82v326z" />
    <glyph glyph-name="uni0417" unicode="&#x417;" 
d="M281 702q110 0 175 -50t65 -131q0 -61 -40 -99.5t-105 -47.5q72 -6 120 -50.5t48 -119.5q0 -95 -72.5 -155.5t-194.5 -60.5q-152 0 -247 98l59 54q83 -72 187 -72q77 0 120 35.5t43 98.5q0 64 -42.5 95.5t-113.5 31.5h-121l12 80h103q62 0 102.5 27.5t40.5 81.5
q0 50 -39.5 77.5t-103.5 27.5q-95 0 -179 -64l-53 56q104 87 236 87z" />
    <glyph glyph-name="uni0418" unicode="&#x418;" 
d="M78 0v689h97v-330q0 -140 -17 -271l241 601h123v-689h-97v330q0 142 17 267l-239 -597h-125z" />
    <glyph glyph-name="uni0419" unicode="&#x419;" 
d="M298 767q-62 0 -103.5 32t-47.5 87l62 14q20 -61 89 -61q72 0 92 61l62 -14q-6 -55 -48.5 -87t-105.5 -32zM78 0v689h97v-330q0 -140 -17 -271l241 601h123v-689h-97v330q0 142 17 267l-239 -597h-125z" />
    <glyph glyph-name="uni041A" unicode="&#x41a;" 
d="M264 322h-77v-322h-99v689h99v-287h78l202 287h104l-223 -322l242 -367h-117z" />
    <glyph glyph-name="uni041B" unicode="&#x41b;" 
d="M522 689v-689h-99v607h-173l-23 -189q-14 -120 -28.5 -193.5t-36.5 -119.5t-44.5 -68.5t-64.5 -48.5l-42 71q23 18 34.5 32.5t28 49.5t29 98t24.5 161l36 289h359z" />
    <glyph glyph-name="uni041C" unicode="&#x41c;" 
d="M533 689l39 -689h-94l-19 350q-6 118 -3 250l-110 -477h-93l-118 477q7 -110 1 -251l-17 -349h-91l39 689h129l106 -467l101 467h130z" />
    <glyph glyph-name="uni041D" unicode="&#x41d;" 
d="M423 0v321h-246v-321h-99v689h99v-286h246v286h99v-689h-99z" />
    <glyph glyph-name="uni041E" unicode="&#x41e;" 
d="M557 344q0 -162 -66.5 -259t-190.5 -97q-125 0 -191 95.5t-66 259.5q0 163 66.5 261t190.5 98q125 0 191 -96.5t66 -261.5zM454 344q0 139 -36.5 208t-117.5 69t-117.5 -69t-36.5 -209q0 -275 154 -275q81 0 117.5 68.5t36.5 207.5z" />
    <glyph glyph-name="uni041F" unicode="&#x41f;" 
d="M423 0v606h-246v-606h-99v689h444v-689h-99z" />
    <glyph glyph-name="uni0420" unicode="&#x420;" 
d="M560 475q0 -115 -71.5 -169t-195.5 -54h-87v-252h-99v689h182q130 0 200.5 -53.5t70.5 -160.5zM455 475q0 138 -156 138h-93v-284h92q74 0 115.5 33t41.5 113z" />
    <glyph glyph-name="uni0421" unicode="&#x421;" 
d="M358 702q117 0 203 -69l-53 -63q-61 51 -144 51q-90 0 -146 -66t-56 -210q0 -142 54.5 -208t146.5 -66q86 0 159 58l49 -63q-78 -78 -210 -78q-133 0 -218 94t-85 263q0 167 86 262t214 95z" />
    <glyph glyph-name="uni0422" unicode="&#x422;" 
d="M348 606v-606h-99v606h-212v83h526l-10 -83h-205z" />
    <glyph glyph-name="uni0423" unicode="&#x423;" 
d="M584 689l-205 -500q-40 -98 -95 -143t-165 -58l-14 76q86 12 122.5 39.5t58.5 85.5h-39l-226 500h104l188 -438l171 438h100z" />
    <glyph glyph-name="uni0424" unicode="&#x424;" 
d="M345 720v-61q124 -9 183.5 -86t59.5 -226q0 -150 -62 -229.5t-181 -85.5v-63h-90v63q-243 12 -243 315q0 149 59.5 226t183.5 86v61h90zM258 591q-77 -4 -112.5 -59.5t-35.5 -184.5q0 -124 34.5 -181.5t113.5 -64.5v490zM342 591v-490q79 7 113.5 64.5t34.5 181.5
q0 129 -35.5 184.5t-112.5 59.5z" />
    <glyph glyph-name="uni0425" unicode="&#x425;" 
d="M44 689h113l143 -257l145 257h106l-194 -317l217 -372h-113l-163 303l-165 -303h-106l212 367z" />
    <glyph glyph-name="uni0426" unicode="&#x426;" 
d="M522 81h59v-232h-78l-15 151h-410v689h99v-608h246v608h99v-608z" />
    <glyph glyph-name="uni0427" unicode="&#x427;" 
d="M423 689h99v-689h-99v276q-82 -60 -174 -60t-147 56.5t-55 152.5v264h99v-258q0 -132 129 -132q87 0 148 57v333z" />
    <glyph glyph-name="uni0428" unicode="&#x428;" 
d="M556 689v-689h-512v689h90v-610h124v610h84v-610h124v610h90z" />
    <glyph glyph-name="uni0429" unicode="&#x429;" 
d="M556 81h59v-232h-78l-15 151h-478v689h90v-610h124v610h84v-610h124v610h90v-608z" />
    <glyph glyph-name="uni042A" unicode="&#x42a;" 
d="M215 689v-252h97q270 0 270 -213q0 -115 -71.5 -169.5t-195.5 -54.5h-199v606h-116v83h215zM323 361h-108v-283h107q76 0 116.5 31.5t40.5 113.5q0 138 -156 138z" />
    <glyph glyph-name="uni042B" unicode="&#x42b;" 
d="M125 689v-251h54q249 0 249 -214q0 -112 -64 -168t-183 -56h-152v689h96zM571 689v-689h-96v689h96zM189 364h-64v-288h64q69 0 104.5 34.5t35.5 112.5q0 141 -140 141z" />
    <glyph glyph-name="uni042C" unicode="&#x42c;" 
d="M187 689v-252h98q270 0 270 -213q0 -115 -71.5 -169.5t-195.5 -54.5h-200v689h99zM294 361h-107v-282h108q75 0 115 31.5t40 112.5q0 138 -156 138z" />
    <glyph glyph-name="uni042D" unicode="&#x42d;" 
d="M268 702q129 0 201.5 -88.5t72.5 -260.5q0 -177 -76 -271t-208 -94q-133 0 -221 88l57 56q72 -64 159 -64q88 0 134.5 60t52.5 186h-295v80h295q-7 121 -51.5 175t-126.5 54q-83 0 -164 -63l-53 56q99 86 223 86z" />
    <glyph glyph-name="uni042E" unicode="&#x42e;" 
d="M389 702q105 0 148 -87t43 -271q0 -178 -45 -267t-146 -89t-145 85t-46 245h-64v-318h-90v689h90v-293h65q6 153 50.5 229.5t139.5 76.5zM389 625q-52 0 -73 -61t-21 -219q0 -157 21 -218.5t73 -61.5q51 0 73 62t22 217q0 156 -22 218.5t-73 62.5z" />
    <glyph glyph-name="uni042F" unicode="&#x42f;" 
d="M522 689v-689h-99v273h-143l-141 -273h-111l161 294q-120 54 -120 188q0 100 67.5 153.5t196.5 53.5h189zM423 613h-98q-77 0 -114 -32t-37 -99q0 -132 136 -132h113v263z" />
    <glyph glyph-name="uni0430" unicode="&#x430;" 
d="M484 121q0 -31 9.5 -45.5t32.5 -21.5l-23 -66q-79 10 -102 74q-57 -74 -166 -74q-80 0 -126 44.5t-46 118.5q0 82 64.5 126.5t184.5 44.5h76v39q0 101 -121 101q-62 0 -139 -27l-25 70q96 35 178 35q100 0 151.5 -45.5t51.5 -127.5v-246zM261 59q38 0 71.5 19t55.5 53
v128h-70q-153 0 -153 -106q0 -94 96 -94z" />
    <glyph glyph-name="uni0431" unicode="&#x431;" 
d="M335 493q87 0 140.5 -65t53.5 -177q0 -125 -63 -194t-167 -69t-166.5 75.5t-62.5 227.5q0 171 42 258t154 125q107 37 169 77l40 -70q-66 -42 -163 -77q-70 -24 -101 -65t-40 -139q55 93 164 93zM299 64q59 0 93 41t34 143q0 169 -110 169q-92 0 -143 -96v-65
q0 -92 33.5 -142t92.5 -50z" />
    <glyph glyph-name="uni0432" unicode="&#x432;" 
d="M402 286q134 -13 134 -130q0 -78 -65 -117t-163 -39h-202v520q97 20 185 20q101 0 160 -36.5t59 -102.5q0 -88 -108 -115zM292 467q-47 0 -90 -6v-147h102q108 0 108 78q0 40 -29 57.5t-91 17.5zM294 74q30 0 52 2.5t44.5 10.5t34 26t11.5 45q0 87 -126 87h-108v-171h92z
" />
    <glyph glyph-name="uni0433" unicode="&#x433;" 
d="M248 0h-96v527h375l-12 -79h-267v-448z" />
    <glyph glyph-name="uni0434" unicode="&#x434;" 
d="M500 77h41v-228h-78l-15 151h-331l-15 -151h-78v228h37q35 30 52.5 88t27.5 192l12 170h347v-450zM405 77v375h-166l-6 -89q-10 -141 -28.5 -197.5t-62.5 -88.5h263z" />
    <glyph glyph-name="uni0435" unicode="&#x435;" 
d="M173 231q4 -83 45.5 -124.5t104.5 -41.5q70 0 140 47l43 -61q-79 -63 -186 -63q-117 0 -182 75t-65 200q0 121 64 199t171 78q102 0 161 -70t59 -191q0 -24 -2 -48h-353zM309 465q-58 0 -94.5 -41.5t-41.5 -122.5h262q-1 79 -34.5 121.5t-91.5 42.5z" />
    <glyph glyph-name="uni0436" unicode="&#x436;" 
d="M260 0v244h-51l-101 -244h-92l122 283l-114 244h94l91 -214h51v214h80v-214h51l94 214h91l-114 -244l122 -283h-93l-102 244h-49v-244h-80z" />
    <glyph glyph-name="uni0437" unicode="&#x437;" 
d="M188 312h95q51 0 80 20.5t29 55.5q0 77 -119 77q-86 0 -160 -45l-45 56q88 64 210 64q93 0 153 -38t60 -107q0 -84 -110 -114q55 -2 97 -35t42 -89q0 -81 -67.5 -125t-176.5 -44q-136 0 -227 73l45 60q81 -57 184 -57q68 0 103.5 24.5t35.5 67.5q0 82 -128 82h-107z" />
    <glyph glyph-name="uni0438" unicode="&#x438;" 
d="M505 527v-527h-95v234q0 127 12 187l-214 -421h-113v527h95v-234q0 -125 -11 -184l211 418h115z" />
    <glyph glyph-name="uni0439" unicode="&#x439;" 
d="M298 641q-62 0 -103.5 32t-47.5 87l62 14q20 -61 89 -61q72 0 92 61l62 -14q-6 -55 -48.5 -87t-105.5 -32zM505 527v-527h-95v234q0 127 12 187l-214 -421h-113v527h95v-234q0 -125 -11 -184l211 418h115z" />
    <glyph glyph-name="uni043A" unicode="&#x43a;" 
d="M100 0v527h96v-211h100l146 211h105l-173 -244l198 -283h-113l-165 242h-98v-242h-96z" />
    <glyph glyph-name="uni043B" unicode="&#x43b;" 
d="M513 527v-527h-96v450h-184l-10 -127q-9 -119 -25 -181.5t-41.5 -94t-78.5 -59.5l-41 61q29 18 44 38t28.5 75.5t21.5 156.5l16 208h366z" />
    <glyph glyph-name="uni043C" unicode="&#x43c;" 
d="M523 527l38 -527h-90l-18 245q-7 96 -4 189h-4l-99 -346h-89l-110 346h-4q4 -75 -2 -189l-13 -245h-89l37 527h120l107 -354l98 354h122z" />
    <glyph glyph-name="uni043D" unicode="&#x43d;" 
d="M409 0v231h-218v-231h-96v527h96v-220h218v220h96v-527h-96z" />
    <glyph glyph-name="uni043E" unicode="&#x43e;" 
d="M301 540q111 0 171 -74t60 -202q0 -126 -61 -201t-171 -75q-112 0 -172 73.5t-60 201.5q0 126 61 201.5t172 75.5zM301 463q-131 0 -131 -200q0 -199 130 -199t130 200q0 199 -129 199z" />
    <glyph glyph-name="uni043F" unicode="&#x43f;" 
d="M409 0v451h-218v-451h-96v527h410v-527h-96z" />
    <glyph glyph-name="uni0440" unicode="&#x440;" horiz-adv-x="601" 
d="M341 540q191 0 191 -276q0 -124 -52.5 -200t-150.5 -76q-85 0 -138 59v-249l-96 -12v741h83l7 -71q61 84 156 84zM316 464q-71 0 -125 -81v-255q44 -63 114 -63q125 0 125 199q0 200 -114 200z" />
    <glyph glyph-name="uni0441" unicode="&#x441;" 
d="M341 69q66 0 134 45l45 -62q-35 -29 -83.5 -46.5t-97.5 -17.5q-119 0 -185 74t-66 199q0 122 67.5 200.5t184.5 78.5q102 0 179 -63l-45 -62q-67 46 -133 46q-69 0 -109.5 -50.5t-40.5 -149.5q0 -98 40.5 -145t109.5 -47z" />
    <glyph glyph-name="uni0442" unicode="&#x442;" 
d="M544 527l-11 -77h-185v-450h-96v450h-190v77h482z" />
    <glyph glyph-name="uni0443" unicode="&#x443;" 
d="M544 527l-184 -530q-31 -93 -87.5 -147t-157.5 -64l-13 75q76 13 110.5 44t57.5 95h-33l-181 527h102l144 -457l143 457h99z" />
    <glyph glyph-name="uni0444" unicode="&#x444;" 
d="M259 751l82 -12v-252q42 53 98 53q75 0 105 -70.5t30 -205.5q0 -127 -37.5 -201.5t-106.5 -74.5q-50 0 -89 54v-244l-82 -12v256q-39 -54 -91 -54q-69 0 -105.5 74t-36.5 202q0 133 32.5 204.5t107.5 71.5q53 0 93 -51v262zM190 466q-36 0 -52 -47t-16 -155t16 -155.5
t52 -47.5q19 0 33.5 11t35.5 37v313q-19 24 -33.5 34t-35.5 10zM415 466q-39 0 -74 -45v-312q19 -26 33.5 -37t34.5 -11q70 0 70 203q0 110 -14.5 156t-49.5 46z" />
    <glyph glyph-name="uni0445" unicode="&#x445;" 
d="M158 0h-108l193 278l-170 249h112l116 -191l117 191h108l-169 -245l193 -282h-115l-138 222z" />
    <glyph glyph-name="uni0446" unicode="&#x446;" 
d="M498 77h79v-228h-78l-15 151h-396v527h96v-449h218v449h96v-450z" />
    <glyph glyph-name="uni0447" unicode="&#x447;" 
d="M495 527v-527h-96v219q-65 -58 -163 -58q-77 0 -117 41t-40 116v209h96v-198q0 -49 21.5 -71t66.5 -22q37 0 75 15.5t61 40.5v235h96z" />
    <glyph glyph-name="uni0448" unicode="&#x448;" 
d="M555 527v-527h-510v527h88v-449h125v449h84v-449h125v449h88z" />
    <glyph glyph-name="uni0449" unicode="&#x449;" 
d="M555 77h68v-228h-78l-15 151h-485v527h88v-449h125v449h84v-449h125v449h88v-450z" />
    <glyph glyph-name="uni044A" unicode="&#x44a;" 
d="M248 527v-164h59q242 0 242 -179q0 -184 -239 -184h-158v455h-122v72h218zM315 290h-67v-216h67q63 0 97.5 24t34.5 86q0 57 -33 81.5t-99 24.5z" />
    <glyph glyph-name="uni044B" unicode="&#x44b;" 
d="M145 527v-169h32q225 0 225 -175q0 -93 -58.5 -138t-164.5 -45h-123v527h89zM544 527v-527h-90v527h90zM181 290h-36v-219h36q62 0 93.5 25t31.5 87q0 57 -30 82t-95 25z" />
    <glyph glyph-name="uni044C" unicode="&#x44c;" 
d="M216 527v-164h95q226 0 226 -181q0 -91 -60 -136.5t-149 -45.5h-208v527h96zM311 291h-95v-217h104q115 0 115 109q0 55 -28 81.5t-96 26.5z" />
    <glyph glyph-name="uni044D" unicode="&#x44d;" 
d="M278 540q119 0 180.5 -73.5t61.5 -200.5t-65 -202.5t-184 -75.5q-108 0 -183 63l45 61q63 -47 137 -47q140 0 151 169h-240v72h239q-15 158 -145 158q-76 0 -138 -45l-44 59q74 62 185 62z" />
    <glyph glyph-name="uni044E" unicode="&#x44e;" 
d="M387 540q92 0 138 -72t46 -204q0 -129 -45.5 -202.5t-138.5 -73.5q-87 0 -131 65.5t-50 177.5h-64v-231h-90v527h90v-220h64q15 233 181 233zM387 465q-49 0 -67.5 -47t-18.5 -155q0 -103 18 -151.5t68 -48.5t68.5 48.5t18.5 152.5q0 105 -19.5 153t-67.5 48z" />
    <glyph glyph-name="uni044F" unicode="&#x44f;" 
d="M296 527h196v-527h-96v201h-132l-110 -201h-107l126 223q-92 44 -92 142q0 78 56 120t159 42zM292 273h104v182h-102q-112 0 -112 -89q0 -49 26 -71t84 -22z" />
    <glyph glyph-name="uni0450" unicode="&#x450;" 
d="M399 622l-208 93l48 80l190 -121zM173 231q4 -83 45.5 -124.5t104.5 -41.5q70 0 140 47l43 -61q-79 -63 -186 -63q-117 0 -182 75t-65 200q0 121 64 199t171 78q102 0 161 -70t59 -191q0 -24 -2 -48h-353zM309 465q-58 0 -94.5 -41.5t-41.5 -122.5h262q-1 79 -34.5 121.5
t-91.5 42.5z" />
    <glyph glyph-name="uni0451" unicode="&#x451;" 
d="M204 646q-25 0 -42 16.5t-17 41.5t17 41.5t42 16.5t42 -16.5t17 -41.5t-17 -41.5t-42 -16.5zM415 646q-25 0 -42 16.5t-17 41.5t17 41.5t42 16.5q26 0 42.5 -16.5t16.5 -41.5t-17 -41.5t-42 -16.5zM173 231q4 -83 45.5 -124.5t104.5 -41.5q70 0 140 47l43 -61
q-79 -63 -186 -63q-117 0 -182 75t-65 200q0 121 64 199t171 78q102 0 161 -70t59 -191q0 -24 -2 -48h-353zM309 465q-58 0 -94.5 -41.5t-41.5 -122.5h262q-1 79 -34.5 121.5t-91.5 42.5z" />
    <glyph glyph-name="uni0452" unicode="&#x452;" 
d="M191 749v-81h165v-71h-165v-136q31 37 75.5 58t91.5 21q148 0 148 -157v-348q0 -75 -20 -123t-52.5 -73t-91.5 -52l-36 70q58 27 81 59.5t23 110.5v350q0 46 -20.5 67t-64.5 21q-39 0 -74.5 -24.5t-59.5 -59.5v-381h-96v597h-78v71h78v70z" />
    <glyph glyph-name="uni0453" unicode="&#x453;" 
d="M423 803l42 -79l-214 -87l-29 51zM248 0h-96v527h375l-12 -79h-267v-448z" />
    <glyph glyph-name="uni0454" unicode="&#x454;" 
d="M340 540q104 0 180 -60l-44 -60q-65 44 -135 44q-62 0 -103 -40.5t-50 -117.5h235v-72h-236q6 -86 47 -127.5t107 -41.5q71 0 136 45l43 -60q-74 -62 -179 -62q-120 0 -186.5 73.5t-66.5 199.5q0 122 67.5 200.5t184.5 78.5z" />
    <glyph glyph-name="uni0455" unicode="&#x455;" 
d="M280 64q58 0 91 21t33 57q0 37 -24 57t-103 40q-90 23 -133.5 56t-43.5 97q0 67 56 107.5t148 40.5q115 0 196 -60l-42 -63q-70 47 -151 47q-108 0 -108 -64q0 -32 27.5 -49.5t109.5 -39.5q86 -23 128.5 -58.5t42.5 -104.5q0 -80 -65.5 -120t-161.5 -40q-127 0 -210 72
l52 61q69 -57 158 -57z" />
    <glyph glyph-name="uni0456" unicode="&#x456;" 
d="M300 779q30 0 48.5 -18.5t18.5 -45.5q0 -28 -18.5 -46t-48.5 -18q-29 0 -47.5 18t-18.5 46q0 27 18.5 45.5t47.5 18.5zM371 527v-454h147v-73h-403v73h160v381h-155v73h251z" />
    <glyph glyph-name="uni0457" unicode="&#x457;" 
d="M195 646q-25 0 -42 16.5t-17 41.5t17 41.5t42 16.5t42 -16.5t17 -41.5t-17 -41.5t-42 -16.5zM406 646q-25 0 -42 16.5t-17 41.5t17 41.5t42 16.5q26 0 42.5 -16.5t16.5 -41.5t-17 -41.5t-42 -16.5zM371 527v-454h147v-73h-403v73h160v381h-155v73h251z" />
    <glyph glyph-name="uni0458" unicode="&#x458;" 
d="M367 779q30 0 48.5 -18.5t18.5 -45.5q0 -28 -18.5 -46t-48.5 -18q-29 0 -47.5 18t-18.5 46q0 27 18.5 45.5t47.5 18.5zM449 527v-431q0 -134 -86 -207t-256 -103l-15 74q127 23 194 75.5t67 154.5v364h-214v73h310z" />
    <glyph glyph-name="uni0459" unicode="&#x459;" 
d="M366 527v-169h13q215 0 215 -175q0 -91 -56.5 -137t-156.5 -46h-104v454h-98l-6 -133q-5 -113 -21 -177.5t-41.5 -95.5t-75.5 -60l-34 63q24 19 37 38t26.5 76t18.5 153l10 209h273zM383 290h-17v-219h18q59 0 86.5 24.5t27.5 87.5q0 57 -27 82t-88 25z" />
    <glyph glyph-name="uni045A" unicode="&#x45a;" 
d="M369 527v-196h13q215 0 215 -165q0 -166 -214 -166h-103v263h-124v-263h-90v527h90v-196h124v196h89zM386 263h-17v-192h16q61 0 88.5 18.5t27.5 77.5q0 53 -27 74.5t-88 21.5z" />
    <glyph glyph-name="uni045B" unicode="&#x45b;" 
d="M358 540q148 0 148 -157v-383h-96v375q0 47 -20.5 68.5t-64.5 21.5q-39 0 -74.5 -24.5t-59.5 -59.5v-381h-96v597h-78v71h78v70l96 11v-81h165v-71h-165v-139q65 82 167 82z" />
    <glyph glyph-name="uni045C" unicode="&#x45c;" 
d="M403 803l42 -79l-214 -87l-29 51zM100 0v527h96v-211h100l146 211h105l-173 -244l198 -283h-113l-165 242h-98v-242h-96z" />
    <glyph glyph-name="uni045D" unicode="&#x45d;" 
d="M389 622l-208 93l48 80l190 -121zM505 527v-527h-95v234q0 127 12 187l-214 -421h-113v527h95v-234q0 -125 -11 -184l211 418h115z" />
    <glyph glyph-name="uni045E" unicode="&#x45e;" 
d="M298 641q-62 0 -103.5 32t-47.5 87l62 14q20 -61 89 -61q72 0 92 61l62 -14q-6 -55 -48.5 -87t-105.5 -32zM544 527l-184 -530q-31 -93 -87.5 -147t-157.5 -64l-13 75q76 13 110.5 44t57.5 95h-33l-181 527h102l144 -457l143 457h99z" />
    <glyph glyph-name="uni045F" unicode="&#x45f;" 
d="M505 527v-527h-159v-151h-78l-15 151h-158v527h96v-449h218v449h96z" />
    <glyph glyph-name="uni0460" unicode="&#x460;" 
d="M513 689q72 -190 72 -390q0 -311 -164 -311q-89 0 -120 102q-32 -102 -119 -102q-71 0 -118.5 75t-47.5 236q0 89 14 173.5t26 123t32 93.5h91q-68 -190 -68 -387q0 -235 86 -235q58 0 58 101v230h91v-230q0 -51 18 -76t46 -25q38 0 59 49.5t21 183.5q0 114 -17.5 201.5
t-50.5 187.5h91z" />
    <glyph glyph-name="uni0461" unicode="&#x461;" 
d="M525 527q51 -143 51 -288q0 -120 -39 -185.5t-114 -65.5q-106 0 -124 114q-25 -114 -123 -114q-152 0 -152 251q0 158 51 288h82q-41 -134 -41 -286q0 -87 16 -132t56 -45q69 0 69 167v123l86 13v-136q0 -83 15 -125t54 -42q40 0 56 45t16 132q0 142 -44 286h85z" />
    <glyph glyph-name="uni0462" unicode="&#x462;" 
d="M313 431q120 0 189 -53t69 -156q0 -112 -72 -167t-194 -55h-156v528h-139v70h139v91h100v-91h148v-70h-148v-97h64zM311 79q155 0 155 142q0 133 -152 133h-65v-275h62z" />
    <glyph glyph-name="uni0463" unicode="&#x463;" 
d="M234 658v-120h133l-12 -72h-121v-108h66q243 0 243 -177q0 -181 -239 -181h-166v466h-83v72h83v109zM309 286h-75v-212h75q64 0 98 23t34 84q0 105 -132 105z" />
    <glyph glyph-name="uni0464" unicode="&#x464;" 
d="M555 98l42 -64q-61 -46 -147 -46q-112 0 -177 84t-71 242h-66v-314h-99v689h99v-293h67q10 147 77.5 226.5t176.5 79.5q76 0 134 -40l-43 -63q-41 24 -89 24q-140 0 -156 -229h217v-80h-219q11 -246 154 -246q50 0 100 30z" />
    <glyph glyph-name="uni0465" unicode="&#x465;" 
d="M435 64q48 0 97 40l48 -54q-62 -62 -144 -62q-94 0 -149.5 65t-62.5 178h-61v-231h-93v527h93v-220h62q10 106 65.5 169.5t148.5 63.5q78 0 144 -57l-47 -55q-48 37 -98 37q-104 0 -121 -159h189v-72h-190q3 -86 35 -128t84 -42z" />
    <glyph glyph-name="uni0466" unicode="&#x466;" 
d="M481 0l-85 283h-54v-283h-88v283h-54l-85 -283h-100l223 689h124l223 -689h-104zM224 363h148l-74 248z" />
    <glyph glyph-name="uni0467" unicode="&#x467;" 
d="M470 0l-75 201h-58v-201h-78v201h-56l-75 -201h-95l211 527h114l210 -527h-98zM230 274h138l-69 184z" />
    <glyph glyph-name="uni0468" unicode="&#x468;" 
d="M511 0l-62 287h-33v-287h-77v287h-34l-62 -287h-88l67 287h-99v-287h-92v689h92v-329h117l77 329h125l161 -689h-92zM321 360h112l-56 261z" />
    <glyph glyph-name="uni0469" unicode="&#x469;" 
d="M512 0l-56 201h-37v-201h-72v201h-35l-55 -201h-84l59 201h-97v-201h-89v527h89v-253h119l75 253h114l156 -527h-87zM333 274h103l-52 186z" />
    <glyph glyph-name="uni046A" unicode="&#x46a;" 
d="M462 382l106 -382h-89l-81 311h-52v-311h-91v311h-53l-81 -311h-89l112 382h72l-127 245v62h426v-62l-131 -245h78zM185 622l118 -240l118 240h-236z" />
    <glyph glyph-name="uni046B" unicode="&#x46b;" 
d="M473 299l108 -299h-86l-79 227h-71v-227h-90v227h-70l-78 -227h-88l109 299h88l-120 178v50h402v-50l-120 -178h95zM197 459l102 -160l101 160h-203z" />
    <glyph glyph-name="uni046C" unicode="&#x46c;" 
d="M533 382l92 -382h-88l-68 311h-43v-311h-90v311h-43l-70 -311h-88l81 311h-108v-311h-92v689h92v-307h192l-110 245v62h384v-62l-114 -245h73zM485 622h-204l102 -240z" />
    <glyph glyph-name="uni046D" unicode="&#x46d;" 
d="M519 299l96 -299h-86l-67 226h-36v-226h-83v226h-36l-68 -226h-86l75 226h-110v-226h-89v527h89v-228h187l-105 178v50h363v-50l-104 -178h60zM296 461l88 -162l87 162h-175z" />
    <glyph glyph-name="uni046E" unicode="&#x46e;" 
d="M315 754h-63l-136 111l41 46l126 -81l127 81l40 -46zM296 378q110 -1 167.5 -52.5t57.5 -145.5q0 -91 -59.5 -144t-151.5 -65q-72 -10 -96.5 -21t-24.5 -32q0 -33 74 -72l-36 -62q-136 57 -136 143q0 50 40 78t126 39q79 10 120 43t41 95q0 66 -35.5 95.5t-108.5 29.5
h-109v68l206 234h-292v80h408v-79l-214 -232h23z" />
    <glyph glyph-name="uni046F" unicode="&#x46f;" 
d="M412 793l41 -45l-135 -122h-63l-136 122l42 45l126 -91zM216 -216q-134 56 -134 141q0 51 41 79t134 40q89 10 125 29t36 63q0 76 -83 76h-170v68l203 169h-288v78h412v-72l-216 -173h68q84 0 130.5 -36.5t46.5 -110.5q0 -137 -210 -164q-79 -10 -105 -21t-26 -33
q0 -34 70 -71z" />
    <glyph glyph-name="uni0470" unicode="&#x470;" 
d="M251 0v191q-120 10 -179 73t-59 165v260h97v-257q0 -76 32.5 -115.5t111.5 -47.5v420h93v-419q78 8 110.5 47.5t32.5 114.5v257h97v-260q0 -100 -59.5 -163t-178.5 -74v-192h-98z" />
    <glyph glyph-name="uni0471" unicode="&#x471;" 
d="M344 527v-459q80 10 107 54.5t27 139.5q0 115 -26 265h92q27 -137 27 -273q0 -240 -227 -261v-195l-86 -12v207q-112 9 -165.5 64t-53.5 138v332h92v-326q0 -62 28.5 -94t98.5 -39v459h86z" />
    <glyph glyph-name="uni0472" unicode="&#x472;" 
d="M557 344q0 -162 -66.5 -259t-190.5 -97q-125 0 -191 95.5t-66 259.5q0 163 66.5 261t190.5 98q125 0 191 -96.5t66 -261.5zM300 621q-74 0 -111 -58.5t-42 -175.5h305q-5 117 -41.5 175.5t-110.5 58.5zM300 68q77 0 113.5 61.5t39.5 185.5h-307q6 -247 154 -247z" />
    <glyph glyph-name="uni0473" unicode="&#x473;" 
d="M301 540q111 0 171 -74t60 -202q0 -126 -61 -201t-171 -75q-112 0 -172 73.5t-60 201.5q0 126 61 201.5t172 75.5zM301 463q-121 0 -130 -159h258q-9 159 -128 159zM429 232h-258q6 -87 37.5 -127.5t91.5 -40.5q118 0 129 168z" />
    <glyph glyph-name="uni0474" unicode="&#x474;" 
d="M568 620q-19 7 -31 7q-34 0 -47 -51l-153 -576h-113l-199 689h106l149 -585l119 484q15 60 45 87t80 27q38 0 70 -17z" />
    <glyph glyph-name="uni0475" unicode="&#x475;" 
d="M232 0l-181 527h104l136 -443l115 378q18 61 43.5 86.5t74.5 25.5q31 0 70 -17l-27 -66q-13 6 -30 6t-26 -9.5t-17 -33.5l-146 -454h-116z" />
    <glyph glyph-name="uni0476" unicode="&#x476;" 
d="M242 824l-57 -30l-111 166l79 41zM406 824l-59 -28l-102 167l80 38zM568 620q-19 7 -31 7q-34 0 -47 -51l-153 -576h-113l-199 689h106l149 -585l119 484q15 60 45 87t80 27q38 0 70 -17z" />
    <glyph glyph-name="uni0477" unicode="&#x477;" 
d="M251 662l-57 -30l-111 166l79 41zM415 662l-59 -28l-102 167l80 38zM232 0l-181 527h104l136 -443l115 378q18 61 43.5 86.5t74.5 25.5q31 0 70 -17l-27 -66q-13 6 -30 6t-26 -9.5t-17 -33.5l-146 -454h-116z" />
    <glyph glyph-name="uni0478" unicode="&#x478;" 
d="M162 -12q-82 0 -119 90.5t-37 264.5q0 359 156 359q157 0 157 -358q0 -175 -37 -265.5t-120 -90.5zM162 60q41 0 56 65t15 219q0 155 -15 220.5t-56 65.5q-40 0 -55 -66t-15 -221q0 -152 15.5 -217.5t54.5 -65.5zM349 -214l-14 66q45 14 70.5 48t35.5 100h-37l-82 527h80
l58 -457l54 457h80l-82 -530q-26 -171 -163 -211z" />
    <glyph glyph-name="uni0479" unicode="&#x479;" 
d="M154 -12q-155 0 -155 275q0 129 38.5 203t117.5 74q155 0 155 -276q0 -129 -38.5 -202.5t-117.5 -73.5zM285 -214l-14 65q74 16 111 48.5t52 100.5h-40l-90 527h90l63 -457l62 457h87l-90 -521q-18 -101 -75.5 -155t-155.5 -65zM154 57q39 0 53.5 48t14.5 159t-14.5 159
t-52.5 48t-53 -48.5t-15 -159.5q0 -110 14.5 -158t52.5 -48z" />
    <glyph glyph-name="uni048A" unicode="&#x48a;" 
d="M298 767q-62 0 -103.5 32t-47.5 87l62 14q20 -61 89 -61q72 0 92 61l62 -14q-6 -55 -48.5 -87t-105.5 -32zM522 82h90l-82 -233h-78l35 151h-62v330q0 142 17 267l-239 -597h-125v689h97v-330q0 -140 -17 -271l241 601h123v-607z" />
    <glyph glyph-name="uni048B" unicode="&#x48b;" 
d="M286 641q-62 0 -103.5 32t-47.5 87l62 14q20 -61 89 -61q72 0 92 61l62 -14q-6 -55 -48.5 -87t-105.5 -32zM487 78h82l-72 -229h-78l35 151h-59v234q0 105 11 204l-206 -438h-112v527h93v-234q0 -131 -16 -204l210 438h112v-449z" />
    <glyph glyph-name="uni048C" unicode="&#x48c;" 
d="M313 431q120 0 188.5 -53t68.5 -156q0 -112 -72 -167t-194 -55h-185v529h-89v68h89v92h99v-92h129v-68h-129v-98h95zM311 79q73 0 113.5 32t40.5 110q0 133 -152 133h-95v-275h93z" />
    <glyph glyph-name="uni048D" unicode="&#x48d;" 
d="M317 338q106 0 162 -43t56 -121q0 -87 -63 -130.5t-177 -43.5h-148v398h-83v70h83v59h96v-59h135l-11 -70h-124v-60h74zM304 74q61 0 95 22t34 78q0 92 -117 92h-73v-192h61z" />
    <glyph glyph-name="uni048E" unicode="&#x48e;" 
d="M560 474q0 -117 -90 -176l80 -130h-79l-62 101q-53 -17 -116 -17h-87v-252h-99v689h182q130 0 200.5 -53.5t70.5 -161.5zM298 329q43 0 70 8l-87 142h79l66 -108q30 34 30 102q0 140 -156 140h-94v-284h92z" />
    <glyph glyph-name="uni048F" unicode="&#x48f;" 
d="M531 264q0 -166 -87 -237l73 -119h-79l-54 88q-27 -8 -57 -8q-84 0 -137 59v-249l-96 -12v741h83l7 -71q61 84 155 84q192 0 192 -276zM304 65q20 0 36 3l-92 151h79l71 -117q31 42 31 162q0 103 -27.5 151.5t-86.5 48.5q-71 0 -125 -81v-255q44 -63 114 -63z" />
    <glyph glyph-name="uni0490" unicode="&#x490;" 
d="M451 837h96v-148l-11 -85h-308v-604h-99v689h322v148z" />
    <glyph glyph-name="uni0491" unicode="&#x491;" 
d="M432 663h95v-136l-12 -79h-267v-448h-96v527h280v136z" />
    <glyph glyph-name="uni0492" unicode="&#x492;" 
d="M566 604h-308v-171h155v-72h-155v-361h-99v361h-98v72h98v256h418z" />
    <glyph glyph-name="uni0493" unicode="&#x493;" 
d="M545 448h-267v-144h123v-72h-123v-232h-96v232h-91v72h91v223h375z" />
    <glyph glyph-name="uni0494" unicode="&#x494;" 
d="M551 1h1v-56q0 -78 -41 -118.5t-113 -40.5q-67 0 -116 39l37 62q39 -22 73 -22q61 0 61 73v62h-1v234q0 136 -119 136q-90 0 -157 -74v-296h-99v689h395l-13 -81h-282l-1 1v-227q71 71 177 71q93 0 145.5 -58t52.5 -160v-234z" />
    <glyph glyph-name="uni0495" unicode="&#x495;" 
d="M503 1h1v-56q0 -77 -41.5 -118t-112.5 -41q-67 0 -116 39l37 59q40 -21 73 -21q64 0 64 73v64h-1v182q0 92 -79 92q-70 0 -133 -79v-195h-96v527h332l-12 -74h-224v-179q63 75 157 75q68 0 109.5 -42t41.5 -117v-189z" />
    <glyph glyph-name="uni0496" unicode="&#x496;" 
d="M563 81h47v-232h-77l-15 151h-23l-99 326h-55v-326h-82v326h-56l-100 -326h-93l121 367l-107 322h92l88 -291h55v291h82v-291h55l89 291h91l-107 -322z" />
    <glyph glyph-name="uni0497" unicode="&#x497;" 
d="M547 77h57v-228h-67l-16 151h-36l-96 244h-49v-244h-80v244h-51l-96 -244h-92l117 283l-108 244h93l86 -214h51v214h80v-214h51l89 214h90l-108 -244z" />
    <glyph glyph-name="uni0498" unicode="&#x498;" 
d="M544 204q0 -87 -61.5 -145.5t-167.5 -68.5v-46q47 -4 70.5 -28t23.5 -57q0 -48 -36 -74.5t-90 -26.5q-64 0 -107 25l28 52q32 -16 67 -16q59 0 59 40q0 24 -21.5 32.5t-65.5 8.5l7 89q-135 9 -220 97l59 54q83 -72 187 -72q77 0 120 35.5t43 98.5q0 64 -42.5 95.5
t-113.5 31.5h-121l12 80h103q62 0 102.5 27.5t40.5 81.5q0 50 -39.5 77.5t-103.5 27.5q-95 0 -179 -64l-53 56q104 87 236 87q110 0 175 -50t65 -131q0 -61 -40 -99.5t-105 -47.5q72 -6 120 -50.5t48 -119.5z" />
    <glyph glyph-name="uni0499" unicode="&#x499;" 
d="M520 157q0 -71 -54 -114.5t-144 -52.5v-46q47 -4 70.5 -28t23.5 -57q0 -48 -36 -74.5t-90 -26.5q-64 0 -107 25l28 52q32 -16 67 -16q59 0 59 40q0 24 -21.5 32.5t-65.5 8.5l7 88q-122 5 -208 73l45 60q81 -57 184 -57q68 0 103.5 24.5t35.5 67.5q0 82 -128 82h-107l6 74
h95q51 0 80 20.5t29 55.5q0 77 -119 77q-86 0 -160 -45l-45 56q88 64 210 64q93 0 153 -38t60 -107q0 -84 -110 -114q55 -2 97 -35t42 -89z" />
    <glyph glyph-name="uni049A" unicode="&#x49a;" 
d="M537 81h53v-232h-78l-15 151h-24l-209 322h-77v-322h-99v689h99v-287h78l202 287h104l-223 -322z" />
    <glyph glyph-name="uni049B" unicode="&#x49b;" 
d="M518 77h70v-228h-78l-15 151h-36l-165 242h-98v-242h-96v527h96v-211h100l146 211h105l-173 -244z" />
    <glyph glyph-name="uni049C" unicode="&#x49c;" 
d="M229 150v173h-46v-323h-95v689h95v-288h46v169h54v-169h25l161 288h102l-186 -322l205 -367h-109l-173 323h-25v-173h-54z" />
    <glyph glyph-name="uni049D" unicode="&#x49d;" 
d="M100 0v527h96v-212h43v115h47v-115h27l135 212h99l-157 -243l182 -284h-104l-155 242h-27v-122h-47v122h-43v-242h-96z" />
    <glyph glyph-name="uni049E" unicode="&#x49e;" 
d="M365 367l222 -367h-117l-189 322h-77v-322h-99v525h-72v74h72v90h99v-90h109v-74h-109v-123h78l182 287h104z" />
    <glyph glyph-name="uni049F" unicode="&#x49f;" 
d="M368 283l197 -283h-112l-165 242h-78v-242h-96v567h-79v71h79v101l96 12v-113h144v-71h-144v-251h80l146 211h104z" />
    <glyph glyph-name="uni04A0" unicode="&#x4a0;" 
d="M292 322h-68v-322h-98v606h-117v83h215v-287h69l184 287h104l-205 -322l224 -367h-116z" />
    <glyph glyph-name="uni04A1" unicode="&#x4a1;" 
d="M393 283l197 -283h-113l-164 242h-89v-242h-96v455h-121v72h217v-211h91l145 211h104z" />
    <glyph glyph-name="uni04A2" unicode="&#x4a2;" 
d="M522 81h59v-232h-78l-15 151h-65v321h-246v-321h-99v689h99v-286h246v286h99v-608z" />
    <glyph glyph-name="uni04A3" unicode="&#x4a3;" 
d="M490 77h79v-228h-78l-15 151h-82v231h-218v-231h-96v527h96v-220h218v220h96v-450z" />
    <glyph glyph-name="uni04A4" unicode="&#x4a4;" 
d="M607 689l-11 -81h-131v-608h-99v321h-205v-321h-99v689h99v-286h205v286h241z" />
    <glyph glyph-name="uni04A5" unicode="&#x4a5;" 
d="M603 527l-11 -76h-131v-451h-96v231h-187v-231h-96v527h96v-220h187v220h238z" />
    <glyph glyph-name="uni04A6" unicode="&#x4a6;" 
d="M451 453q65 0 102.5 -42.5t37.5 -113.5v-353q0 -76 -41 -117t-108 -41t-116 39l37 61q38 -23 73 -23q61 0 61 74v359q0 75 -65 75q-43 0 -81 -34v-337h-94v607h-136v-607h-94v689h324v-276q42 40 100 40z" />
    <glyph glyph-name="uni04A7" unicode="&#x4a7;" 
d="M467 349q57 0 93.5 -39t36.5 -102v-264q0 -76 -40.5 -117t-111.5 -41q-65 0 -116 39l37 59q39 -22 74 -22q64 0 64 73v267q0 73 -61 73q-45 0 -83 -36v-239h-94v451h-145v-451h-95v527h334v-219q43 41 107 41z" />
    <glyph glyph-name="uni04A8" unicode="&#x4a8;" 
d="M582 262q0 -71 -33.5 -135.5t-94.5 -100.5q9 -12 36 -47.5t43 -56.5l-61 -46q-15 20 -46.5 60t-45.5 59q-37 -7 -67 -7q-128 0 -204 93t-76 264q0 167 79 262t193 95q60 0 102 -16.5t86 -52.5l-50 -63q-64 51 -135 51q-73 0 -121 -66t-48 -210q0 -142 47 -208.5
t129 -66.5h12q-66 102 -66 187q0 76 44.5 125t115.5 49q75 0 118 -46t43 -123zM351 258q0 -80 56 -167q80 44 80 172q0 94 -66 94q-70 0 -70 -99z" />
    <glyph glyph-name="uni04A9" unicode="&#x4a9;" 
d="M554 218q0 -58 -30.5 -110t-84.5 -83q22 -29 84 -104l-58 -45q-78 93 -99 120q-35 -8 -71 -8q-111 0 -175.5 72t-64.5 199t62.5 204t170.5 77q68 0 124 -31l-37 -68q-38 20 -83 20q-63 0 -98.5 -50t-35.5 -150q0 -195 142 -195h16q-53 84 -53 149q0 63 39.5 105.5
t107.5 42.5q66 0 105 -39.5t39 -105.5zM351 215q0 -60 44 -129q72 38 72 133q0 35 -15 54.5t-42 19.5q-29 0 -44 -21t-15 -57z" />
    <glyph glyph-name="uni04AA" unicode="&#x4aa;" 
d="M395 -11q76 -47 76 -118q0 -51 -35 -82t-95 -31q-56 0 -98 25l23 55q39 -17 69 -17q28 0 42.5 15t14.5 40q0 66 -76 115q-115 16 -186.5 108.5t-71.5 245.5q0 167 86 262t214 95q117 0 203 -69l-53 -63q-61 51 -144 51q-90 0 -146 -66t-56 -210q0 -142 54.5 -208
t146.5 -66q86 0 159 58l49 -63q-66 -66 -176 -77z" />
    <glyph glyph-name="uni04AB" unicode="&#x4ab;" 
d="M381 -9q79 -48 79 -120q0 -51 -35 -82t-95 -31q-56 0 -98 25l23 55q39 -17 69 -17q28 0 42.5 15t14.5 40q0 66 -73 113q-105 10 -162.5 82.5t-57.5 189.5q0 122 67.5 200.5t184.5 78.5q102 0 179 -63l-45 -62q-67 46 -133 46q-69 0 -109.5 -50.5t-40.5 -149.5
q0 -98 40.5 -145t109.5 -47q66 0 134 45l45 -62q-56 -48 -139 -61z" />
    <glyph glyph-name="uni04AC" unicode="&#x4ac;" 
d="M553 606h-205v-525h59v-232h-78l-15 151h-65v606h-212v83h526z" />
    <glyph glyph-name="uni04AD" unicode="&#x4ad;" 
d="M533 450h-185v-373h79v-228h-78l-15 151h-82v450h-190v77h482z" />
    <glyph glyph-name="uni04AE" unicode="&#x4ae;" 
d="M350 265v-265h-100v264l-232 425h110l174 -337l176 337h104z" />
    <glyph glyph-name="uni04AF" unicode="&#x4af;" 
d="M253 -214v228l-201 513h103l147 -424l147 424h99l-201 -513v-216z" />
    <glyph glyph-name="uni04B0" unicode="&#x4b0;" 
d="M582 689l-205 -374h99v-72h-126v-243h-100v243h-126v72h98l-204 374h110l174 -337l176 337h104z" />
    <glyph glyph-name="uni04B1" unicode="&#x4b1;" 
d="M548 527l-178 -455h80v-71h-103v-203l-94 -12v215h-103v71h80l-178 455h103l147 -424l147 424h99z" />
    <glyph glyph-name="uni04B2" unicode="&#x4b2;" 
d="M527 81h51v-232h-78l-15 151h-24l-163 303l-165 -303h-106l212 367l-195 322h113l143 -257l145 257h106l-194 -317z" />
    <glyph glyph-name="uni04B3" unicode="&#x4b3;" 
d="M158 0h-108l193 278l-170 249h112l116 -191l117 191h108l-169 -245l193 -282h-115l-138 222zM346 77v-228h-78l-15 151h-36l-2 77h131z" />
    <glyph glyph-name="uni04B4" unicode="&#x4b4;" 
d="M514 81h50v-232h-77l-15 151h-350v612h-122v77h343l-10 -77h-113v-531h196v608h98v-608z" />
    <glyph glyph-name="uni04B5" unicode="&#x4b5;" 
d="M497 77h60v-228h-78l-15 151h-345v455h-119v72h336l-12 -72h-110v-377h187v449h96v-450z" />
    <glyph glyph-name="uni04B6" unicode="&#x4b6;" 
d="M522 81h59v-232h-78l-15 151h-65v276q-82 -60 -174 -60t-147 56.5t-55 152.5v264h99v-258q0 -132 129 -132q87 0 148 57v333h99v-608z" />
    <glyph glyph-name="uni04B7" unicode="&#x4b7;" 
d="M485 77h79v-228h-78l-15 151h-82v219q-65 -58 -163 -58q-77 0 -117 41t-40 116v209h96v-198q0 -49 21.5 -71t66.5 -22q37 0 75 15.5t61 40.5v235h96v-450z" />
    <glyph glyph-name="uni04B8" unicode="&#x4b8;" 
d="M423 689h99v-689h-99v276q-53 -40 -104 -52v-104h-59v96h-11q-92 0 -147 56.5t-55 152.5v264h99v-258q0 -124 114 -132v242h59v-238q60 11 104 53v333z" />
    <glyph glyph-name="uni04B9" unicode="&#x4b9;" 
d="M399 527h96v-527h-96v219q-37 -34 -93 -49v-81h-55v72h-15q-77 0 -117 41t-40 116v209h96v-198q0 -46 18.5 -68t57.5 -25v155h55v-150q60 15 93 51v235z" />
    <glyph glyph-name="uni04BA" unicode="&#x4ba;" 
d="M354 453q93 0 145.5 -58t52.5 -160v-235h-99v234q0 136 -119 136q-90 0 -157 -74v-296h-99v689h99v-307q71 71 177 71z" />
    <glyph glyph-name="uni04BB" unicode="&#x4bb;" 
d="M349 480q72 0 114 -43t42 -118v-319h-96v306q0 99 -83 99q-77 0 -134 -86v-319h-96v738l96 11v-349q59 80 157 80z" />
    <glyph glyph-name="uni04BC" unicode="&#x4bc;" 
d="M568 357q0 -25 -3 -52h-335q2 -124 41 -182t101 -58q27 0 52 7.5t37.5 15t34.5 22.5l44 -57q-75 -65 -169 -65q-106 0 -169 81t-68 236q-64 1 -99 35t-35 85t37 104l62 -28q-20 -42 -20 -69q0 -51 51 -51h4q8 150 69 235.5t158 85.5q98 0 152.5 -88.5t54.5 -256.5z
M230 381h247q-4 129 -33.5 186.5t-83.5 57.5q-117 0 -130 -244z" />
    <glyph glyph-name="uni04BD" unicode="&#x4bd;" 
d="M558 279q0 -24 -2 -48h-318q2 -83 39.5 -124.5t96.5 -41.5q56 0 117 39l44 -58q-71 -58 -162 -58q-102 0 -161.5 66t-67.5 178q-66 1 -100 32t-34 84q0 44 37 100l59 -27q-20 -44 -20 -70q0 -50 51 -50h8q9 106 66 172.5t146 66.5q95 0 148 -69.5t53 -191.5zM238 301h230
q-3 165 -110 165q-53 0 -84.5 -41t-35.5 -124z" />
    <glyph glyph-name="uni04BE" unicode="&#x4be;" 
d="M568 357q0 -25 -3 -52h-335q2 -124 41 -182t101 -58q27 0 52 7.5t37.5 15t34.5 22.5l44 -57q-43 -37 -91 -53q-71 -30 -97 -56.5t-26 -57.5q0 -48 56 -48q27 0 61 7l-9 -71q-35 -7 -63 -7q-58 0 -92.5 28.5t-34.5 73.5q0 73 84 123q-88 15 -138.5 94.5t-55.5 218.5
q-64 1 -99 35t-35 85t37 104l62 -28q-20 -42 -20 -69q0 -51 51 -51h4q8 150 69 235.5t158 85.5q98 0 152.5 -88.5t54.5 -256.5zM230 381h247q-4 129 -33.5 186.5t-83.5 57.5q-117 0 -130 -244z" />
    <glyph glyph-name="uni04BF" unicode="&#x4bf;" 
d="M558 279q0 -24 -2 -48h-318q2 -83 39.5 -124.5t96.5 -41.5q56 0 117 39l44 -58q-36 -30 -85 -46q-71 -30 -97 -56.5t-26 -57.5q0 -48 56 -48q27 0 61 7l-9 -71q-35 -7 -63 -7q-58 0 -92.5 28.5t-34.5 73.5q0 73 84 123q-82 13 -130 76.5t-55 163.5q-66 1 -100 32t-34 84
q0 44 37 100l59 -27q-20 -44 -20 -70q0 -50 51 -50h8q9 106 66 172.5t146 66.5q95 0 148 -69.5t53 -191.5zM238 301h230q-3 165 -110 165q-53 0 -84.5 -41t-35.5 -124z" />
    <glyph glyph-name="uni04C0" unicode="&#x4c0;" 
d="M502 689v-77h-152v-534h152v-78h-404v78h152v534h-152v77h404z" />
    <glyph glyph-name="uni04C1" unicode="&#x4c1;" 
d="M298 767q-62 0 -103.5 32t-47.5 87l62 14q20 -61 89 -61q72 0 92 61l62 -14q-6 -55 -48.5 -87t-105.5 -32zM259 326h-56l-100 -326h-93l121 367l-107 322h92l88 -291h55v291h82v-291h55l89 291h91l-107 -322l121 -367h-95l-99 326h-55v-326h-82v326z" />
    <glyph glyph-name="uni04C2" unicode="&#x4c2;" 
d="M298 641q-62 0 -103.5 32t-47.5 87l62 14q20 -61 89 -61q72 0 92 61l62 -14q-6 -55 -48.5 -87t-105.5 -32zM260 0v244h-51l-101 -244h-92l122 283l-114 244h94l91 -214h51v214h80v-214h51l94 214h91l-114 -244l122 -283h-93l-102 244h-49v-244h-80z" />
    <glyph glyph-name="uni04C3" unicode="&#x4c3;" 
d="M364 387q174 -20 174 -211v-231q0 -78 -41 -118.5t-113 -40.5q-67 0 -116 39l37 62q39 -22 73 -22q61 0 61 73v237q0 68 -30 101t-93 33h-139v-309h-99v689h99v-300h94l168 300h104z" />
    <glyph glyph-name="uni04C4" unicode="&#x4c4;" 
d="M356 300q141 -14 141 -162v-193q0 -77 -41.5 -118t-112.5 -41q-67 0 -116 39l37 59q40 -21 73 -21q64 0 64 73v194q0 54 -23 76.5t-77 22.5h-104v-229h-96v527h96v-224h67l137 224h101z" />
    <glyph glyph-name="uni04C5" unicode="&#x4c5;" 
d="M496 82h90l-82 -233h-78l35 151h-65v607h-142l-23 -189q-18 -158 -41.5 -242t-50.5 -118.5t-82 -69.5l-43 71q30 24 45.5 46t35.5 94t36 201l36 289h329v-607z" />
    <glyph glyph-name="uni04C6" unicode="&#x4c6;" 
d="M482 78h81l-72 -229h-78l35 151h-62v450h-154l-10 -127q-9 -119 -25 -181.5t-41.5 -94t-78.5 -59.5l-41 61q29 18 43.5 37.5t28.5 76t22 156.5l16 208h336v-449z" />
    <glyph glyph-name="uni04C7" unicode="&#x4c7;" 
d="M423 689h99v-744q0 -78 -41 -118.5t-113 -40.5q-67 0 -116 39l37 62q39 -22 73 -22q61 0 61 73v383h-246v-321h-99v689h99v-286h246v286z" />
    <glyph glyph-name="uni04C8" unicode="&#x4c8;" 
d="M409 527h96v-582q0 -77 -41.5 -118t-112.5 -41q-67 0 -116 39l37 59q40 -21 73 -21q64 0 64 73v295h-218v-231h-96v527h96v-220h218v220z" />
    <glyph glyph-name="uni04C9" unicode="&#x4c9;" 
d="M490 82h91l-82 -233h-78l35 151h-65v321h-224v-321h-100v689h100v-286h224v286h99v-607z" />
    <glyph glyph-name="uni04CA" unicode="&#x4ca;" 
d="M485 78h81l-72 -229h-78l35 151h-62v231h-197v-231h-96v527h96v-220h197v220h96v-449z" />
    <glyph glyph-name="uni04CB" unicode="&#x4cb;" 
d="M423 689h99v-689h-99v276q-82 -60 -174 -60t-147 56.5t-55 152.5v264h99v-258q0 -132 129 -132q87 0 148 57v333zM244 81h105l12 -81h-24l-15 -151h-78v232z" />
    <glyph glyph-name="uni04CC" unicode="&#x4cc;" 
d="M399 527h96v-527h-74l-15 -151h-78v228h71v153q-65 -58 -163 -58q-77 0 -117 41t-40 116v198h96v-187q0 -49 21.5 -71t66.5 -22q37 0 75 15.5t61 40.5v224z" />
    <glyph glyph-name="uni04CD" unicode="&#x4cd;" 
d="M527 82h81l-81 -233h-77l35 151h-46l-20 350q-6 138 -3 246l-94 -473h-93l-101 473q3 -126 -1 -247l-17 -349h-91l39 689h129l91 -467l85 467h130z" />
    <glyph glyph-name="uni04CE" unicode="&#x4ce;" 
d="M523 78h77l-72 -229h-74l35 151h-50l-18 245q-6 92 -5 199l-82 -356h-89l-93 356q4 -87 -2 -199l-14 -245h-89l37 527h120l87 -354l77 354h123z" />
    <glyph glyph-name="uni04CF" unicode="&#x4cf;" 
d="M312 739v-603q0 -69 84 -69q41 0 87 18l24 -69q-54 -28 -129 -28t-118.5 41.5t-43.5 113.5v523h-160v73h256z" />
    <glyph glyph-name="uni04D0" unicode="&#x4d0;" 
d="M298 767q-62 0 -103.5 32t-47.5 87l62 14q20 -61 89 -61q72 0 92 61l62 -14q-6 -55 -48.5 -87t-105.5 -32zM428 172h-261l-52 -172h-100l223 689h124l223 -689h-105zM190 251h215l-107 358z" />
    <glyph glyph-name="uni04D1" unicode="&#x4d1;" 
d="M290 641q-62 0 -103.5 32t-47.5 87l62 14q20 -61 89 -61q72 0 92 61l62 -14q-6 -55 -48.5 -87t-105.5 -32zM484 121q0 -31 9.5 -45.5t32.5 -21.5l-23 -66q-79 10 -102 74q-57 -74 -166 -74q-80 0 -126 44.5t-46 118.5q0 82 64.5 126.5t184.5 44.5h76v39q0 101 -121 101
q-62 0 -139 -27l-25 70q96 35 178 35q100 0 151.5 -45.5t51.5 -127.5v-246zM261 59q38 0 71.5 19t55.5 53v128h-70q-153 0 -153 -106q0 -94 96 -94z" />
    <glyph glyph-name="uni04D2" unicode="&#x4d2;" 
d="M194 766q-25 0 -42 16.5t-17 41.5t17 41.5t42 16.5t42 -16.5t17 -41.5t-17 -41.5t-42 -16.5zM405 766q-25 0 -42 16.5t-17 41.5t17 41.5t42 16.5q26 0 42.5 -16.5t16.5 -41.5t-17 -41.5t-42 -16.5zM428 172h-261l-52 -172h-100l223 689h124l223 -689h-105zM190 251h215
l-107 358z" />
    <glyph glyph-name="uni04D3" unicode="&#x4d3;" 
d="M186 646q-25 0 -42 16.5t-17 41.5t17 41.5t42 16.5t42 -16.5t17 -41.5t-17 -41.5t-42 -16.5zM397 646q-25 0 -42 16.5t-17 41.5t17 41.5t42 16.5q26 0 42.5 -16.5t16.5 -41.5t-17 -41.5t-42 -16.5zM484 121q0 -31 9.5 -45.5t32.5 -21.5l-23 -66q-79 10 -102 74
q-57 -74 -166 -74q-80 0 -126 44.5t-46 118.5q0 82 64.5 126.5t184.5 44.5h76v39q0 101 -121 101q-62 0 -139 -27l-25 70q96 35 178 35q100 0 151.5 -45.5t51.5 -127.5v-246zM261 59q38 0 71.5 19t55.5 53v128h-70q-153 0 -153 -106q0 -94 96 -94z" />
    <glyph glyph-name="uni04D4" unicode="&#x4d4;" 
d="M327 172h-193l-46 -172h-100l198 689h380l-11 -77h-228l49 -224h181v-77h-167l49 -234h168v-77h-246zM155 251h156l-70 363z" />
    <glyph glyph-name="uni04D5" unicode="&#x4d5;" 
d="M434 540q172 0 172 -261q0 -21 -2 -47h-265q7 -87 33 -127.5t77 -40.5q48 0 98 38l42 -61q-66 -53 -142 -53q-99 0 -151 88q-34 -47 -67.5 -67.5t-82.5 -20.5q-69 0 -110.5 44.5t-41.5 118.5q0 83 54 126.5t158 43.5h45v40q0 104 -91 104q-41 0 -102 -27l-25 67
q73 35 137 35q101 0 138 -85q31 85 126 85zM430 465q-43 0 -64 -37t-27 -127h179q-2 85 -21.5 124.5t-66.5 39.5zM251 259h-39q-65 0 -93 -26.5t-28 -76.5q0 -47 19 -72t51 -25q30 0 53 21.5t50 69.5q-13 46 -13 109z" />
    <glyph glyph-name="uni04D6" unicode="&#x4d6;" 
d="M319 767q-62 0 -103.5 32t-47.5 87l62 14q20 -61 89 -61q72 0 92 61l62 -14q-6 -55 -48.5 -87t-105.5 -32zM219 611v-222h254v-78h-254v-233h310v-78h-409v689h402l-12 -78h-291z" />
    <glyph glyph-name="uni04D7" unicode="&#x4d7;" 
d="M308 641q-62 0 -103.5 32t-47.5 87l62 14q20 -61 89 -61q72 0 92 61l62 -14q-6 -55 -48.5 -87t-105.5 -32zM173 231q4 -83 45.5 -124.5t104.5 -41.5q70 0 140 47l43 -61q-79 -63 -186 -63q-117 0 -182 75t-65 200q0 121 64 199t171 78q102 0 161 -70t59 -191
q0 -24 -2 -48h-353zM309 465q-58 0 -94.5 -41.5t-41.5 -122.5h262q-1 79 -34.5 121.5t-91.5 42.5z" />
    <glyph glyph-name="uni04D8" unicode="&#x4d8;" 
d="M41 332q0 25 3 52h410q-4 126 -46 183t-120 57q-76 0 -155 -58l-50 57q92 79 210 79q128 0 195 -88.5t67 -260.5t-68.5 -268.5t-189.5 -96.5q-122 0 -189 88t-67 256zM298 66q145 0 156 240h-318q5 -128 44.5 -184t117.5 -56z" />
    <glyph glyph-name="uni04D9" unicode="&#x4d9;" 
d="M292 540q121 0 180 -73t59 -203q0 -128 -63 -202t-174 -74q-105 0 -165.5 69t-60.5 191q0 34 2 48h359q-4 87 -38.5 126.5t-100.5 39.5q-80 0 -140 -48l-44 62q80 64 186 64zM294 63q66 0 99 38t37 125h-268v-7q0 -75 34.5 -115.5t97.5 -40.5z" />
    <glyph glyph-name="uni04DA" unicode="&#x4da;" 
d="M187 766q-25 0 -42 16.5t-17 41.5t17 41.5t42 16.5t42 -16.5t17 -41.5t-17 -41.5t-42 -16.5zM398 766q-25 0 -42 16.5t-17 41.5t17 41.5t42 16.5q26 0 42.5 -16.5t16.5 -41.5t-17 -41.5t-42 -16.5zM41 332q0 25 3 52h410q-4 126 -46 183t-120 57q-76 0 -155 -58l-50 57
q92 79 210 79q128 0 195 -88.5t67 -260.5t-68.5 -268.5t-189.5 -96.5q-122 0 -189 88t-67 256zM298 66q145 0 156 240h-318q5 -128 44.5 -184t117.5 -56z" />
    <glyph glyph-name="uni04DB" unicode="&#x4db;" 
d="M196 646q-25 0 -42 16.5t-17 41.5t17 41.5t42 16.5t42 -16.5t17 -41.5t-17 -41.5t-42 -16.5zM407 646q-25 0 -42 16.5t-17 41.5t17 41.5t42 16.5q26 0 42.5 -16.5t16.5 -41.5t-17 -41.5t-42 -16.5zM292 540q121 0 180 -73t59 -203q0 -128 -63 -202t-174 -74
q-105 0 -165.5 69t-60.5 191q0 34 2 48h359q-4 87 -38.5 126.5t-100.5 39.5q-80 0 -140 -48l-44 62q80 64 186 64zM294 63q66 0 99 38t37 125h-268v-7q0 -75 34.5 -115.5t97.5 -40.5z" />
    <glyph glyph-name="uni04DC" unicode="&#x4dc;" 
d="M194 766q-25 0 -42 16.5t-17 41.5t17 41.5t42 16.5t42 -16.5t17 -41.5t-17 -41.5t-42 -16.5zM405 766q-25 0 -42 16.5t-17 41.5t17 41.5t42 16.5q26 0 42.5 -16.5t16.5 -41.5t-17 -41.5t-42 -16.5zM259 326h-56l-100 -326h-93l121 367l-107 322h92l88 -291h55v291h82
v-291h55l89 291h91l-107 -322l121 -367h-95l-99 326h-55v-326h-82v326z" />
    <glyph glyph-name="uni04DD" unicode="&#x4dd;" 
d="M194 646q-25 0 -42 16.5t-17 41.5t17 41.5t42 16.5t42 -16.5t17 -41.5t-17 -41.5t-42 -16.5zM405 646q-25 0 -42 16.5t-17 41.5t17 41.5t42 16.5q26 0 42.5 -16.5t16.5 -41.5t-17 -41.5t-42 -16.5zM260 0v244h-51l-101 -244h-92l122 283l-114 244h94l91 -214h51v214h80
v-214h51l94 214h91l-114 -244l122 -283h-93l-102 244h-49v-244h-80z" />
    <glyph glyph-name="uni04DE" unicode="&#x4de;" 
d="M191 766q-25 0 -42 16.5t-17 41.5t17 41.5t42 16.5t42 -16.5t17 -41.5t-17 -41.5t-42 -16.5zM402 766q-25 0 -42 16.5t-17 41.5t17 41.5t42 16.5q26 0 42.5 -16.5t16.5 -41.5t-17 -41.5t-42 -16.5zM281 702q110 0 175 -50t65 -131q0 -61 -40 -99.5t-105 -47.5
q72 -6 120 -50.5t48 -119.5q0 -95 -72.5 -155.5t-194.5 -60.5q-152 0 -247 98l59 54q83 -72 187 -72q77 0 120 35.5t43 98.5q0 64 -42.5 95.5t-113.5 31.5h-121l12 80h103q62 0 102.5 27.5t40.5 81.5q0 50 -39.5 77.5t-103.5 27.5q-95 0 -179 -64l-53 56q104 87 236 87z" />
    <glyph glyph-name="uni04DF" unicode="&#x4df;" 
d="M187 646q-25 0 -42 16.5t-17 41.5t17 41.5t42 16.5t42 -16.5t17 -41.5t-17 -41.5t-42 -16.5zM398 646q-25 0 -42 16.5t-17 41.5t17 41.5t42 16.5q26 0 42.5 -16.5t16.5 -41.5t-17 -41.5t-42 -16.5zM188 312h95q51 0 80 20.5t29 55.5q0 77 -119 77q-86 0 -160 -45l-45 56
q88 64 210 64q93 0 153 -38t60 -107q0 -84 -110 -114q55 -2 97 -35t42 -89q0 -81 -67.5 -125t-176.5 -44q-136 0 -227 73l45 60q81 -57 184 -57q68 0 103.5 24.5t35.5 67.5q0 82 -128 82h-107z" />
    <glyph glyph-name="uni04E0" unicode="&#x4e0;" 
d="M304 400q118 0 174.5 -51t56.5 -143q0 -98 -69 -158t-184 -60q-73 0 -122.5 19t-94.5 57l50 60q42 -29 78 -42.5t89 -13.5q72 0 110.5 36.5t38.5 102.5q0 120 -139 120h-117v68l216 214h-297v80h410v-79l-216 -210h16z" />
    <glyph glyph-name="uni04E1" unicode="&#x4e1;" 
d="M287 207q109 0 171.5 -51t62.5 -148q0 -99 -67.5 -160.5t-175.5 -61.5q-139 0 -220 90l55 52q67 -64 162 -64q68 0 106 37.5t38 107.5q0 67 -39 97.5t-116 30.5h-90v68l214 244h-299v78h408v-72l-220 -248h10z" />
    <glyph glyph-name="uni04E2" unicode="&#x4e2;" 
d="M437 793h-275v71h275v-71zM78 0v689h97v-330q0 -140 -17 -271l241 601h123v-689h-97v330q0 142 17 267l-239 -597h-125z" />
    <glyph glyph-name="uni04E3" unicode="&#x4e3;" 
d="M437 673h-275v71h275v-71zM505 527v-527h-95v234q0 127 12 187l-214 -421h-113v527h95v-234q0 -125 -11 -184l211 418h115z" />
    <glyph glyph-name="uni04E4" unicode="&#x4e4;" 
d="M194 766q-25 0 -42 16.5t-17 41.5t17 41.5t42 16.5t42 -16.5t17 -41.5t-17 -41.5t-42 -16.5zM405 766q-25 0 -42 16.5t-17 41.5t17 41.5t42 16.5q26 0 42.5 -16.5t16.5 -41.5t-17 -41.5t-42 -16.5zM78 0v689h97v-330q0 -140 -17 -271l241 601h123v-689h-97v330
q0 142 17 267l-239 -597h-125z" />
    <glyph glyph-name="uni04E5" unicode="&#x4e5;" 
d="M194 646q-25 0 -42 16.5t-17 41.5t17 41.5t42 16.5t42 -16.5t17 -41.5t-17 -41.5t-42 -16.5zM405 646q-25 0 -42 16.5t-17 41.5t17 41.5t42 16.5q26 0 42.5 -16.5t16.5 -41.5t-17 -41.5t-42 -16.5zM505 527v-527h-95v234q0 127 12 187l-214 -421h-113v527h95v-234
q0 -125 -11 -184l211 418h115z" />
    <glyph glyph-name="uni04E6" unicode="&#x4e6;" 
d="M194 766q-25 0 -42 16.5t-17 41.5t17 41.5t42 16.5t42 -16.5t17 -41.5t-17 -41.5t-42 -16.5zM405 766q-25 0 -42 16.5t-17 41.5t17 41.5t42 16.5q26 0 42.5 -16.5t16.5 -41.5t-17 -41.5t-42 -16.5zM557 344q0 -162 -66.5 -259t-190.5 -97q-125 0 -191 95.5t-66 259.5
q0 163 66.5 261t190.5 98q125 0 191 -96.5t66 -261.5zM454 344q0 139 -36.5 208t-117.5 69t-117.5 -69t-36.5 -209q0 -275 154 -275q81 0 117.5 68.5t36.5 207.5z" />
    <glyph glyph-name="uni04E7" unicode="&#x4e7;" 
d="M194 646q-25 0 -42 16.5t-17 41.5t17 41.5t42 16.5t42 -16.5t17 -41.5t-17 -41.5t-42 -16.5zM405 646q-25 0 -42 16.5t-17 41.5t17 41.5t42 16.5q26 0 42.5 -16.5t16.5 -41.5t-17 -41.5t-42 -16.5zM301 540q111 0 171 -74t60 -202q0 -126 -61 -201t-171 -75
q-112 0 -172 73.5t-60 201.5q0 126 61 201.5t172 75.5zM301 463q-131 0 -131 -200q0 -199 130 -199t130 200q0 199 -129 199z" />
    <glyph glyph-name="uni04E8" unicode="&#x4e8;" 
d="M557 344q0 -162 -66.5 -259t-190.5 -97q-125 0 -191 95.5t-66 259.5q0 163 66.5 261t190.5 98q125 0 191 -96.5t66 -261.5zM300 621q-74 0 -111 -58.5t-42 -175.5h305q-5 117 -41.5 175.5t-110.5 58.5zM300 68q77 0 113.5 61.5t39.5 185.5h-307q6 -247 154 -247z" />
    <glyph glyph-name="uni04E9" unicode="&#x4e9;" 
d="M301 540q111 0 171 -74t60 -202q0 -126 -61 -201t-171 -75q-112 0 -172 73.5t-60 201.5q0 126 61 201.5t172 75.5zM301 463q-121 0 -130 -159h258q-9 159 -128 159zM429 232h-258q6 -87 37.5 -127.5t91.5 -40.5q118 0 129 168z" />
    <glyph glyph-name="uni04EA" unicode="&#x4ea;" 
d="M194 766q-25 0 -42 16.5t-17 41.5t17 41.5t42 16.5t42 -16.5t17 -41.5t-17 -41.5t-42 -16.5zM405 766q-25 0 -42 16.5t-17 41.5t17 41.5t42 16.5q26 0 42.5 -16.5t16.5 -41.5t-17 -41.5t-42 -16.5zM557 344q0 -162 -66.5 -259t-190.5 -97q-125 0 -191 95.5t-66 259.5
q0 163 66.5 261t190.5 98q125 0 191 -96.5t66 -261.5zM300 621q-74 0 -111 -58.5t-42 -175.5h305q-5 117 -41.5 175.5t-110.5 58.5zM300 68q77 0 113.5 61.5t39.5 185.5h-307q6 -247 154 -247z" />
    <glyph glyph-name="uni04EB" unicode="&#x4eb;" 
d="M195 646q-25 0 -42 16.5t-17 41.5t17 41.5t42 16.5t42 -16.5t17 -41.5t-17 -41.5t-42 -16.5zM406 646q-25 0 -42 16.5t-17 41.5t17 41.5t42 16.5q26 0 42.5 -16.5t16.5 -41.5t-17 -41.5t-42 -16.5zM301 540q111 0 171 -74t60 -202q0 -126 -61 -201t-171 -75
q-112 0 -172 73.5t-60 201.5q0 126 61 201.5t172 75.5zM301 463q-121 0 -130 -159h258q-9 159 -128 159zM429 232h-258q6 -87 37.5 -127.5t91.5 -40.5q118 0 129 168z" />
    <glyph glyph-name="uni04EC" unicode="&#x4ec;" 
d="M181 766q-25 0 -42 16.5t-17 41.5t17 41.5t42 16.5t42 -16.5t17 -41.5t-17 -41.5t-42 -16.5zM392 766q-25 0 -42 16.5t-17 41.5t17 41.5t42 16.5q26 0 42.5 -16.5t16.5 -41.5t-17 -41.5t-42 -16.5zM268 702q129 0 201.5 -88.5t72.5 -260.5q0 -177 -76 -271t-208 -94
q-133 0 -221 88l57 56q72 -64 159 -64q88 0 134.5 60t52.5 186h-295v80h295q-7 121 -51.5 175t-126.5 54q-83 0 -164 -63l-53 56q99 86 223 86z" />
    <glyph glyph-name="uni04ED" unicode="&#x4ed;" 
d="M189 646q-25 0 -42 16.5t-17 41.5t17 41.5t42 16.5t42 -16.5t17 -41.5t-17 -41.5t-42 -16.5zM400 646q-25 0 -42 16.5t-17 41.5t17 41.5t42 16.5q26 0 42.5 -16.5t16.5 -41.5t-17 -41.5t-42 -16.5zM278 540q119 0 180.5 -73.5t61.5 -200.5t-65 -202.5t-184 -75.5
q-108 0 -183 63l45 61q63 -47 137 -47q140 0 151 169h-240v72h239q-15 158 -145 158q-76 0 -138 -45l-44 59q74 62 185 62z" />
    <glyph glyph-name="uni04EE" unicode="&#x4ee;" 
d="M447 793h-275v71h275v-71zM584 689l-205 -500q-40 -98 -95 -143t-165 -58l-14 76q86 12 122.5 39.5t58.5 85.5h-39l-226 500h104l188 -438l171 438h100z" />
    <glyph glyph-name="uni04EF" unicode="&#x4ef;" 
d="M437 673h-275v71h275v-71zM544 527l-184 -530q-31 -93 -87.5 -147t-157.5 -64l-13 75q76 13 110.5 44t57.5 95h-33l-181 527h102l144 -457l143 457h99z" />
    <glyph glyph-name="uni04F0" unicode="&#x4f0;" 
d="M204 766q-25 0 -42 16.5t-17 41.5t17 41.5t42 16.5t42 -16.5t17 -41.5t-17 -41.5t-42 -16.5zM415 766q-25 0 -42 16.5t-17 41.5t17 41.5t42 16.5q26 0 42.5 -16.5t16.5 -41.5t-17 -41.5t-42 -16.5zM584 689l-205 -500q-40 -98 -95 -143t-165 -58l-14 76q86 12 122.5 39.5
t58.5 85.5h-39l-226 500h104l188 -438l171 438h100z" />
    <glyph glyph-name="uni04F1" unicode="&#x4f1;" 
d="M194 646q-25 0 -42 16.5t-17 41.5t17 41.5t42 16.5t42 -16.5t17 -41.5t-17 -41.5t-42 -16.5zM405 646q-25 0 -42 16.5t-17 41.5t17 41.5t42 16.5q26 0 42.5 -16.5t16.5 -41.5t-17 -41.5t-42 -16.5zM544 527l-184 -530q-31 -93 -87.5 -147t-157.5 -64l-13 75
q76 13 110.5 44t57.5 95h-33l-181 527h102l144 -457l143 457h99z" />
    <glyph glyph-name="uni04F2" unicode="&#x4f2;" 
d="M189 782l81 177l80 -38l-102 -167zM353 782l89 177l79 -41l-111 -166zM584 689l-205 -500q-40 -98 -95 -143t-165 -58l-14 76q86 12 122.5 39.5t58.5 85.5h-39l-226 500h104l188 -438l171 438h100z" />
    <glyph glyph-name="uni04F3" unicode="&#x4f3;" 
d="M174 662l81 177l80 -38l-102 -167zM338 662l89 177l79 -41l-111 -166zM544 527l-184 -530q-31 -93 -87.5 -147t-157.5 -64l-13 75q76 13 110.5 44t57.5 95h-33l-181 527h102l144 -457l143 457h99z" />
    <glyph glyph-name="uni04F4" unicode="&#x4f4;" 
d="M183 766q-25 0 -42 16.5t-17 41.5t17 41.5t42 16.5t42 -16.5t17 -41.5t-17 -41.5t-42 -16.5zM394 766q-25 0 -42 16.5t-17 41.5t17 41.5t42 16.5q26 0 42.5 -16.5t16.5 -41.5t-17 -41.5t-42 -16.5zM423 689h99v-689h-99v276q-82 -60 -174 -60t-147 56.5t-55 152.5v264h99
v-258q0 -132 129 -132q87 0 148 57v333z" />
    <glyph glyph-name="uni04F5" unicode="&#x4f5;" 
d="M181 646q-25 0 -42 16.5t-17 41.5t17 41.5t42 16.5t42 -16.5t17 -41.5t-17 -41.5t-42 -16.5zM392 646q-25 0 -42 16.5t-17 41.5t17 41.5t42 16.5q26 0 42.5 -16.5t16.5 -41.5t-17 -41.5t-42 -16.5zM495 527v-527h-96v219q-65 -58 -163 -58q-77 0 -117 41t-40 116v209h96
v-198q0 -49 21.5 -71t66.5 -22q37 0 75 15.5t61 40.5v235h96z" />
    <glyph glyph-name="uni04F6" unicode="&#x4f6;" 
d="M536 604h-308v-523h60v-232h-78l-15 151h-66v689h418z" />
    <glyph glyph-name="uni04F7" unicode="&#x4f7;" 
d="M515 448h-267v-371h79v-228h-78l-15 151h-82v527h375z" />
    <glyph glyph-name="uni04F8" unicode="&#x4f8;" 
d="M194 766q-25 0 -42 16.5t-17 41.5t17 41.5t42 16.5t42 -16.5t17 -41.5t-17 -41.5t-42 -16.5zM405 766q-25 0 -42 16.5t-17 41.5t17 41.5t42 16.5q26 0 42.5 -16.5t16.5 -41.5t-17 -41.5t-42 -16.5zM125 689v-251h54q249 0 249 -214q0 -112 -64 -168t-183 -56h-152v689h96
zM571 689v-689h-96v689h96zM189 364h-64v-288h64q69 0 104.5 34.5t35.5 112.5q0 141 -140 141z" />
    <glyph glyph-name="uni04F9" unicode="&#x4f9;" 
d="M194 646q-25 0 -42 16.5t-17 41.5t17 41.5t42 16.5t42 -16.5t17 -41.5t-17 -41.5t-42 -16.5zM405 646q-25 0 -42 16.5t-17 41.5t17 41.5t42 16.5q26 0 42.5 -16.5t16.5 -41.5t-17 -41.5t-42 -16.5zM145 527v-169h32q225 0 225 -175q0 -93 -58.5 -138t-164.5 -45h-123v527
h89zM544 527v-527h-90v527h90zM181 290h-36v-219h36q62 0 93.5 25t31.5 87q0 57 -30 82t-95 25z" />
    <glyph glyph-name="uni04FA" unicode="&#x4fa;" 
d="M580 604h-308v-171h155v-72h-155v-280h61v-136q0 -78 -41 -118.5t-113 -40.5q-67 0 -116 39l37 62q39 -22 73 -22q61 0 61 73v62h-61v361h-98v72h98v256h418z" />
    <glyph glyph-name="uni04FB" unicode="&#x4fb;" 
d="M545 448h-267v-144h123v-72h-123v-155h77v-76h1v-56q0 -77 -41.5 -118t-112.5 -41q-67 0 -116 39l37 59q40 -21 73 -21q64 0 64 73v64h-78v232h-91v72h91v223h375z" />
    <glyph glyph-name="uni04FC" unicode="&#x4fc;" 
d="M513 81h69v-136q0 -78 -41 -118.5t-113 -40.5q-67 0 -116 39l37 62q39 -22 73 -22q61 0 61 73v62h-36l-163 303l-165 -303h-106l212 367l-195 322h113l143 -257l145 257h106l-194 -317z" />
    <glyph glyph-name="uni04FD" unicode="&#x4fd;" 
d="M487 77h69v-132q0 -77 -41.5 -118t-112.5 -41q-67 0 -116 39l37 59q40 -21 73 -21q64 0 64 73v64h-35l-138 222l-139 -222h-108l193 278l-170 249h112l116 -191l117 191h108l-169 -245z" />
    <glyph glyph-name="uni04FE" unicode="&#x4fe;" 
d="M380 332l194 -332h-113l-163 303l-165 -303h-106l192 332h-183v72h181l-173 285h113l143 -257l145 257h106l-174 -285h187v-72h-184z" />
    <glyph glyph-name="uni04FF" unicode="&#x4ff;" 
d="M379 250l171 -250h-115l-135 232l-142 -232h-108l174 250h-149v63h144l-146 214h112l115 -202l118 202h108l-148 -214h146v-63h-145z" />
    <glyph glyph-name="uni0500" unicode="&#x500;" 
d="M303 0q-116 0 -187 54t-71 159q0 103 70.5 161t193.5 58h104v257h99v-689h-209zM305 79h108v276h-104q-159 0 -159 -142q0 -134 155 -134z" />
    <glyph glyph-name="uni0501" unicode="&#x501;" 
d="M409 751l96 -12v-739h-85l-8 67q-55 -79 -149 -79q-100 0 -150 73.5t-50 201.5q0 122 56 199.5t152 77.5q85 0 138 -61v272zM296 464q-130 0 -130 -201q0 -200 120 -200q71 0 123 80v257q-45 64 -113 64z" />
    <glyph glyph-name="uni0502" unicode="&#x502;" 
d="M580 377q5 -65 5 -127q0 -134 -45.5 -199t-122.5 -65q-86 0 -123 77q-47 -77 -129 -77q-66 0 -111 54t-45 153q0 112 57 174t163 62h45v260h93v-537q0 -90 52 -90q73 0 73 186q0 59 -5 129h93zM182 62q30 0 51 19t41 61v214h-46q-60 0 -93 -40.5t-33 -122.5
q0 -131 80 -131z" />
    <glyph glyph-name="uni0503" unicode="&#x503;" 
d="M587 377q5 -65 5 -124q0 -136 -46 -201.5t-125 -65.5q-94 0 -132 90q-48 -88 -118 -88q-78 0 -120.5 73.5t-42.5 199.5q0 123 45.5 201t120.5 78q61 0 98 -51v261l93 -11v-581q0 -46 15.5 -71t42.5 -25q75 0 75 189q0 56 -5 126h94zM182 63q48 0 90 80v265q-39 57 -80 57
q-40 0 -63 -51t-23 -151q0 -200 76 -200z" />
    <glyph glyph-name="uni0504" unicode="&#x504;" 
d="M571 380q5 -65 5 -125q0 -136 -48.5 -201.5t-133.5 -65.5q-65 0 -107.5 33t-75.5 104l-78 165h-81v76h72q74 0 111.5 30t37.5 97q0 63 -38 91.5t-122 28.5h-89v76h90q130 0 197 -49.5t67 -146.5q0 -139 -148 -184l72 -159q21 -47 41.5 -66t50.5 -19q86 0 86 190
q0 55 -5 125h96z" />
    <glyph glyph-name="uni0505" unicode="&#x505;" 
d="M572 377q5 -65 5 -124q0 -135 -51.5 -201t-138.5 -66q-65 0 -108.5 31.5t-81.5 100.5l-45 82h-103v73h94q111 0 111 92q0 90 -123 90h-121v72h122q108 0 165 -41.5t57 -120.5q0 -104 -114 -146l48 -86q23 -40 46.5 -55.5t53.5 -15.5q93 0 93 189q0 56 -5 126h96z" />
    <glyph glyph-name="uni0506" unicode="&#x506;" 
d="M488 81h69v-232h-78l-15 151h-40l-182 290h-143v76h152q73 0 110.5 30t37.5 97q0 63 -36 91.5t-113 28.5h-180v76h171q263 0 263 -196q0 -73 -45 -121.5t-118 -68.5z" />
    <glyph glyph-name="uni0507" unicode="&#x507;" 
d="M454 77h81v-228h-78l-15 151h-46l-125 199h-156v74h144q110 0 110 92q0 90 -122 90h-171v72h172q108 0 164.5 -41.5t56.5 -120.5q0 -105 -110 -146z" />
    <glyph glyph-name="uni0508" unicode="&#x508;" 
d="M584 377q5 -65 5 -127q0 -133 -46 -198.5t-122 -65.5q-63 0 -103.5 44t-40.5 127v454h-88l-16 -233q-10 -139 -26 -216t-34.5 -108t-57.5 -66l-52 65q22 22 33.5 47.5t23 96t21.5 202.5l23 290h266v-537q0 -90 53 -90q72 0 72 186q0 59 -5 129h94z" />
    <glyph glyph-name="uni0509" unicode="&#x509;" 
d="M585 377q5 -65 5 -124q0 -135 -48 -201t-125 -66q-64 0 -106 42.5t-42 123.5v298h-92l-11 -131q-9 -115 -24.5 -179t-36.5 -93.5t-63 -58.5l-40 60q31 27 47 77t26 191l16 211h272v-388q0 -34 14 -55.5t41 -21.5q78 0 78 189q0 56 -5 126h94z" />
    <glyph glyph-name="uni050A" unicode="&#x50a;" 
d="M585 377q5 -65 5 -127q0 -134 -45.5 -199t-122.5 -65q-63 0 -103.5 44t-40.5 127v164h-138v-321h-94v689h94v-289h138v289h93v-537q0 -90 53 -90q73 0 73 186q0 59 -5 129h93z" />
    <glyph glyph-name="uni050B" unicode="&#x50b;" 
d="M589 377q5 -65 5 -124q0 -135 -48 -201t-126 -66q-64 0 -106 42.5t-42 123.5v79h-136v-231h-94v527h94v-221h136v221h94v-388q0 -34 14 -55.5t41 -21.5q78 0 78 189q0 56 -5 126h95z" />
    <glyph glyph-name="uni050C" unicode="&#x50c;" 
d="M316 -12q-129 0 -201.5 91t-72.5 266q0 169 85.5 263t208.5 94q65 0 111 -19t89 -59l-58 -60q-61 57 -141 57q-83 0 -136.5 -66t-53.5 -210q0 -145 43.5 -211t131.5 -66q68 0 124 32v201h-128l-11 79h237v-331q-112 -61 -228 -61z" />
    <glyph glyph-name="uni050D" unicode="&#x50d;" 
d="M318 540q99 0 182 -65l-52 -60q-61 46 -128 46q-64 0 -106 -49t-42 -146q0 -202 134 -202q57 0 102 22v139h-93l-11 73h198v-256q-93 -53 -197 -53q-111 0 -173 70.5t-62 206.5q0 124 72.5 199t175.5 75z" />
    <glyph glyph-name="uni050E" unicode="&#x50e;" 
d="M565 379q5 -65 5 -125q0 -131 -63 -198.5t-149 -67.5q-73 0 -120.5 48.5t-47.5 137.5v432h-175v83h473l-10 -83h-189v-427q0 -115 73 -115q49 0 80 44t31 146q0 55 -5 125h97z" />
    <glyph glyph-name="uni050F" unicode="&#x50f;" 
d="M544 369q5 -62 5 -127q0 -125 -61.5 -190.5t-149.5 -65.5q-76 0 -124.5 47.5t-48.5 130.5v286h-162v77h427l-12 -77h-157v-286q0 -51 21 -76.5t58 -25.5q48 0 80 43t32 139q0 47 -4 125h96z" />
    <glyph glyph-name="uni0510" unicode="&#x510;" 
d="M320 702q131 0 235 -87l-53 -56q-84 64 -178 64q-65 0 -104.5 -27.5t-39.5 -78.5q0 -53 40 -80.5t103 -27.5h116l-12 -80h-110q-71 0 -113.5 -31.5t-42.5 -96.5q0 -62 42.5 -97.5t119.5 -35.5q104 0 190 72l57 -54q-95 -98 -251 -98q-120 0 -191.5 59t-71.5 153
q0 76 48 121t120 53q-64 9 -104.5 46.5t-40.5 96.5q0 82 67 133.5t174 51.5z" />
    <glyph glyph-name="uni0511" unicode="&#x511;" 
d="M420 312l-6 -74h-103q-128 0 -128 -82q0 -43 35.5 -67.5t103.5 -24.5q102 0 184 56l45 -59q-91 -73 -229 -73q-108 0 -175 44t-67 124q0 56 42 89.5t97 35.5q-110 30 -110 113q0 67 60.5 106.5t153.5 39.5q121 0 209 -64l-45 -56q-74 45 -160 45q-119 0 -119 -77
q0 -35 29 -55.5t80 -20.5h103z" />
    <glyph glyph-name="uni0512" unicode="&#x512;" 
d="M163 689h359v-744q0 -78 -41 -118.5t-113 -40.5q-67 0 -116 39l37 62q39 -22 73 -22q61 0 61 73v669h-173l-23 -189q-14 -120 -28.5 -193.5t-36.5 -119.5t-44.5 -68.5t-64.5 -48.5l-42 71q23 18 34.5 32.5t28 49.5t29 98t24.5 161z" />
    <glyph glyph-name="uni0513" unicode="&#x513;" 
d="M147 527h366v-582q0 -77 -41.5 -118t-112.5 -41q-67 0 -116 39l37 59q40 -21 73 -21q64 0 64 73v514h-184l-10 -127q-9 -119 -25 -181.5t-41.5 -94t-78.5 -59.5l-41 61q29 18 44 38t28.5 75.5t21.5 156.5z" />
    <glyph glyph-name="uni0514" unicode="&#x514;" 
d="M457 369l151 -369h-95l-116 301l-110 -301h-91l147 368l-100 240h-56l-17 -230q-10 -139 -26 -216t-34.5 -108t-57.5 -66l-51 65q22 22 33.5 47.5t23 96t21.5 202.5l22 290l4 -3l-3 3h203l98 -257l97 257h90z" />
    <glyph glyph-name="uni0515" unicode="&#x515;" 
d="M461 282l139 -282h-97l-98 222l-98 -222h-91l138 278l-85 175h-80l-11 -134q-9 -116 -24 -179t-36.5 -93.5t-62.5 -58.5l-41 60q31 27 47 77t26 191l17 211h224l82 -191l83 191h89z" />
    <glyph glyph-name="uni0516" unicode="&#x516;" 
d="M592 0h-104l-153 319q-61 -67 -156 -67h-36v-252h-94v689h129q100 0 156.5 -58t56.5 -156v-8l105 222h94l-169 -333zM175 329q127 0 127 146q0 69 -32.5 103.5t-89.5 34.5h-37v-284h32z" />
    <glyph glyph-name="uni0517" unicode="&#x517;" 
d="M597 0h-100l-103 229q-7 -111 -50 -176t-106 -65t-104 55v-245l-95 -12v741h81l7 -61q50 74 120 74q136 0 147 -234l96 221h95l-120 -256zM219 65q37 0 60.5 48t23.5 151q0 109 -17 154.5t-57 45.5q-51 0 -95 -70v-267q41 -62 85 -62z" />
    <glyph glyph-name="uni0518" unicode="&#x518;" 
d="M389 77h209v-77h-307v273h-64l-111 -273h-109l130 294q-119 54 -119 187q0 96 65 152t178 56h329l-11 -78h-190v-222h153v-78h-153v-234zM291 350v263h-39q-62 0 -96 -33.5t-34 -98.5q0 -66 31 -98.5t84 -32.5h54z" />
    <glyph glyph-name="uni0519" unicode="&#x519;" 
d="M434 62q34 0 59 9.5t58 33.5l43 -54q-76 -63 -165 -63q-79 0 -129.5 58t-62.5 155h-46l-94 -201h-92l105 220q-93 40 -93 141q0 74 55 120t147 46h138q33 13 65 13q84 0 128 -69t44 -192q0 -24 -2 -48h-265q2 -86 30.5 -127.5t76.5 -41.5zM423 467q-87 0 -97 -166h182
q-3 166 -85 166zM109 361q0 -90 103 -90h21q2 117 49 190h-65q-108 0 -108 -100z" />
    <glyph glyph-name="uni051A" unicode="&#x51a;" 
d="M557 344q0 -237 -143 -315q75 -14 117.5 -51t67.5 -113l-98 -38q-34 85 -80 124t-131 39q-119 0 -183 95t-64 258t66.5 261t190.5 98q125 0 191 -96.5t66 -261.5zM454 344q0 139 -36.5 208t-117.5 69t-117 -69.5t-36 -208.5q0 -138 37 -206.5t116 -68.5q81 0 117.5 68.5
t36.5 207.5z" />
    <glyph glyph-name="uni051B" unicode="&#x51b;" 
d="M271 540q90 0 144 -68l7 55h83v-741l-96 12v265q-56 -75 -147 -75q-194 0 -194 275q0 123 53.5 200t149.5 77zM295 464q-125 0 -125 -201q0 -198 115 -198q73 0 124 78v257q-43 64 -114 64z" />
    <glyph glyph-name="uni051C" unicode="&#x51c;" 
d="M596 689l-100 -689h-123l-75 516l-76 -516h-126l-92 689h97l65 -587l79 507h112l75 -507l74 587h90z" />
    <glyph glyph-name="uni051D" unicode="&#x51d;" 
d="M496 0h-128l-65 381l-70 -381h-125l-93 527h95l63 -467l79 400h105l74 -400l63 467h91z" />
    <glyph glyph-name="uni051E" unicode="&#x51e;" 
d="M343 367l242 -367h-117l-209 322h-77v-322h-99v689h99v-287h78l86 122l-116 71l38 61l119 -74l75 107h104l-105 -152l106 -66l-38 -60l-109 67z" />
    <glyph glyph-name="uni051F" unicode="&#x51f;" 
d="M372 283l198 -283h-113l-165 242h-98v-242h-96v527h96v-211h100l49 71l-85 52l36 57l87 -54l59 85h105l-92 -129l84 -52l-36 -57l-87 54z" />
    <glyph glyph-name="uni0520" unicode="&#x520;" 
d="M452 453q61 0 96 -41t35 -106v-362q0 -76 -41.5 -117t-107.5 -41q-65 0 -116 39l37 61q38 -23 73 -23q61 0 61 73v360q0 75 -57 75q-36 0 -74 -33v-338h-93v611h-88l-16 -233q-10 -139 -26 -216t-34.5 -108t-57.5 -66l-52 65q22 22 33.5 47.5t23 96t21.5 202.5l23 290
h266v-276q40 40 94 40z" />
    <glyph glyph-name="uni0521" unicode="&#x521;" 
d="M467 349q58 0 94.5 -39t36.5 -102v-264q0 -76 -41 -117t-112 -41q-65 0 -116 39l37 59q39 -22 74 -22q64 0 64 73v267q0 73 -61 73q-45 0 -83 -36v-239h-94v450h-103l-11 -131q-8 -115 -23.5 -179t-36.5 -93.5t-63 -58.5l-41 60q31 27 47 77t27 191l16 211h282v-219
q43 41 107 41z" />
    <glyph glyph-name="uni0522" unicode="&#x522;" 
d="M451 453q65 0 102.5 -42.5t37.5 -113.5v-353q0 -76 -41 -117t-108 -41t-116 39l37 61q38 -23 73 -23q61 0 61 74v359q0 75 -65 75q-43 0 -81 -34v-337h-93v321h-139v-321h-93v689h93v-289h139v289h93v-276q42 40 100 40z" />
    <glyph glyph-name="uni0523" unicode="&#x523;" 
d="M467 349q57 0 93.5 -39t36.5 -102v-264q0 -76 -40.5 -117t-111.5 -41q-65 0 -116 39l37 59q39 -22 74 -22q64 0 64 73v267q0 73 -61 73q-45 0 -83 -36v-239h-93v231h-147v-231h-94v527h94v-221h147v221h93v-219q43 41 107 41z" />
    <glyph glyph-name="uni0524" unicode="&#x524;" 
d="M522 81h59v-232h-78l-15 151h-65v606h-246v-606h-99v689h444v-608z" />
    <glyph glyph-name="uni0525" unicode="&#x525;" 
d="M498 77h79v-228h-78l-15 151h-82v451h-218v-451h-96v527h410v-450z" />
    <glyph glyph-name="uni0526" unicode="&#x526;" 
d="M544 81h57v-232h-78l-15 151h-63v234q0 136 -126 136q-84 0 -142 -73v-297h-99v689h99v-304q63 68 166 68q95 0 148 -57.5t53 -160.5v-154z" />
    <glyph glyph-name="uni0527" unicode="&#x527;" 
d="M500 77h79v-228h-78l-15 151h-82v306q0 99 -83 99q-77 0 -134 -86v-319h-96v738l96 11v-349q59 80 157 80q72 0 114 -43t42 -118v-242z" />
    <glyph glyph-name="uni0528" unicode="&#x528;" 
d="M423 689h99v-689h-99v321h-246v-377q0 -78 -41 -118.5t-113 -40.5q-67 0 -116 39l37 62q39 -22 73 -22q61 0 61 73v752h99v-286h246v286z" />
    <glyph glyph-name="uni0529" unicode="&#x529;" 
d="M409 527h96v-527h-96v231h-218v-231h1v-56q0 -77 -41.5 -118t-112.5 -41q-67 0 -116 39l37 59q40 -21 73 -21q64 0 64 73v65h-1v527h96v-220h218v220z" />
    <glyph glyph-name="uni052A" unicode="&#x52a;" 
d="M518 365l94 -365h-86l-74 323h-26v-323h-61v-151h-66l-15 151h-216l-15 -151h-66v221h33q15 38 24 71t20 110.5t19 189.5l16 248h202v-293h49v293h76v-293h27l65 293h76zM224 70v549h-51l-10 -182q-8 -159 -24.5 -237t-48.5 -130h134zM350 323h-49v-253h49v253z" />
    <glyph glyph-name="uni052B" unicode="&#x52b;" 
d="M506 283l104 -283h-86l-85 242h-24v-242h-60v-151h-69l-13 151h-202l-13 -151h-69v226h24q23 24 34.5 71t21.5 187l13 194h206v-212h47v212h80v-212h25l75 212h79zM208 75v379h-50l-6 -110q-9 -140 -20.5 -188.5t-44.5 -80.5h121zM335 242h-47v-167h47v167z" />
    <glyph glyph-name="uni052C" unicode="&#x52c;" 
d="M529 81h37v-232h-78l-15 151h-327l-15 -151h-78v232h38q69 77 107 258q-74 17 -108.5 69.5t-35.5 146.5v134h96v-131q0 -110 63 -137l9 69l23 199h284v-608zM331 609l-13 -124q-5 -50 -10 -78h126v202h-103zM186 81h248v248h-139q-34 -170 -109 -248z" />
    <glyph glyph-name="uni052D" unicode="&#x52d;" 
d="M500 76h63v-227h-77l-15 151h-323l-16 -151h-77v227h40q32 22 54.5 60.5t35.5 118.5q-137 23 -137 177v95h90v-93q0 -84 56 -102v1l14 194h292v-451zM293 453l-8 -109l-2 -20h123v129h-113zM188 76h218v174h-133q-24 -134 -85 -174z" />
    <glyph glyph-name="uni052E" unicode="&#x52e;" 
d="M492 81h59v-232h-78l-15 151h-65v607h-152l-23 -189q-18 -158 -41.5 -242t-50.5 -118.5t-82 -69.5l-43 71q30 24 45.5 46t35.5 94t36 201l36 289h338v-608z" />
    <glyph glyph-name="uni052F" unicode="&#x52f;" 
d="M488 77h80v-228h-78l-15 151h-83v450h-163l-11 -127q-9 -119 -25 -181.5t-41.5 -93.5t-78.5 -60l-40 61q29 18 43.5 37.5t28.5 76t21 156.5l16 208h346v-450z" />
    <glyph glyph-name="Wgrave" unicode="&#x1e80;" 
d="M230 916l189 -110l-27 -51l-211 82zM596 689l-100 -689h-123l-75 516l-76 -516h-126l-92 689h97l65 -587l79 507h112l75 -507l74 587h90z" />
    <glyph glyph-name="wgrave" unicode="&#x1e81;" 
d="M389 622l-208 93l48 80l190 -121zM496 0h-128l-65 381l-70 -381h-125l-93 527h95l63 -467l79 400h105l74 -400l63 467h91z" />
    <glyph glyph-name="Wacute" unicode="&#x1e82;" 
d="M382 914l41 -80l-217 -79l-25 51zM596 689l-100 -689h-123l-75 516l-76 -516h-126l-92 689h97l65 -587l79 507h112l75 -507l74 587h90z" />
    <glyph glyph-name="wacute" unicode="&#x1e83;" 
d="M383 803l42 -79l-214 -87l-29 51zM496 0h-128l-65 381l-70 -381h-125l-93 527h95l63 -467l79 400h105l74 -400l63 467h91z" />
    <glyph glyph-name="Wdieresis" unicode="&#x1e84;" 
d="M194 766q-25 0 -42 16.5t-17 41.5t17 41.5t42 16.5t42 -16.5t17 -41.5t-17 -41.5t-42 -16.5zM405 766q-25 0 -42 16.5t-17 41.5t17 41.5t42 16.5q26 0 42.5 -16.5t16.5 -41.5t-17 -41.5t-42 -16.5zM596 689l-100 -689h-123l-75 516l-76 -516h-126l-92 689h97l65 -587
l79 507h112l75 -507l74 587h90z" />
    <glyph glyph-name="wdieresis" unicode="&#x1e85;" 
d="M194 646q-25 0 -42 16.5t-17 41.5t17 41.5t42 16.5t42 -16.5t17 -41.5t-17 -41.5t-42 -16.5zM405 646q-25 0 -42 16.5t-17 41.5t17 41.5t42 16.5q26 0 42.5 -16.5t16.5 -41.5t-17 -41.5t-42 -16.5zM496 0h-128l-65 381l-70 -381h-125l-93 527h95l63 -467l79 400h105
l74 -400l63 467h91z" />
    <glyph glyph-name="Ygrave" unicode="&#x1ef2;" 
d="M233 916l189 -110l-27 -51l-211 82zM350 265v-265h-100v264l-232 425h110l174 -337l176 337h104z" />
    <glyph glyph-name="ygrave" unicode="&#x1ef3;" 
d="M389 622l-208 93l48 80l190 -121zM544 527l-184 -530q-31 -93 -87.5 -147t-157.5 -64l-13 75q76 13 110.5 44t57.5 95h-33l-181 527h102l144 -457l143 457h99z" />
    <glyph glyph-name="uni1F00" unicode="&#x1f00;" 
d="M312 811q25 0 41.5 -16t16.5 -41q0 -24 -16 -59l-50 -106h-56l29 117q-23 18 -23 48q0 25 16.5 41t41.5 16zM254 540q70 0 109.5 -37.5t54.5 -124.5l27 149h87l-56 -275l26 -133q7 -39 46 -54l-33 -78q-36 6 -62 30t-33 65l-9 56q-48 -150 -164 -150q-92 0 -142 68.5
t-50 202.5q0 126 52 203.5t147 77.5zM262 464q-51 0 -78.5 -52.5t-27.5 -152.5q0 -196 102 -196q97 0 135 204q-19 111 -50 154t-81 43z" />
    <glyph glyph-name="uni1F01" unicode="&#x1f01;" 
d="M237 811q25 0 41.5 -16.5t16.5 -40.5q0 -29 -23 -49l29 -116h-56l-50 105q-16 35 -16 60q0 24 16.5 40.5t41.5 16.5zM254 540q70 0 109.5 -37.5t54.5 -124.5l27 149h87l-56 -275l26 -133q7 -39 46 -54l-33 -78q-36 6 -62 30t-33 65l-9 56q-48 -150 -164 -150
q-92 0 -142 68.5t-50 202.5q0 126 52 203.5t147 77.5zM262 464q-51 0 -78.5 -52.5t-27.5 -152.5q0 -196 102 -196q97 0 135 204q-19 111 -50 154t-81 43z" />
    <glyph glyph-name="uni1F02" unicode="&#x1f02;" 
d="M191 804q25 0 41.5 -16t16.5 -41q0 -24 -16 -59l-50 -106h-56l29 117q-23 18 -23 48q0 25 16.5 41t41.5 16zM365 799l46 -207l-61 -17l-71 203zM254 540q70 0 109.5 -37.5t54.5 -124.5l27 149h87l-56 -275l26 -133q7 -39 46 -54l-33 -78q-36 6 -62 30t-33 65l-9 56
q-48 -150 -164 -150q-92 0 -142 68.5t-50 202.5q0 126 52 203.5t147 77.5zM262 464q-51 0 -78.5 -52.5t-27.5 -152.5q0 -196 102 -196q97 0 135 204q-19 111 -50 154t-81 43z" />
    <glyph glyph-name="uni1F03" unicode="&#x1f03;" 
d="M165 804q25 0 41.5 -16.5t16.5 -40.5q0 -29 -23 -49l29 -116h-56l-50 105q-16 35 -16 60q0 24 16.5 40.5t41.5 16.5zM344 799l46 -207l-61 -17l-71 203zM254 540q70 0 109.5 -37.5t54.5 -124.5l27 149h87l-56 -275l26 -133q7 -39 46 -54l-33 -78q-36 6 -62 30t-33 65
l-9 56q-48 -150 -164 -150q-92 0 -142 68.5t-50 202.5q0 126 52 203.5t147 77.5zM262 464q-51 0 -78.5 -52.5t-27.5 -152.5q0 -196 102 -196q97 0 135 204q-19 111 -50 154t-81 43z" />
    <glyph glyph-name="uni1F04" unicode="&#x1f04;" 
d="M235 804q25 0 41.5 -16t16.5 -41q0 -24 -16 -59l-50 -106h-56l29 117q-23 18 -23 48q0 25 16.5 41t41.5 16zM364 799l86 -21l-71 -203l-62 17zM254 540q70 0 109.5 -37.5t54.5 -124.5l27 149h87l-56 -275l26 -133q7 -39 46 -54l-33 -78q-36 6 -62 30t-33 65l-9 56
q-48 -150 -164 -150q-92 0 -142 68.5t-50 202.5q0 126 52 203.5t147 77.5zM262 464q-51 0 -78.5 -52.5t-27.5 -152.5q0 -196 102 -196q97 0 135 204q-19 111 -50 154t-81 43z" />
    <glyph glyph-name="uni1F05" unicode="&#x1f05;" 
d="M204 805q25 0 41.5 -16.5t16.5 -40.5q0 -29 -23 -49l29 -116h-56l-50 105q-16 35 -16 60q0 24 16.5 40.5t41.5 16.5zM339 799l86 -21l-71 -203l-62 17zM254 540q70 0 109.5 -37.5t54.5 -124.5l27 149h87l-56 -275l26 -133q7 -39 46 -54l-33 -78q-36 6 -62 30t-33 65
l-9 56q-48 -150 -164 -150q-92 0 -142 68.5t-50 202.5q0 126 52 203.5t147 77.5zM262 464q-51 0 -78.5 -52.5t-27.5 -152.5q0 -196 102 -196q97 0 135 204q-19 111 -50 154t-81 43z" />
    <glyph glyph-name="uni1F06" unicode="&#x1f06;" 
d="M351 754q-29 0 -64.5 24t-51.5 24q-28 0 -53 -46l-57 28q41 90 110 90q30 0 65 -24t51 -24q27 0 53 44l57 -28q-39 -88 -110 -88zM249 577l19 62q-33 19 -33 52q0 25 16.5 41t42.5 16q25 0 41.5 -16t16.5 -41q0 -26 -29 -77l-20 -37h-54zM254 540q70 0 109.5 -37.5
t54.5 -124.5l27 149h87l-56 -275l26 -133q7 -39 46 -54l-33 -78q-36 6 -62 30t-33 65l-9 56q-48 -150 -164 -150q-92 0 -142 68.5t-50 202.5q0 126 52 203.5t147 77.5zM262 464q-51 0 -78.5 -52.5t-27.5 -152.5q0 -196 102 -196q97 0 135 204q-19 111 -50 154t-81 43z" />
    <glyph glyph-name="uni1F07" unicode="&#x1f07;" 
d="M338 755q-29 0 -64.5 24t-51.5 24q-28 0 -53 -46l-57 28q41 90 110 90q30 0 65 -24t51 -24q27 0 53 44l57 -28q-39 -88 -110 -88zM322 578h-54l-20 37q-29 51 -29 77q0 25 16.5 41t41.5 16q26 0 42.5 -16t16.5 -41q0 -33 -32 -52zM254 540q70 0 109.5 -37.5t54.5 -124.5
l27 149h87l-56 -275l26 -133q7 -39 46 -54l-33 -78q-36 6 -62 30t-33 65l-9 56q-48 -150 -164 -150q-92 0 -142 68.5t-50 202.5q0 126 52 203.5t147 77.5zM262 464q-51 0 -78.5 -52.5t-27.5 -152.5q0 -196 102 -196q97 0 135 204q-19 111 -50 154t-81 43z" />
    <glyph glyph-name="uni1F08" unicode="&#x1f08;" 
d="M110 706q25 0 41.5 -16t16.5 -41q0 -24 -16 -59l-50 -106h-56l29 117q-23 18 -23 48q0 25 16.5 41t41.5 16zM428 172h-261l-52 -172h-100l223 689h124l223 -689h-105zM190 251h215l-107 358z" />
    <glyph glyph-name="uni1F09" unicode="&#x1f09;" 
d="M89 706q25 0 41.5 -16.5t16.5 -40.5q0 -29 -23 -49l29 -116h-56l-50 105q-16 35 -16 60q0 24 16.5 40.5t41.5 16.5zM428 172h-261l-52 -172h-100l223 689h124l223 -689h-105zM190 251h215l-107 358z" />
    <glyph glyph-name="uni1F0A" unicode="&#x1f0a;" 
d="M-69 693q25 0 41.5 -16t16.5 -41q0 -24 -16 -59l-50 -106h-56l29 117q-23 18 -23 48q0 25 16.5 41t41.5 16zM428 172h-261l-52 -172h-100l223 689h124l223 -689h-105zM105 688l46 -207l-61 -17l-71 203zM190 251h215l-107 358z" />
    <glyph glyph-name="uni1F0B" unicode="&#x1f0b;" 
d="M-78 693q25 0 41.5 -16.5t16.5 -40.5q0 -29 -23 -49l29 -116h-56l-50 105q-16 35 -16 60q0 24 16.5 40.5t41.5 16.5zM428 172h-261l-52 -172h-100l223 689h124l223 -689h-105zM101 688l46 -207l-61 -17l-71 203zM190 251h215l-107 358z" />
    <glyph glyph-name="uni1F0C" unicode="&#x1f0c;" 
d="M-43 693q25 0 41.5 -16t16.5 -41q0 -24 -16 -59l-50 -106h-56l29 117q-23 18 -23 48q0 25 16.5 41t41.5 16zM428 172h-261l-52 -172h-100l223 689h124l223 -689h-105zM86 688l86 -21l-71 -203l-62 17zM190 251h215l-107 358z" />
    <glyph glyph-name="uni1F0D" unicode="&#x1f0d;" 
d="M-43 694q25 0 41.5 -16.5t16.5 -40.5q0 -29 -23 -49l29 -116h-56l-50 105q-16 35 -16 60q0 24 16.5 40.5t41.5 16.5zM428 172h-261l-52 -172h-100l223 689h124l223 -689h-105zM92 688l86 -21l-71 -203l-62 17zM190 251h215l-107 358z" />
    <glyph glyph-name="uni1F0E" unicode="&#x1f0e;" 
d="M92 579q-29 0 -64.5 24t-51.5 24q-28 0 -53 -46l-57 28q41 90 110 90q30 0 65 -24t51 -24q27 0 53 44l57 -28q-39 -88 -110 -88zM428 172h-261l-52 -172h-100l223 689h124l223 -689h-105zM190 251h215l-107 358zM-10 402l19 62q-33 19 -33 52q0 25 16.5 41t42.5 16
q25 0 41.5 -16t16.5 -41q0 -26 -29 -77l-20 -37h-54z" />
    <glyph glyph-name="uni1F0F" unicode="&#x1f0f;" 
d="M92 580q-29 0 -64.5 24t-51.5 24q-28 0 -53 -46l-57 28q41 90 110 90q30 0 65 -24t51 -24q27 0 53 44l57 -28q-39 -88 -110 -88zM428 172h-261l-52 -172h-100l223 689h124l223 -689h-105zM190 251h215l-107 358zM76 403h-54l-20 37q-29 51 -29 77q0 25 16.5 41t41.5 16
q26 0 42.5 -16t16.5 -41q0 -33 -32 -52z" />
    <glyph glyph-name="uni1F10" unicode="&#x1f10;" 
d="M351 811q25 0 41.5 -16t16.5 -41q0 -24 -16 -59l-50 -106h-56l29 117q-23 18 -23 48q0 25 16.5 41t41.5 16zM396 238h-92q-64 0 -92.5 -20t-28.5 -62t36 -67t100 -25q100 0 182 55l50 -62q-94 -69 -238 -69q-103 0 -168 43.5t-65 120.5q0 59 33.5 90t99.5 40
q-112 24 -112 116q0 67 61 104.5t154 37.5q126 0 204 -55l-46 -57q-64 37 -152 37q-122 0 -122 -77q0 -35 29 -55.5t81 -20.5h97z" />
    <glyph glyph-name="uni1F11" unicode="&#x1f11;" 
d="M276 811q25 0 41.5 -16.5t16.5 -40.5q0 -29 -23 -49l29 -116h-56l-50 105q-16 35 -16 60q0 24 16.5 40.5t41.5 16.5zM396 238h-92q-64 0 -92.5 -20t-28.5 -62t36 -67t100 -25q100 0 182 55l50 -62q-94 -69 -238 -69q-103 0 -168 43.5t-65 120.5q0 59 33.5 90t99.5 40
q-112 24 -112 116q0 67 61 104.5t154 37.5q126 0 204 -55l-46 -57q-64 37 -152 37q-122 0 -122 -77q0 -35 29 -55.5t81 -20.5h97z" />
    <glyph glyph-name="uni1F12" unicode="&#x1f12;" 
d="M230 804q25 0 41.5 -16t16.5 -41q0 -24 -16 -59l-50 -106h-56l29 117q-23 18 -23 48q0 25 16.5 41t41.5 16zM404 799l46 -207l-61 -17l-71 203zM396 238h-92q-64 0 -92.5 -20t-28.5 -62t36 -67t100 -25q100 0 182 55l50 -62q-94 -69 -238 -69q-103 0 -168 43.5t-65 120.5
q0 59 33.5 90t99.5 40q-112 24 -112 116q0 67 61 104.5t154 37.5q126 0 204 -55l-46 -57q-64 37 -152 37q-122 0 -122 -77q0 -35 29 -55.5t81 -20.5h97z" />
    <glyph glyph-name="uni1F13" unicode="&#x1f13;" 
d="M204 804q25 0 41.5 -16.5t16.5 -40.5q0 -29 -23 -49l29 -116h-56l-50 105q-16 35 -16 60q0 24 16.5 40.5t41.5 16.5zM383 799l46 -207l-61 -17l-71 203zM396 238h-92q-64 0 -92.5 -20t-28.5 -62t36 -67t100 -25q100 0 182 55l50 -62q-94 -69 -238 -69q-103 0 -168 43.5
t-65 120.5q0 59 33.5 90t99.5 40q-112 24 -112 116q0 67 61 104.5t154 37.5q126 0 204 -55l-46 -57q-64 37 -152 37q-122 0 -122 -77q0 -35 29 -55.5t81 -20.5h97z" />
    <glyph glyph-name="uni1F14" unicode="&#x1f14;" 
d="M274 804q25 0 41.5 -16t16.5 -41q0 -24 -16 -59l-50 -106h-56l29 117q-23 18 -23 48q0 25 16.5 41t41.5 16zM403 799l86 -21l-71 -203l-62 17zM396 238h-92q-64 0 -92.5 -20t-28.5 -62t36 -67t100 -25q100 0 182 55l50 -62q-94 -69 -238 -69q-103 0 -168 43.5t-65 120.5
q0 59 33.5 90t99.5 40q-112 24 -112 116q0 67 61 104.5t154 37.5q126 0 204 -55l-46 -57q-64 37 -152 37q-122 0 -122 -77q0 -35 29 -55.5t81 -20.5h97z" />
    <glyph glyph-name="uni1F15" unicode="&#x1f15;" 
d="M243 805q25 0 41.5 -16.5t16.5 -40.5q0 -29 -23 -49l29 -116h-56l-50 105q-16 35 -16 60q0 24 16.5 40.5t41.5 16.5zM378 799l86 -21l-71 -203l-62 17zM396 238h-92q-64 0 -92.5 -20t-28.5 -62t36 -67t100 -25q100 0 182 55l50 -62q-94 -69 -238 -69q-103 0 -168 43.5
t-65 120.5q0 59 33.5 90t99.5 40q-112 24 -112 116q0 67 61 104.5t154 37.5q126 0 204 -55l-46 -57q-64 37 -152 37q-122 0 -122 -77q0 -35 29 -55.5t81 -20.5h97z" />
    <glyph glyph-name="uni1F18" unicode="&#x1f18;" 
d="M25 706q25 0 41.5 -16t16.5 -41q0 -24 -16 -59l-50 -106h-56l29 117q-23 18 -23 48q0 25 16.5 41t41.5 16zM219 611v-222h254v-78h-254v-233h310v-78h-409v689h402l-12 -78h-291z" />
    <glyph glyph-name="uni1F19" unicode="&#x1f19;" 
d="M4 706q25 0 41.5 -16.5t16.5 -40.5q0 -29 -23 -49l29 -116h-56l-50 105q-16 35 -16 60q0 24 16.5 40.5t41.5 16.5zM219 611v-222h254v-78h-254v-233h310v-78h-409v689h402l-12 -78h-291z" />
    </font>
</defs>
</svg>
