<?xml version="1.0" standalone="no"?>
<!DOCTYPE svg PUBLIC "-//W3C//DTD SVG 1.1//EN" "http://www.w3.org/Graphics/SVG/1.1/DTD/svg11.dtd" >
<svg xmlns="http://www.w3.org/2000/svg" xmlns:xlink="http://www.w3.org/1999/xlink" version="1.1">
<metadata>
Created by FontForge 20170731 at Mon Oct  1 03:30:37 2018
 By Aleksey,,,
Copyright (c) 2015 by Nikita Prokopov
</metadata>
<defs>
<font id="FiraCode-Regular" horiz-adv-x="600" >
  <font-face 
    font-family="Fira Code"
    font-weight="400"
    font-stretch="normal"
    units-per-em="1000"
    panose-1="2 11 5 9 5 0 0 2 0 4"
    ascent="800"
    descent="-200"
    x-height="527"
    cap-height="689"
    bbox="-1777 -500 1192 1050"
    underline-thickness="50"
    underline-position="-200"
    unicode-range="U+000D-1F310"
  />
<missing-glyph 
d="M90 1050h420v-1400h-420v1400zM456 -298v1296h-311v-1296h311zM307 173q0 -11 -7.5 -17.5t-17.5 -6.5t-17.5 6.5t-7.5 17.5v84q53 3 72 19.5t19 57.5q0 33 -13 51t-48 18q-29 0 -52 -11q-7 -3 -13 -3q-24 0 -24 23q0 19 29.5 29t63.5 10q111 0 111 -115q0 -104 -95 -118
v-45zM247 85q0 15 10 25t25 10t25 -10t10 -25q0 -16 -10 -26.5t-25 -10.5t-25 10.5t-10 26.5z" />
    <glyph glyph-name=".notdef" 
d="M90 1050h420v-1400h-420v1400zM456 -298v1296h-311v-1296h311zM307 173q0 -11 -7.5 -17.5t-17.5 -6.5t-17.5 6.5t-7.5 17.5v84q53 3 72 19.5t19 57.5q0 33 -13 51t-48 18q-29 0 -52 -11q-7 -3 -13 -3q-24 0 -24 23q0 19 29.5 29t63.5 10q111 0 111 -115q0 -104 -95 -118
v-45zM247 85q0 15 10 25t25 10t25 -10t10 -25q0 -16 -10 -26.5t-25 -10.5t-25 10.5t-10 26.5z" />
    <glyph glyph-name=".null" horiz-adv-x="0" 
 />
    <glyph glyph-name="nonmarkingreturn" horiz-adv-x="333" 
 />
    <glyph glyph-name="CR" unicode="&#xd;" 
 />
    <glyph glyph-name="space" unicode=" " 
 />
    <glyph glyph-name="exclam" unicode="!" 
d="M345 689l-9 -462h-75l-10 462h94zM299 123q29 0 48 -19.5t19 -47.5q0 -29 -19 -48t-48 -19t-48 19.5t-19 47.5t19.5 47.5t47.5 19.5z" />
    <glyph glyph-name="quotedbl" unicode="&#x22;" 
d="M179 479l-15 260h105l-16 -260h-74zM347 479l-16 260h105l-15 -260h-74z" />
    <glyph glyph-name="numbersign" unicode="#" 
d="M458 456l-29 -222h81v-64h-91l-21 -170h-71l22 170h-145l-23 -170h-71l22 170h-79v64h87l31 222h-81v66h89l23 167h71l-23 -167h146l23 167h71l-23 -167h80v-66h-89zM212 234h145l31 222h-147z" />
    <glyph glyph-name="dollar" unicode="$" 
d="M346 848v-150q106 -11 183 -80l-51 -53q-59 54 -132 63v-227q41 -14 72.5 -30.5t60 -41.5t44 -60.5t15.5 -79.5q0 -75 -50 -129.5t-142 -66.5v-146h-68v143q-120 6 -209 93l50 56q71 -71 159 -78v276q-183 61 -183 191q0 64 47.5 112.5t135.5 57.5v150h68zM278 626
q-43 -7 -68.5 -31.5t-25.5 -65.5q0 -37 20.5 -61t73.5 -45v203zM346 314v-249q101 20 101 123q0 43 -23 73t-78 53z" />
    <glyph glyph-name="percent" unicode="%" 
d="M505 707l53 -35l-473 -692l-53 35zM166 700q68 0 107.5 -46.5t39.5 -114.5q0 -66 -39.5 -113.5t-107.5 -47.5q-67 0 -107 47.5t-40 113.5q0 68 40 114.5t107 46.5zM166 640q-31 0 -50.5 -26t-19.5 -75q0 -47 19.5 -74.5t50.5 -27.5q32 0 50.5 25.5t18.5 76.5
q0 101 -69 101zM436 316q68 0 107.5 -46.5t39.5 -113.5t-39.5 -114.5t-107.5 -47.5q-67 0 -107 47.5t-40 114.5t40 113.5t107 46.5zM436 256q-32 0 -51 -25t-19 -75q0 -48 19.5 -75.5t50.5 -27.5q32 0 50.5 25.5t18.5 77.5q0 100 -69 100z" />
    <glyph glyph-name="ampersand" unicode="&#x26;" 
d="M279 699q49 0 88.5 -16t78.5 -59l-50 -46q-52 58 -118 58q-52 0 -79 -28t-27 -74t36 -80t88 -34h278v-67h-90v-272q-73 -92 -207 -92q-110 0 -166.5 60.5t-56.5 145.5q0 77 40.5 126.5t115.5 65.5v3q-120 28 -120 144q0 69 52 117t137 48zM407 353h-124q-71 0 -109 -47.5
t-38 -107.5t36 -100.5t107 -40.5q87 0 128 52v244z" />
    <glyph glyph-name="quotesingle" unicode="'" 
d="M263 479l-16 260h106l-16 -260h-74z" />
    <glyph glyph-name="parenleft" unicode="(" 
d="M213 350q0 -149 49.5 -245.5t163.5 -198.5l-43 -46q-65 53 -109.5 101.5t-80 107t-52 128t-16.5 153.5t16.5 153.5t52 128t80 107t109.5 101.5l43 -46q-115 -102 -164 -198t-49 -246z" />
    <glyph glyph-name="parenright" unicode=")" 
d="M387 350q0 150 -49 246t-164 198l43 46q65 -53 109.5 -101.5t80 -107t52 -128t16.5 -153.5t-16.5 -153.5t-52 -128t-80 -107t-109.5 -101.5l-43 46q114 102 163.5 198.5t49.5 245.5z" />
    <glyph glyph-name="asterisk" unicode="*" 
d="M258 578l6 -202l-190 68l-26 -79l194 -58l-123 -160l67 -49l114 168l114 -168l67 49l-123 160l194 58l-26 79l-190 -68l6 202h-84z" />
    <glyph glyph-name="plus" unicode="+" 
d="M338 545v-199h196v-70h-196v-199h-78v199h-194v70h194v199h78z" />
    <glyph glyph-name="comma" unicode="," 
d="M300 165q34 0 57.5 -23.5t23.5 -56.5q0 -37 -19 -79l-81 -185h-76l47 197q-32 24 -32 66q0 34 23 57.5t57 23.5z" />
    <glyph glyph-name="hyphen" unicode="-" 
d="M100 277v72h400v-72h-400z" />
    <glyph glyph-name="period" unicode="." 
d="M211 77q0 37 25.5 62.5t62.5 25.5q38 0 63 -25.5t25 -62.5q0 -38 -25 -63t-63 -25q-37 0 -62.5 25.5t-25.5 62.5z" />
    <glyph glyph-name="slash" unicode="/" 
d="M121 -103l-68 30l427 882l67 -32z" />
    <glyph glyph-name="zero" unicode="0" 
d="M300 700q110 0 167.5 -91.5t57.5 -263.5q0 -173 -57.5 -264.5t-167.5 -91.5t-167.5 91.5t-57.5 264.5q0 172 57.5 263.5t167.5 91.5zM300 632q-137 0 -137 -287q0 -114 18 -180l210 423q-32 44 -91 44zM300 57q137 0 137 288q0 115 -18 181l-209 -426q32 -43 90 -43z" />
    <glyph glyph-name="one" unicode="1" 
d="M374 68h143v-68h-397v68h169v529l-157 -95l-37 59l205 128h74v-621z" />
    <glyph glyph-name="two" unicode="2" 
d="M269 700q95 0 151.5 -54t56.5 -138q0 -93 -66 -184.5t-242 -251.5h324l-10 -72h-410v68q196 187 256 270t60 167q0 58 -33 91t-91 33q-49 0 -81.5 -16.5t-66.5 -56.5l-58 45q81 99 210 99z" />
    <glyph glyph-name="three" unicode="3" 
d="M269 700q95 0 153 -50t58 -123q0 -60 -39 -104.5t-95 -55.5q65 -5 110.5 -49t45.5 -120q0 -90 -66.5 -149.5t-172.5 -59.5q-61 0 -117.5 23t-93.5 68l56 46q58 -68 153 -68q72 0 112.5 37.5t40.5 102.5q0 131 -143 131h-57l10 67h41q54 0 92 30.5t38 89.5
q0 55 -36.5 85.5t-93.5 30.5q-77 0 -146 -63l-46 51q84 80 196 80z" />
    <glyph glyph-name="four" unicode="4" 
d="M528 235v-68h-89v-167h-81v167h-286v62l202 471l70 -30l-183 -435h198l7 195h73v-195h89z" />
    <glyph glyph-name="five" unicode="5" 
d="M487 689l-12 -68h-272v-217q53 30 118 30q86 0 137.5 -57t51.5 -159q0 -104 -63.5 -166.5t-169.5 -62.5q-115 0 -200 82l52 51q63 -64 148 -64q69 0 107 42t38 121q0 147 -125 147q-41 0 -107 -23h-68v344h365z" />
    <glyph glyph-name="six" unicode="6" 
d="M330 448q84 0 139.5 -55.5t55.5 -160.5q0 -112 -62 -177.5t-155 -65.5q-229 0 -229 336q0 173 68 274t188 101q75 0 137 -41l-33 -56q-49 29 -105 29q-78 0 -123 -74.5t-47 -201.5q62 92 166 92zM308 57q64 0 97.5 45.5t33.5 126.5q0 151 -122 151q-94 0 -152 -97
q2 -118 36 -172t107 -54z" />
    <glyph glyph-name="seven" unicode="7" 
d="M230 -9l-78 23l268 605h-323v70h408v-65z" />
    <glyph glyph-name="eight" unicode="8" 
d="M506 525q0 -90 -119 -156q70 -29 109 -76t39 -108q0 -86 -65 -141t-172 -55q-108 0 -170.5 55t-62.5 139q0 115 139 180q-57 27 -83.5 63.5t-26.5 93.5q0 87 64 133.5t142 46.5q83 0 144.5 -45t61.5 -130zM176 519q0 -29 9 -48.5t33.5 -34.5t44.5 -23t65 -23
q51 30 73.5 58.5t22.5 72.5q0 52 -32.5 82.5t-91.5 30.5t-91.5 -30t-32.5 -85zM446 183q0 27 -10 48.5t-22 35t-42 28.5t-48.5 22t-62.5 22q-107 -50 -107 -156q0 -59 37 -92.5t107 -33.5t109 35t39 91z" />
    <glyph glyph-name="nine" unicode="9" 
d="M289 699q113 0 169 -70t56 -196q0 -110 -20 -184.5t-68 -126t-112 -83t-167 -60.5l-20 64q147 38 221.5 106t76.5 188q-56 -82 -161 -85q-88 -1 -143 59t-55 161q0 107 63 167t160 60zM279 320q87 1 148 91q2 121 -31 170.5t-107 49.5q-135 0 -135 -162
q0 -77 32.5 -113.5t92.5 -35.5z" />
    <glyph glyph-name="colon" unicode=":" 
d="M219 431q0 33 23 56.5t57 23.5q35 0 58 -23.5t23 -56.5q0 -34 -23 -58t-58 -24q-34 0 -57 24t-23 58zM219 70q0 33 23 57t57 24q35 0 58 -23.5t23 -57.5q0 -35 -23 -58t-58 -23q-34 0 -57 23t-23 58z" />
    <glyph glyph-name="semicolon" unicode=";" 
d="M299 511q35 0 58 -23.5t23 -56.5q0 -34 -23 -58t-58 -24q-34 0 -57 24t-23 58q0 33 23 56.5t57 23.5zM299 166q34 0 57.5 -23.5t23.5 -57.5q0 -36 -19 -79l-82 -186h-76l48 198q-32 24 -32 67q0 34 23 57.5t57 23.5z" />
    <glyph glyph-name="less" unicode="&#x3c;" 
d="M472 594l41 -64l-353 -217l353 -219l-45 -61l-380 237v87z" />
    <glyph glyph-name="equal" unicode="=" 
d="M494 442v-72h-388v72h388zM494 252v-72h-388v72h388z" />
    <glyph glyph-name="greater" unicode="&#x3e;" 
d="M129 594l384 -238v-86l-380 -237l-45 62l353 218l-353 217z" />
    <glyph glyph-name="question" unicode="?" 
d="M299 700q89 0 143.5 -46.5t54.5 -108.5q0 -44 -18.5 -76t-45 -51.5t-53.5 -38.5t-45.5 -48.5t-18.5 -69.5v-34h-84v39q0 45 18 79t44 55.5t52.5 40.5t44.5 43.5t18 55.5q0 42 -33 66t-85 24q-81 0 -142 -74l-59 45q84 99 209 99zM277 123q29 0 48 -19.5t19 -47.5
q0 -29 -19 -48t-48 -19t-48 19.5t-19 47.5t19.5 47.5t47.5 19.5z" />
    <glyph glyph-name="at" unicode="@" 
d="M284 700q75 0 130.5 -24.5t87.5 -62.5t51.5 -94.5t26 -111t6.5 -122.5q0 -201 -30.5 -288.5t-116.5 -87.5q-57 0 -88 48.5t-30 94.5h-4q-40 -98 -137 -98q-78 0 -114 61.5t-36 167.5q0 129 50.5 193.5t145.5 64.5q72 0 141 -37v-296q0 -74 18.5 -102.5t51.5 -28.5
q22 0 35.5 20t19 69.5t6.5 88.5t1 121v8q0 79 -8 135t-30 106t-66 75.5t-110 25.5q-124 0 -227 -92l-49 57q127 109 275 109zM229 379q-66 0 -92 -47t-26 -149q0 -166 79 -166q23 0 41 8t30 23t18 26t12 26q1 3 2 5v260q-29 14 -64 14z" />
    <glyph glyph-name="A" unicode="A" 
d="M434 176h-273l-55 -176h-86l225 689h110l224 -689h-90zM184 248h227l-113 367z" />
    <glyph glyph-name="B" unicode="B" 
d="M540 196q0 -54 -22 -93.5t-60 -61t-82 -31.5t-94 -10h-186v689h170q49 0 90 -8.5t77 -27.5t56.5 -54t20.5 -84q0 -62 -37 -99.5t-92 -50.5q159 -27 159 -169zM421 510q0 108 -135 108h-103v-222h111q127 0 127 114zM448 193q0 131 -148 131h-117v-252h114q151 0 151 121z
" />
    <glyph glyph-name="C" unicode="C" 
d="M358 700q64 0 110 -16.5t90 -50.5l-49 -57q-61 51 -145 51q-93 0 -151.5 -67.5t-58.5 -214.5q0 -146 57 -214t152 -68q87 0 160 57l45 -56q-77 -75 -206 -75q-131 0 -215 94t-84 262q0 167 84.5 261t210.5 94z" />
    <glyph glyph-name="D" unicode="D" 
d="M553 348q0 -83 -19 -146.5t-49 -101t-72.5 -61t-83.5 -31.5t-88 -8h-158v689h147q53 0 96.5 -7.5t87 -30t73 -59.5t48 -99t18.5 -145zM460 348q0 85 -18.5 142.5t-51.5 83.5t-65 35t-74 9h-81v-548h82q41 0 75 12t65.5 41t49.5 86t18 139z" />
    <glyph glyph-name="E" unicode="E" 
d="M212 617v-232h256v-71h-256v-244h314v-70h-400v689h391l-10 -72h-295z" />
    <glyph glyph-name="F" unicode="F" 
d="M225 617v-241h270v-70h-270v-306h-87v689h406l-10 -72h-309z" />
    <glyph glyph-name="G" unicode="G" 
d="M314 -11q-126 0 -197.5 90.5t-71.5 265.5q0 169 84.5 262t204.5 93q65 0 109 -18t87 -58l-52 -54q-61 57 -144 57q-84 0 -140 -67t-56 -215q0 -147 45.5 -215t137.5 -68q73 0 131 33v209h-135l-10 73h232v-328q-106 -60 -225 -60z" />
    <glyph glyph-name="H" unicode="H" 
d="M430 0v327h-260v-327h-87v689h87v-291h260v291h87v-689h-87z" />
    <glyph glyph-name="I" unicode="I" 
d="M497 689v-70h-153v-550h153v-69h-394v69h153v550h-153v70h394z" />
    <glyph glyph-name="J" unicode="J" 
d="M497 689v-460q0 -46 -12 -86.5t-37.5 -76.5t-73.5 -57t-113 -21q-105 0 -188 63l38 57q75 -47 149 -47q72 0 111 45.5t39 126.5v385h-204v71h291z" />
    <glyph glyph-name="K" unicode="K" 
d="M192 0h-87v689h87v-689zM197 368l270 321h101l-269 -316l288 -373h-109z" />
    <glyph glyph-name="L" unicode="L" 
d="M136 0v689h86v-612h315l-11 -77h-390z" />
    <glyph glyph-name="M" unicode="M" 
d="M531 689l39 -689h-84l-21 360q-6 95 -6 249l-116 -485h-87l-124 485q6 -113 -2 -249l-18 -360h-82l39 689h121l112 -472l107 472h122z" />
    <glyph glyph-name="N" unicode="N" 
d="M395 0l-243 605q12 -180 12 -260v-345h-81v689h118l247 -608q0 5 -3.5 48.5t-6 101.5t-2.5 113v345h81v-689h-122z" />
    <glyph glyph-name="O" unicode="O" 
d="M553 344q0 -161 -65.5 -258t-187.5 -97q-123 0 -188 95t-65 259q0 161 65.5 259t187.5 98t187.5 -96.5t65.5 -259.5zM463 344q0 141 -39 212t-124 71t-124 -71.5t-39 -212.5q0 -281 163 -281q85 0 124 70.5t39 211.5z" />
    <glyph glyph-name="P" unicode="P" 
d="M557 477q0 -115 -71 -168t-195 -53h-89v-256h-86v689h175q127 0 196.5 -53t69.5 -159zM464 476q0 144 -162 144h-100v-295h97q78 0 121.5 34t43.5 117z" />
    <glyph glyph-name="Q" unicode="Q" 
d="M554 344q0 -239 -143 -317q74 -15 115.5 -52t66.5 -112l-92 -36q-34 85 -80 124t-131 39q-117 0 -181 95.5t-64 257.5q0 161 66 259t189 98q122 0 188 -96.5t66 -259.5zM463 344q0 141 -39 212t-124 71q-164 0 -164 -284q0 -281 164 -281q85 0 124 70.5t39 211.5z" />
    <glyph glyph-name="R" unicode="R" 
d="M537 495q0 -74 -46 -122.5t-122 -67.5l205 -305h-104l-189 295h-93v-295h-86v689h176q259 0 259 -194zM445 495q0 66 -38 95t-119 29h-100v-256h101q156 0 156 132z" />
    <glyph glyph-name="S" unicode="S" 
d="M537 191q0 -91 -67 -146.5t-185 -55.5q-152 0 -242 87l52 59q79 -74 191 -74q68 0 114 33t46 95q0 51 -31.5 80t-118.5 54q-112 33 -167 77.5t-55 121.5q0 78 62 128t161 50q128 0 220 -79l-52 -56q-71 62 -165 62q-60 0 -99 -26t-39 -76q0 -44 37 -71t136 -56
q97 -28 149.5 -73t52.5 -134z" />
    <glyph glyph-name="T" unicode="T" 
d="M342 614v-614h-87v614h-215v75h519l-9 -75h-208z" />
    <glyph glyph-name="U" unicode="U" 
d="M528 689v-466q0 -105 -62.5 -169.5t-166.5 -64.5q-105 0 -166 64t-61 170v466h87v-469q0 -78 36 -117t104 -39q141 0 141 156v469h88z" />
    <glyph glyph-name="V" unicode="V" 
d="M302 99l186 590h87l-230 -689h-90l-230 689h93z" />
    <glyph glyph-name="W" unicode="W" 
d="M595 689l-104 -689h-114l-79 520l-80 -520h-117l-96 689h87l73 -594l83 514h106l79 -514l82 594h80z" />
    <glyph glyph-name="X" unicode="X" 
d="M49 689h100l151 -265l152 265h93l-195 -317l219 -372h-100l-171 311l-174 -311h-93l216 367z" />
    <glyph glyph-name="Y" unicode="Y" 
d="M344 266v-266h-88v265l-233 424h96l183 -346l185 346h90z" />
    <glyph glyph-name="Z" unicode="Z" 
d="M167 75h360l-10 -75h-445v70l363 544h-327v75h420v-72z" />
    <glyph glyph-name="bracketleft" unicode="[" 
d="M184 -115v930h251v-72h-171v-787h171v-71h-251z" />
    <glyph glyph-name="backslash" unicode="\" 
d="M53 777l66 32l428 -882l-68 -30z" />
    <glyph glyph-name="bracketright" unicode="]" 
d="M416 815v-930h-251v71h171v787h-171v72h251z" />
    <glyph glyph-name="asciicircum" unicode="^" 
d="M337 840l189 -313h-91l-136 237l-135 -237h-90l189 313h74z" />
    <glyph glyph-name="underscore" unicode="_" 
d="M50 -182v74h500v-74h-500z" />
    <glyph glyph-name="grave" unicode="`" 
d="M387 622l-203 93l46 72l184 -119z" />
    <glyph glyph-name="a" unicode="a" 
d="M478 115q0 -31 10 -45.5t33 -21.5l-21 -60q-77 10 -96 75q-57 -74 -165 -74q-79 0 -124.5 44t-45.5 118q0 81 63.5 125t182.5 44h78v43q0 105 -125 105q-60 0 -137 -27l-23 64q93 33 173 33q96 0 146.5 -45t50.5 -125v-253zM260 52q39 0 74.5 20t58.5 55v135h-76
q-158 0 -158 -110q0 -100 101 -100z" />
    <glyph glyph-name="b" unicode="b" 
d="M184 458q61 80 151 80q101 0 149 -72t48 -202q0 -124 -55 -199.5t-154 -75.5q-91 0 -143 66l-6 -55h-74v739l84 10v-291zM304 57q137 0 137 207q0 206 -125 206q-74 0 -132 -84v-261q44 -68 120 -68z" />
    <glyph glyph-name="c" unicode="c" 
d="M339 61q69 0 137 46l40 -55q-33 -29 -82 -46t-95 -17q-117 0 -182.5 73.5t-65.5 198.5q0 122 66.5 199.5t181.5 77.5q102 0 176 -62l-41 -55q-69 46 -136 46q-71 0 -113.5 -52.5t-42.5 -153.5t42.5 -150.5t114.5 -49.5z" />
    <glyph glyph-name="d" unicode="d" 
d="M416 749l84 -10v-739h-74l-8 69q-57 -80 -149 -80q-100 0 -150.5 73t-50.5 201q0 121 55.5 198t150.5 77q87 0 142 -63v274zM296 470q-66 0 -101.5 -52t-35.5 -155q0 -207 127 -207q75 0 130 84v262q-46 68 -120 68z" />
    <glyph glyph-name="e" unicode="e" 
d="M167 234q3 -87 45.5 -131t107.5 -44q70 0 141 47l39 -56q-79 -61 -180 -61q-114 0 -177.5 74.5t-63.5 199.5q0 121 62.5 198t166.5 77q100 0 157.5 -69.5t57.5 -189.5q0 -23 -2 -45h-354zM309 469q-61 0 -99 -43.5t-43 -127.5h274q-1 83 -36 127t-96 44z" />
    <glyph glyph-name="f" unicode="f" 
d="M411 749q75 0 143 -28l-27 -63q-50 22 -113 22q-110 0 -110 -87v-107h178l-9 -67h-169v-419h-85v419h-125v67h125v105q0 71 54.5 114.5t137.5 43.5z" />
    <glyph glyph-name="g" unicode="g" 
d="M529 582l25 -79q-47 -15 -154 -15q92 -42 92 -133q0 -80 -53 -129.5t-145 -49.5q-47 0 -79 11q-27 -22 -27 -51q0 -45 70 -45h95q80 0 133 -41t53 -102q0 -77 -65.5 -118.5t-185.5 -41.5q-122 0 -172 38t-50 121h76q0 -49 30.5 -70t115.5 -21q166 0 166 87q0 36 -33 55.5
t-85 19.5h-94q-65 0 -99 28.5t-34 71.5q0 54 58 92q-88 45 -88 145q0 81 58.5 132t151.5 51q63 0 108.5 6.5t69.5 14t62 23.5zM288 476q-61 0 -92 -32.5t-31 -88.5t31.5 -89.5t93.5 -33.5q56 0 85.5 32.5t29.5 91.5q0 120 -117 120z" />
    <glyph glyph-name="h" unicode="h" 
d="M184 747v-293q31 40 76 62t93 22q148 0 148 -156v-382h-84v381q0 47 -22 68.5t-70 21.5q-41 0 -79 -26t-62 -61v-384h-84v738z" />
    <glyph glyph-name="i" unicode="i" 
d="M300 773q28 0 45 -16.5t17 -42.5t-17 -42.5t-45 -16.5q-27 0 -43.5 16.5t-16.5 42.5t16.5 42.5t43.5 16.5zM367 527v-460h148v-67h-394v67h162v393h-157v67h241z" />
    <glyph glyph-name="j" unicode="j" 
d="M367 773q27 0 44 -16.5t17 -42.5t-17 -42.5t-44 -16.5t-44 16.5t-17 42.5t17 42.5t44 16.5zM445 527v-443q0 -127 -84.5 -197.5t-250.5 -98.5l-14 65q127 21 196 73.5t69 152.5v381h-219v67h303z" />
    <glyph glyph-name="k" unicode="k" 
d="M190 749v-749h-84v739zM541 527l-236 -238l264 -289h-111l-259 288l234 239h108z" />
    <glyph glyph-name="l" unicode="l" 
d="M306 739v-609q0 -71 87 -71q41 0 88 18l22 -61q-50 -27 -125 -27q-71 0 -113.5 39t-42.5 106v538h-162v67h246z" />
    <glyph glyph-name="m" unicode="m" 
d="M447 538q102 0 102 -146v-392h-77v378q0 55 -7 74.5t-34 19.5q-51 0 -92 -63v-409h-78v378q0 55 -7 74.5t-34 19.5q-51 0 -92 -63v-409h-77v527h65l6 -62q50 73 114 73q74 0 95 -70q48 70 116 70z" />
    <glyph glyph-name="n" unicode="n" 
d="M100 0v527h72l7 -74q31 40 78.5 62.5t95.5 22.5q148 0 148 -156v-382h-84v320q0 86 -17 118.5t-73 32.5q-43 0 -81 -26t-62 -62v-383h-84z" />
    <glyph glyph-name="o" unicode="o" 
d="M301 538q109 0 167.5 -73.5t58.5 -200.5q0 -124 -59.5 -199.5t-167.5 -75.5q-109 0 -168 73.5t-59 200.5q0 125 59.5 200t168.5 75zM301 469q-137 0 -137 -206q0 -205 136 -205t136 206q0 205 -135 205z" />
    <glyph glyph-name="p" unicode="p" horiz-adv-x="601" 
d="M336 538q191 0 191 -274q0 -125 -52 -200t-151 -75q-86 0 -140 60v-251l-84 -10v739h72l7 -74q60 85 157 85zM316 470q-74 0 -132 -84v-261q45 -66 121 -66q131 0 131 205q0 206 -120 206z" />
    <glyph glyph-name="q" unicode="q" 
d="M274 538q92 0 147 -69l7 58h72v-739l-84 10v268q-56 -77 -149 -77q-194 0 -194 274q0 122 53 198.5t148 76.5zM295 470q-131 0 -131 -207q0 -204 121 -204q78 0 131 81v262q-44 68 -121 68z" />
    <glyph glyph-name="r" unicode="r" 
d="M456 538q32 0 74 -11l-12 -179h-68v113h-5q-122 0 -173 -174v-222h107v-65h-274v65h83v397h-83v65h146l16 -125q32 68 76.5 102t112.5 34z" />
    <glyph glyph-name="s" unicode="s" 
d="M280 58q60 0 95 23t35 61t-24 59t-103 41q-92 23 -136 55.5t-44 96.5q0 66 55 105t145 39q110 0 192 -58l-38 -58q-69 48 -152 48q-114 0 -114 -69q0 -35 28 -52.5t111 -40.5q86 -23 128.5 -58.5t42.5 -103.5q0 -79 -64 -118t-157 -39q-124 0 -206 71l47 55
q69 -57 159 -57z" />
    <glyph glyph-name="t" unicode="t" 
d="M519 27q-59 -38 -142 -38t-130 43.5t-47 114.5v314h-121v66h121v119l84 10v-129h183l-11 -66h-172v-313q0 -89 101 -89q54 0 101 25z" />
    <glyph glyph-name="u" unicode="u" 
d="M184 527v-374q0 -51 21.5 -74.5t67.5 -23.5q42 0 81 24t62 60v388h84v-527h-72l-7 71q-31 -39 -76.5 -60.5t-92.5 -21.5q-75 0 -113.5 40t-38.5 115v383h84z" />
    <glyph glyph-name="v" unicode="v" 
d="M540 527l-192 -527h-97l-191 527h90l152 -451l150 451h88z" />
    <glyph glyph-name="w" unicode="w" 
d="M491 0h-119l-69 386l-74 -386h-116l-95 527h85l68 -475l84 408h99l79 -408l68 475h81z" />
    <glyph glyph-name="x" unicode="x" 
d="M152 0h-96l194 278l-171 249h100l122 -196l123 196h97l-171 -245l194 -282h-102l-145 226z" />
    <glyph glyph-name="y" unicode="y" 
d="M538 527l-184 -530q-31 -91 -85 -145t-151 -64l-12 67q76 13 110.5 46t56.5 99h-28l-183 527h89l151 -463l149 463h87z" />
    <glyph glyph-name="z" unicode="z" 
d="M205 72h293l-10 -72h-386v64l292 389h-269v74h370v-66z" />
    <glyph glyph-name="braceleft" unicode="{" 
d="M451 836v-67q-61 0 -95 -18.5t-30 -61.5l20 -205q7 -61 -16.5 -92.5t-76.5 -41.5q55 -10 77.5 -40t15.5 -94l-20 -205q-4 -44 30 -62t95 -18v-67q-96 0 -154 36t-49 120l21 190q6 56 -25 81t-127 25v68q96 0 127 24.5t25 79.5l-21 192q-9 84 49 120t154 36z" />
    <glyph glyph-name="bar" unicode="|" 
d="M337 807v-909h-75v909h75z" />
    <glyph glyph-name="braceright" unicode="}" 
d="M149 836q96 0 154 -36t49 -120l-21 -192q-5 -53 29 -78.5t123 -25.5v-68q-90 0 -123.5 -26t-28.5 -80l21 -190q9 -84 -49 -120t-154 -36v67q61 0 95 18t30 62l-20 205q-7 65 17 94.5t87 38.5q-61 11 -86 42t-18 93l20 205q4 43 -30 61.5t-95 18.5v67z" />
    <glyph glyph-name="asciitilde" unicode="~" 
d="M205 401q34 0 64 -15.5t47.5 -34.5t39.5 -34.5t42 -15.5q53 0 99 85l60 -32q-19 -36 -36 -59.5t-51 -45t-75 -21.5q-40 0 -74.5 25t-63.5 50t-55 25q-53 0 -99 -85l-60 30q14 27 26.5 45.5t32 39.5t45.5 32t58 11z" />
    <glyph glyph-name="uni00A0" unicode="&#xa0;" 
 />
    <glyph glyph-name="exclamdown" unicode="&#xa1;" 
d="M299 499q28 0 47.5 -20t19.5 -48t-19.5 -47t-47.5 -19t-47.5 19t-19.5 47q0 29 19.5 48.5t47.5 19.5zM335 260l13 -457h-97l12 457h72z" />
    <glyph glyph-name="cent" unicode="&#xa2;" 
d="M373 683v-150q68 -8 121 -51l-42 -56q-56 41 -116 41q-67 0 -103 -52t-36 -154q0 -200 139 -200q60 0 117 45l41 -60q-52 -44 -121 -52v-147h-75v147q-94 12 -143 82t-49 185q0 111 49.5 184.5t143.5 86.5v151h74z" />
    <glyph glyph-name="sterling" unicode="&#xa3;" 
d="M346 700q117 0 179 -87l-56 -43q-48 59 -120 59q-108 0 -108 -121v-121h206v-58h-206v-124q0 -98 -62 -133h338l-10 -72h-432v68q29 9 46 21.5t24.5 32t9 35t1.5 44.5v128h-82v58h82v128q0 81 51.5 133t138.5 52z" />
    <glyph glyph-name="currency" unicode="&#xa4;" 
d="M89 610l88 -90q55 33 124 33q73 0 121 -33l89 89l55 -54l-87 -88q36 -54 36 -125q0 -68 -37 -127l88 -87l-55 -54l-90 88q-50 -32 -120 -32q-71 0 -123 32l-89 -89l-55 54l89 89q-35 56 -35 126t34 123l-88 91zM301 486q-62 0 -95 -38t-33 -106t33 -105.5t95 -37.5
t94.5 37.5t32.5 105.5t-32.5 106t-94.5 38z" />
    <glyph glyph-name="yen" unicode="&#xa5;" 
d="M561 689l-194 -344h119v-58h-142v-86h142v-59h-142v-142h-88v142h-140v59h140v86h-140v58h116l-193 344h96l166 -317h4l167 317h89z" />
    <glyph glyph-name="brokenbar" unicode="&#xa6;" 
d="M337 807v-355h-75v355h75zM337 253v-355h-75v355h75z" />
    <glyph glyph-name="section" unicode="&#xa7;" 
d="M317 700q93 0 167 -54l-40 -57q-62 42 -133 42q-43 0 -69 -19.5t-26 -50.5q0 -34 24 -53.5t100 -45.5q83 -27 118 -61t35 -91q0 -77 -80 -126q59 -44 59 -108q0 -67 -53.5 -106t-139.5 -39q-98 0 -171 54l40 57q61 -43 136 -43q43 0 71.5 19.5t28.5 51.5q0 34 -24.5 53
t-99.5 44q-83 28 -118.5 61.5t-35.5 91.5q0 75 81 125q-59 45 -59 109q0 66 54.5 106t134.5 40zM239 416q-49 -38 -49 -85q0 -40 26.5 -57.5t125.5 -53.5q12 -5 19 -7q49 40 49 86q0 39 -28.5 57t-142.5 60z" />
    <glyph glyph-name="dieresis" unicode="&#xa8;" 
d="M196 648q-23 0 -39 15.5t-16 37.5q0 24 16 39.5t39 15.5t38.5 -15.5t15.5 -39.5q0 -23 -15.5 -38t-38.5 -15zM403 648q-23 0 -38.5 15t-15.5 38q0 24 15.5 39.5t38.5 15.5t39 -15.5t16 -39.5q0 -22 -16 -37.5t-39 -15.5z" />
    <glyph glyph-name="copyright" unicode="&#xa9;" 
d="M301 747q125 0 197.5 -89t72.5 -223q0 -133 -72.5 -221.5t-197.5 -88.5t-198.5 88.5t-73.5 221.5q0 134 73 223t199 89zM301 697q-104 0 -160 -73.5t-56 -188.5q0 -114 56 -186.5t160 -72.5t159.5 72.5t55.5 186.5t-55.5 188t-159.5 74zM304 625q66 0 118 -39l-36 -47
q-39 30 -78 30q-42 0 -68 -32.5t-26 -100.5q0 -64 25 -96.5t69 -32.5q48 0 86 35l33 -48q-53 -47 -122 -47q-73 0 -118 50t-45 139t47 139t115 50z" />
    <glyph glyph-name="ordfeminine" unicode="&#xaa;" 
d="M290 749q82 0 124 -36.5t42 -103.5v-197q0 -41 34 -51l-19 -54q-64 8 -83 59q-51 -59 -134 -59q-68 0 -110 36.5t-42 96.5q0 66 57 101.5t160 35.5h59v29q0 79 -99 79q-55 0 -122 -25l-23 59q80 30 156 30zM378 520h-58q-133 0 -133 -76q0 -77 86 -77q63 0 105 56v97z
M498 75v-75h-392v75h392z" />
    <glyph glyph-name="guillemotleft" unicode="&#xab;" 
d="M309 87l-51 -32l-176 208v61l176 208l51 -32l-136 -206zM517 87l-51 -32l-177 208v61l177 208l51 -32l-136 -206z" />
    <glyph glyph-name="logicalnot" unicode="&#xac;" 
d="M484 348v-214h-77v142h-291v72h368z" />
    <glyph glyph-name="uni00AD" unicode="&#xad;" 
d="M144 277v72h312v-72h-312z" />
    <glyph glyph-name="registered" unicode="&#xae;" 
d="M300 747q105 0 179 -75t74 -180q0 -106 -74 -179.5t-179 -73.5t-179.5 74t-74.5 179t74.5 180t179.5 75zM300 700q-85 0 -143 -61t-58 -147q0 -87 57.5 -146.5t143.5 -59.5t143 59.5t57 146.5q0 86 -57.5 147t-142.5 61zM286 636q122 0 122 -85q0 -60 -67 -79l86 -118
h-66l-75 109h-29v-109h-56v282h85zM287 592h-30v-86h32q61 0 61 45q0 41 -63 41z" />
    <glyph glyph-name="macron" unicode="&#xaf;" 
d="M434 676h-269v64h269v-64z" />
    <glyph glyph-name="degree" unicode="&#xb0;" 
d="M228 749q66 0 114 -42.5t48 -114.5t-48 -114t-114 -42t-114.5 42.5t-48.5 114.5t48.5 114t114.5 42zM228 689q-37 0 -63 -24.5t-26 -71.5t26 -72.5t63 -25.5t63 25t26 72t-26 72t-63 25z" />
    <glyph glyph-name="plusminus" unicode="&#xb1;" 
d="M340 538v-149h144v-71h-144v-155h-80v155h-144v71h144v149h80zM484 73v-73h-368v73h368z" />
    <glyph glyph-name="uni00B2" unicode="&#xb2;" 
d="M435 536q0 -47 -35.5 -79.5t-133.5 -80.5h179l-9 -61h-277v53q130 79 165 106.5t35 58.5q0 23 -15.5 35.5t-43.5 12.5q-55 0 -95 -48l-51 39q61 70 148 70q62 0 97.5 -29t35.5 -77z" />
    <glyph glyph-name="uni00B3" unicode="&#xb3;" 
d="M308 642q60 0 95 -24t35 -65q0 -28 -16 -44t-55 -23q44 -7 64.5 -24t20.5 -52q0 -46 -41 -73.5t-113 -27.5q-94 0 -151 58l46 39q44 -40 108 -40q76 0 76 46q0 47 -72 47h-46l7 43h35q64 0 64 41q0 44 -62 44q-54 0 -104 -38l-40 41q64 52 149 52z" />
    <glyph glyph-name="acute" unicode="&#xb4;" 
d="M384 797l38 -72l-209 -85l-26 45z" />
    <glyph glyph-name="uni00B5" unicode="&#xb5;" 
d="M484 527v-359q0 -78 27 -168l-79 -12q-18 32 -24 85q-23 -38 -62 -61.5t-79 -23.5t-62 11.5t-42 39.5q9 -65 9 -88v-153l-84 -10v739h84v-296q0 -89 16.5 -128.5t72.5 -39.5q83 0 139 79v385h84z" />
    <glyph glyph-name="paragraph" unicode="&#xb6;" 
d="M556 689v-890l-77 -11v831h-112v-820l-77 -11v501q-118 0 -182.5 55.5t-64.5 142.5q0 88 66.5 145t187.5 57h259z" />
    <glyph glyph-name="periodcentered" unicode="&#xb7;" 
d="M211 342q0 37 25.5 62.5t62.5 25.5q38 0 63 -25.5t25 -62.5q0 -38 -25 -63t-63 -25q-37 0 -62.5 25t-25.5 63z" />
    <glyph glyph-name="cedilla" unicode="&#xb8;" 
d="M340 -141q0 26 -21 35t-65 9l8 113h58v-73q46 -4 69.5 -27.5t23.5 -55.5q0 -47 -35.5 -72.5t-86.5 -25.5q-63 0 -105 24l27 48q30 -16 67 -16q60 0 60 41z" />
    <glyph glyph-name="uni00B9" unicode="&#xb9;" 
d="M330 315v239l-96 -52l-35 49l145 85h57v-321h-71z" />
    <glyph glyph-name="ordmasculine" unicode="&#xba;" 
d="M300 749q94 0 148.5 -59.5t54.5 -160.5q0 -99 -55.5 -160.5t-147.5 -61.5q-93 0 -148.5 60.5t-55.5 161.5q0 98 56 159t148 61zM300 685q-56 0 -88 -39t-32 -117q0 -79 31.5 -118t88.5 -39q56 0 87.5 39t31.5 118q0 78 -31.5 117t-87.5 39zM497 75v-75h-393v75h393z" />
    <glyph glyph-name="guillemotright" unicode="&#xbb;" 
d="M217 294l-135 206l51 32l176 -208v-61l-176 -208l-51 32zM424 294l-135 206l51 32l177 -208v-61l-177 -208l-51 32z" />
    <glyph glyph-name="onequarter" unicode="&#xbc;" 
d="M129 368v239l-96 -52l-35 49l145 85h57v-321h-71zM44 184l-30 54l535 256l29 -54zM546 56v-56h-73v56h-179v48l136 227l61 -25l-115 -191h97l6 86h67v-86h55v-59h-55z" />
    <glyph glyph-name="onehalf" unicode="&#xbd;" 
d="M126 368v239l-96 -52l-35 49l145 85h57v-321h-71zM40 184l-30 54l535 256l29 -54zM594 221q0 -47 -35.5 -79.5t-133.5 -80.5h179l-9 -61h-277v53q130 79 165 106.5t35 58.5q0 23 -15.5 35.5t-43.5 12.5q-55 0 -95 -48l-51 39q61 70 148 70q62 0 97.5 -29t35.5 -77z" />
    <glyph glyph-name="threequarters" unicode="&#xbe;" 
d="M158 695q60 0 95 -24t35 -65q0 -28 -16 -44t-55 -23q44 -7 64.5 -24t20.5 -52q0 -46 -41 -73.5t-113 -27.5q-94 0 -151 58l46 39q44 -40 108 -40q76 0 76 46q0 47 -72 47h-46l7 43h35q64 0 64 41q0 44 -62 44q-54 0 -104 -38l-40 41q64 52 149 52zM54 184l-30 54l535 256
l29 -54zM548 56v-56h-73v56h-179v48l136 227l61 -25l-115 -191h97l6 86h67v-86h55v-59h-55z" />
    <glyph glyph-name="questiondown" unicode="&#xbf;" 
d="M324 499q28 0 47.5 -20t19.5 -48t-19.5 -47t-47.5 -19t-47.5 19t-19.5 47q0 29 19.5 48.5t47.5 19.5zM370 260v-38q0 -45 -18.5 -79.5t-44.5 -55.5t-52 -40t-44.5 -43.5t-18.5 -55.5q0 -42 33 -66t85 -24q84 0 142 74l60 -45q-84 -99 -210 -99q-88 0 -142.5 46.5
t-54.5 108.5q0 37 13.5 66t33.5 45.5t43 34.5t43 34t33.5 42.5t13.5 60.5v34h85z" />
    <glyph glyph-name="Agrave" unicode="&#xc0;" 
d="M231 909l185 -108l-26 -46l-205 82zM434 176h-273l-55 -176h-86l225 689h110l224 -689h-90zM184 248h227l-113 367z" />
    <glyph glyph-name="Aacute" unicode="&#xc1;" 
d="M383 906l37 -72l-213 -79l-22 46zM434 176h-273l-55 -176h-86l225 689h110l224 -689h-90zM184 248h227l-113 367z" />
    <glyph glyph-name="Acircumflex" unicode="&#xc2;" 
d="M329 910l134 -107l-37 -43l-126 81l-125 -81l-38 43l135 107h57zM434 176h-273l-55 -176h-86l225 689h110l224 -689h-90zM184 248h227l-113 367z" />
    <glyph glyph-name="Atilde" unicode="&#xc3;" 
d="M358 778q-28 0 -64 24t-52 24q-28 0 -53 -46l-53 26q41 85 106 85q30 0 65 -24.5t51 -24.5q27 0 53 45l54 -27q-38 -82 -107 -82zM434 176h-273l-55 -176h-86l225 689h110l224 -689h-90zM184 248h227l-113 367z" />
    <glyph glyph-name="Adieresis" unicode="&#xc4;" 
d="M196 767q-23 0 -39 15.5t-16 37.5q0 24 16 39.5t39 15.5t38.5 -15.5t15.5 -39.5q0 -23 -15.5 -38t-38.5 -15zM403 767q-23 0 -38.5 15t-15.5 38q0 24 15.5 39.5t38.5 15.5t39 -15.5t16 -39.5q0 -22 -16 -37.5t-39 -15.5zM434 176h-273l-55 -176h-86l225 689h110l224 -689
h-90zM184 248h227l-113 367z" />
    <glyph glyph-name="Aring" unicode="&#xc5;" 
d="M300 943q48 0 79.5 -30t31.5 -73t-31.5 -72.5t-79.5 -29.5t-79.5 29.5t-31.5 72.5t31.5 73t79.5 30zM300 896q-25 0 -39.5 -15t-14.5 -41q0 -27 14.5 -42t39.5 -15q26 0 40 15t14 42q0 26 -14.5 41t-39.5 15zM434 176h-273l-55 -176h-86l225 689h110l224 -689h-90z
M184 248h227l-113 367z" />
    <glyph glyph-name="AE" unicode="&#xc6;" 
d="M330 175h-204l-49 -175h-89l202 689h376l-10 -71h-236l51 -233h186v-71h-173l52 -243h171v-71h-241zM148 248h166l-73 372z" />
    <glyph glyph-name="Ccedilla" unicode="&#xc7;" 
d="M370 -57q46 -4 69.5 -27.5t23.5 -55.5q0 -47 -35.5 -72.5t-86.5 -25.5q-63 0 -105 24l27 48q30 -16 67 -16q60 0 60 41q0 26 -21 35t-65 9l6 90q-111 18 -179 109.5t-68 242.5q0 167 84.5 261t210.5 94q64 0 110 -16.5t90 -50.5l-49 -57q-61 51 -145 51
q-93 0 -151.5 -67.5t-58.5 -214.5q0 -146 57 -214t152 -68q87 0 160 57l45 -56q-74 -72 -198 -75v-46z" />
    <glyph glyph-name="Egrave" unicode="&#xc8;" 
d="M252 909l185 -108l-26 -46l-205 82zM212 617v-232h256v-71h-256v-244h314v-70h-400v689h391l-10 -72h-295z" />
    <glyph glyph-name="Eacute" unicode="&#xc9;" 
d="M404 906l37 -72l-213 -79l-22 46zM212 617v-232h256v-71h-256v-244h314v-70h-400v689h391l-10 -72h-295z" />
    <glyph glyph-name="Ecircumflex" unicode="&#xca;" 
d="M350 910l134 -107l-37 -43l-126 81l-125 -81l-38 43l135 107h57zM212 617v-232h256v-71h-256v-244h314v-70h-400v689h391l-10 -72h-295z" />
    <glyph glyph-name="Edieresis" unicode="&#xcb;" 
d="M217 767q-23 0 -39 15.5t-16 37.5q0 24 16 39.5t39 15.5t38.5 -15.5t15.5 -39.5q0 -23 -15.5 -38t-38.5 -15zM424 767q-23 0 -38.5 15t-15.5 38q0 24 15.5 39.5t38.5 15.5t39 -15.5t16 -39.5q0 -22 -16 -37.5t-39 -15.5zM212 617v-232h256v-71h-256v-244h314v-70h-400
v689h391l-10 -72h-295z" />
    <glyph glyph-name="Igrave" unicode="&#xcc;" 
d="M231 909l185 -108l-26 -46l-205 82zM497 689v-70h-153v-550h153v-69h-394v69h153v550h-153v70h394z" />
    <glyph glyph-name="Iacute" unicode="&#xcd;" 
d="M383 906l37 -72l-213 -79l-22 46zM497 689v-70h-153v-550h153v-69h-394v69h153v550h-153v70h394z" />
    <glyph glyph-name="Icircumflex" unicode="&#xce;" 
d="M329 910l134 -107l-37 -43l-126 81l-125 -81l-38 43l135 107h57zM497 689v-70h-153v-550h153v-69h-394v69h153v550h-153v70h394z" />
    <glyph glyph-name="Idieresis" unicode="&#xcf;" 
d="M196 767q-23 0 -39 15.5t-16 37.5q0 24 16 39.5t39 15.5t38.5 -15.5t15.5 -39.5q0 -23 -15.5 -38t-38.5 -15zM403 767q-23 0 -38.5 15t-15.5 38q0 24 15.5 39.5t38.5 15.5t39 -15.5t16 -39.5q0 -22 -16 -37.5t-39 -15.5zM497 689v-70h-153v-550h153v-69h-394v69h153v550
h-153v70h394z" />
    <glyph glyph-name="Eth" unicode="&#xd0;" 
d="M240 689q53 0 96.5 -7.5t87 -30t73 -59.5t48 -99t18.5 -145t-19 -146.5t-49 -101t-72.5 -61t-83.5 -31.5t-88 -8h-158v320h-73v66h73v303h147zM262 70q41 0 75 12t65.5 41t49.5 86t18 139q0 85 -18.5 142.5t-51.5 83.5t-65 35t-74 9h-81v-232h158v-66h-158v-250h82z" />
    <glyph glyph-name="Ntilde" unicode="&#xd1;" 
d="M357 778q-28 0 -64 24t-52 24q-28 0 -53 -46l-53 26q41 85 106 85q30 0 65 -24.5t51 -24.5q27 0 53 45l54 -27q-38 -82 -107 -82zM395 0l-243 605q12 -180 12 -260v-345h-81v689h118l247 -608q0 5 -3.5 48.5t-6 101.5t-2.5 113v345h81v-689h-122z" />
    <glyph glyph-name="Ograve" unicode="&#xd2;" 
d="M231 909l185 -108l-26 -46l-205 82zM553 344q0 -161 -65.5 -258t-187.5 -97q-123 0 -188 95t-65 259q0 161 65.5 259t187.5 98t187.5 -96.5t65.5 -259.5zM463 344q0 141 -39 212t-124 71t-124 -71.5t-39 -212.5q0 -281 163 -281q85 0 124 70.5t39 211.5z" />
    <glyph glyph-name="Oacute" unicode="&#xd3;" 
d="M383 906l37 -72l-213 -79l-22 46zM553 344q0 -161 -65.5 -258t-187.5 -97q-123 0 -188 95t-65 259q0 161 65.5 259t187.5 98t187.5 -96.5t65.5 -259.5zM463 344q0 141 -39 212t-124 71t-124 -71.5t-39 -212.5q0 -281 163 -281q85 0 124 70.5t39 211.5z" />
    <glyph glyph-name="Ocircumflex" unicode="&#xd4;" 
d="M329 910l134 -107l-37 -43l-126 81l-125 -81l-38 43l135 107h57zM553 344q0 -161 -65.5 -258t-187.5 -97q-123 0 -188 95t-65 259q0 161 65.5 259t187.5 98t187.5 -96.5t65.5 -259.5zM463 344q0 141 -39 212t-124 71t-124 -71.5t-39 -212.5q0 -281 163 -281
q85 0 124 70.5t39 211.5z" />
    <glyph glyph-name="Otilde" unicode="&#xd5;" 
d="M358 778q-28 0 -64 24t-52 24q-28 0 -53 -46l-53 26q41 85 106 85q30 0 65 -24.5t51 -24.5q27 0 53 45l54 -27q-38 -82 -107 -82zM553 344q0 -161 -65.5 -258t-187.5 -97q-123 0 -188 95t-65 259q0 161 65.5 259t187.5 98t187.5 -96.5t65.5 -259.5zM463 344
q0 141 -39 212t-124 71t-124 -71.5t-39 -212.5q0 -281 163 -281q85 0 124 70.5t39 211.5z" />
    <glyph glyph-name="Odieresis" unicode="&#xd6;" 
d="M196 767q-23 0 -39 15.5t-16 37.5q0 24 16 39.5t39 15.5t38.5 -15.5t15.5 -39.5q0 -23 -15.5 -38t-38.5 -15zM403 767q-23 0 -38.5 15t-15.5 38q0 24 15.5 39.5t38.5 15.5t39 -15.5t16 -39.5q0 -22 -16 -37.5t-39 -15.5zM553 344q0 -161 -65.5 -258t-187.5 -97
q-123 0 -188 95t-65 259q0 161 65.5 259t187.5 98t187.5 -96.5t65.5 -259.5zM463 344q0 141 -39 212t-124 71t-124 -71.5t-39 -212.5q0 -281 163 -281q85 0 124 70.5t39 211.5z" />
    <glyph glyph-name="multiply" unicode="&#xd7;" 
d="M423 483l52 -53l-123 -123l123 -123l-52 -52l-123 123l-123 -123l-52 52l123 123l-123 123l52 53l123 -124z" />
    <glyph glyph-name="Oslash" unicode="&#xd8;" 
d="M434 659q119 -87 119 -315q0 -161 -65.5 -258t-187.5 -97q-28 0 -63 7l-33 -106l-75 19l38 120q-120 85 -120 314q0 161 65.5 259t187.5 98q33 0 65 -8l32 111l75 -20zM138 343q0 -185 60 -245l150 523q-21 6 -48 6q-85 0 -123.5 -71.5t-38.5 -212.5zM300 62
q85 0 123.5 70.5t38.5 211.5q0 188 -60 247l-150 -523q21 -6 48 -6z" />
    <glyph glyph-name="Ugrave" unicode="&#xd9;" 
d="M231 909l185 -108l-26 -46l-205 82zM528 689v-466q0 -105 -62.5 -169.5t-166.5 -64.5q-105 0 -166 64t-61 170v466h87v-469q0 -78 36 -117t104 -39q141 0 141 156v469h88z" />
    <glyph glyph-name="Uacute" unicode="&#xda;" 
d="M383 906l37 -72l-213 -79l-22 46zM528 689v-466q0 -105 -62.5 -169.5t-166.5 -64.5q-105 0 -166 64t-61 170v466h87v-469q0 -78 36 -117t104 -39q141 0 141 156v469h88z" />
    <glyph glyph-name="Ucircumflex" unicode="&#xdb;" 
d="M329 910l134 -107l-37 -43l-126 81l-125 -81l-38 43l135 107h57zM528 689v-466q0 -105 -62.5 -169.5t-166.5 -64.5q-105 0 -166 64t-61 170v466h87v-469q0 -78 36 -117t104 -39q141 0 141 156v469h88z" />
    <glyph glyph-name="Udieresis" unicode="&#xdc;" 
d="M196 767q-23 0 -39 15.5t-16 37.5q0 24 16 39.5t39 15.5t38.5 -15.5t15.5 -39.5q0 -23 -15.5 -38t-38.5 -15zM403 767q-23 0 -38.5 15t-15.5 38q0 24 15.5 39.5t38.5 15.5t39 -15.5t16 -39.5q0 -22 -16 -37.5t-39 -15.5zM528 689v-466q0 -105 -62.5 -169.5t-166.5 -64.5
q-105 0 -166 64t-61 170v466h87v-469q0 -78 36 -117t104 -39q141 0 141 156v469h88z" />
    <glyph glyph-name="Yacute" unicode="&#xdd;" 
d="M386 906l37 -72l-213 -79l-22 46zM344 266v-266h-88v265l-233 424h96l183 -346l185 346h90z" />
    <glyph glyph-name="Thorn" unicode="&#xde;" 
d="M194 689v-117h98q127 0 195.5 -54t68.5 -163q0 -116 -71 -171.5t-193 -55.5h-98v-128h-87v689h87zM303 503h-109v-305h109q78 0 119.5 34.5t41.5 120.5q0 150 -161 150z" />
    <glyph glyph-name="germandbls" unicode="&#xdf;" 
d="M297 749q77 0 125.5 -40t48.5 -104q0 -33 -18 -59.5t-39 -41.5t-39 -35t-18 -40t15 -38t37 -31.5t48.5 -31.5t48.5 -37.5t37 -52t15 -71.5q0 -84 -53.5 -131t-132.5 -47q-76 0 -130 34l35 58q38 -24 87 -24q51 0 79.5 26.5t28.5 79.5q0 35 -20.5 62.5t-49.5 46l-58 37
t-49.5 46.5t-20.5 64q0 32 18 57.5t40 39.5t40 35.5t18 45.5q0 33 -22.5 59t-71.5 26q-58 0 -87 -34t-29 -109v-539h-84v533q0 105 53 160.5t148 55.5z" />
    <glyph glyph-name="agrave" unicode="&#xe0;" 
d="M379 622l-203 93l46 72l184 -119zM478 115q0 -31 10 -45.5t33 -21.5l-21 -60q-77 10 -96 75q-57 -74 -165 -74q-79 0 -124.5 44t-45.5 118q0 81 63.5 125t182.5 44h78v43q0 105 -125 105q-60 0 -137 -27l-23 64q93 33 173 33q96 0 146.5 -45t50.5 -125v-253zM260 52
q39 0 74.5 20t58.5 55v135h-76q-158 0 -158 -110q0 -100 101 -100z" />
    <glyph glyph-name="aacute" unicode="&#xe1;" 
d="M376 797l38 -72l-209 -85l-26 45zM478 115q0 -31 10 -45.5t33 -21.5l-21 -60q-77 10 -96 75q-57 -74 -165 -74q-79 0 -124.5 44t-45.5 118q0 81 63.5 125t182.5 44h78v43q0 105 -125 105q-60 0 -137 -27l-23 64q93 33 173 33q96 0 146.5 -45t50.5 -125v-253zM260 52
q39 0 74.5 20t58.5 55v135h-76q-158 0 -158 -110q0 -100 101 -100z" />
    <glyph glyph-name="acircumflex" unicode="&#xe2;" 
d="M169 629l-40 41l135 119h57l134 -119l-38 -41l-124 91zM478 115q0 -31 10 -45.5t33 -21.5l-21 -60q-77 10 -96 75q-57 -74 -165 -74q-79 0 -124.5 44t-45.5 118q0 81 63.5 125t182.5 44h78v43q0 105 -125 105q-60 0 -137 -27l-23 64q93 33 173 33q96 0 146.5 -45
t50.5 -125v-253zM260 52q39 0 74.5 20t58.5 55v135h-76q-158 0 -158 -110q0 -100 101 -100z" />
    <glyph glyph-name="atilde" unicode="&#xe3;" 
d="M350 659q-28 0 -64 24t-52 24q-28 0 -53 -46l-53 26q41 85 106 85q30 0 65 -24.5t51 -24.5q27 0 53 45l54 -27q-38 -82 -107 -82zM478 115q0 -31 10 -45.5t33 -21.5l-21 -60q-77 10 -96 75q-57 -74 -165 -74q-79 0 -124.5 44t-45.5 118q0 81 63.5 125t182.5 44h78v43
q0 105 -125 105q-60 0 -137 -27l-23 64q93 33 173 33q96 0 146.5 -45t50.5 -125v-253zM260 52q39 0 74.5 20t58.5 55v135h-76q-158 0 -158 -110q0 -100 101 -100z" />
    <glyph glyph-name="adieresis" unicode="&#xe4;" 
d="M188 648q-23 0 -39 15.5t-16 37.5q0 24 16 39.5t39 15.5t38.5 -15.5t15.5 -39.5q0 -23 -15.5 -38t-38.5 -15zM395 648q-23 0 -38.5 15t-15.5 38q0 24 15.5 39.5t38.5 15.5t39 -15.5t16 -39.5q0 -22 -16 -37.5t-39 -15.5zM478 115q0 -31 10 -45.5t33 -21.5l-21 -60
q-77 10 -96 75q-57 -74 -165 -74q-79 0 -124.5 44t-45.5 118q0 81 63.5 125t182.5 44h78v43q0 105 -125 105q-60 0 -137 -27l-23 64q93 33 173 33q96 0 146.5 -45t50.5 -125v-253zM260 52q39 0 74.5 20t58.5 55v135h-76q-158 0 -158 -110q0 -100 101 -100z" />
    <glyph glyph-name="aring" unicode="&#xe5;" 
d="M292 824q48 0 79.5 -30t31.5 -73t-31.5 -72.5t-79.5 -29.5t-79.5 29.5t-31.5 72.5t31.5 73t79.5 30zM292 777q-25 0 -39.5 -15t-14.5 -41q0 -27 14.5 -42t39.5 -15q26 0 40 15t14 42q0 26 -14.5 41t-39.5 15zM478 115q0 -31 10 -45.5t33 -21.5l-21 -60q-77 10 -96 75
q-57 -74 -165 -74q-79 0 -124.5 44t-45.5 118q0 81 63.5 125t182.5 44h78v43q0 105 -125 105q-60 0 -137 -27l-23 64q93 33 173 33q96 0 146.5 -45t50.5 -125v-253zM260 52q39 0 74.5 20t58.5 55v135h-76q-158 0 -158 -110q0 -100 101 -100z" />
    <glyph glyph-name="ae" unicode="&#xe6;" 
d="M435 538q172 0 172 -259q0 -22 -2 -46h-269q7 -91 33.5 -132.5t79.5 -41.5q47 0 99 40l39 -58q-67 -52 -140 -52q-98 0 -148 89q-35 -48 -69.5 -68.5t-83.5 -20.5q-70 0 -111 44t-41 118q0 83 54.5 126t159.5 43h46v43q0 105 -91 105q-42 0 -105 -27l-22 63q71 34 135 34
q103 0 138 -88q14 41 46.5 64.5t79.5 23.5zM432 468q-46 0 -68 -38t-28 -131h189q-2 86 -23 127.5t-70 41.5zM254 262h-42q-69 0 -98 -27.5t-29 -78.5q0 -50 20 -76.5t54 -26.5q31 0 55.5 23t53.5 74q-14 45 -14 112z" />
    <glyph glyph-name="ccedilla" unicode="&#xe7;" 
d="M359 -57q46 -4 69.5 -27.5t23.5 -55.5q0 -47 -35.5 -72.5t-86.5 -25.5q-63 0 -105 24l27 48q30 -16 67 -16q60 0 60 41q0 26 -21 35t-65 9l6 88q-99 13 -153.5 84.5t-54.5 185.5q0 122 66.5 199.5t181.5 77.5q102 0 176 -62l-41 -55q-69 46 -136 46q-71 0 -113.5 -52.5
t-42.5 -153.5t42.5 -150.5t114.5 -49.5q69 0 137 46l40 -55q-63 -55 -157 -62v-47z" />
    <glyph glyph-name="egrave" unicode="&#xe8;" 
d="M397 622l-203 93l46 72l184 -119zM167 234q3 -87 45.5 -131t107.5 -44q70 0 141 47l39 -56q-79 -61 -180 -61q-114 0 -177.5 74.5t-63.5 199.5q0 121 62.5 198t166.5 77q100 0 157.5 -69.5t57.5 -189.5q0 -23 -2 -45h-354zM309 469q-61 0 -99 -43.5t-43 -127.5h274
q-1 83 -36 127t-96 44z" />
    <glyph glyph-name="eacute" unicode="&#xe9;" 
d="M394 797l38 -72l-209 -85l-26 45zM167 234q3 -87 45.5 -131t107.5 -44q70 0 141 47l39 -56q-79 -61 -180 -61q-114 0 -177.5 74.5t-63.5 199.5q0 121 62.5 198t166.5 77q100 0 157.5 -69.5t57.5 -189.5q0 -23 -2 -45h-354zM309 469q-61 0 -99 -43.5t-43 -127.5h274
q-1 83 -36 127t-96 44z" />
    <glyph glyph-name="ecircumflex" unicode="&#xea;" 
d="M187 629l-40 41l135 119h57l134 -119l-38 -41l-124 91zM167 234q3 -87 45.5 -131t107.5 -44q70 0 141 47l39 -56q-79 -61 -180 -61q-114 0 -177.5 74.5t-63.5 199.5q0 121 62.5 198t166.5 77q100 0 157.5 -69.5t57.5 -189.5q0 -23 -2 -45h-354zM309 469q-61 0 -99 -43.5
t-43 -127.5h274q-1 83 -36 127t-96 44z" />
    <glyph glyph-name="edieresis" unicode="&#xeb;" 
d="M206 648q-23 0 -39 15.5t-16 37.5q0 24 16 39.5t39 15.5t38.5 -15.5t15.5 -39.5q0 -23 -15.5 -38t-38.5 -15zM413 648q-23 0 -38.5 15t-15.5 38q0 24 15.5 39.5t38.5 15.5t39 -15.5t16 -39.5q0 -22 -16 -37.5t-39 -15.5zM167 234q3 -87 45.5 -131t107.5 -44q70 0 141 47
l39 -56q-79 -61 -180 -61q-114 0 -177.5 74.5t-63.5 199.5q0 121 62.5 198t166.5 77q100 0 157.5 -69.5t57.5 -189.5q0 -23 -2 -45h-354zM309 469q-61 0 -99 -43.5t-43 -127.5h274q-1 83 -36 127t-96 44z" />
    <glyph glyph-name="igrave" unicode="&#xec;" 
d="M388 622l-203 93l46 72l184 -119zM367 527v-460h148v-67h-394v67h162v393h-157v67h241z" />
    <glyph glyph-name="iacute" unicode="&#xed;" 
d="M385 797l38 -72l-209 -85l-26 45zM367 527v-460h148v-67h-394v67h162v393h-157v67h241z" />
    <glyph glyph-name="icircumflex" unicode="&#xee;" 
d="M178 629l-40 41l135 119h57l134 -119l-38 -41l-124 91zM367 527v-460h148v-67h-394v67h162v393h-157v67h241z" />
    <glyph glyph-name="idieresis" unicode="&#xef;" 
d="M197 648q-23 0 -39 15.5t-16 37.5q0 24 16 39.5t39 15.5t38.5 -15.5t15.5 -39.5q0 -23 -15.5 -38t-38.5 -15zM404 648q-23 0 -38.5 15t-15.5 38q0 24 15.5 39.5t38.5 15.5t39 -15.5t16 -39.5q0 -22 -16 -37.5t-39 -15.5zM367 527v-460h148v-67h-394v67h162v393h-157v67
h241z" />
    <glyph glyph-name="eth" unicode="&#xf0;" 
d="M170 562l80 85q-49 23 -117 36l19 66q92 -19 149 -49l70 73l51 -44l-62 -64q89 -61 130.5 -159t41.5 -242q0 -126 -64.5 -200.5t-172.5 -74.5q-98 0 -163 65.5t-65 180.5q0 108 62.5 177t150.5 69q97 0 157 -69q-27 127 -129 200l-79 -80zM448 267q0 25 -4 65
q-53 82 -154 82q-59 0 -98 -44.5t-39 -130.5q0 -87 38.5 -134.5t102.5 -47.5q71 0 112.5 54.5t41.5 155.5z" />
    <glyph glyph-name="ntilde" unicode="&#xf1;" 
d="M358 659q-28 0 -64 24t-52 24q-28 0 -53 -46l-53 26q41 85 106 85q30 0 65 -24.5t51 -24.5q27 0 53 45l54 -27q-38 -82 -107 -82zM100 0v527h72l7 -74q31 40 78.5 62.5t95.5 22.5q148 0 148 -156v-382h-84v320q0 86 -17 118.5t-73 32.5q-43 0 -81 -26t-62 -62v-383h-84z
" />
    <glyph glyph-name="ograve" unicode="&#xf2;" 
d="M387 622l-203 93l46 72l184 -119zM301 538q109 0 167.5 -73.5t58.5 -200.5q0 -124 -59.5 -199.5t-167.5 -75.5q-109 0 -168 73.5t-59 200.5q0 125 59.5 200t168.5 75zM301 469q-137 0 -137 -206q0 -205 136 -205t136 206q0 205 -135 205z" />
    <glyph glyph-name="oacute" unicode="&#xf3;" 
d="M384 797l38 -72l-209 -85l-26 45zM301 538q109 0 167.5 -73.5t58.5 -200.5q0 -124 -59.5 -199.5t-167.5 -75.5q-109 0 -168 73.5t-59 200.5q0 125 59.5 200t168.5 75zM301 469q-137 0 -137 -206q0 -205 136 -205t136 206q0 205 -135 205z" />
    <glyph glyph-name="ocircumflex" unicode="&#xf4;" 
d="M177 629l-40 41l135 119h57l134 -119l-38 -41l-124 91zM301 538q109 0 167.5 -73.5t58.5 -200.5q0 -124 -59.5 -199.5t-167.5 -75.5q-109 0 -168 73.5t-59 200.5q0 125 59.5 200t168.5 75zM301 469q-137 0 -137 -206q0 -205 136 -205t136 206q0 205 -135 205z" />
    <glyph glyph-name="otilde" unicode="&#xf5;" 
d="M358 659q-28 0 -64 24t-52 24q-28 0 -53 -46l-53 26q41 85 106 85q30 0 65 -24.5t51 -24.5q27 0 53 45l54 -27q-38 -82 -107 -82zM301 538q109 0 167.5 -73.5t58.5 -200.5q0 -124 -59.5 -199.5t-167.5 -75.5q-109 0 -168 73.5t-59 200.5q0 125 59.5 200t168.5 75z
M301 469q-137 0 -137 -206q0 -205 136 -205t136 206q0 205 -135 205z" />
    <glyph glyph-name="odieresis" unicode="&#xf6;" 
d="M196 648q-23 0 -39 15.5t-16 37.5q0 24 16 39.5t39 15.5t38.5 -15.5t15.5 -39.5q0 -23 -15.5 -38t-38.5 -15zM403 648q-23 0 -38.5 15t-15.5 38q0 24 15.5 39.5t38.5 15.5t39 -15.5t16 -39.5q0 -22 -16 -37.5t-39 -15.5zM301 538q109 0 167.5 -73.5t58.5 -200.5
q0 -124 -59.5 -199.5t-167.5 -75.5q-109 0 -168 73.5t-59 200.5q0 125 59.5 200t168.5 75zM301 469q-137 0 -137 -206q0 -205 136 -205t136 206q0 205 -135 205z" />
    <glyph glyph-name="divide" unicode="&#xf7;" 
d="M300 575q28 0 48 -19.5t20 -47.5t-19.5 -47t-48.5 -19t-48.5 19t-19.5 47t20 47.5t48 19.5zM484 348v-72h-368v72h368zM300 183q28 0 48 -19.5t20 -47.5t-20 -47.5t-48 -19.5t-48 19.5t-20 47.5t20 47.5t48 19.5z" />
    <glyph glyph-name="oslash" unicode="&#xf8;" 
d="M417 508q110 -67 110 -244q0 -124 -59.5 -199.5t-167.5 -75.5q-23 0 -50 5l-37 -124l-70 20l42 129q-54 32 -83 95t-29 149q0 125 59.5 200t168.5 75q22 0 49 -5l38 121l70 -21zM301 469q-137 0 -137 -206q0 -132 52 -178l118 381q-15 3 -33 3zM300 58q136 0 136 206
q0 132 -51 177l-118 -380q15 -3 33 -3z" />
    <glyph glyph-name="ugrave" unicode="&#xf9;" 
d="M387 622l-203 93l46 72l184 -119zM184 527v-374q0 -51 21.5 -74.5t67.5 -23.5q42 0 81 24t62 60v388h84v-527h-72l-7 71q-31 -39 -76.5 -60.5t-92.5 -21.5q-75 0 -113.5 40t-38.5 115v383h84z" />
    <glyph glyph-name="uacute" unicode="&#xfa;" 
d="M384 797l38 -72l-209 -85l-26 45zM184 527v-374q0 -51 21.5 -74.5t67.5 -23.5q42 0 81 24t62 60v388h84v-527h-72l-7 71q-31 -39 -76.5 -60.5t-92.5 -21.5q-75 0 -113.5 40t-38.5 115v383h84z" />
    <glyph glyph-name="ucircumflex" unicode="&#xfb;" 
d="M177 629l-40 41l135 119h57l134 -119l-38 -41l-124 91zM184 527v-374q0 -51 21.5 -74.5t67.5 -23.5q42 0 81 24t62 60v388h84v-527h-72l-7 71q-31 -39 -76.5 -60.5t-92.5 -21.5q-75 0 -113.5 40t-38.5 115v383h84z" />
    <glyph glyph-name="udieresis" unicode="&#xfc;" 
d="M196 648q-23 0 -39 15.5t-16 37.5q0 24 16 39.5t39 15.5t38.5 -15.5t15.5 -39.5q0 -23 -15.5 -38t-38.5 -15zM403 648q-23 0 -38.5 15t-15.5 38q0 24 15.5 39.5t38.5 15.5t39 -15.5t16 -39.5q0 -22 -16 -37.5t-39 -15.5zM184 527v-374q0 -51 21.5 -74.5t67.5 -23.5
q42 0 81 24t62 60v388h84v-527h-72l-7 71q-31 -39 -76.5 -60.5t-92.5 -21.5q-75 0 -113.5 40t-38.5 115v383h84z" />
    <glyph glyph-name="yacute" unicode="&#xfd;" 
d="M384 797l38 -72l-209 -85l-26 45zM538 527l-184 -530q-31 -91 -85 -145t-151 -64l-12 67q76 13 110.5 46t56.5 99h-28l-183 527h89l151 -463l149 463h87z" />
    <glyph glyph-name="thorn" unicode="&#xfe;" 
d="M184 749v-288q60 77 152 77q191 0 191 -274q0 -125 -52 -200t-151 -75q-86 0 -140 60v-251l-84 -10v951zM316 470q-74 0 -132 -84v-261q45 -66 121 -66q131 0 131 205q0 206 -120 206z" />
    <glyph glyph-name="ydieresis" unicode="&#xff;" 
d="M196 648q-23 0 -39 15.5t-16 37.5q0 24 16 39.5t39 15.5t38.5 -15.5t15.5 -39.5q0 -23 -15.5 -38t-38.5 -15zM403 648q-23 0 -38.5 15t-15.5 38q0 24 15.5 39.5t38.5 15.5t39 -15.5t16 -39.5q0 -22 -16 -37.5t-39 -15.5zM538 527l-184 -530q-31 -91 -85 -145t-151 -64
l-12 67q76 13 110.5 46t56.5 99h-28l-183 527h89l151 -463l149 463h87z" />
    <glyph glyph-name="Amacron" unicode="&#x100;" 
d="M434 795h-269v64h269v-64zM434 176h-273l-55 -176h-86l225 689h110l224 -689h-90zM184 248h227l-113 367z" />
    <glyph glyph-name="amacron" unicode="&#x101;" 
d="M426 676h-269v64h269v-64zM478 115q0 -31 10 -45.5t33 -21.5l-21 -60q-77 10 -96 75q-57 -74 -165 -74q-79 0 -124.5 44t-45.5 118q0 81 63.5 125t182.5 44h78v43q0 105 -125 105q-60 0 -137 -27l-23 64q93 33 173 33q96 0 146.5 -45t50.5 -125v-253zM260 52
q39 0 74.5 20t58.5 55v135h-76q-158 0 -158 -110q0 -100 101 -100z" />
    <glyph glyph-name="Abreve" unicode="&#x102;" 
d="M298 759q-58 0 -100 32.5t-47 86.5l57 13q25 -67 90 -67q70 0 93 67l58 -13q-6 -54 -49 -86.5t-102 -32.5zM434 176h-273l-55 -176h-86l225 689h110l224 -689h-90zM184 248h227l-113 367z" />
    <glyph glyph-name="abreve" unicode="&#x103;" 
d="M290 630q-63 0 -102 42t-46 94l58 13q25 -85 90 -85q68 0 93 85l57 -13q-7 -52 -46.5 -94t-103.5 -42zM478 115q0 -31 10 -45.5t33 -21.5l-21 -60q-77 10 -96 75q-57 -74 -165 -74q-79 0 -124.5 44t-45.5 118q0 81 63.5 125t182.5 44h78v43q0 105 -125 105
q-60 0 -137 -27l-23 64q93 33 173 33q96 0 146.5 -45t50.5 -125v-253zM260 52q39 0 74.5 20t58.5 55v135h-76q-158 0 -158 -110q0 -100 101 -100z" />
    <glyph glyph-name="Aogonek" unicode="&#x104;" 
d="M539 0q-72 -31 -98 -58t-26 -56q0 -48 56 -48q27 0 61 7l-8 -68q-42 -6 -64 -6q-56 0 -89 27.5t-33 70.5q0 95 146 148l-50 159h-273l-55 -176h-86l225 689h110l224 -689h-40zM184 248h227l-113 367z" />
    <glyph glyph-name="aogonek" unicode="&#x105;" 
d="M500 -12q-72 -31 -98 -58t-26 -56q0 -48 56 -48q27 0 61 7l-8 -68q-42 -6 -64 -6q-56 0 -89 27.5t-33 70.5q0 94 147 149q-31 20 -42 57q-57 -74 -165 -74q-79 0 -124.5 44t-45.5 118q0 81 63.5 125t182.5 44h78v43q0 105 -125 105q-60 0 -137 -27l-23 64q93 33 173 33
q96 0 146.5 -45t50.5 -125v-253q0 -31 10 -45.5t33 -21.5zM393 127v135h-76q-158 0 -158 -110q0 -100 101 -100q39 0 74.5 20t58.5 55z" />
    <glyph glyph-name="Cacute" unicode="&#x106;" 
d="M448 906l37 -72l-213 -79l-22 46zM358 700q64 0 110 -16.5t90 -50.5l-49 -57q-61 51 -145 51q-93 0 -151.5 -67.5t-58.5 -214.5q0 -146 57 -214t152 -68q87 0 160 57l45 -56q-77 -75 -206 -75q-131 0 -215 94t-84 262q0 167 84.5 261t210.5 94z" />
    <glyph glyph-name="cacute" unicode="&#x107;" 
d="M428 788l38 -72l-209 -85l-26 45zM339 61q69 0 137 46l40 -55q-33 -29 -82 -46t-95 -17q-117 0 -182.5 73.5t-65.5 198.5q0 122 66.5 199.5t181.5 77.5q102 0 176 -62l-41 -55q-69 46 -136 46q-71 0 -113.5 -52.5t-42.5 -153.5t42.5 -150.5t114.5 -49.5z" />
    <glyph glyph-name="Ccircumflex" unicode="&#x108;" 
d="M394 910l134 -107l-37 -43l-126 81l-125 -81l-38 43l135 107h57zM358 700q64 0 110 -16.5t90 -50.5l-49 -57q-61 51 -145 51q-93 0 -151.5 -67.5t-58.5 -214.5q0 -146 57 -214t152 -68q87 0 160 57l45 -56q-77 -75 -206 -75q-131 0 -215 94t-84 262q0 167 84.5 261
t210.5 94z" />
    <glyph glyph-name="ccircumflex" unicode="&#x109;" 
d="M221 620l-40 41l135 119h57l134 -119l-38 -41l-124 91zM339 61q69 0 137 46l40 -55q-33 -29 -82 -46t-95 -17q-117 0 -182.5 73.5t-65.5 198.5q0 122 66.5 199.5t181.5 77.5q102 0 176 -62l-41 -55q-69 46 -136 46q-71 0 -113.5 -52.5t-42.5 -153.5t42.5 -150.5
t114.5 -49.5z" />
    <glyph glyph-name="Cdotaccent" unicode="&#x10a;" 
d="M364 892q27 0 44 -16.5t17 -42.5t-17 -42.5t-44 -16.5t-43.5 16.5t-16.5 42.5t16.5 42.5t43.5 16.5zM358 700q64 0 110 -16.5t90 -50.5l-49 -57q-61 51 -145 51q-93 0 -151.5 -67.5t-58.5 -214.5q0 -146 57 -214t152 -68q87 0 160 57l45 -56q-77 -75 -206 -75
q-131 0 -215 94t-84 262q0 167 84.5 261t210.5 94z" />
    <glyph glyph-name="cdotaccent" unicode="&#x10b;" 
d="M343 764q27 0 44 -16.5t17 -42.5t-17 -42.5t-44 -16.5t-43.5 16.5t-16.5 42.5t16.5 42.5t43.5 16.5zM339 61q69 0 137 46l40 -55q-33 -29 -82 -46t-95 -17q-117 0 -182.5 73.5t-65.5 198.5q0 122 66.5 199.5t181.5 77.5q102 0 176 -62l-41 -55q-69 46 -136 46
q-71 0 -113.5 -52.5t-42.5 -153.5t42.5 -150.5t114.5 -49.5z" />
    <glyph glyph-name="Ccaron" unicode="&#x10c;" 
d="M491 905l37 -43l-134 -108h-57l-135 108l38 43l125 -81zM358 700q64 0 110 -16.5t90 -50.5l-49 -57q-61 51 -145 51q-93 0 -151.5 -67.5t-58.5 -214.5q0 -146 57 -214t152 -68q87 0 160 57l45 -56q-77 -75 -206 -75q-131 0 -215 94t-84 262q0 167 84.5 261t210.5 94z" />
    <glyph glyph-name="ccaron" unicode="&#x10d;" 
d="M469 780l38 -41l-134 -119h-57l-135 119l40 41l124 -90zM339 61q69 0 137 46l40 -55q-33 -29 -82 -46t-95 -17q-117 0 -182.5 73.5t-65.5 198.5q0 122 66.5 199.5t181.5 77.5q102 0 176 -62l-41 -55q-69 46 -136 46q-71 0 -113.5 -52.5t-42.5 -153.5t42.5 -150.5
t114.5 -49.5z" />
    <glyph glyph-name="Dcaron" unicode="&#x10e;" 
d="M410 905l37 -43l-134 -108h-57l-135 108l38 43l125 -81zM553 348q0 -83 -19 -146.5t-49 -101t-72.5 -61t-83.5 -31.5t-88 -8h-158v689h147q53 0 96.5 -7.5t87 -30t73 -59.5t48 -99t18.5 -145zM460 348q0 85 -18.5 142.5t-51.5 83.5t-65 35t-74 9h-81v-548h82q41 0 75 12
t65.5 41t49.5 86t18 139z" />
    <glyph glyph-name="dcaron" unicode="&#x10f;" 
d="M387 749l84 -10v-739h-74l-8 69q-57 -80 -149 -80q-100 0 -150.5 73t-50.5 201q0 121 55.5 198t150.5 77q87 0 142 -63v274zM537 748l76 -10l-53 -178l-48 7zM267 470q-66 0 -101.5 -52t-35.5 -155q0 -207 127 -207q75 0 130 84v262q-46 68 -120 68z" />
    <glyph glyph-name="Dcroat" unicode="&#x110;" 
d="M240 689q53 0 96.5 -7.5t87 -30t73 -59.5t48 -99t18.5 -145t-19 -146.5t-49 -101t-72.5 -61t-83.5 -31.5t-88 -8h-158v320h-73v66h73v303h147zM262 70q41 0 75 12t65.5 41t49.5 86t18 139q0 85 -18.5 142.5t-51.5 83.5t-65 35t-74 9h-81v-232h158v-66h-158v-250h82z" />
    <glyph glyph-name="dcroat" unicode="&#x111;" 
d="M581 665v-68h-79v-597h-74l-8 69q-57 -80 -149 -80q-100 0 -150.5 73t-50.5 201q0 121 55.5 198t150.5 77q87 0 142 -63v122h-171v68h171v84l84 -10v-74h79zM418 140v262q-46 68 -120 68q-66 0 -101.5 -52t-35.5 -155q0 -207 127 -207q75 0 130 84z" />
    <glyph glyph-name="Emacron" unicode="&#x112;" 
d="M455 795h-269v64h269v-64zM212 617v-232h256v-71h-256v-244h314v-70h-400v689h391l-10 -72h-295z" />
    <glyph glyph-name="emacron" unicode="&#x113;" 
d="M444 676h-269v64h269v-64zM167 234q3 -87 45.5 -131t107.5 -44q70 0 141 47l39 -56q-79 -61 -180 -61q-114 0 -177.5 74.5t-63.5 199.5q0 121 62.5 198t166.5 77q100 0 157.5 -69.5t57.5 -189.5q0 -23 -2 -45h-354zM309 469q-61 0 -99 -43.5t-43 -127.5h274
q-1 83 -36 127t-96 44z" />
    <glyph glyph-name="Ebreve" unicode="&#x114;" 
d="M319 759q-58 0 -100 32.5t-47 86.5l57 13q25 -67 90 -67q70 0 93 67l58 -13q-6 -54 -49 -86.5t-102 -32.5zM212 617v-232h256v-71h-256v-244h314v-70h-400v689h391l-10 -72h-295z" />
    <glyph glyph-name="ebreve" unicode="&#x115;" 
d="M308 630q-63 0 -102 42t-46 94l58 13q25 -85 90 -85q68 0 93 85l57 -13q-7 -52 -46.5 -94t-103.5 -42zM167 234q3 -87 45.5 -131t107.5 -44q70 0 141 47l39 -56q-79 -61 -180 -61q-114 0 -177.5 74.5t-63.5 199.5q0 121 62.5 198t166.5 77q100 0 157.5 -69.5t57.5 -189.5
q0 -23 -2 -45h-354zM309 469q-61 0 -99 -43.5t-43 -127.5h274q-1 83 -36 127t-96 44z" />
    <glyph glyph-name="Edotaccent" unicode="&#x116;" 
d="M320 892q27 0 44 -16.5t17 -42.5t-17 -42.5t-44 -16.5t-43.5 16.5t-16.5 42.5t16.5 42.5t43.5 16.5zM212 617v-232h256v-71h-256v-244h314v-70h-400v689h391l-10 -72h-295z" />
    <glyph glyph-name="edotaccent" unicode="&#x117;" 
d="M309 773q27 0 44 -16.5t17 -42.5t-17 -42.5t-44 -16.5t-43.5 16.5t-16.5 42.5t16.5 42.5t43.5 16.5zM167 234q3 -87 45.5 -131t107.5 -44q70 0 141 47l39 -56q-79 -61 -180 -61q-114 0 -177.5 74.5t-63.5 199.5q0 121 62.5 198t166.5 77q100 0 157.5 -69.5t57.5 -189.5
q0 -23 -2 -45h-354zM309 469q-61 0 -99 -43.5t-43 -127.5h274q-1 83 -36 127t-96 44z" />
    <glyph glyph-name="Eogonek" unicode="&#x118;" 
d="M212 70h314v-70h-58q-72 -31 -98 -58t-26 -56q0 -48 56 -48q27 0 61 7l-8 -68q-42 -6 -64 -6q-56 0 -89 27.5t-33 70.5q0 80 105 131h-246v689h391l-10 -72h-295v-232h256v-71h-256v-244z" />
    <glyph glyph-name="eogonek" unicode="&#x119;" 
d="M523 279q0 -23 -2 -45h-354q3 -87 45.5 -131t107.5 -44q70 0 141 47l39 -56q-46 -35 -101 -50q-72 -31 -98 -58t-26 -56q0 -48 56 -48q27 0 61 7l-8 -68q-42 -6 -64 -6q-56 0 -89 27.5t-33 70.5q0 79 103 121q-105 6 -163.5 79.5t-58.5 193.5q0 121 62.5 198t166.5 77
q100 0 157.5 -69.5t57.5 -189.5zM167 298h274q-1 83 -36 127t-96 44t-99 -43.5t-43 -127.5z" />
    <glyph glyph-name="Ecaron" unicode="&#x11a;" 
d="M447 905l37 -43l-134 -108h-57l-135 108l38 43l125 -81zM212 617v-232h256v-71h-256v-244h314v-70h-400v689h391l-10 -72h-295z" />
    <glyph glyph-name="ecaron" unicode="&#x11b;" 
d="M435 789l38 -41l-134 -119h-57l-135 119l40 41l124 -90zM167 234q3 -87 45.5 -131t107.5 -44q70 0 141 47l39 -56q-79 -61 -180 -61q-114 0 -177.5 74.5t-63.5 199.5q0 121 62.5 198t166.5 77q100 0 157.5 -69.5t57.5 -189.5q0 -23 -2 -45h-354zM309 469q-61 0 -99 -43.5
t-43 -127.5h274q-1 83 -36 127t-96 44z" />
    <glyph glyph-name="Gcircumflex" unicode="&#x11c;" 
d="M359 910l134 -107l-37 -43l-126 81l-125 -81l-38 43l135 107h57zM314 -11q-126 0 -197.5 90.5t-71.5 265.5q0 169 84.5 262t204.5 93q65 0 109 -18t87 -58l-52 -54q-61 57 -144 57q-84 0 -140 -67t-56 -215q0 -147 45.5 -215t137.5 -68q73 0 131 33v209h-135l-10 73h232
v-328q-106 -60 -225 -60z" />
    <glyph glyph-name="gcircumflex" unicode="&#x11d;" 
d="M170 629l-40 41l135 119h57l134 -119l-38 -41l-124 91zM529 582l25 -79q-47 -15 -154 -15q92 -42 92 -133q0 -80 -53 -129.5t-145 -49.5q-47 0 -79 11q-27 -22 -27 -51q0 -45 70 -45h95q80 0 133 -41t53 -102q0 -77 -65.5 -118.5t-185.5 -41.5q-122 0 -172 38t-50 121h76
q0 -49 30.5 -70t115.5 -21q166 0 166 87q0 36 -33 55.5t-85 19.5h-94q-65 0 -99 28.5t-34 71.5q0 54 58 92q-88 45 -88 145q0 81 58.5 132t151.5 51q63 0 108.5 6.5t69.5 14t62 23.5zM288 476q-61 0 -92 -32.5t-31 -88.5t31.5 -89.5t93.5 -33.5q56 0 85.5 32.5t29.5 91.5
q0 120 -117 120z" />
    <glyph glyph-name="Gbreve" unicode="&#x11e;" 
d="M328 759q-58 0 -100 32.5t-47 86.5l57 13q25 -67 90 -67q70 0 93 67l58 -13q-6 -54 -49 -86.5t-102 -32.5zM314 -11q-126 0 -197.5 90.5t-71.5 265.5q0 169 84.5 262t204.5 93q65 0 109 -18t87 -58l-52 -54q-61 57 -144 57q-84 0 -140 -67t-56 -215q0 -147 45.5 -215
t137.5 -68q73 0 131 33v209h-135l-10 73h232v-328q-106 -60 -225 -60z" />
    <glyph glyph-name="gbreve" unicode="&#x11f;" 
d="M291 630q-63 0 -102 42t-46 94l58 13q25 -85 90 -85q68 0 93 85l57 -13q-7 -52 -46.5 -94t-103.5 -42zM529 582l25 -79q-47 -15 -154 -15q92 -42 92 -133q0 -80 -53 -129.5t-145 -49.5q-47 0 -79 11q-27 -22 -27 -51q0 -45 70 -45h95q80 0 133 -41t53 -102
q0 -77 -65.5 -118.5t-185.5 -41.5q-122 0 -172 38t-50 121h76q0 -49 30.5 -70t115.5 -21q166 0 166 87q0 36 -33 55.5t-85 19.5h-94q-65 0 -99 28.5t-34 71.5q0 54 58 92q-88 45 -88 145q0 81 58.5 132t151.5 51q63 0 108.5 6.5t69.5 14t62 23.5zM288 476q-61 0 -92 -32.5
t-31 -88.5t31.5 -89.5t93.5 -33.5q56 0 85.5 32.5t29.5 91.5q0 120 -117 120z" />
    <glyph glyph-name="Gdotaccent" unicode="&#x120;" 
d="M329 892q27 0 44 -16.5t17 -42.5t-17 -42.5t-44 -16.5t-43.5 16.5t-16.5 42.5t16.5 42.5t43.5 16.5zM314 -11q-126 0 -197.5 90.5t-71.5 265.5q0 169 84.5 262t204.5 93q65 0 109 -18t87 -58l-52 -54q-61 57 -144 57q-84 0 -140 -67t-56 -215q0 -147 45.5 -215t137.5 -68
q73 0 131 33v209h-135l-10 73h232v-328q-106 -60 -225 -60z" />
    <glyph glyph-name="gdotaccent" unicode="&#x121;" 
d="M292 773q27 0 44 -16.5t17 -42.5t-17 -42.5t-44 -16.5t-43.5 16.5t-16.5 42.5t16.5 42.5t43.5 16.5zM529 582l25 -79q-47 -15 -154 -15q92 -42 92 -133q0 -80 -53 -129.5t-145 -49.5q-47 0 -79 11q-27 -22 -27 -51q0 -45 70 -45h95q80 0 133 -41t53 -102
q0 -77 -65.5 -118.5t-185.5 -41.5q-122 0 -172 38t-50 121h76q0 -49 30.5 -70t115.5 -21q166 0 166 87q0 36 -33 55.5t-85 19.5h-94q-65 0 -99 28.5t-34 71.5q0 54 58 92q-88 45 -88 145q0 81 58.5 132t151.5 51q63 0 108.5 6.5t69.5 14t62 23.5zM288 476q-61 0 -92 -32.5
t-31 -88.5t31.5 -89.5t93.5 -33.5q56 0 85.5 32.5t29.5 91.5q0 120 -117 120z" />
    <glyph glyph-name="Gcommaaccent" unicode="&#x122;" 
d="M314 -11q-126 0 -197.5 90.5t-71.5 265.5q0 169 84.5 262t204.5 93q65 0 109 -18t87 -58l-52 -54q-61 57 -144 57q-84 0 -140 -67t-56 -215q0 -147 45.5 -215t137.5 -68q73 0 131 33v209h-135l-10 73h232v-328q-106 -60 -225 -60zM333 -71q23 0 39 -15.5t16 -37.5
q0 -20 -15 -55l-51 -107h-50l29 117q-22 17 -22 45q0 23 15.5 38t38.5 15z" />
    <glyph glyph-name="gcommaaccent" unicode="&#x123;" 
d="M290 598q-23 0 -39 15.5t-16 37.5q0 21 15 55l51 107h50l-29 -117q22 -17 22 -45q0 -23 -15.5 -38t-38.5 -15zM529 582l25 -79q-47 -15 -154 -15q92 -42 92 -133q0 -80 -53 -129.5t-145 -49.5q-47 0 -79 11q-27 -22 -27 -51q0 -45 70 -45h95q80 0 133 -41t53 -102
q0 -77 -65.5 -118.5t-185.5 -41.5q-122 0 -172 38t-50 121h76q0 -49 30.5 -70t115.5 -21q166 0 166 87q0 36 -33 55.5t-85 19.5h-94q-65 0 -99 28.5t-34 71.5q0 54 58 92q-88 45 -88 145q0 81 58.5 132t151.5 51q63 0 108.5 6.5t69.5 14t62 23.5zM288 476q-61 0 -92 -32.5
t-31 -88.5t31.5 -89.5t93.5 -33.5q56 0 85.5 32.5t29.5 91.5q0 120 -117 120z" />
    <glyph glyph-name="Hcircumflex" unicode="&#x124;" 
d="M329 910l134 -107l-37 -43l-126 81l-125 -81l-38 43l135 107h57zM430 0v327h-260v-327h-87v689h87v-291h260v291h87v-689h-87z" />
    <glyph glyph-name="hcircumflex" unicode="&#x125;" 
d="M329 960l134 -107l-37 -43l-126 81l-125 -81l-38 43l135 107h57zM184 747v-293q31 40 76 62t93 22q148 0 148 -156v-382h-84v381q0 47 -22 68.5t-70 21.5q-41 0 -79 -26t-62 -61v-384h-84v738z" />
    <glyph glyph-name="Hbar" unicode="&#x126;" 
d="M598 575v-66h-81v-509h-86v326h-262v-326h-86v509h-81v66h81v114h86v-114h262v114h86v-114h81zM431 398v111h-262v-111h262z" />
    <glyph glyph-name="hbar" unicode="&#x127;" 
d="M353 538q148 0 148 -156v-382h-84v381q0 47 -22 68.5t-70 21.5q-41 0 -79 -26t-62 -61v-384h-84v597h-81v68h81v73l84 9v-82h169v-68h-169v-143q31 40 76 62t93 22z" />
    <glyph glyph-name="Itilde" unicode="&#x128;" 
d="M358 778q-28 0 -64 24t-52 24q-28 0 -53 -46l-53 26q41 85 106 85q30 0 65 -24.5t51 -24.5q27 0 53 45l54 -27q-38 -82 -107 -82zM497 689v-70h-153v-550h153v-69h-394v69h153v550h-153v70h394z" />
    <glyph glyph-name="itilde" unicode="&#x129;" 
d="M359 659q-28 0 -64 24t-52 24q-28 0 -53 -46l-53 26q41 85 106 85q30 0 65 -24.5t51 -24.5q27 0 53 45l54 -27q-38 -82 -107 -82zM367 527v-460h148v-67h-394v67h162v393h-157v67h241z" />
    <glyph glyph-name="Imacron" unicode="&#x12a;" 
d="M434 795h-269v64h269v-64zM497 689v-70h-153v-550h153v-69h-394v69h153v550h-153v70h394z" />
    <glyph glyph-name="imacron" unicode="&#x12b;" 
d="M435 676h-269v64h269v-64zM367 527v-460h148v-67h-394v67h162v393h-157v67h241z" />
    <glyph glyph-name="Ibreve" unicode="&#x12c;" 
d="M298 759q-58 0 -100 32.5t-47 86.5l57 13q25 -67 90 -67q70 0 93 67l58 -13q-6 -54 -49 -86.5t-102 -32.5zM497 689v-70h-153v-550h153v-69h-394v69h153v550h-153v70h394z" />
    <glyph glyph-name="ibreve" unicode="&#x12d;" 
d="M299 630q-63 0 -102 42t-46 94l58 13q25 -85 90 -85q68 0 93 85l57 -13q-7 -52 -46.5 -94t-103.5 -42zM367 527v-460h148v-67h-394v67h162v393h-157v67h241z" />
    <glyph glyph-name="Iogonek" unicode="&#x12e;" 
d="M497 619h-153v-550h153v-69h-153q-72 -31 -98 -58t-26 -56q0 -48 56 -48q27 0 61 7l-8 -68q-42 -6 -64 -6q-56 0 -89 27.5t-33 70.5q0 80 105 131h-145v69h153v550h-153v70h394v-70z" />
    <glyph glyph-name="iogonek" unicode="&#x12f;" 
d="M300 655q-27 0 -43.5 16.5t-16.5 42.5t16.5 42.5t43.5 16.5t44 -16.5t17 -42.5t-17 -42.5t-44 -16.5zM367 67h148v-67h-148q-72 -31 -98 -58t-26 -56q0 -48 56 -48q27 0 61 7l-8 -68q-42 -6 -64 -6q-56 0 -89 27.5t-33 70.5q0 80 105 131h-150v67h162v393h-157v67h241
v-460z" />
    <glyph glyph-name="Idotaccent" unicode="&#x130;" 
d="M299 892q27 0 44 -16.5t17 -42.5t-17 -42.5t-44 -16.5t-43.5 16.5t-16.5 42.5t16.5 42.5t43.5 16.5zM497 689v-70h-153v-550h153v-69h-394v69h153v550h-153v70h394z" />
    <glyph glyph-name="dotlessi" unicode="&#x131;" 
d="M367 527v-460h148v-67h-394v67h162v393h-157v67h241z" />
    <glyph glyph-name="IJ" unicode="&#x132;" 
d="M194 -71q144 14 197.5 78.5t53.5 185.5v424h-244v-545h80v-72h-270v72h100v545h-100v72h521v-501q0 -50 -8.5 -91.5t-30.5 -82.5t-58 -70.5t-94.5 -51t-136.5 -28.5z" />
    <glyph glyph-name="ij" unicode="&#x133;" 
d="M184 773q27 0 44.5 -16.5t17.5 -42.5t-17.5 -42.5t-44.5 -16.5t-43.5 16.5t-16.5 42.5t16.5 42.5t43.5 16.5zM448 773q27 0 44.5 -16.5t17.5 -42.5t-17.5 -42.5t-44.5 -16.5t-43.5 16.5t-16.5 42.5t16.5 42.5t43.5 16.5zM500 527v-472q0 -184 -255 -267l-25 66
q43 16 72.5 31t61 38t48 55t16.5 72v412h-195v-395h96v-67h-271v67h94v395h-89v65h447z" />
    <glyph glyph-name="Jcircumflex" unicode="&#x134;" 
d="M379 910l134 -107l-37 -43l-126 81l-125 -81l-38 43l135 107h57zM497 689v-460q0 -46 -12 -86.5t-37.5 -76.5t-73.5 -57t-113 -21q-105 0 -188 63l38 57q75 -47 149 -47q72 0 111 45.5t39 126.5v385h-204v71h291z" />
    <glyph glyph-name="jcircumflex" unicode="&#x135;" 
d="M245 629l-40 41l135 119h57l134 -119l-38 -41l-124 91zM445 527v-443q0 -127 -84.5 -197.5t-250.5 -98.5l-14 65q127 21 196 73.5t69 152.5v381h-219v67h303z" />
    <glyph glyph-name="Kcommaaccent" unicode="&#x136;" 
d="M192 0h-87v689h87v-689zM197 368l270 321h101l-269 -316l288 -373h-109zM325 -71q23 0 39 -15.5t16 -37.5q0 -20 -15 -55l-51 -107h-50l29 117q-22 17 -22 45q0 23 15.5 38t38.5 15z" />
    <glyph glyph-name="kcommaaccent" unicode="&#x137;" 
d="M190 749v-749h-84v739zM541 527l-236 -238l264 -289h-111l-259 288l234 239h108zM309 -71q23 0 39 -15.5t16 -37.5q0 -20 -15 -55l-51 -107h-50l29 117q-22 17 -22 45q0 23 15.5 38t38.5 15z" />
    <glyph glyph-name="kgreenlandic" unicode="&#x138;" 
d="M184 527v-527h-84v527h84zM536 527l-239 -239l266 -288h-110l-259 283l233 244h109z" />
    <glyph glyph-name="Lacute" unicode="&#x139;" 
d="M262 906l37 -72l-213 -79l-22 46zM136 0v689h86v-612h315l-11 -77h-390z" />
    <glyph glyph-name="lacute" unicode="&#x13a;" 
d="M349 1009l38 -72l-209 -85l-26 45zM306 739v-609q0 -71 87 -71q41 0 88 18l22 -61q-50 -27 -125 -27q-71 0 -113.5 39t-42.5 106v538h-162v67h246z" />
    <glyph glyph-name="Lcommaaccent" unicode="&#x13b;" 
d="M136 0v689h86v-612h315l-11 -77h-390zM335 -71q23 0 39 -15.5t16 -37.5q0 -20 -15 -55l-51 -107h-50l29 117q-22 17 -22 45q0 23 15.5 38t38.5 15z" />
    <glyph glyph-name="lcommaaccent" unicode="&#x13c;" 
d="M306 739v-609q0 -71 87 -71q41 0 88 18l22 -61q-50 -27 -125 -27q-71 0 -113.5 39t-42.5 106v538h-162v67h246zM364 -71q23 0 39 -15.5t16 -37.5q0 -20 -15 -55l-51 -107h-50l29 117q-22 17 -22 45q0 23 15.5 38t38.5 15z" />
    <glyph glyph-name="Lcaron" unicode="&#x13d;" 
d="M308 698l76 -10l-53 -178l-48 7zM136 0v689h86v-612h315l-11 -77h-390z" />
    <glyph glyph-name="lcaron" unicode="&#x13e;" 
d="M383 748l76 -10l-53 -178l-48 7zM306 739v-609q0 -71 87 -71q41 0 88 18l22 -61q-50 -27 -125 -27q-71 0 -113.5 39t-42.5 106v538h-162v67h246z" />
    <glyph glyph-name="Ldot" unicode="&#x13f;" 
d="M136 0v689h86v-612h315l-11 -77h-390zM472 436q27 0 44 -16.5t17 -42.5t-17 -42.5t-44 -16.5t-43.5 16.5t-16.5 42.5t16.5 42.5t43.5 16.5z" />
    <glyph glyph-name="ldot" unicode="&#x140;" 
d="M306 739v-609q0 -71 87 -71q41 0 88 18l22 -61q-50 -27 -125 -27q-71 0 -113.5 39t-42.5 106v538h-162v67h246zM560 440q27 0 44 -16.5t17 -42.5t-17 -42.5t-44 -16.5t-43.5 16.5t-16.5 42.5t16.5 42.5t43.5 16.5z" />
    <glyph glyph-name="Lslash" unicode="&#x141;" 
d="M220 77h315l-11 -77h-390v267l-57 -35l-37 57l94 57v343h86v-290l165 103l37 -56l-202 -125v-244z" />
    <glyph glyph-name="lslash" unicode="&#x142;" 
d="M481 77l22 -61q-50 -27 -125 -27q-71 0 -113.5 39t-42.5 106v172l-68 -41l-36 54l104 62v291h-162v67h246v-306l89 56l36 -54l-125 -78v-227q0 -71 87 -71q41 0 88 18z" />
    <glyph glyph-name="Nacute" unicode="&#x143;" 
d="M382 906l37 -72l-213 -79l-22 46zM395 0l-243 605q12 -180 12 -260v-345h-81v689h118l247 -608q0 5 -3.5 48.5t-6 101.5t-2.5 113v345h81v-689h-122z" />
    <glyph glyph-name="nacute" unicode="&#x144;" 
d="M384 797l38 -72l-209 -85l-26 45zM100 0v527h72l7 -74q31 40 78.5 62.5t95.5 22.5q148 0 148 -156v-382h-84v320q0 86 -17 118.5t-73 32.5q-43 0 -81 -26t-62 -62v-383h-84z" />
    <glyph glyph-name="Ncommaaccent" unicode="&#x145;" 
d="M395 0l-243 605q12 -180 12 -260v-345h-81v689h118l247 -608q0 5 -3.5 48.5t-6 101.5t-2.5 113v345h81v-689h-122zM303 -71q23 0 39 -15.5t16 -37.5q0 -20 -15 -55l-51 -107h-50l29 117q-22 17 -22 45q0 23 15.5 38t38.5 15z" />
    <glyph glyph-name="ncommaaccent" unicode="&#x146;" 
d="M100 0v527h72l7 -74q31 40 78.5 62.5t95.5 22.5q148 0 148 -156v-382h-84v320q0 86 -17 118.5t-73 32.5q-43 0 -81 -26t-62 -62v-383h-84zM304 -71q23 0 39 -15.5t16 -37.5q0 -20 -15 -55l-51 -107h-50l29 117q-22 17 -22 45q0 23 15.5 38t38.5 15z" />
    <glyph glyph-name="Ncaron" unicode="&#x147;" 
d="M425 905l37 -43l-134 -108h-57l-135 108l38 43l125 -81zM395 0l-243 605q12 -180 12 -260v-345h-81v689h118l247 -608q0 5 -3.5 48.5t-6 101.5t-2.5 113v345h81v-689h-122z" />
    <glyph glyph-name="ncaron" unicode="&#x148;" 
d="M425 789l38 -41l-134 -119h-57l-135 119l40 41l124 -90zM100 0v527h72l7 -74q31 40 78.5 62.5t95.5 22.5q148 0 148 -156v-382h-84v320q0 86 -17 118.5t-73 32.5q-43 0 -81 -26t-62 -62v-383h-84z" />
    <glyph glyph-name="napostrophe" unicode="&#x149;" 
d="M63 752q23 0 39 -15.5t16 -38.5q0 -21 -26 -77l-41 -87h-50l30 119q-23 20 -23 45q0 23 16 38.5t39 15.5zM109 0v527h72l7 -74q31 40 78.5 62.5t95.5 22.5q148 0 148 -156v-382h-84v320q0 86 -17 118.5t-73 32.5q-43 0 -81 -26t-62 -62v-383h-84z" />
    <glyph glyph-name="Eng" unicode="&#x14a;" 
d="M436 689h81v-751q0 -73 -38.5 -111.5t-106.5 -38.5q-64 0 -113 37l34 57q37 -24 75 -24q62 0 62 75v67h-35l-243 605q12 -180 12 -260v-345h-81v689h118l247 -608q0 5 -3.5 48.5t-6 101.5t-2.5 113v345z" />
    <glyph glyph-name="eng" unicode="&#x14b;" 
d="M501 29q0 -73 -18.5 -119t-49 -70.5t-87.5 -50.5l-31 61q39 19 58 34.5t31.5 49t12.5 89.5v297q0 87 -17 119t-75 32q-41 0 -79 -26t-62 -61v-384h-84v527h72l7 -74q31 40 78.5 62.5t95.5 22.5q148 0 148 -156v-353z" />
    <glyph glyph-name="Omacron" unicode="&#x14c;" 
d="M434 795h-269v64h269v-64zM553 344q0 -161 -65.5 -258t-187.5 -97q-123 0 -188 95t-65 259q0 161 65.5 259t187.5 98t187.5 -96.5t65.5 -259.5zM463 344q0 141 -39 212t-124 71t-124 -71.5t-39 -212.5q0 -281 163 -281q85 0 124 70.5t39 211.5z" />
    <glyph glyph-name="omacron" unicode="&#x14d;" 
d="M434 676h-269v64h269v-64zM301 538q109 0 167.5 -73.5t58.5 -200.5q0 -124 -59.5 -199.5t-167.5 -75.5q-109 0 -168 73.5t-59 200.5q0 125 59.5 200t168.5 75zM301 469q-137 0 -137 -206q0 -205 136 -205t136 206q0 205 -135 205z" />
    <glyph glyph-name="Obreve" unicode="&#x14e;" 
d="M298 759q-58 0 -100 32.5t-47 86.5l57 13q25 -67 90 -67q70 0 93 67l58 -13q-6 -54 -49 -86.5t-102 -32.5zM553 344q0 -161 -65.5 -258t-187.5 -97q-123 0 -188 95t-65 259q0 161 65.5 259t187.5 98t187.5 -96.5t65.5 -259.5zM463 344q0 141 -39 212t-124 71t-124 -71.5
t-39 -212.5q0 -281 163 -281q85 0 124 70.5t39 211.5z" />
    <glyph glyph-name="obreve" unicode="&#x14f;" 
d="M298 630q-63 0 -102 42t-46 94l58 13q25 -85 90 -85q68 0 93 85l57 -13q-7 -52 -46.5 -94t-103.5 -42zM301 538q109 0 167.5 -73.5t58.5 -200.5q0 -124 -59.5 -199.5t-167.5 -75.5q-109 0 -168 73.5t-59 200.5q0 125 59.5 200t168.5 75zM301 469q-137 0 -137 -206
q0 -205 136 -205t136 206q0 205 -135 205z" />
    <glyph glyph-name="Ohungarumlaut" unicode="&#x150;" 
d="M182 781l78 174l75 -36l-97 -164zM347 781l87 174l74 -39l-108 -163zM553 344q0 -161 -65.5 -258t-187.5 -97q-123 0 -188 95t-65 259q0 161 65.5 259t187.5 98t187.5 -96.5t65.5 -259.5zM463 344q0 141 -39 212t-124 71t-124 -71.5t-39 -212.5q0 -281 163 -281
q85 0 124 70.5t39 211.5z" />
    <glyph glyph-name="ohungarumlaut" unicode="&#x151;" 
d="M176 662l78 174l75 -36l-97 -164zM341 662l87 174l74 -39l-108 -163zM301 538q109 0 167.5 -73.5t58.5 -200.5q0 -124 -59.5 -199.5t-167.5 -75.5q-109 0 -168 73.5t-59 200.5q0 125 59.5 200t168.5 75zM301 469q-137 0 -137 -206q0 -205 136 -205t136 206
q0 205 -135 205z" />
    <glyph glyph-name="OE" unicode="&#x152;" 
d="M212 700q33 0 71 -11h325l-10 -71h-244q58 -69 65 -233h154v-71h-154q-4 -169 -69 -243h267v-71h-337q-35 -11 -68 -11q-213 0 -213 354q0 174 53.5 265.5t159.5 91.5zM211 628q-62 0 -90.5 -67t-28.5 -218q0 -150 29.5 -217t89.5 -67q64 0 93 66.5t29 218.5t-28.5 218
t-93.5 66z" />
    <glyph glyph-name="oe" unicode="&#x153;" 
d="M449 538q166 0 166 -259q0 -22 -2 -46h-263q7 -91 32.5 -132.5t77.5 -41.5q45 0 96 40l39 -58q-65 -52 -137 -52q-109 0 -149 101q-42 -101 -142 -101q-85 0 -127 72.5t-42 201.5q0 128 41.5 201.5t127.5 73.5q59 0 91.5 -26.5t50.5 -76.5q42 103 140 103zM178 470
q-49 0 -70 -50t-21 -157q0 -109 21 -157t70 -48t68.5 46.5t19.5 159.5q0 107 -20.5 156.5t-67.5 49.5zM447 468q-46 0 -68.5 -38t-28.5 -131h183q-2 87 -20.5 128t-65.5 41z" />
    <glyph glyph-name="Racute" unicode="&#x154;" 
d="M383 906l37 -72l-213 -79l-22 46zM537 495q0 -74 -46 -122.5t-122 -67.5l205 -305h-104l-189 295h-93v-295h-86v689h176q259 0 259 -194zM445 495q0 66 -38 95t-119 29h-100v-256h101q156 0 156 132z" />
    <glyph glyph-name="racute" unicode="&#x155;" 
d="M453 725l-209 -85l-26 45l197 112zM456 538q32 0 74 -11l-12 -179h-68v113h-5q-122 0 -173 -174v-222h107v-65h-274v65h83v397h-83v65h146l16 -125q32 68 76.5 102t112.5 34z" />
    <glyph glyph-name="Rcommaaccent" unicode="&#x156;" 
d="M537 495q0 -74 -46 -122.5t-122 -67.5l205 -305h-104l-189 295h-93v-295h-86v689h176q259 0 259 -194zM445 495q0 66 -38 95t-119 29h-100v-256h101q156 0 156 132zM302 -71q23 0 39 -15.5t16 -37.5q0 -20 -15 -55l-51 -107h-50l29 117q-22 17 -22 45q0 23 15.5 38
t38.5 15z" />
    <glyph glyph-name="rcommaaccent" unicode="&#x157;" 
d="M456 538q32 0 74 -11l-12 -179h-68v113h-5q-122 0 -173 -174v-222h107v-65h-274v65h83v397h-83v65h146l16 -125q32 68 76.5 102t112.5 34zM233 -71q23 0 39 -15.5t16 -37.5q0 -20 -15 -55l-51 -107h-50l29 117q-22 17 -22 45q0 23 15.5 38t38.5 15z" />
    <glyph glyph-name="Rcaron" unicode="&#x158;" 
d="M426 905l37 -43l-134 -108h-57l-135 108l38 43l125 -81zM537 495q0 -74 -46 -122.5t-122 -67.5l205 -305h-104l-189 295h-93v-295h-86v689h176q259 0 259 -194zM445 495q0 66 -38 95t-119 29h-100v-256h101q156 0 156 132z" />
    <glyph glyph-name="rcaron" unicode="&#x159;" 
d="M360 629h-57l-135 119l40 41l124 -90l124 90l38 -41zM456 538q32 0 74 -11l-12 -179h-68v113h-5q-122 0 -173 -174v-222h107v-65h-274v65h83v397h-83v65h146l16 -125q32 68 76.5 102t112.5 34z" />
    <glyph glyph-name="Sacute" unicode="&#x15a;" 
d="M389 906l37 -72l-213 -79l-22 46zM537 191q0 -91 -67 -146.5t-185 -55.5q-152 0 -242 87l52 59q79 -74 191 -74q68 0 114 33t46 95q0 51 -31.5 80t-118.5 54q-112 33 -167 77.5t-55 121.5q0 78 62 128t161 50q128 0 220 -79l-52 -56q-71 62 -165 62q-60 0 -99 -26
t-39 -76q0 -44 37 -71t136 -56q97 -28 149.5 -73t52.5 -134z" />
    <glyph glyph-name="sacute" unicode="&#x15b;" 
d="M391 797l38 -72l-209 -85l-26 45zM280 58q60 0 95 23t35 61t-24 59t-103 41q-92 23 -136 55.5t-44 96.5q0 66 55 105t145 39q110 0 192 -58l-38 -58q-69 48 -152 48q-114 0 -114 -69q0 -35 28 -52.5t111 -40.5q86 -23 128.5 -58.5t42.5 -103.5q0 -79 -64 -118t-157 -39
q-124 0 -206 71l47 55q69 -57 159 -57z" />
    <glyph glyph-name="Scircumflex" unicode="&#x15c;" 
d="M335 910l134 -107l-37 -43l-126 81l-125 -81l-38 43l135 107h57zM537 191q0 -91 -67 -146.5t-185 -55.5q-152 0 -242 87l52 59q79 -74 191 -74q68 0 114 33t46 95q0 51 -31.5 80t-118.5 54q-112 33 -167 77.5t-55 121.5q0 78 62 128t161 50q128 0 220 -79l-52 -56
q-71 62 -165 62q-60 0 -99 -26t-39 -76q0 -44 37 -71t136 -56q97 -28 149.5 -73t52.5 -134z" />
    <glyph glyph-name="scircumflex" unicode="&#x15d;" 
d="M184 629l-40 41l135 119h57l134 -119l-38 -41l-124 91zM280 58q60 0 95 23t35 61t-24 59t-103 41q-92 23 -136 55.5t-44 96.5q0 66 55 105t145 39q110 0 192 -58l-38 -58q-69 48 -152 48q-114 0 -114 -69q0 -35 28 -52.5t111 -40.5q86 -23 128.5 -58.5t42.5 -103.5
q0 -79 -64 -118t-157 -39q-124 0 -206 71l47 55q69 -57 159 -57z" />
    <glyph glyph-name="Scedilla" unicode="&#x15e;" 
d="M537 191q0 -84 -58 -138.5t-162 -62.5v-47q46 -4 69.5 -27.5t23.5 -55.5q0 -47 -35.5 -72.5t-86.5 -25.5q-63 0 -105 24l27 48q30 -16 67 -16q60 0 60 41q0 26 -21 35t-65 9l6 87q-132 8 -214 86l52 59q79 -74 191 -74q68 0 114 33t46 95q0 51 -31.5 80t-118.5 54
q-112 33 -167 77.5t-55 121.5q0 78 62 128t161 50q128 0 220 -79l-52 -56q-71 62 -165 62q-60 0 -99 -26t-39 -76q0 -44 37 -71t136 -56q97 -28 149.5 -73t52.5 -134z" />
    <glyph glyph-name="scedilla" unicode="&#x15f;" 
d="M501 146q0 -70 -52 -109t-132 -46v-48q46 -4 69.5 -27.5t23.5 -55.5q0 -47 -35.5 -72.5t-86.5 -25.5q-63 0 -105 24l27 48q30 -16 67 -16q60 0 60 41q0 26 -21 35t-65 9l6 87q-109 5 -183 70l47 55q69 -57 159 -57q60 0 95 23t35 61t-24 59t-103 41q-92 23 -136 55.5
t-44 96.5q0 66 55 105t145 39q110 0 192 -58l-38 -58q-69 48 -152 48q-114 0 -114 -69q0 -35 28 -52.5t111 -40.5q86 -23 128.5 -58.5t42.5 -103.5z" />
    <glyph glyph-name="Scaron" unicode="&#x160;" 
d="M432 905l37 -43l-134 -108h-57l-135 108l38 43l125 -81zM537 191q0 -91 -67 -146.5t-185 -55.5q-152 0 -242 87l52 59q79 -74 191 -74q68 0 114 33t46 95q0 51 -31.5 80t-118.5 54q-112 33 -167 77.5t-55 121.5q0 78 62 128t161 50q128 0 220 -79l-52 -56q-71 62 -165 62
q-60 0 -99 -26t-39 -76q0 -44 37 -71t136 -56q97 -28 149.5 -73t52.5 -134z" />
    <glyph glyph-name="scaron" unicode="&#x161;" 
d="M432 789l38 -41l-134 -119h-57l-135 119l40 41l124 -90zM280 58q60 0 95 23t35 61t-24 59t-103 41q-92 23 -136 55.5t-44 96.5q0 66 55 105t145 39q110 0 192 -58l-38 -58q-69 48 -152 48q-114 0 -114 -69q0 -35 28 -52.5t111 -40.5q86 -23 128.5 -58.5t42.5 -103.5
q0 -79 -64 -118t-157 -39q-124 0 -206 71l47 55q69 -57 159 -57z" />
    <glyph glyph-name="uni0162" unicode="&#x162;" 
d="M342 0h-14v-57q46 -4 69.5 -27.5t23.5 -55.5q0 -47 -35.5 -72.5t-86.5 -25.5q-63 0 -105 24l27 48q30 -16 67 -16q60 0 60 41q0 26 -21 35t-65 9l7 97h-14v614h-215v75h519l-9 -75h-208v-614z" />
    <glyph glyph-name="uni0163" unicode="&#x163;" 
d="M391 -57q46 -4 69.5 -27.5t23.5 -55.5q0 -47 -35.5 -72.5t-86.5 -25.5q-63 0 -105 24l27 48q30 -16 67 -16q60 0 60 41q0 26 -21 35t-65 9l6 90q-62 12 -96.5 53t-34.5 101v314h-121v66h121v119l84 10v-129h183l-11 -66h-172v-313q0 -89 101 -89q54 0 101 25l33 -57
q-51 -33 -128 -38v-46z" />
    <glyph glyph-name="Tcaron" unicode="&#x164;" 
d="M425 905l37 -43l-134 -108h-57l-135 108l38 43l125 -81zM342 614v-614h-87v614h-215v75h519l-9 -75h-208z" />
    <glyph glyph-name="tcaron" unicode="&#x165;" 
d="M364 762l76 -10l-53 -178l-48 7zM519 27q-59 -38 -142 -38t-130 43.5t-47 114.5v314h-121v66h121v119l84 10v-129h183l-11 -66h-172v-313q0 -89 101 -89q54 0 101 25z" />
    <glyph glyph-name="Tbar" unicode="&#x166;" 
d="M550 614h-208v-197h131v-67h-131v-350h-87v350h-130v67h130v197h-215v75h519z" />
    <glyph glyph-name="tbar" unicode="&#x167;" 
d="M486 84l33 -57q-59 -38 -142 -38t-130 43.5t-47 114.5v141h-110v64h110v109h-121v66h121v119l84 10v-129h183l-11 -66h-172v-109h173v-64h-173v-140q0 -89 101 -89q54 0 101 25z" />
    <glyph glyph-name="Utilde" unicode="&#x168;" 
d="M358 778q-28 0 -64 24t-52 24q-28 0 -53 -46l-53 26q41 85 106 85q30 0 65 -24.5t51 -24.5q27 0 53 45l54 -27q-38 -82 -107 -82zM528 689v-466q0 -105 -62.5 -169.5t-166.5 -64.5q-105 0 -166 64t-61 170v466h87v-469q0 -78 36 -117t104 -39q141 0 141 156v469h88z" />
    <glyph glyph-name="utilde" unicode="&#x169;" 
d="M358 659q-28 0 -64 24t-52 24q-28 0 -53 -46l-53 26q41 85 106 85q30 0 65 -24.5t51 -24.5q27 0 53 45l54 -27q-38 -82 -107 -82zM184 527v-374q0 -51 21.5 -74.5t67.5 -23.5q42 0 81 24t62 60v388h84v-527h-72l-7 71q-31 -39 -76.5 -60.5t-92.5 -21.5q-75 0 -113.5 40
t-38.5 115v383h84z" />
    <glyph glyph-name="Umacron" unicode="&#x16a;" 
d="M434 795h-269v64h269v-64zM528 689v-466q0 -105 -62.5 -169.5t-166.5 -64.5q-105 0 -166 64t-61 170v466h87v-469q0 -78 36 -117t104 -39q141 0 141 156v469h88z" />
    <glyph glyph-name="umacron" unicode="&#x16b;" 
d="M434 676h-269v64h269v-64zM184 527v-374q0 -51 21.5 -74.5t67.5 -23.5q42 0 81 24t62 60v388h84v-527h-72l-7 71q-31 -39 -76.5 -60.5t-92.5 -21.5q-75 0 -113.5 40t-38.5 115v383h84z" />
    <glyph glyph-name="Ubreve" unicode="&#x16c;" 
d="M298 759q-58 0 -100 32.5t-47 86.5l57 13q25 -67 90 -67q70 0 93 67l58 -13q-6 -54 -49 -86.5t-102 -32.5zM528 689v-466q0 -105 -62.5 -169.5t-166.5 -64.5q-105 0 -166 64t-61 170v466h87v-469q0 -78 36 -117t104 -39q141 0 141 156v469h88z" />
    <glyph glyph-name="ubreve" unicode="&#x16d;" 
d="M298 630q-63 0 -102 42t-46 94l58 13q25 -85 90 -85q68 0 93 85l57 -13q-7 -52 -46.5 -94t-103.5 -42zM184 527v-374q0 -51 21.5 -74.5t67.5 -23.5q42 0 81 24t62 60v388h84v-527h-72l-7 71q-31 -39 -76.5 -60.5t-92.5 -21.5q-75 0 -113.5 40t-38.5 115v383h84z" />
    <glyph glyph-name="Uring" unicode="&#x16e;" 
d="M300 943q48 0 79.5 -30t31.5 -73t-31.5 -72.5t-79.5 -29.5t-79.5 29.5t-31.5 72.5t31.5 73t79.5 30zM300 896q-25 0 -39.5 -15t-14.5 -41q0 -27 14.5 -42t39.5 -15q26 0 40 15t14 42q0 26 -14.5 41t-39.5 15zM528 689v-466q0 -105 -62.5 -169.5t-166.5 -64.5
q-105 0 -166 64t-61 170v466h87v-469q0 -78 36 -117t104 -39q141 0 141 156v469h88z" />
    <glyph glyph-name="uring" unicode="&#x16f;" 
d="M300 824q48 0 79.5 -30t31.5 -73t-31.5 -72.5t-79.5 -29.5t-79.5 29.5t-31.5 72.5t31.5 73t79.5 30zM300 777q-25 0 -39.5 -15t-14.5 -41q0 -27 14.5 -42t39.5 -15q26 0 40 15t14 42q0 26 -14.5 41t-39.5 15zM184 527v-374q0 -51 21.5 -74.5t67.5 -23.5q42 0 81 24t62 60
v388h84v-527h-72l-7 71q-31 -39 -76.5 -60.5t-92.5 -21.5q-75 0 -113.5 40t-38.5 115v383h84z" />
    <glyph glyph-name="Uhungarumlaut" unicode="&#x170;" 
d="M182 781l78 174l75 -36l-97 -164zM347 781l87 174l74 -39l-108 -163zM528 689v-466q0 -105 -62.5 -169.5t-166.5 -64.5q-105 0 -166 64t-61 170v466h87v-469q0 -78 36 -117t104 -39q141 0 141 156v469h88z" />
    <glyph glyph-name="uhungarumlaut" unicode="&#x171;" 
d="M176 662l78 174l75 -36l-97 -164zM341 662l87 174l74 -39l-108 -163zM184 527v-374q0 -51 21.5 -74.5t67.5 -23.5q42 0 81 24t62 60v388h84v-527h-72l-7 71q-31 -39 -76.5 -60.5t-92.5 -21.5q-75 0 -113.5 40t-38.5 115v383h84z" />
    <glyph glyph-name="Uogonek" unicode="&#x172;" 
d="M440 689h88v-466q0 -84 -40.5 -143t-112.5 -81q-71 -31 -97 -57.5t-26 -55.5q0 -48 56 -48q27 0 61 7l-8 -68q-42 -6 -64 -6q-56 0 -89 27.5t-33 70.5q0 74 88 122q-89 11 -140 73.5t-51 158.5v466h87v-469q0 -78 36 -117t104 -39q141 0 141 156v469z" />
    <glyph glyph-name="uogonek" unicode="&#x173;" 
d="M500 0q-72 -31 -98 -58t-26 -56q0 -48 56 -48q27 0 61 7l-8 -68q-42 -6 -64 -6q-56 0 -89 27.5t-33 70.5q0 89 128 141l-6 61q-31 -39 -76.5 -60.5t-92.5 -21.5q-75 0 -113.5 40t-38.5 115v383h84v-374q0 -51 21.5 -74.5t67.5 -23.5q42 0 81 24t62 60v388h84v-527z" />
    <glyph glyph-name="Wcircumflex" unicode="&#x174;" 
d="M329 910l134 -107l-37 -43l-126 81l-125 -81l-38 43l135 107h57zM595 689l-104 -689h-114l-79 520l-80 -520h-117l-96 689h87l73 -594l83 514h106l79 -514l82 594h80z" />
    <glyph glyph-name="wcircumflex" unicode="&#x175;" 
d="M177 629l-40 41l135 119h57l134 -119l-38 -41l-124 91zM491 0h-119l-69 386l-74 -386h-116l-95 527h85l68 -475l84 408h99l79 -408l68 475h81z" />
    <glyph glyph-name="Ycircumflex" unicode="&#x176;" 
d="M332 910l134 -107l-37 -43l-126 81l-125 -81l-38 43l135 107h57zM344 266v-266h-88v265l-233 424h96l183 -346l185 346h90z" />
    <glyph glyph-name="ycircumflex" unicode="&#x177;" 
d="M177 629l-40 41l135 119h57l134 -119l-38 -41l-124 91zM538 527l-184 -530q-31 -91 -85 -145t-151 -64l-12 67q76 13 110.5 46t56.5 99h-28l-183 527h89l151 -463l149 463h87z" />
    <glyph glyph-name="Ydieresis" unicode="&#x178;" 
d="M199 767q-23 0 -39 15.5t-16 37.5q0 24 16 39.5t39 15.5t38.5 -15.5t15.5 -39.5q0 -23 -15.5 -38t-38.5 -15zM406 767q-23 0 -38.5 15t-15.5 38q0 24 15.5 39.5t38.5 15.5t39 -15.5t16 -39.5q0 -22 -16 -37.5t-39 -15.5zM344 266v-266h-88v265l-233 424h96l183 -346
l185 346h90z" />
    <glyph glyph-name="Zacute" unicode="&#x179;" 
d="M402 906l37 -72l-213 -79l-22 46zM167 75h360l-10 -75h-445v70l363 544h-327v75h420v-72z" />
    <glyph glyph-name="zacute" unicode="&#x17a;" 
d="M394 797l38 -72l-209 -85l-26 45zM205 72h293l-10 -72h-386v64l292 389h-269v74h370v-66z" />
    <glyph glyph-name="Zdotaccent" unicode="&#x17b;" 
d="M318 892q27 0 44 -16.5t17 -42.5t-17 -42.5t-44 -16.5t-43.5 16.5t-16.5 42.5t16.5 42.5t43.5 16.5zM167 75h360l-10 -75h-445v70l363 544h-327v75h420v-72z" />
    <glyph glyph-name="zdotaccent" unicode="&#x17c;" 
d="M309 773q27 0 44 -16.5t17 -42.5t-17 -42.5t-44 -16.5t-43.5 16.5t-16.5 42.5t16.5 42.5t43.5 16.5zM205 72h293l-10 -72h-386v64l292 389h-269v74h370v-66z" />
    <glyph glyph-name="Zcaron" unicode="&#x17d;" 
d="M445 905l37 -43l-134 -108h-57l-135 108l38 43l125 -81zM167 75h360l-10 -75h-445v70l363 544h-327v75h420v-72z" />
    <glyph glyph-name="zcaron" unicode="&#x17e;" 
d="M435 789l38 -41l-134 -119h-57l-135 119l40 41l124 -90zM205 72h293l-10 -72h-386v64l292 389h-269v74h370v-66z" />
    <glyph glyph-name="florin" unicode="&#x192;" 
d="M369 749q63 0 123 -27l-29 -62q-44 20 -91 20q-43 0 -61.5 -19t-18.5 -59v-75h129l-10 -67h-119v-421q0 -111 -33.5 -161t-120.5 -89l-31 60q58 27 80 60t22 114v437h-85v67h85v73q0 67 42 108t118 41z" />
    <glyph glyph-name="AEacute" unicode="&#x1fc;" 
d="M444 906l37 -72l-213 -79l-22 46zM330 175h-204l-49 -175h-89l202 689h376l-10 -71h-236l51 -233h186v-71h-173l52 -243h171v-71h-241zM148 248h166l-73 372z" />
    <glyph glyph-name="aeacute" unicode="&#x1fd;" 
d="M393 797l38 -72l-209 -85l-26 45zM435 538q172 0 172 -259q0 -22 -2 -46h-269q7 -91 33.5 -132.5t79.5 -41.5q47 0 99 40l39 -58q-67 -52 -140 -52q-98 0 -148 89q-35 -48 -69.5 -68.5t-83.5 -20.5q-70 0 -111 44t-41 118q0 83 54.5 126t159.5 43h46v43q0 105 -91 105
q-42 0 -105 -27l-22 63q71 34 135 34q103 0 138 -88q14 41 46.5 64.5t79.5 23.5zM432 468q-46 0 -68 -38t-28 -131h189q-2 86 -23 127.5t-70 41.5zM254 262h-42q-69 0 -98 -27.5t-29 -78.5q0 -50 20 -76.5t54 -26.5q31 0 55.5 23t53.5 74q-14 45 -14 112z" />
    <glyph glyph-name="Oslashacute" unicode="&#x1fe;" 
d="M420 834l-213 -79l-22 46l198 105zM434 659q119 -87 119 -315q0 -161 -65.5 -258t-187.5 -97q-28 0 -63 7l-33 -106l-75 19l38 120q-120 85 -120 314q0 161 65.5 259t187.5 98q33 0 65 -8l32 111l75 -20zM138 343q0 -185 60 -245l150 523q-21 6 -48 6q-85 0 -123.5 -71.5
t-38.5 -212.5zM300 62q85 0 123.5 70.5t38.5 211.5q0 188 -60 247l-150 -523q21 -6 48 -6z" />
    <glyph glyph-name="oslashacute" unicode="&#x1ff;" 
d="M422 725l-209 -85l-26 45l197 112zM417 508q110 -67 110 -244q0 -124 -59.5 -199.5t-167.5 -75.5q-23 0 -50 5l-37 -124l-70 20l42 129q-54 32 -83 95t-29 149q0 125 59.5 200t168.5 75q22 0 49 -5l38 121l70 -21zM301 469q-137 0 -137 -206q0 -132 52 -178l118 381
q-15 3 -33 3zM300 58q136 0 136 206q0 132 -51 177l-118 -380q15 -3 33 -3z" />
    <glyph glyph-name="Scommaaccent" unicode="&#x218;" 
d="M537 191q0 -91 -67 -146.5t-185 -55.5q-152 0 -242 87l52 59q79 -74 191 -74q68 0 114 33t46 95q0 51 -31.5 80t-118.5 54q-112 33 -167 77.5t-55 121.5q0 78 62 128t161 50q128 0 220 -79l-52 -56q-71 62 -165 62q-60 0 -99 -26t-39 -76q0 -44 37 -71t136 -56
q97 -28 149.5 -73t52.5 -134zM300 -71q23 0 39 -15.5t16 -37.5q0 -20 -15 -55l-51 -107h-50l29 117q-22 17 -22 45q0 23 15.5 38t38.5 15z" />
    <glyph glyph-name="scommaaccent" unicode="&#x219;" 
d="M280 58q60 0 95 23t35 61t-24 59t-103 41q-92 23 -136 55.5t-44 96.5q0 66 55 105t145 39q110 0 192 -58l-38 -58q-69 48 -152 48q-114 0 -114 -69q0 -35 28 -52.5t111 -40.5q86 -23 128.5 -58.5t42.5 -103.5q0 -79 -64 -118t-157 -39q-124 0 -206 71l47 55
q69 -57 159 -57zM300 -71q23 0 39 -15.5t16 -37.5q0 -20 -15 -55l-51 -107h-50l29 117q-22 17 -22 45q0 23 15.5 38t38.5 15z" />
    <glyph glyph-name="uni021A" unicode="&#x21a;" 
d="M342 614v-614h-87v614h-215v75h519l-9 -75h-208zM302 -71q23 0 39 -15.5t16 -37.5q0 -20 -15 -55l-51 -107h-50l29 117q-22 17 -22 45q0 23 15.5 38t38.5 15z" />
    <glyph glyph-name="uni021B" unicode="&#x21b;" 
d="M519 27q-59 -38 -142 -38t-130 43.5t-47 114.5v314h-121v66h121v119l84 10v-129h183l-11 -66h-172v-313q0 -89 101 -89q54 0 101 25zM374 -71q23 0 39 -15.5t16 -37.5q0 -20 -15 -55l-51 -107h-50l29 117q-22 17 -22 45q0 23 15.5 38t38.5 15z" />
    <glyph glyph-name="uni0237" unicode="&#x237;" 
d="M445 527v-443q0 -127 -84.5 -197.5t-250.5 -98.5l-14 65q127 21 196 73.5t69 152.5v381h-219v67h303z" />
    <glyph glyph-name="uni02B9" unicode="&#x2b9;" 
d="M210 429l86 260h94l-115 -260h-65z" />
    <glyph glyph-name="uni02BA" unicode="&#x2ba;" 
d="M138 429l86 260h94l-115 -260h-65zM282 429l86 260h94l-115 -260h-65z" />
    <glyph glyph-name="uni02BC" unicode="&#x2bc;" 
d="M293 749q23 0 39 -15.5t16 -38.5q0 -20 -26 -76l-42 -89h-50l31 121q-23 18 -23 45q0 22 16 37.5t39 15.5z" />
    <glyph glyph-name="circumflex" unicode="&#x2c6;" 
d="M177 629l-40 41l135 119h57l134 -119l-38 -41l-124 91z" />
    <glyph glyph-name="caron" unicode="&#x2c7;" 
d="M425 789l38 -41l-134 -119h-57l-135 119l40 41l124 -90z" />
    <glyph glyph-name="uni02C9" unicode="&#x2c9;" 
d="M434 683h-269v64h269v-64z" />
    <glyph glyph-name="breve" unicode="&#x2d8;" 
d="M298 630q-63 0 -102 42t-46 94l58 13q25 -85 90 -85q68 0 93 85l57 -13q-7 -52 -46.5 -94t-103.5 -42z" />
    <glyph glyph-name="dotaccent" unicode="&#x2d9;" 
d="M299 773q27 0 44 -16.5t17 -42.5t-17 -42.5t-44 -16.5t-43.5 16.5t-16.5 42.5t16.5 42.5t43.5 16.5z" />
    <glyph glyph-name="ring" unicode="&#x2da;" 
d="M300 824q48 0 79.5 -30t31.5 -73t-31.5 -72.5t-79.5 -29.5t-79.5 29.5t-31.5 72.5t31.5 73t79.5 30zM300 777q-25 0 -39.5 -15t-14.5 -41q0 -27 14.5 -42t39.5 -15q26 0 40 15t14 42q0 26 -14.5 41t-39.5 15z" />
    <glyph glyph-name="ogonek" unicode="&#x2db;" 
d="M388 31l14 -31q-72 -31 -98 -58t-26 -56q0 -48 56 -48q27 0 61 7l-8 -68q-42 -6 -64 -6q-56 0 -89 27.5t-33 70.5q0 106 187 162z" />
    <glyph glyph-name="tilde" unicode="&#x2dc;" 
d="M358 659q-28 0 -64 24t-52 24q-28 0 -53 -46l-53 26q41 85 106 85q30 0 65 -24.5t51 -24.5q27 0 53 45l54 -27q-38 -82 -107 -82z" />
    <glyph glyph-name="hungarumlaut" unicode="&#x2dd;" 
d="M137 662l78 174l75 -36l-97 -164zM302 662l87 174l74 -39l-108 -163z" />
    <glyph glyph-name="gravecomb" unicode="&#x300;" horiz-adv-x="0" 
d="M-380 797l196 -112l-26 -45l-209 85z" />
    <glyph glyph-name="acutecomb" unicode="&#x301;" horiz-adv-x="0" 
d="M-216 797l38 -72l-209 -85l-26 45z" />
    <glyph glyph-name="uni0302" unicode="&#x302;" horiz-adv-x="0" 
d="M-271 748l134 -107l-37 -43l-126 81l-125 -81l-38 43l135 107h57z" />
    <glyph glyph-name="tildecomb" unicode="&#x303;" horiz-adv-x="0" 
d="M-241 659q-28 0 -64 24t-52 24q-28 0 -53 -46l-53 26q41 85 106 85q30 0 65 -24.5t51 -24.5q27 0 53 45l54 -27q-38 -82 -107 -82z" />
    <glyph glyph-name="uni0304" unicode="&#x304;" horiz-adv-x="0" 
d="M-165 622h-269v64h269v-64z" />
    <glyph glyph-name="uni0305" unicode="&#x305;" horiz-adv-x="0" 
d="M-85 622h-429v64h429v-64z" />
    <glyph glyph-name="uni0306" unicode="&#x306;" horiz-adv-x="0" 
d="M-302 586q-59 0 -100.5 32.5t-47.5 86.5l58 13q23 -67 90 -67q71 0 94 67l58 -13q-6 -54 -49 -86.5t-103 -32.5z" />
    <glyph glyph-name="uni0307" unicode="&#x307;" horiz-adv-x="0" 
d="M-300 719q27 0 44 -16.5t17 -42.5t-17 -42.5t-44 -16.5t-43.5 16.5t-16.5 42.5t16.5 42.5t43.5 16.5z" />
    <glyph glyph-name="uni0308" unicode="&#x308;" horiz-adv-x="0" 
d="M-404 648q-23 0 -39 15.5t-16 37.5q0 24 16 39.5t39 15.5t38.5 -15.5t15.5 -39.5q0 -23 -15.5 -38t-38.5 -15zM-197 648q-23 0 -38.5 15t-15.5 38q0 24 15.5 39.5t38.5 15.5t39 -15.5t16 -39.5q0 -22 -16 -37.5t-39 -15.5z" />
    <glyph glyph-name="uni030A" unicode="&#x30a;" horiz-adv-x="0" 
d="M-300 770q48 0 79.5 -30t31.5 -73t-31.5 -72.5t-79.5 -29.5t-79.5 29.5t-31.5 72.5t31.5 73t79.5 30zM-300 723q-25 0 -39.5 -15t-14.5 -41q0 -27 14.5 -42t39.5 -15q26 0 40 15t14 42q0 26 -14.5 41t-39.5 15z" />
    <glyph glyph-name="uni030B" unicode="&#x30b;" horiz-adv-x="0" 
d="M-463 608l78 174l75 -36l-97 -164zM-298 608l87 174l74 -39l-108 -163z" />
    <glyph glyph-name="uni030C" unicode="&#x30c;" horiz-adv-x="0" 
d="M-174 731l37 -42l-134 -108h-57l-135 108l38 42l125 -80z" />
    <glyph glyph-name="uni030F" unicode="&#x30f;" horiz-adv-x="0" 
d="M-302 662l-53 -28l-108 163l74 39zM-137 662l-56 -26l-97 164l75 36z" />
    <glyph glyph-name="uni0313" unicode="&#x313;" horiz-adv-x="0" 
d="M-282 762q23 0 39 -15.5t16 -37.5q0 -21 -15 -55l-51 -107h-50l29 117q-22 17 -22 45q0 23 15.5 38t38.5 15z" />
    <glyph glyph-name="uni0314" unicode="&#x314;" horiz-adv-x="0" 
d="M-303 560q-23 0 -39 15.5t-16 37.5q0 21 15 55l51 107h50l-29 -117q22 -17 22 -45q0 -23 -15.5 -38t-38.5 -15z" />
    <glyph glyph-name="uni0326" unicode="&#x326;" horiz-adv-x="0" 
d="M-297 -71q23 0 39 -15.5t16 -37.5q0 -20 -15 -55l-51 -107h-50l29 117q-22 17 -22 45q0 23 15.5 38t38.5 15z" />
    <glyph glyph-name="uni0327" unicode="&#x327;" horiz-adv-x="0" 
d="M-259 -152q0 26 -21 35t-65 9l8 113h58v-73q46 -4 69.5 -27.5t23.5 -55.5q0 -47 -35.5 -72.5t-86.5 -25.5q-63 0 -105 24l27 48q30 -16 67 -16q60 0 60 41z" />
    <glyph glyph-name="uni0335" unicode="&#x335;" horiz-adv-x="0" 
d="M-129 278h-343v67h343v-67z" />
    <glyph glyph-name="uni0336" unicode="&#x336;" horiz-adv-x="0" 
d="M26 278h-651v67h651v-67z" />
    <glyph glyph-name="uni0342" unicode="&#x342;" horiz-adv-x="0" 
d="M-242 659q-28 0 -64 24t-52 24q-28 0 -53 -46l-53 26q41 85 106 85q30 0 65 -24.5t51 -24.5q27 0 53 45l54 -27q-38 -82 -107 -82z" />
    <glyph glyph-name="uni0345" unicode="&#x345;" horiz-adv-x="0" 
d="M-293 -188q-52 0 -81 27.5t-29 74.5v47h75v-45q0 -42 42 -42q29 0 57 17l33 -45q-45 -34 -97 -34z" />
    <glyph glyph-name="uni0370" unicode="&#x370;" 
d="M486 327h-285v-327h-87v689h87v-291h285v-71z" />
    <glyph glyph-name="uni0371" unicode="&#x371;" 
d="M523 307v-72h-303v-235h-84v354q0 92 -27 173l77 11q34 -74 34 -200v-31h303z" />
    <glyph glyph-name="uni0372" unicode="&#x372;" 
d="M36 689h529v-265h-76v189h-145v-613h-87v613h-145v-191h-76v267z" />
    <glyph glyph-name="uni0373" unicode="&#x373;" 
d="M568 527v-70l-226 -1v-658l-84 -10v668h-137q-47 0 -87 -11l-15 67q42 15 105 15h444z" />
    <glyph glyph-name="uni0374" unicode="&#x374;" 
d="M210 429l86 260h94l-115 -260h-65z" />
    <glyph glyph-name="uni0375" unicode="&#x375;" 
d="M390 127l-86 -260h-94l115 260h65z" />
    <glyph glyph-name="uni0376" unicode="&#x376;" 
d="M83 0v689h86v-349q0 -145 -14 -263l250 612h112v-689h-86v349q0 133 14 257l-248 -606h-114z" />
    <glyph glyph-name="uni0377" unicode="&#x377;" 
d="M492 136q0 -37 10.5 -54.5t36.5 -29.5l-29 -63q-57 15 -81 51.5t-24 103.5q0 84 18 282l-225 -426h-103v527h84v-247q0 -36 -2 -78.5t-4 -70t-2 -28.5l223 424h98v-391z" />
    <glyph glyph-name="uni037A" unicode="&#x37a;" 
d="M307 -188q-52 0 -81 27.5t-29 74.5v47h75v-45q0 -42 42 -42q29 0 57 17l33 -45q-45 -34 -97 -34z" />
    <glyph glyph-name="uni037B" unicode="&#x37b;" 
d="M263 -11q-97 0 -172 56l39 54q36 -21 63 -29.5t66 -8.5q75 0 117.5 49t42.5 151q0 206 -150 206q-76 0 -137 -39l-41 54q81 56 177 56q113 0 177.5 -75.5t64.5 -203.5q0 -127 -67 -198.5t-180 -71.5z" />
    <glyph glyph-name="uni037C" unicode="&#x37c;" 
d="M339 61q69 0 137 46l40 -55q-33 -29 -82 -46t-95 -17q-117 0 -182.5 73.5t-65.5 198.5q0 122 66.5 199.5t181.5 77.5q102 0 176 -62l-41 -55q-69 46 -136 46q-71 0 -113.5 -52.5t-42.5 -153.5t42.5 -150.5t114.5 -49.5zM349 326q27 0 44 -17t17 -43t-17 -43t-44 -17
t-44 17t-17 43t17 43t44 17z" />
    <glyph glyph-name="uni037D" unicode="&#x37d;" 
d="M263 -11q-97 0 -172 56l39 54q36 -21 63 -29.5t66 -8.5q75 0 117.5 49t42.5 151q0 206 -150 206q-76 0 -137 -39l-41 54q81 56 177 56q113 0 177.5 -75.5t64.5 -203.5q0 -127 -67 -198.5t-180 -71.5zM249 326q27 0 44 -17t17 -43t-17 -43t-44 -17t-44 17t-17 43t17 43
t44 17z" />
    <glyph glyph-name="uni037E" unicode="&#x37e;" 
d="M308 511q35 0 58 -23.5t23 -56.5q0 -34 -23 -58t-58 -24q-34 0 -57 24t-23 58q0 33 23 56.5t57 23.5zM308 166q34 0 57.5 -23.5t23.5 -57.5q0 -36 -19 -79l-82 -186h-76l48 198q-32 24 -32 67q0 34 23 57.5t57 23.5z" />
    <glyph glyph-name="uni037F" unicode="&#x37f;" 
d="M497 689v-460q0 -46 -12 -86.5t-37.5 -76.5t-73.5 -57t-113 -21q-105 0 -188 63l38 57q75 -47 149 -47q72 0 111 45.5t39 126.5v385h-204v71h291z" />
    <glyph glyph-name="tonos" unicode="&#x384;" 
d="M274 808l89 -17l-65 -195l-60 10z" />
    <glyph glyph-name="dieresistonos" unicode="&#x385;" 
d="M298 914l89 -19l-59 -167l-59 9zM198 735q23 0 38.5 -15.5t15.5 -38.5t-15.5 -38.5t-38.5 -15.5t-39 15.5t-16 38.5t16 38.5t39 15.5zM401 735q23 0 39 -15.5t16 -38.5t-16 -38.5t-39 -15.5t-38.5 15.5t-15.5 38.5t15.5 38.5t38.5 15.5z" />
    <glyph glyph-name="Alphatonos" unicode="&#x386;" 
d="M90 705l99 -16l-71 -196l-65 10zM434 176h-273l-55 -176h-86l225 689h110l224 -689h-90zM184 248h227l-113 367z" />
    <glyph glyph-name="anoteleia" unicode="&#x387;" 
d="M212 342q0 37 25.5 62.5t62.5 25.5q38 0 63 -25.5t25 -62.5q0 -38 -25 -63t-63 -25t-63 25t-25 63z" />
    <glyph glyph-name="Epsilontonos" unicode="&#x388;" 
d="M8 705l99 -16l-71 -196l-65 10zM212 617v-232h256v-71h-256v-244h314v-70h-400v689h391l-10 -72h-295z" />
    <glyph glyph-name="Etatonos" unicode="&#x389;" 
d="M-35 705l99 -16l-71 -196l-65 10zM430 0v327h-260v-327h-87v689h87v-291h260v291h87v-689h-87z" />
    <glyph glyph-name="Iotatonos" unicode="&#x38a;" 
d="M-15 705l99 -16l-71 -196l-65 10zM497 689v-70h-153v-550h153v-69h-394v69h153v550h-153v70h394z" />
    <glyph glyph-name="Omicrontonos" unicode="&#x38c;" 
d="M-3 705l99 -16l-71 -196l-65 10zM553 344q0 -161 -65.5 -258t-187.5 -97q-123 0 -188 95t-65 259q0 161 65.5 259t187.5 98t187.5 -96.5t65.5 -259.5zM463 344q0 141 -39 212t-124 71t-124 -71.5t-39 -212.5q0 -281 163 -281q85 0 124 70.5t39 211.5z" />
    <glyph glyph-name="Upsilontonos" unicode="&#x38e;" 
d="M-85 705l99 -16l-71 -196l-65 10zM344 266v-266h-88v265l-233 424h96l183 -346l185 346h90z" />
    <glyph glyph-name="Omegatonos" unicode="&#x38f;" 
d="M-3 705l99 -16l-71 -196l-65 10zM300 627q-82 0 -122.5 -66t-40.5 -212q0 -221 129 -284v-65h-208v70h119q-130 67 -130 279q0 166 68 258.5t185 92.5t185 -92.5t68 -258.5q0 -207 -131 -279h120v-70h-207v65q128 62 128 284q0 146 -41 212t-122 66z" />
    <glyph glyph-name="iotadieresistonos" unicode="&#x390;" 
d="M282 914l89 -19l-59 -167l-59 9zM182 735q23 0 38.5 -15.5t15.5 -38.5t-15.5 -38.5t-38.5 -15.5t-39 15.5t-16 38.5t16 38.5t39 15.5zM385 735q23 0 39 -15.5t16 -38.5t-16 -38.5t-39 -15.5t-38.5 15.5t-15.5 38.5t15.5 38.5t38.5 15.5zM240 455h-177l9 72h252v-397
q0 -71 87 -71q42 0 89 18l22 -61q-46 -27 -125 -27q-72 0 -114.5 40t-42.5 111v315z" />
    <glyph glyph-name="Alpha" unicode="&#x391;" 
d="M434 176h-273l-55 -176h-86l225 689h110l224 -689h-90zM184 248h227l-113 367z" />
    <glyph glyph-name="Beta" unicode="&#x392;" 
d="M540 196q0 -54 -22 -93.5t-60 -61t-82 -31.5t-94 -10h-186v689h170q49 0 90 -8.5t77 -27.5t56.5 -54t20.5 -84q0 -62 -37 -99.5t-92 -50.5q159 -27 159 -169zM421 510q0 108 -135 108h-103v-222h111q127 0 127 114zM448 193q0 131 -148 131h-117v-252h114q151 0 151 121z
" />
    <glyph glyph-name="Gamma" unicode="&#x393;" 
d="M544 689l-9 -77h-312v-612h-87v689h408z" />
    <glyph glyph-name="uni0394" unicode="&#x394;" 
d="M355 689l224 -689h-559l225 689h110zM298 613l-169 -542h337z" />
    <glyph glyph-name="Epsilon" unicode="&#x395;" 
d="M212 617v-232h256v-71h-256v-244h314v-70h-400v689h391l-10 -72h-295z" />
    <glyph glyph-name="Zeta" unicode="&#x396;" 
d="M167 75h360l-10 -75h-445v70l363 544h-327v75h420v-72z" />
    <glyph glyph-name="Eta" unicode="&#x397;" 
d="M430 0v327h-260v-327h-87v689h87v-291h260v291h87v-689h-87z" />
    <glyph glyph-name="Theta" unicode="&#x398;" 
d="M553 344q0 -161 -65.5 -258t-187.5 -97q-123 0 -188 95t-65 259q0 161 65.5 259t187.5 98t187.5 -96.5t65.5 -259.5zM462 344q0 141 -38.5 212t-123.5 71t-123.5 -71.5t-38.5 -212.5q0 -281 162 -281q85 0 123.5 70.5t38.5 211.5zM402 316h-205v72h205v-72z" />
    <glyph glyph-name="Iota" unicode="&#x399;" 
d="M497 689v-70h-153v-550h153v-69h-394v69h153v550h-153v70h394z" />
    <glyph glyph-name="Kappa" unicode="&#x39a;" 
d="M192 0h-87v689h87v-689zM197 368l270 321h101l-269 -316l288 -373h-109z" />
    <glyph glyph-name="Lambda" unicode="&#x39b;" 
d="M355 689l219 -689h-90l-186 608l-187 -608h-87l221 689h110z" />
    <glyph glyph-name="Mu" unicode="&#x39c;" 
d="M531 689l39 -689h-84l-21 360q-6 95 -6 249l-116 -485h-87l-124 485q6 -113 -2 -249l-18 -360h-82l39 689h121l112 -472l107 472h122z" />
    <glyph glyph-name="Nu" unicode="&#x39d;" 
d="M395 0l-243 605q12 -180 12 -260v-345h-81v689h118l247 -608q0 5 -3.5 48.5t-6 101.5t-2.5 113v345h81v-689h-122z" />
    <glyph glyph-name="Xi" unicode="&#x39e;" 
d="M513 689l-12 -80h-424v80h436zM464 389v-80h-337v80h337zM523 81v-81h-446v81h446z" />
    <glyph glyph-name="Omicron" unicode="&#x39f;" 
d="M553 344q0 -161 -65.5 -258t-187.5 -97q-123 0 -188 95t-65 259q0 161 65.5 259t187.5 98t187.5 -96.5t65.5 -259.5zM463 344q0 141 -39 212t-124 71t-124 -71.5t-39 -212.5q0 -281 163 -281q85 0 124 70.5t39 211.5z" />
    <glyph glyph-name="Pi" unicode="&#x3a0;" 
d="M430 0v613h-260v-613h-87v689h434v-689h-87z" />
    <glyph glyph-name="Rho" unicode="&#x3a1;" 
d="M557 477q0 -115 -71 -168t-195 -53h-89v-256h-86v689h175q127 0 196.5 -53t69.5 -159zM464 476q0 144 -162 144h-100v-295h97q78 0 121.5 34t43.5 117z" />
    <glyph glyph-name="Sigma" unicode="&#x3a3;" 
d="M404 315l-229 -242h352v-73h-454v73l255 271l-255 270v75h454v-74h-354l231 -238v-62z" />
    <glyph glyph-name="Tau" unicode="&#x3a4;" 
d="M342 614v-614h-87v614h-215v75h519l-9 -75h-208z" />
    <glyph glyph-name="Upsilon" unicode="&#x3a5;" 
d="M344 266v-266h-88v265l-233 424h96l183 -346l185 346h90z" />
    <glyph glyph-name="Phi" unicode="&#x3a6;" 
d="M342 689v-79q247 -13 247 -263q0 -128 -63 -195t-184 -71v-81h-84v81q-120 4 -183.5 71t-63.5 195q0 250 247 263v79h84zM259 545q-84 -2 -122.5 -46.5t-38.5 -151.5q0 -103 38 -150t123 -52v400zM341 545v-400q85 5 123 52.5t38 149.5q0 108 -38.5 152.5t-122.5 45.5z
" />
    <glyph glyph-name="Chi" unicode="&#x3a7;" 
d="M49 689h100l151 -265l152 265h93l-195 -317l219 -372h-100l-171 311l-174 -311h-93l216 367z" />
    <glyph glyph-name="Psi" unicode="&#x3a8;" 
d="M256 0v192q-122 9 -182.5 73t-60.5 165v259h89v-254q0 -79 35 -120.5t120 -48.5v423h87v-422q83 7 118.5 48.5t35.5 119.5v254h89v-259q0 -100 -61 -163.5t-181 -73.5v-193h-89z" />
    <glyph glyph-name="uni03A9" unicode="&#x3a9;" 
d="M300 627q-82 0 -122.5 -66t-40.5 -212q0 -221 129 -284v-65h-208v70h119q-130 67 -130 279q0 166 68 258.5t185 92.5t185 -92.5t68 -258.5q0 -207 -131 -279h120v-70h-207v65q128 62 128 284q0 146 -41 212t-122 66z" />
    <glyph glyph-name="Iotadieresis" unicode="&#x3aa;" 
d="M196 767q-23 0 -39 15.5t-16 37.5q0 24 16 39.5t39 15.5t38.5 -15.5t15.5 -39.5q0 -23 -15.5 -38t-38.5 -15zM403 767q-23 0 -38.5 15t-15.5 38q0 24 15.5 39.5t38.5 15.5t39 -15.5t16 -39.5q0 -22 -16 -37.5t-39 -15.5zM497 689v-70h-153v-550h153v-69h-394v69h153v550
h-153v70h394z" />
    <glyph glyph-name="Upsilondieresis" unicode="&#x3ab;" 
d="M199 767q-23 0 -39 15.5t-16 37.5q0 24 16 39.5t39 15.5t38.5 -15.5t15.5 -39.5q0 -23 -15.5 -38t-38.5 -15zM406 767q-23 0 -38.5 15t-15.5 38q0 24 15.5 39.5t38.5 15.5t39 -15.5t16 -39.5q0 -22 -16 -37.5t-39 -15.5zM344 266v-266h-88v265l-233 424h96l183 -346
l185 346h90z" />
    <glyph glyph-name="alphatonos" unicode="&#x3ac;" 
d="M284 808l89 -17l-65 -195l-60 10zM255 538q70 0 110 -37.5t56 -127.5l27 154h77l-51 -281l25 -136q7 -37 45 -52l-30 -71q-34 6 -60 31t-32 65l-9 56q-50 -150 -163 -150q-92 0 -141.5 68t-49.5 202q0 126 50.5 202.5t145.5 76.5zM261 470q-54 0 -83 -54.5t-29 -156.5
q0 -202 108 -202q45 0 82 44.5t60 165.5q-20 115 -52.5 159t-85.5 44z" />
    <glyph glyph-name="epsilontonos" unicode="&#x3ad;" 
d="M323 808l89 -17l-65 -195l-60 10zM391 241h-90q-67 0 -97 -20.5t-30 -65.5t38 -71t104 -26q104 0 185 58l45 -57q-92 -70 -236 -70q-100 0 -163.5 43t-63.5 120q0 111 132 130q-54 12 -82.5 42t-28.5 73q0 67 60.5 104t151.5 37q123 0 200 -54l-42 -52q-65 38 -155 38
q-128 0 -128 -81q0 -37 31 -58.5t85 -21.5h94z" />
    <glyph glyph-name="etatonos" unicode="&#x3ae;" 
d="M306 808l89 -17l-65 -195l-60 10zM352 538q148 0 148 -156v-584l-84 -10v532q0 87 -16.5 119t-74.5 32q-42 0 -80 -26t-61 -61v-384h-84v354q0 76 -27 173l79 11q17 -31 24 -88q32 42 80 65t96 23z" />
    <glyph glyph-name="iotatonos" unicode="&#x3af;" 
d="M291 808l89 -17l-65 -195l-60 10zM240 455h-177l9 72h252v-397q0 -71 87 -71q42 0 89 18l22 -61q-46 -27 -125 -27q-72 0 -114.5 40t-42.5 111v315z" />
    <glyph glyph-name="upsilondieresistonos" unicode="&#x3b0;" 
d="M298 914l89 -19l-59 -167l-59 9zM198 735q23 0 38.5 -15.5t15.5 -38.5t-15.5 -38.5t-38.5 -15.5t-39 15.5t-16 38.5t16 38.5t39 15.5zM401 735q23 0 39 -15.5t16 -38.5t-16 -38.5t-39 -15.5t-38.5 15.5t-15.5 38.5t15.5 38.5t38.5 15.5zM500 527q25 -137 25 -272
q0 -131 -69.5 -198.5t-167.5 -67.5q-83 0 -134 44t-51 128v366h84v-358q0 -55 27 -83t77 -28q62 0 105.5 47t43.5 158q0 133 -26 264h86z" />
    <glyph glyph-name="alpha" unicode="&#x3b1;" 
d="M255 538q70 0 110 -37.5t56 -127.5l27 154h77l-51 -281l25 -136q7 -37 45 -52l-30 -71q-34 6 -60 31t-32 65l-9 56q-50 -150 -163 -150q-92 0 -141.5 68t-49.5 202q0 126 50.5 202.5t145.5 76.5zM261 470q-54 0 -83 -54.5t-29 -156.5q0 -202 108 -202q45 0 82 44.5
t60 165.5q-20 115 -52.5 159t-85.5 44z" />
    <glyph glyph-name="beta" unicode="&#x3b2;" 
d="M342 404q205 -21 205 -202q0 -95 -65.5 -154t-156.5 -59q-84 0 -150 51v-241l-84 -11v752q0 97 53.5 152.5t147.5 55.5q85 0 143 -48t58 -129q0 -75 -42.5 -117t-108.5 -50zM317 58q62 0 103 38t41 106q0 81 -46 122.5t-134 41.5h-54l10 65h53q56 0 90.5 32.5t34.5 99.5
q0 59 -33.5 89t-88.5 30q-118 0 -118 -143v-430q51 -51 142 -51z" />
    <glyph glyph-name="gamma" unicode="&#x3b3;" 
d="M472 538l85 -19l-217 -502q-36 -85 -11 -218l-68 -11q-25 48 -26 111.5t21 120.5q-35 149 -95 290.5t-118 196.5l85 30q52 -60 99 -174.5t77 -254.5z" />
    <glyph glyph-name="delta" unicode="&#x3b4;" 
d="M318 749q94 0 165 -60l-42 -50q-58 45 -128 45q-44 0 -69.5 -18.5t-25.5 -51.5q0 -32 23.5 -49.5t95.5 -47.5q107 -43 154.5 -103.5t47.5 -169.5q0 -106 -64.5 -180.5t-171.5 -74.5q-108 0 -171.5 73t-63.5 181q0 87 44 149t115 90q-52 26 -74.5 57t-22.5 72
q0 65 52.5 101.5t135.5 36.5zM291 454q-71 -32 -101.5 -83t-30.5 -129q0 -86 38 -135t106 -49q69 0 107 48t38 137q0 88 -32.5 130.5t-124.5 80.5z" />
    <glyph glyph-name="epsilon" unicode="&#x3b5;" 
d="M391 241h-90q-67 0 -97 -20.5t-30 -65.5t38 -71t104 -26q104 0 185 58l45 -57q-92 -70 -236 -70q-100 0 -163.5 43t-63.5 120q0 111 132 130q-54 12 -82.5 42t-28.5 73q0 67 60.5 104t151.5 37q123 0 200 -54l-42 -52q-65 38 -155 38q-128 0 -128 -81q0 -37 31 -58.5
t85 -21.5h94z" />
    <glyph glyph-name="zeta" unicode="&#x3b6;" 
d="M519 739l11 -57q-90 -78 -143 -128t-99 -104.5t-65.5 -100.5t-19.5 -94q0 -71 34 -103t123 -62q47 -16 70 -25t48.5 -25t35 -36t9.5 -49q0 -56 -38.5 -99t-118.5 -79l-34 61q50 25 75 49t25 59q0 27 -21.5 40t-91.5 37q-112 39 -160 86.5t-48 142.5q0 101 79 199t259 231
q-32 -12 -146 -12h-150l10 69h356z" />
    <glyph glyph-name="eta" unicode="&#x3b7;" 
d="M352 538q148 0 148 -156v-584l-84 -10v532q0 87 -16.5 119t-74.5 32q-42 0 -80 -26t-61 -61v-384h-84v354q0 76 -27 173l79 11q17 -31 24 -88q32 42 80 65t96 23z" />
    <glyph glyph-name="theta" unicode="&#x3b8;" 
d="M301 749q110 0 168 -99t58 -278q0 -177 -59 -280t-168 -103q-110 0 -168.5 101.5t-58.5 280.5q0 176 59 277t169 101zM301 679q-69 0 -103 -65.5t-37 -207.5h278q-3 143 -36 208t-102 65zM438 339h-277q4 -147 37.5 -214t101.5 -67t101 66.5t37 214.5z" />
    <glyph glyph-name="iota" unicode="&#x3b9;" 
d="M240 455h-177l9 72h252v-397q0 -71 87 -71q42 0 89 18l22 -61q-46 -27 -125 -27q-72 0 -114.5 40t-42.5 111v315z" />
    <glyph glyph-name="kappa" unicode="&#x3ba;" 
d="M457 538l70 -49l-224 -204l147 -156q58 -60 111 -71l-30 -69q-40 6 -70 24.5t-63 53.5l-198 215zM169 527q27 -76 27 -202v-325h-84v340q0 93 -25 187h82z" />
    <glyph glyph-name="lambda" unicode="&#x3bb;" 
d="M242 527h34q-22 74 -59.5 110t-115.5 48l13 66q115 -16 171.5 -73t86.5 -179q46 -195 88 -308t99 -170l-87 -32q-106 132 -175 473l-168 -475l-81 18z" />
    <glyph glyph-name="uni03BC" unicode="&#x3bc;" 
d="M484 527v-359q0 -78 27 -168l-79 -12q-18 32 -24 85q-23 -38 -62 -61.5t-79 -23.5t-62 11.5t-42 39.5q9 -65 9 -88v-153l-84 -10v739h84v-296q0 -89 16.5 -128.5t72.5 -39.5q83 0 139 79v385h84z" />
    <glyph glyph-name="nu" unicode="&#x3bd;" 
d="M237 0q-40 167 -94 311t-111 195l84 31q103 -119 178 -463l168 464l85 -20l-208 -518h-102z" />
    <glyph glyph-name="xi" unicode="&#x3be;" 
d="M357 749q112 0 195 -59l-41 -50q-67 44 -153 44q-65 0 -99.5 -26t-34.5 -76q0 -49 31.5 -76t87.5 -27h122l-11 -76h-119q-66 0 -105.5 -38.5t-39.5 -95.5q0 -40 9.5 -66t36.5 -45.5t57 -32t87 -30.5q94 -29 130 -57t36 -83q0 -56 -38.5 -98.5t-118.5 -79.5l-34 61
q51 24 75.5 49.5t24.5 61.5q0 26 -18 38.5t-75 31.5q-65 20 -106 38t-80.5 46t-58 68t-18.5 94q0 80 50 124.5t108 54.5q-55 21 -88 52t-33 84q0 77 64 123t157 46z" />
    <glyph glyph-name="omicron" unicode="&#x3bf;" 
d="M301 538q109 0 167.5 -73.5t58.5 -200.5q0 -124 -59.5 -199.5t-167.5 -75.5q-109 0 -168 73.5t-59 200.5q0 125 59.5 200t168.5 75zM301 469q-137 0 -137 -206q0 -205 136 -205t136 206q0 205 -135 205z" />
    <glyph glyph-name="pi" unicode="&#x3c0;" 
d="M558 456h-84v-320q0 -39 11 -55.5t39 -22.5l-30 -69q-57 14 -80.5 45.5t-23.5 92.5v329h-191v-456h-85v456q-49 -1 -88 -11l-20 64q38 18 130 18h422v-71z" />
    <glyph glyph-name="rho" unicode="&#x3c1;" 
d="M307 538q217 0 217 -274q0 -118 -53.5 -196.5t-152.5 -78.5q-87 0 -140 60v-251l-84 -10v483q0 131 54 199t159 68zM305 471q-69 0 -98 -53.5t-29 -160.5v-132q44 -66 122 -66q65 0 99 52.5t34 152.5q0 207 -128 207z" />
    <glyph glyph-name="uni03C2" unicode="&#x3c2;" 
d="M348 538q103 0 179 -56l-42 -56q-34 22 -63 31.5t-71 9.5q-68 0 -114 -51.5t-46 -144.5q0 -73 30.5 -105.5t127.5 -68.5q87 -32 123.5 -60.5t36.5 -83.5q0 -54 -36.5 -92.5t-118.5 -74.5l-36 60q49 19 74.5 41.5t25.5 56.5q0 30 -22 44.5t-102 43.5q-100 36 -146 89.5
t-46 149.5q0 125 68.5 196t177.5 71z" />
    <glyph glyph-name="sigma" unicode="&#x3c3;" 
d="M559 527v-71l-122 8q84 -52 87 -199q3 -124 -57 -200t-167 -76t-167 74t-60 200q0 124 66 196.5t183 72.5q127 0 237 -5zM300 58q134 0 134 206q0 144 -71 203q-98 1 -148.5 -42t-50.5 -162q0 -205 136 -205z" />
    <glyph glyph-name="tau" unicode="&#x3c4;" 
d="M486 77l22 -61q-46 -27 -125 -27q-71 0 -113 40t-42 111v316h-45q-64 0 -130 -17l-14 66q61 22 156 22h312v-71h-195v-326q0 -71 86 -71q41 0 88 18z" />
    <glyph glyph-name="upsilon" unicode="&#x3c5;" 
d="M500 527q25 -137 25 -272q0 -131 -69.5 -198.5t-167.5 -67.5q-83 0 -134 44t-51 128v366h84v-358q0 -55 27 -83t77 -28q62 0 105.5 47t43.5 158q0 133 -26 264h86z" />
    <glyph glyph-name="phi" unicode="&#x3c6;" 
d="M402 538q85 0 124.5 -67t39.5 -203q0 -257 -235 -278v-191l-79 -11v202q-218 19 -218 249q0 141 55 288h84q-56 -165 -56 -267q0 -96 29.5 -145t105.5 -59v262q0 108 34.5 164t115.5 56zM401 471q-17 0 -29 -5.5t-19.5 -19t-12 -26t-6.5 -35.5t-2.5 -38.5t-0.5 -44.5
v-247q83 9 116.5 59.5t33.5 153.5q0 110 -17.5 156.5t-62.5 46.5z" />
    <glyph glyph-name="chi" unicode="&#x3c7;" 
d="M357 188l196 -391l-88 -7l-158 333l-162 -331l-86 6l197 385q-60 136 -101 198.5t-101 124.5l82 31q49 -50 88 -116.5t83 -181.5l138 295l89 -5z" />
    <glyph glyph-name="psi" unicode="&#x3c8;" 
d="M341 527v-464q85 10 114 56.5t29 142.5q0 115 -26 265h85q26 -143 26 -273q0 -240 -228 -260v-196l-80 -10v206q-110 8 -165 63t-55 136v334h84v-326q0 -65 30.5 -97.5t105.5 -40.5v464h80z" />
    <glyph glyph-name="omega" unicode="&#x3c9;" 
d="M523 527q51 -137 51 -288q0 -119 -39 -184.5t-114 -65.5q-107 0 -122 116q-24 -116 -122 -116q-151 0 -151 250q0 161 50 288h75q-42 -129 -42 -288q0 -87 17 -134t59 -47q75 0 75 173v126l80 11v-138q0 -83 16.5 -127.5t57.5 -44.5q43 0 60 47t17 134q0 145 -45 288h77z
" />
    <glyph glyph-name="iotadieresis" unicode="&#x3ca;" 
d="M180 648q-23 0 -39 15.5t-16 37.5q0 24 16 39.5t39 15.5t38.5 -15.5t15.5 -39.5q0 -23 -15.5 -38t-38.5 -15zM387 648q-23 0 -38.5 15t-15.5 38q0 24 15.5 39.5t38.5 15.5t39 -15.5t16 -39.5q0 -22 -16 -37.5t-39 -15.5zM240 455h-177l9 72h252v-397q0 -71 87 -71
q42 0 89 18l22 -61q-46 -27 -125 -27q-72 0 -114.5 40t-42.5 111v315z" />
    <glyph glyph-name="upsilondieresis" unicode="&#x3cb;" 
d="M196 648q-23 0 -39 15.5t-16 37.5q0 24 16 39.5t39 15.5t38.5 -15.5t15.5 -39.5q0 -23 -15.5 -38t-38.5 -15zM403 648q-23 0 -38.5 15t-15.5 38q0 24 15.5 39.5t38.5 15.5t39 -15.5t16 -39.5q0 -22 -16 -37.5t-39 -15.5zM500 527q25 -137 25 -272q0 -131 -69.5 -198.5
t-167.5 -67.5q-83 0 -134 44t-51 128v366h84v-358q0 -55 27 -83t77 -28q62 0 105.5 47t43.5 158q0 133 -26 264h86z" />
    <glyph glyph-name="omicrontonos" unicode="&#x3cc;" 
d="M307 808l89 -17l-65 -195l-60 10zM301 538q109 0 167.5 -73.5t58.5 -200.5q0 -124 -59.5 -199.5t-167.5 -75.5q-109 0 -168 73.5t-59 200.5q0 125 59.5 200t168.5 75zM301 469q-137 0 -137 -206q0 -205 136 -205t136 206q0 205 -135 205z" />
    <glyph glyph-name="upsilontonos" unicode="&#x3cd;" 
d="M307 808l89 -17l-65 -195l-60 10zM500 527q25 -137 25 -272q0 -131 -69.5 -198.5t-167.5 -67.5q-83 0 -134 44t-51 128v366h84v-358q0 -55 27 -83t77 -28q62 0 105.5 47t43.5 158q0 133 -26 264h86z" />
    <glyph glyph-name="omegatonos" unicode="&#x3ce;" 
d="M307 808l89 -17l-65 -195l-60 10zM523 527q51 -137 51 -288q0 -119 -39 -184.5t-114 -65.5q-107 0 -122 116q-24 -116 -122 -116q-151 0 -151 250q0 161 50 288h75q-42 -129 -42 -288q0 -87 17 -134t59 -47q75 0 75 173v126l80 11v-138q0 -83 16.5 -127.5t57.5 -44.5
q43 0 60 47t17 134q0 145 -45 288h77z" />
    <glyph glyph-name="uni03CF" unicode="&#x3cf;" 
d="M100 0v689h87v-689h-87zM511 72h63v-133q0 -73 -38.5 -111.5t-106.5 -38.5q-64 0 -113 37l34 57q37 -24 75 -24q62 0 62 75v66h-33l-262 368l249 321h103l-250 -316z" />
    <glyph glyph-name="uni03D0" unicode="&#x3d0;" 
d="M353 438q168 0 168 -215q0 -94 -59.5 -164t-161.5 -70q-118 0 -169.5 90t-51.5 266q0 190 78.5 297t183.5 107q73 0 108 -38t35 -90q0 -60 -42.5 -109.5t-118.5 -77.5q15 4 30 4zM335 684q-60 0 -106.5 -66t-56.5 -208l31 14q103 45 148 89t45 108q0 63 -61 63zM299 58
q62 0 97 44.5t35 116.5q0 83 -24 125t-90 42q-51 0 -116 -32l-32 -17q-2 -138 27.5 -208.5t102.5 -70.5z" />
    <glyph glyph-name="uni03D1" unicode="&#x3d1;" 
d="M536 474l-1 -70h-35v-2q0 -413 -234 -413q-70 0 -119.5 46t-49.5 126v188h85v-178q0 -57 22.5 -85.5t65.5 -27.5q68 1 102 81t34 263v2h-113q-104 0 -160 47.5t-56 123.5q0 73 52.5 123.5t132.5 50.5q105 0 164 -72.5t71 -202.5h39zM293 472l110 1q-16 207 -139 207
q-46 0 -73.5 -29t-27.5 -74q0 -53 35 -79.5t95 -25.5z" />
    <glyph glyph-name="uni03D2" unicode="&#x3d2;" 
d="M576 625q-16 4 -30 4q-20 0 -34.5 -12.5t-29.5 -43.5l-144 -307v-266h-87v265l-213 424h96l164 -347l106 244q29 66 58 90t78 24q31 0 56 -11z" />
    <glyph glyph-name="uni03D3" unicode="&#x3d3;" 
d="M-76 705l99 -16l-71 -196l-65 10zM576 625q-16 4 -30 4q-20 0 -34.5 -12.5t-29.5 -43.5l-144 -307v-266h-87v265l-213 424h96l164 -347l106 244q29 66 58 90t78 24q31 0 56 -11z" />
    <glyph glyph-name="uni03D4" unicode="&#x3d4;" 
d="M199 767q-23 0 -39 15.5t-16 37.5q0 24 16 39.5t39 15.5t38.5 -15.5t15.5 -39.5q0 -23 -15.5 -38t-38.5 -15zM406 767q-23 0 -38.5 15t-15.5 38q0 24 15.5 39.5t38.5 15.5t39 -15.5t16 -39.5q0 -22 -16 -37.5t-39 -15.5zM576 625q-16 4 -30 4q-20 0 -34.5 -12.5
t-29.5 -43.5l-144 -307v-266h-87v265l-213 424h96l164 -347l106 244q29 66 58 90t78 24q31 0 56 -11z" />
    <glyph glyph-name="uni03D5" unicode="&#x3d5;" 
d="M555 265q0 -119 -58.5 -188t-156.5 -74v-205l-80 -10v215q-103 7 -159 76.5t-56 183.5q0 118 59 187t156 74v214l80 9v-224q103 -6 159 -75.5t56 -182.5zM132 263q0 -184 130 -194v390q-130 -10 -130 -196zM339 69q129 13 129 196q0 87 -33 137.5t-96 54.5v-388z" />
    <glyph glyph-name="uni03D6" unicode="&#x3d6;" 
d="M591 527v-65h-63q44 -102 44 -222q0 -119 -38.5 -185t-110.5 -66q-49 0 -80 29.5t-38 86.5q-11 -56 -42 -86t-77 -30q-145 0 -145 251q0 123 41 220q-22 -1 -59 -10l-14 62q39 14 108 15h49h5h420zM488 239q0 121 -26 223l-314 -1q-23 -93 -23 -222q0 -181 71 -181
q69 0 69 173v106l81 11v-118q0 -172 70 -172q72 0 72 181z" />
    <glyph glyph-name="uni03D7" unicode="&#x3d7;" 
d="M492 136q0 -38 10 -55.5t36 -29.5v-110q0 -74 -39 -113t-107 -39q-62 0 -111 37l34 54q37 -22 73 -22q64 0 64 75v89q-48 33 -48 123q0 26 4.5 88.5t10 126t5.5 71.5l-216 -438l-100 29v368q0 38 -10 55t-36 29l29 64q58 -16 81.5 -52.5t23.5 -103.5q0 -26 -4.5 -89
t-10 -127t-5.5 -70l216 438l100 -30v-368z" />
    <glyph glyph-name="uni03D8" unicode="&#x3d8;" 
d="M553 344q0 -146 -54 -240t-156 -112v-193h-85v193q-102 16 -156.5 109.5t-54.5 241.5q0 161 65.5 259t187.5 98t187.5 -96.5t65.5 -259.5zM300 62q85 0 124 70.5t39 211.5t-39 212t-124 71t-124 -71.5t-39 -212.5q0 -281 163 -281z" />
    <glyph glyph-name="uni03D9" unicode="&#x3d9;" 
d="M527 264q0 -111 -48 -184t-137 -88v-194l-84 -10v204q-90 14 -137.5 85.5t-47.5 185.5q0 125 59.5 200t168.5 75t167.5 -73.5t58.5 -200.5zM300 58q136 0 136 206q0 205 -135 205q-137 0 -137 -206q0 -205 136 -205z" />
    <glyph glyph-name="uni03DA" unicode="&#x3da;" 
d="M360 -214l-36 58q49 21 74 45t25 60q0 32 -26.5 51t-109.5 53q-112 46 -162.5 118t-50.5 194q0 66 18 122t55 102.5t102.5 73t153.5 26.5h147l-13 -74h-139q-115 0 -173.5 -67t-58.5 -181q0 -105 39 -159t139 -93q91 -36 130.5 -71t39.5 -91q0 -54 -36.5 -92.5
t-117.5 -74.5z" />
    <glyph glyph-name="uni03DB" unicode="&#x3db;" 
d="M413 577l85 -6q0 -41 -12.5 -70t-39 -47t-54.5 -28.5t-71 -20.5q-44 -10 -69 -19t-48.5 -25t-33.5 -41t-10 -62q0 -72 35 -103.5t141 -64.5q85 -26 123.5 -54.5t38.5 -85.5q0 -52 -37 -90.5t-118 -73.5l-35 58q51 22 75 44t24 54q0 8 -1.5 14.5t-4 12t-7.5 10.5t-9 8.5
t-12.5 7.5t-14 6t-17 6t-18.5 6t-22 6.5t-23 6.5q-37 11 -64 22t-56 30t-47 42t-30 58t-12 79q0 165 193 210q96 23 118 38q33 22 33 72z" />
    <glyph glyph-name="uni03DC" unicode="&#x3dc;" 
d="M525 612h-312v-228h149q59 0 104 -21l-23 -66q-40 14 -89 14h-141v-311h-87v689h408z" />
    <glyph glyph-name="uni03DD" unicode="&#x3dd;" 
d="M296 457q-46 0 -66 -20t-20 -66v-140h173q59 0 102 -21l-21 -61q-40 14 -89 14h-165v-364l-84 -12v577q0 163 166 163h235l-12 -69z" />
    <glyph glyph-name="uni03DE" unicode="&#x3de;" 
d="M513 385l17 -75l-226 -310h-99l228 310h-345l-17 75l225 304h99l-226 -304h344z" />
    <glyph glyph-name="uni03DF" unicode="&#x3df;" 
d="M487 468l26 -69l-102 -205q-66 -131 -76 -205l-74 14q9 91 72 210l86 159l-309 -88l-23 70l96 193q66 130 77 205l73 -14q-9 -93 -72 -210l-80 -147z" />
    <glyph glyph-name="uni03E0" unicode="&#x3e0;" 
d="M575 0h-90l-104 284l-90 -284l-84 2l136 385l-42 114l-186 -501h-90l238 597l-38 92h84z" />
    <glyph glyph-name="uni03E1" unicode="&#x3e1;" 
d="M98 751q213 -106 314 -260.5t101 -391.5q0 -163 -41 -310l-77 10q31 139 31 300q0 73 -11 142l-102 -241h-77l151 349q-20 57 -50 104l-219 -453h-87l255 521q-79 91 -218 170z" />
    <glyph glyph-name="uni03F0" unicode="&#x3f0;" 
d="M492 136q0 -38 10 -55t36 -29l-29 -63q-58 16 -81.5 52t-23.5 104q0 26 4.5 88.5t10 126t5.5 71.5l-216 -438l-100 29v368q0 38 -10 55t-36 29l29 64q58 -16 81.5 -52.5t23.5 -103.5q0 -26 -4.5 -89t-10 -127t-5.5 -70l216 438l100 -29v-369z" />
    <glyph glyph-name="uni03F1" unicode="&#x3f1;" 
d="M318 -103q68 -10 101 -29t44 -51l-78 -32q-11 20 -31.5 28.5t-90.5 20.5q-89 14 -129 52.5t-40 123.5v261q0 267 212 267q106 0 162 -67t56 -182q0 -110 -55 -188.5t-152 -78.5q-92 0 -139 70v-79q0 -61 26 -82t114 -34zM308 471q-71 0 -100.5 -53.5t-29.5 -161.5v-89
q42 -76 120 -76q65 0 100 53t35 145q0 88 -32 135t-93 47z" />
    <glyph glyph-name="uni03F2" unicode="&#x3f2;" 
d="M339 61q69 0 137 46l40 -55q-33 -29 -82 -46t-95 -17q-117 0 -182.5 73.5t-65.5 198.5q0 122 66.5 199.5t181.5 77.5q102 0 176 -62l-41 -55q-69 46 -136 46q-71 0 -113.5 -52.5t-42.5 -153.5t42.5 -150.5t114.5 -49.5z" />
    <glyph glyph-name="uni03F3" unicode="&#x3f3;" 
d="M367 773q27 0 44 -16.5t17 -42.5t-17 -42.5t-44 -16.5t-44 16.5t-17 42.5t17 42.5t44 16.5zM445 527v-443q0 -127 -84.5 -197.5t-250.5 -98.5l-14 65q127 21 196 73.5t69 152.5v381h-219v67h303z" />
    <glyph glyph-name="uni03F4" unicode="&#x3f4;" 
d="M553 344q0 -161 -65.5 -258t-187.5 -97q-123 0 -188 95t-65 259q0 161 65.5 259t187.5 98t187.5 -96.5t65.5 -259.5zM462 344q0 141 -38.5 212t-123.5 71t-123.5 -71.5t-38.5 -212.5q0 -281 162 -281q85 0 123.5 70.5t38.5 211.5zM402 316h-205v72h205v-72z" />
    <glyph glyph-name="uni03F5" unicode="&#x3f5;" 
d="M340 538q102 0 176 -58l-40 -55q-65 45 -138 45q-63 0 -106 -43t-52 -124h240v-66h-241q5 -90 48 -134t111 -44q74 0 139 45l39 -54q-34 -29 -82 -45t-93 -16q-119 0 -184.5 73.5t-65.5 198.5q0 122 66.5 199.5t182.5 77.5z" />
    <glyph glyph-name="uni03F6" unicode="&#x3f6;" 
d="M278 538q118 0 178 -72t60 -200q0 -127 -63 -202t-180 -75q-106 0 -182 62l41 56q64 -48 140 -48q147 0 157 178h-248v66h247q-15 167 -151 167q-78 0 -141 -47l-40 54q73 61 182 61z" />
    <glyph glyph-name="uni03F7" unicode="&#x3f7;" 
d="M194 689v-117h98q127 0 195.5 -54t68.5 -163q0 -116 -71 -171.5t-193 -55.5h-98v-128h-87v689h87zM303 503h-109v-305h109q78 0 119.5 34.5t41.5 120.5q0 150 -161 150z" />
    <glyph glyph-name="uni03F8" unicode="&#x3f8;" 
d="M184 749v-288q60 77 152 77q191 0 191 -274q0 -125 -52 -200t-151 -75q-86 0 -140 60v-251l-84 -10v951zM316 470q-74 0 -132 -84v-261q45 -66 121 -66q131 0 131 205q0 206 -120 206z" />
    <glyph glyph-name="uni03F9" unicode="&#x3f9;" 
d="M358 700q64 0 110 -16.5t90 -50.5l-49 -57q-61 51 -145 51q-93 0 -151.5 -67.5t-58.5 -214.5q0 -146 57 -214t152 -68q87 0 160 57l45 -56q-77 -75 -206 -75q-131 0 -215 94t-84 262q0 167 84.5 261t210.5 94z" />
    <glyph glyph-name="uni03FA" unicode="&#x3fa;" 
d="M531 689l39 -689h-84l-21 360q-6 95 -6 249l-116 -485h-87l-124 485q6 -113 -2 -249l-18 -360h-82l39 689h121l112 -472l107 472h122z" />
    <glyph glyph-name="uni03FB" unicode="&#x3fb;" 
d="M20 -212l63 739h113l98 -388l109 388h113l43 -527h-83l-20 262q-7 93 -7 187l-116 -392h-81l-108 389q0 -111 -6 -183l-37 -464z" />
    <glyph glyph-name="uni03FC" unicode="&#x3fc;" 
d="M350 -11q-88 0 -140 60v-114h160v-68h-160v-69l-84 -10v79h-81v68h81v336q0 131 54 199t159 68q217 0 217 -274q0 -118 -53.5 -196.5t-152.5 -78.5zM210 257v-132q44 -66 122 -66q65 0 99 52.5t34 152.5q0 207 -128 207q-69 0 -98 -53.5t-29 -160.5z" />
    <glyph glyph-name="uni03FD" unicode="&#x3fd;" 
d="M252 700q133 0 209 -92t76 -263q0 -168 -84 -262t-215 -94q-129 0 -206 75l45 57q72 -58 160 -58q95 0 152 68t57 214q0 151 -51.5 216.5t-149.5 65.5q-87 0 -161 -51l-42 57q95 67 210 67z" />
    <glyph glyph-name="uni03FE" unicode="&#x3fe;" 
d="M358 700q64 0 110 -16.5t90 -50.5l-49 -57q-61 51 -145 51q-93 0 -151.5 -67.5t-58.5 -214.5q0 -146 57 -214t152 -68q87 0 160 57l45 -56q-77 -75 -206 -75q-131 0 -215 94t-84 262q0 167 84.5 261t210.5 94zM362 404q28 0 45 -16.5t17 -42.5t-17 -42.5t-45 -16.5
q-27 0 -43.5 16.5t-16.5 42.5t16.5 42.5t43.5 16.5z" />
    <glyph glyph-name="uni03FF" unicode="&#x3ff;" 
d="M252 700q133 0 209 -92t76 -263q0 -168 -84 -262t-215 -94q-129 0 -206 75l45 57q72 -58 160 -58q95 0 152 68t57 214q0 151 -51.5 216.5t-149.5 65.5q-87 0 -161 -51l-42 57q95 67 210 67zM236 404q28 0 45 -16.5t17 -42.5t-17 -42.5t-45 -16.5q-27 0 -43.5 16.5
t-16.5 42.5t16.5 42.5t43.5 16.5z" />
    <glyph glyph-name="uni0400" unicode="&#x400;" 
d="M252 909l185 -108l-26 -46l-205 82zM212 617v-232h256v-71h-256v-244h314v-70h-400v689h391l-10 -72h-295z" />
    <glyph glyph-name="uni0401" unicode="&#x401;" 
d="M217 767q-23 0 -39 15.5t-16 37.5q0 24 16 39.5t39 15.5t38.5 -15.5t15.5 -39.5q0 -23 -15.5 -38t-38.5 -15zM424 767q-23 0 -38.5 15t-15.5 38q0 24 15.5 39.5t38.5 15.5t39 -15.5t16 -39.5q0 -22 -16 -37.5t-39 -15.5zM212 617v-232h256v-71h-256v-244h314v-70h-400
v689h391l-10 -72h-295z" />
    <glyph glyph-name="uni0402" unicode="&#x402;" 
d="M244 616v-226q65 60 144 60q178 0 178 -204v-150q0 -99 -42.5 -150t-130.5 -81l-22 69q65 26 87 59.5t22 101.5v145q0 72 -25.5 103t-85.5 31q-70 0 -125 -53v-321h-87v616h-162v73h418l-9 -73h-160z" />
    <glyph glyph-name="uni0403" unicode="&#x403;" 
d="M432 906l37 -72l-213 -79l-22 46zM544 689l-9 -77h-312v-612h-87v689h408z" />
    <glyph glyph-name="uni0404" unicode="&#x404;" 
d="M352 700q115 0 200 -67l-45 -53q-68 49 -149 49q-86 0 -142.5 -57.5t-66.5 -181.5h305v-72h-307q6 -130 63 -193.5t147 -63.5q93 0 159 60l46 -57q-81 -75 -208 -75q-133 0 -214.5 93t-81.5 263q0 167 84.5 261t209.5 94z" />
    <glyph glyph-name="uni0405" unicode="&#x405;" 
d="M537 191q0 -91 -67 -146.5t-185 -55.5q-152 0 -242 87l52 59q79 -74 191 -74q68 0 114 33t46 95q0 51 -31.5 80t-118.5 54q-112 33 -167 77.5t-55 121.5q0 78 62 128t161 50q128 0 220 -79l-52 -56q-71 62 -165 62q-60 0 -99 -26t-39 -76q0 -44 37 -71t136 -56
q97 -28 149.5 -73t52.5 -134z" />
    <glyph glyph-name="uni0406" unicode="&#x406;" 
d="M497 689v-70h-153v-550h153v-69h-394v69h153v550h-153v70h394z" />
    <glyph glyph-name="uni0407" unicode="&#x407;" 
d="M196 767q-23 0 -39 15.5t-16 37.5q0 24 16 39.5t39 15.5t38.5 -15.5t15.5 -39.5q0 -23 -15.5 -38t-38.5 -15zM403 767q-23 0 -38.5 15t-15.5 38q0 24 15.5 39.5t38.5 15.5t39 -15.5t16 -39.5q0 -22 -16 -37.5t-39 -15.5zM497 689v-70h-153v-550h153v-69h-394v69h153v550
h-153v70h394z" />
    <glyph glyph-name="uni0408" unicode="&#x408;" 
d="M497 689v-460q0 -46 -12 -86.5t-37.5 -76.5t-73.5 -57t-113 -21q-105 0 -188 63l38 57q75 -47 149 -47q72 0 111 45.5t39 126.5v385h-204v71h291z" />
    <glyph glyph-name="uni0409" unicode="&#x409;" 
d="M355 689v-256q124 0 184.5 -51.5t60.5 -160.5q0 -221 -237 -221h-94v617h-94l-23 -306q-9 -119 -24 -183.5t-31.5 -88.5t-50.5 -50l-44 57q26 30 41 81t26 186l30 376h256zM371 366h-16v-296h15q72 0 106 32t34 118q0 79 -34.5 112.5t-104.5 33.5z" />
    <glyph glyph-name="uni040A" unicode="&#x40a;" 
d="M354 689v-275q125 0 185.5 -49t60.5 -153q0 -112 -61 -162t-176 -50h-94v349h-142v-349h-86v689h86v-275h142v275h85zM371 349h-17v-281h17q72 0 105 29.5t33 113.5q0 75 -34 106.5t-104 31.5z" />
    <glyph glyph-name="uni040B" unicode="&#x40b;" 
d="M413 689l-9 -73h-160v-226q62 60 144 60q178 0 178 -204v-246h-86v240q0 72 -25.5 103t-85.5 31q-70 0 -125 -53v-321h-87v616h-162v73h418z" />
    <glyph glyph-name="uni040C" unicode="&#x40c;" 
d="M403 906l37 -72l-213 -79l-22 46zM261 326h-80v-326h-86v689h86v-290h81l212 290h94l-232 -325l251 -364h-105z" />
    <glyph glyph-name="uni040D" unicode="&#x40d;" 
d="M231 909l185 -108l-26 -46l-205 82zM83 0v689h86v-349q0 -145 -14 -263l250 612h112v-689h-86v349q0 133 14 257l-248 -606h-114z" />
    <glyph glyph-name="uni040E" unicode="&#x40e;" 
d="M308 759q-58 0 -100 32.5t-47 86.5l57 13q25 -67 90 -67q70 0 93 67l58 -13q-6 -54 -49 -86.5t-102 -32.5zM580 689l-211 -509q-37 -91 -90 -134.5t-157 -56.5l-13 69q87 13 123.5 41.5t58.5 90.5h-37l-228 499h91l196 -443l180 443h87z" />
    <glyph glyph-name="uni040F" unicode="&#x40f;" 
d="M517 689v-689h-175v-147h-69l-14 147h-176v689h87v-617h73v1h99v-1h88v617h87z" />
    <glyph glyph-name="uni0410" unicode="&#x410;" 
d="M434 176h-273l-55 -176h-86l225 689h110l224 -689h-90zM184 248h227l-113 367z" />
    <glyph glyph-name="uni0411" unicode="&#x411;" 
d="M485 689l-8 -73h-290v-195h87q268 0 268 -206q0 -215 -267 -215h-174v689h384zM287 352h-100v-282h99q80 0 123 31t43 113q0 138 -165 138z" />
    <glyph glyph-name="uni0412" unicode="&#x412;" 
d="M540 196q0 -54 -22 -93.5t-60 -61t-82 -31.5t-94 -10h-186v689h170q49 0 90 -8.5t77 -27.5t56.5 -54t20.5 -84q0 -62 -37 -99.5t-92 -50.5q159 -27 159 -169zM421 510q0 108 -135 108h-103v-222h111q127 0 127 114zM448 193q0 131 -148 131h-117v-252h114q151 0 151 121z
" />
    <glyph glyph-name="uni0413" unicode="&#x413;" 
d="M544 689l-9 -77h-312v-612h-87v689h408z" />
    <glyph glyph-name="uni0414" unicode="&#x414;" 
d="M514 73h51v-220h-69l-14 147h-399l-14 -147h-69v220h42q37 35 52 97.5t42 268.5q5 34 7 52l25 198h346v-616zM426 73v542h-181l-15 -130q-27 -227 -44 -300t-59 -112h299z" />
    <glyph glyph-name="uni0415" unicode="&#x415;" 
d="M212 617v-232h256v-71h-256v-244h314v-70h-400v689h391l-10 -72h-295z" />
    <glyph glyph-name="uni0416" unicode="&#x416;" 
d="M261 327h-61l-104 -327h-84l123 364l-108 325h83l91 -291h60v291h78v-291h60l92 291h82l-108 -325l123 -364h-86l-103 327h-60v-327h-78v327z" />
    <glyph glyph-name="uni0417" unicode="&#x417;" 
d="M281 700q108 0 172 -50t64 -130q0 -61 -40 -98.5t-102 -46.5q70 -6 118 -50.5t48 -119.5q0 -95 -71.5 -155.5t-191.5 -60.5q-151 0 -243 97l54 49q82 -73 189 -73q80 0 124.5 37t44.5 103t-44 98.5t-117 32.5h-121l10 73h105q63 0 105.5 28.5t42.5 84.5q0 53 -41.5 81.5
t-107.5 28.5q-96 0 -182 -66l-48 51q103 86 232 86z" />
    <glyph glyph-name="uni0418" unicode="&#x418;" 
d="M83 0v689h86v-349q0 -145 -14 -263l250 612h112v-689h-86v349q0 133 14 257l-248 -606h-114z" />
    <glyph glyph-name="uni0419" unicode="&#x419;" 
d="M298 773q-59 0 -100 29.5t-47 82.5l57 13q20 -60 90 -60q73 0 93 60l58 -13q-6 -53 -48.5 -82.5t-102.5 -29.5zM83 0v689h86v-349q0 -145 -14 -263l250 612h112v-689h-86v349q0 133 14 257l-248 -606h-114z" />
    <glyph glyph-name="uni041A" unicode="&#x41a;" 
d="M261 326h-80v-326h-86v689h86v-290h81l212 290h94l-232 -325l251 -364h-105z" />
    <glyph glyph-name="uni041B" unicode="&#x41b;" 
d="M517 689v-689h-87v614h-185l-25 -204q-15 -119 -29 -191t-36 -117t-42.5 -66t-59.5 -47l-38 64q29 24 43.5 44.5t35 92t36.5 196.5l39 303h348z" />
    <glyph glyph-name="uni041C" unicode="&#x41c;" 
d="M531 689l39 -689h-84l-21 360q-6 95 -6 249l-116 -485h-87l-124 485q6 -113 -2 -249l-18 -360h-82l39 689h121l112 -472l107 472h122z" />
    <glyph glyph-name="uni041D" unicode="&#x41d;" 
d="M430 0v327h-260v-327h-87v689h87v-291h260v291h87v-689h-87z" />
    <glyph glyph-name="uni041E" unicode="&#x41e;" 
d="M553 344q0 -161 -65.5 -258t-187.5 -97q-123 0 -188 95t-65 259q0 161 65.5 259t187.5 98t187.5 -96.5t65.5 -259.5zM463 344q0 141 -39 212t-124 71t-124 -71.5t-39 -212.5q0 -281 163 -281q85 0 124 70.5t39 211.5z" />
    <glyph glyph-name="uni041F" unicode="&#x41f;" 
d="M430 0v613h-260v-613h-87v689h434v-689h-87z" />
    <glyph glyph-name="uni0420" unicode="&#x420;" 
d="M557 477q0 -115 -71 -168t-195 -53h-89v-256h-86v689h175q127 0 196.5 -53t69.5 -159zM464 476q0 144 -162 144h-100v-295h97q78 0 121.5 34t43.5 117z" />
    <glyph glyph-name="uni0421" unicode="&#x421;" 
d="M358 700q64 0 110 -16.5t90 -50.5l-49 -57q-61 51 -145 51q-93 0 -151.5 -67.5t-58.5 -214.5q0 -146 57 -214t152 -68q87 0 160 57l45 -56q-77 -75 -206 -75q-131 0 -215 94t-84 262q0 167 84.5 261t210.5 94z" />
    <glyph glyph-name="uni0422" unicode="&#x422;" 
d="M342 614v-614h-87v614h-215v75h519l-9 -75h-208z" />
    <glyph glyph-name="uni0423" unicode="&#x423;" 
d="M580 689l-211 -509q-37 -91 -90 -134.5t-157 -56.5l-13 69q87 13 123.5 41.5t58.5 90.5h-37l-228 499h91l196 -443l180 443h87z" />
    <glyph glyph-name="uni0424" unicode="&#x424;" 
d="M342 718v-59q125 -9 185 -86.5t60 -225.5q0 -152 -63 -231t-182 -85v-60h-84v60q-245 11 -245 316q0 148 60 225.5t185 86.5v59h84zM259 595q-82 -3 -120 -60t-38 -188q0 -127 37 -185.5t121 -66.5v500zM341 595v-500q84 8 121 66.5t37 185.5q0 131 -38 188t-120 60z" />
    <glyph glyph-name="uni0425" unicode="&#x425;" 
d="M49 689h100l151 -265l152 265h93l-195 -317l219 -372h-100l-171 311l-174 -311h-93l216 367z" />
    <glyph glyph-name="uni0426" unicode="&#x426;" 
d="M517 73h61v-220h-69l-14 147h-412v689h87v-617h260v617h87v-616z" />
    <glyph glyph-name="uni0427" unicode="&#x427;" 
d="M430 689h87v-689h-87v282q-46 -34 -86 -48.5t-93 -14.5q-90 0 -145 55.5t-55 148.5v266h86v-259q0 -135 136 -135q94 0 157 61v333z" />
    <glyph glyph-name="uni0428" unicode="&#x428;" 
d="M554 689v-689h-508v689h82v-616h133v616h78v-616h133v616h82z" />
    <glyph glyph-name="uni0429" unicode="&#x429;" 
d="M554 73h61v-220h-69l-14 147h-486v689h82v-616h133v616h78v-616h133v616h82v-616z" />
    <glyph glyph-name="uni042A" unicode="&#x42a;" 
d="M209 689v-256h106q266 0 266 -212q0 -115 -71 -168t-194 -53h-195v612h-121v77h209zM329 364h-120v-293h122q76 0 118 32.5t42 116.5q0 144 -162 144z" />
    <glyph glyph-name="uni042B" unicode="&#x42b;" 
d="M119 689v-256h63q248 0 248 -212q0 -110 -63.5 -165.5t-182.5 -55.5h-153v689h88zM569 689v-689h-88v689h88zM191 367h-72v-298h74q72 0 108.5 35.5t36.5 115.5q0 147 -147 147z" />
    <glyph glyph-name="uni042C" unicode="&#x42c;" 
d="M181 689v-256h104q266 0 266 -212q0 -114 -71 -167.5t-194 -53.5h-192v689h87zM297 364h-116v-293h115q78 0 120.5 32.5t42.5 116.5q0 144 -162 144z" />
    <glyph glyph-name="uni042D" unicode="&#x42d;" 
d="M269 700q127 0 198.5 -88t71.5 -259q0 -177 -74 -270.5t-204 -93.5q-134 0 -219 88l52 49q73 -65 162 -65q181 0 193 256h-303v74h303q-7 126 -53 182t-131 56q-89 0 -167 -65l-48 51q98 85 219 85z" />
    <glyph glyph-name="uni042E" unicode="&#x42e;" 
d="M388 700q105 0 148 -87t43 -269q0 -176 -45.5 -265.5t-145.5 -89.5q-102 0 -145 86t-45 246h-68v-321h-83v689h83v-296h69q6 154 50 230.5t139 76.5zM388 629q-56 0 -78.5 -62.5t-22.5 -221.5t22.5 -222t78.5 -63q54 0 78 64t24 220t-24 220.5t-78 64.5z" />
    <glyph glyph-name="uni042F" unicode="&#x42f;" 
d="M517 689v-689h-87v277h-153l-146 -277h-98l162 297q-120 54 -120 187q0 98 67 151.5t194 53.5h181zM430 619h-105q-80 0 -118.5 -32.5t-38.5 -101.5q0 -138 139 -138h123v272z" />
    <glyph glyph-name="uni0430" unicode="&#x430;" 
d="M478 115q0 -31 10 -45.5t33 -21.5l-21 -60q-77 10 -96 75q-57 -74 -165 -74q-79 0 -124.5 44t-45.5 118q0 81 63.5 125t182.5 44h78v43q0 105 -125 105q-60 0 -137 -27l-23 64q93 33 173 33q96 0 146.5 -45t50.5 -125v-253zM260 52q39 0 74.5 20t58.5 55v135h-76
q-158 0 -158 -110q0 -100 101 -100z" />
    <glyph glyph-name="uni0431" unicode="&#x431;" 
d="M332 492q87 0 139.5 -64.5t52.5 -175.5q0 -125 -62 -194t-163 -69q-100 0 -162 75t-62 225q0 171 41 258.5t152 125.5q111 40 165 77l36 -65q-66 -41 -159 -76q-70 -25 -102.5 -68t-42.5 -147q26 45 69.5 71.5t97.5 26.5zM299 58q62 0 97.5 42.5t35.5 148.5
q0 174 -113 174q-101 0 -152 -104v-64q0 -94 35 -145.5t97 -51.5z" />
    <glyph glyph-name="uni0432" unicode="&#x432;" 
d="M398 285q134 -12 134 -129q0 -78 -64.5 -117t-160.5 -39h-195v519q93 19 178 19q100 0 157.5 -36t57.5 -102q0 -88 -107 -115zM292 470q-50 0 -96 -6v-152h108q114 0 114 81q0 41 -30.5 59t-95.5 18zM291 68q33 0 54.5 2.5t46.5 10t38 26.5t13 48q0 90 -133 90h-114v-177
h95z" />
    <glyph glyph-name="uni0433" unicode="&#x433;" 
d="M242 0h-84v527h366l-10 -71h-272v-456z" />
    <glyph glyph-name="uni0434" unicode="&#x434;" 
d="M496 69h39v-216h-70l-14 147h-340l-14 -147h-70v216h35q36 31 54 90.5t29 197.5l11 170h340v-458zM411 69v389h-178l-7 -95q-11 -146 -29 -204t-64 -90h278z" />
    <glyph glyph-name="uni0435" unicode="&#x435;" 
d="M167 234q3 -87 45.5 -131t107.5 -44q70 0 141 47l39 -56q-79 -61 -180 -61q-114 0 -177.5 74.5t-63.5 199.5q0 121 62.5 198t166.5 77q100 0 157.5 -69.5t57.5 -189.5q0 -23 -2 -45h-354zM309 469q-61 0 -99 -43.5t-43 -127.5h274q-1 83 -36 127t-96 44z" />
    <glyph glyph-name="uni0436" unicode="&#x436;" 
d="M263 0v247h-57l-104 -247h-82l122 283l-113 244h86l92 -215h56v215h74v-215h56l95 215h83l-113 -244l122 -283h-85l-104 247h-54v-247h-74z" />
    <glyph glyph-name="uni0437" unicode="&#x437;" 
d="M191 309h95q53 0 83.5 22t30.5 58q0 81 -124 81q-88 0 -163 -46l-40 50q85 64 206 64q91 0 150 -37.5t59 -106.5q0 -82 -107 -113q51 -1 93.5 -35t42.5 -89q0 -81 -66 -124.5t-173 -43.5q-135 0 -224 73l40 54q81 -58 187 -58q71 0 108 26t37 71q0 86 -134 86h-106z" />
    <glyph glyph-name="uni0438" unicode="&#x438;" 
d="M500 527v-527h-84v246q0 42 2 85t4.5 69t2.5 27l-222 -427h-103v527h84v-247q0 -36 -2 -78.5t-4 -70t-2 -28.5l219 424h105z" />
    <glyph glyph-name="uni0439" unicode="&#x439;" 
d="M298 647q-59 0 -100 29.5t-47 82.5l57 13q20 -60 90 -60q73 0 93 60l58 -13q-6 -53 -48.5 -82.5t-102.5 -29.5zM500 527v-527h-84v246q0 42 2 85t4.5 69t2.5 27l-222 -427h-103v527h84v-247q0 -36 -2 -78.5t-4 -70t-2 -28.5l219 424h105z" />
    <glyph glyph-name="uni043A" unicode="&#x43a;" 
d="M106 0v527h84v-214h105l152 214h95l-178 -244l205 -283h-102l-174 245h-103v-245h-84z" />
    <glyph glyph-name="uni043B" unicode="&#x43b;" 
d="M510 527v-527h-84v456h-197l-12 -139q-10 -118 -25.5 -179.5t-39.5 -91t-74 -57.5l-36 54q29 18 44 37t29 75.5t22 158.5l16 213h357z" />
    <glyph glyph-name="uni043C" unicode="&#x43c;" 
d="M519 527l39 -527h-81l-20 257q-7 104 -5 186h-4l-105 -355h-83l-116 355h-4q3 -78 -3 -184l-15 -259h-80l38 527h110l113 -360l104 360h112z" />
    <glyph glyph-name="uni043D" unicode="&#x43d;" 
d="M416 0v234h-232v-234h-84v527h84v-224h232v224h84v-527h-84z" />
    <glyph glyph-name="uni043E" unicode="&#x43e;" 
d="M301 538q109 0 167.5 -73.5t58.5 -200.5q0 -124 -59.5 -199.5t-167.5 -75.5q-109 0 -168 73.5t-59 200.5q0 125 59.5 200t168.5 75zM301 469q-137 0 -137 -206q0 -205 136 -205t136 206q0 205 -135 205z" />
    <glyph glyph-name="uni043F" unicode="&#x43f;" 
d="M416 0v458h-232v-458h-84v527h400v-527h-84z" />
    <glyph glyph-name="uni0440" unicode="&#x440;" horiz-adv-x="601" 
d="M336 538q191 0 191 -274q0 -125 -52 -200t-151 -75q-86 0 -140 60v-251l-84 -10v739h72l7 -74q60 85 157 85zM316 470q-74 0 -132 -84v-261q45 -66 121 -66q131 0 131 205q0 206 -120 206z" />
    <glyph glyph-name="uni0441" unicode="&#x441;" 
d="M339 61q69 0 137 46l40 -55q-33 -29 -82 -46t-95 -17q-117 0 -182.5 73.5t-65.5 198.5q0 122 66.5 199.5t181.5 77.5q102 0 176 -62l-41 -55q-69 46 -136 46q-71 0 -113.5 -52.5t-42.5 -153.5t42.5 -150.5t114.5 -49.5z" />
    <glyph glyph-name="uni0442" unicode="&#x442;" 
d="M541 527l-11 -70h-188v-457h-84v457h-193v70h476z" />
    <glyph glyph-name="uni0443" unicode="&#x443;" 
d="M538 527l-184 -530q-31 -91 -85 -145t-151 -64l-12 67q76 13 110.5 46t56.5 99h-28l-183 527h89l151 -463l149 463h87z" />
    <glyph glyph-name="uni0444" unicode="&#x444;" 
d="M262 749l76 -11v-254q41 54 98 54q74 0 104.5 -70.5t30.5 -203.5q0 -126 -37.5 -200.5t-106.5 -74.5q-51 0 -89 56v-246l-76 -11v257q-38 -56 -91 -56q-69 0 -105.5 74t-36.5 201q0 274 140 274q54 0 93 -52v263zM188 471q-37 0 -54.5 -48.5t-17.5 -158.5
q0 -111 17.5 -160t54.5 -49q20 0 35.5 11.5t38.5 39.5v318q-21 26 -36.5 36.5t-37.5 10.5zM417 471q-41 0 -79 -48v-317q37 -51 72 -51q75 0 75 209q0 112 -15.5 159.5t-52.5 47.5z" />
    <glyph glyph-name="uni0445" unicode="&#x445;" 
d="M152 0h-96l194 278l-171 249h100l122 -196l123 196h97l-171 -245l194 -282h-102l-145 226z" />
    <glyph glyph-name="uni0446" unicode="&#x446;" 
d="M494 69h81v-216h-70l-14 147h-397v527h84v-457h232v457h84v-458z" />
    <glyph glyph-name="uni0447" unicode="&#x447;" 
d="M489 527v-527h-84v223q-66 -59 -165 -59q-76 0 -115.5 40.5t-39.5 114.5v208h84v-198q0 -53 22 -76t70 -23q39 0 80 16.5t64 43.5v237h84z" />
    <glyph glyph-name="uni0448" unicode="&#x448;" 
d="M551 527v-527h-502v527h79v-457h133v457h78v-457h134v457h78z" />
    <glyph glyph-name="uni0449" unicode="&#x449;" 
d="M551 69h71v-216h-70l-14 147h-489v527h79v-457h133v457h78v-457h134v457h78v-458z" />
    <glyph glyph-name="uni044A" unicode="&#x44a;" 
d="M242 527v-166h63q240 0 240 -177q0 -184 -240 -184h-147v462h-125v65h209zM315 295h-73v-227h72q67 0 104 25t37 90q0 112 -140 112z" />
    <glyph glyph-name="uni044B" unicode="&#x44b;" 
d="M142 527v-171h36q224 0 224 -173q0 -93 -59 -138t-165 -45h-116v527h80zM538 527v-527h-81v527h81zM181 293h-39v-228h39q67 0 100.5 26t33.5 91q0 59 -32 85t-102 26z" />
    <glyph glyph-name="uni044C" unicode="&#x44c;" 
d="M210 527v-166h103q118 0 169.5 -46.5t51.5 -133.5q0 -89 -59 -135t-143 -46h-206v527h84zM312 295h-102v-227h113q120 0 120 113q0 59 -29 86.5t-102 27.5z" />
    <glyph glyph-name="uni044D" unicode="&#x44d;" 
d="M278 538q118 0 178 -72t60 -200q0 -127 -63 -202t-180 -75q-106 0 -182 62l41 56q64 -48 140 -48q147 0 157 178h-248v66h247q-15 167 -151 167q-78 0 -141 -47l-40 54q73 61 182 61z" />
    <glyph glyph-name="uni044E" unicode="&#x44e;" 
d="M385 538q91 0 137 -71.5t46 -202.5q0 -128 -45.5 -201.5t-137.5 -73.5q-87 0 -131 66.5t-49 178.5h-67v-234h-82v527h82v-223h67q6 112 50.5 173t129.5 61zM385 469q-53 0 -73 -48.5t-20 -157.5q0 -103 20 -154t73 -51q54 0 74 51t20 155q0 107 -21 156t-73 49z" />
    <glyph glyph-name="uni044F" unicode="&#x44f;" 
d="M293 527h193v-527h-84v204h-142l-112 -204h-95l125 223q-93 44 -93 144q0 78 54.5 119t153.5 41zM288 271h114v188h-111q-117 0 -117 -92q0 -51 26.5 -73.5t87.5 -22.5z" />
    <glyph glyph-name="uni0450" unicode="&#x450;" 
d="M397 622l-203 93l46 72l184 -119zM167 234q3 -87 45.5 -131t107.5 -44q70 0 141 47l39 -56q-79 -61 -180 -61q-114 0 -177.5 74.5t-63.5 199.5q0 121 62.5 198t166.5 77q100 0 157.5 -69.5t57.5 -189.5q0 -23 -2 -45h-354zM309 469q-61 0 -99 -43.5t-43 -127.5h274
q-1 83 -36 127t-96 44z" />
    <glyph glyph-name="uni0451" unicode="&#x451;" 
d="M206 648q-23 0 -39 15.5t-16 37.5q0 24 16 39.5t39 15.5t38.5 -15.5t15.5 -39.5q0 -23 -15.5 -38t-38.5 -15zM413 648q-23 0 -38.5 15t-15.5 38q0 24 15.5 39.5t38.5 15.5t39 -15.5t16 -39.5q0 -22 -16 -37.5t-39 -15.5zM167 234q3 -87 45.5 -131t107.5 -44q70 0 141 47
l39 -56q-79 -61 -180 -61q-114 0 -177.5 74.5t-63.5 199.5q0 121 62.5 198t166.5 77q100 0 157.5 -69.5t57.5 -189.5q0 -23 -2 -45h-354zM309 469q-61 0 -99 -43.5t-43 -127.5h274q-1 83 -36 127t-96 44z" />
    <glyph glyph-name="uni0452" unicode="&#x452;" 
d="M184 747v-82h169v-68h-169v-139q31 37 76.5 58.5t92.5 21.5q148 0 148 -156v-356q0 -71 -19 -117t-49.5 -70.5t-86.5 -49.5l-31 61q39 19 58 34.5t31.5 49.5t12.5 90v354q0 49 -22 71t-70 22q-41 0 -79 -26t-62 -61v-384h-84v597h-81v68h81v73z" />
    <glyph glyph-name="uni0453" unicode="&#x453;" 
d="M424 797l38 -72l-209 -85l-26 45zM242 0h-84v527h366l-10 -71h-272v-456z" />
    <glyph glyph-name="uni0454" unicode="&#x454;" 
d="M340 538q102 0 176 -58l-40 -55q-65 45 -138 45q-63 0 -106 -43t-52 -124h240v-66h-241q5 -90 48 -134t111 -44q74 0 139 45l39 -54q-34 -29 -82 -45t-93 -16q-119 0 -184.5 73.5t-65.5 198.5q0 122 66.5 199.5t182.5 77.5z" />
    <glyph glyph-name="uni0455" unicode="&#x455;" 
d="M280 58q60 0 95 23t35 61t-24 59t-103 41q-92 23 -136 55.5t-44 96.5q0 66 55 105t145 39q110 0 192 -58l-38 -58q-69 48 -152 48q-114 0 -114 -69q0 -35 28 -52.5t111 -40.5q86 -23 128.5 -58.5t42.5 -103.5q0 -79 -64 -118t-157 -39q-124 0 -206 71l47 55
q69 -57 159 -57z" />
    <glyph glyph-name="uni0456" unicode="&#x456;" 
d="M300 773q28 0 45 -16.5t17 -42.5t-17 -42.5t-45 -16.5q-27 0 -43.5 16.5t-16.5 42.5t16.5 42.5t43.5 16.5zM367 527v-460h148v-67h-394v67h162v393h-157v67h241z" />
    <glyph glyph-name="uni0457" unicode="&#x457;" 
d="M197 648q-23 0 -39 15.5t-16 37.5q0 24 16 39.5t39 15.5t38.5 -15.5t15.5 -39.5q0 -23 -15.5 -38t-38.5 -15zM404 648q-23 0 -38.5 15t-15.5 38q0 24 15.5 39.5t38.5 15.5t39 -15.5t16 -39.5q0 -22 -16 -37.5t-39 -15.5zM367 527v-460h148v-67h-394v67h162v393h-157v67
h241z" />
    <glyph glyph-name="uni0458" unicode="&#x458;" 
d="M367 773q27 0 44 -16.5t17 -42.5t-17 -42.5t-44 -16.5t-44 16.5t-17 42.5t17 42.5t44 16.5zM445 527v-443q0 -127 -84.5 -197.5t-250.5 -98.5l-14 65q127 21 196 73.5t69 152.5v381h-219v67h303z" />
    <glyph glyph-name="uni0459" unicode="&#x459;" 
d="M363 527v-171h13q216 0 216 -173q0 -91 -57 -137t-158 -46h-95v460h-106l-6 -139q-5 -112 -21.5 -177t-41.5 -95.5t-73 -59.5l-31 56q24 20 37 39t27 77t20 154l11 212h265zM381 293h-18v-227h20q62 0 91.5 25.5t29.5 91.5q0 59 -29 84.5t-94 25.5z" />
    <glyph glyph-name="uni045A" unicode="&#x45a;" 
d="M366 527v-199h13q216 0 216 -163q0 -165 -213 -165h-97v266h-130v-266h-83v527h83v-199h130v199h81zM383 266h-17v-201h19q64 0 93 19t29 81q0 57 -29 79t-95 22z" />
    <glyph glyph-name="uni045B" unicode="&#x45b;" 
d="M353 538q148 0 148 -156v-382h-84v381q0 47 -22 68.5t-70 21.5q-41 0 -79 -26t-62 -61v-384h-84v597h-81v68h81v73l84 9v-82h169v-68h-169v-143q31 40 76 62t93 22z" />
    <glyph glyph-name="uni045C" unicode="&#x45c;" 
d="M404 797l38 -72l-209 -85l-26 45zM106 0v527h84v-214h105l152 214h95l-178 -244l205 -283h-102l-174 245h-103v-245h-84z" />
    <glyph glyph-name="uni045D" unicode="&#x45d;" 
d="M387 622l-203 93l46 72l184 -119zM500 527v-527h-84v246q0 42 2 85t4.5 69t2.5 27l-222 -427h-103v527h84v-247q0 -36 -2 -78.5t-4 -70t-2 -28.5l219 424h105z" />
    <glyph glyph-name="uni045E" unicode="&#x45e;" 
d="M298 647q-59 0 -100 29.5t-47 82.5l57 13q20 -60 90 -60q73 0 93 60l58 -13q-6 -53 -48.5 -82.5t-102.5 -29.5zM538 527l-184 -530q-31 -91 -85 -145t-151 -64l-12 67q76 13 110.5 46t56.5 99h-28l-183 527h89l151 -463l149 463h87z" />
    <glyph glyph-name="uni045F" unicode="&#x45f;" 
d="M500 527v-527h-158v-147h-70l-14 147h-158v527h84v-457h232v457h84z" />
    <glyph glyph-name="uni0460" unicode="&#x460;" 
d="M513 689q72 -194 72 -391q0 -309 -162 -309q-89 0 -122 104q-16 -52 -44.5 -78t-76.5 -26q-69 0 -116 74t-47 235q0 89 15 177t25 120.5t31 93.5h84q-70 -184 -70 -387q0 -242 92 -242q64 0 64 109v229h85v-228q0 -56 20 -83t50 -27q41 0 63.5 50t22.5 189q0 114 -18 203
t-52 187h84z" />
    <glyph glyph-name="uni0461" unicode="&#x461;" 
d="M523 527q51 -137 51 -288q0 -119 -39 -184.5t-114 -65.5q-107 0 -122 116q-24 -116 -122 -116q-151 0 -151 250q0 161 50 288h75q-42 -129 -42 -288q0 -87 17 -134t59 -47q75 0 75 173v126l80 11v-138q0 -83 16.5 -127.5t57.5 -44.5q43 0 60 47t17 134q0 145 -45 288h77z
" />
    <glyph glyph-name="uni0462" unicode="&#x462;" 
d="M312 428q120 0 188 -52.5t68 -154.5q0 -112 -72 -166.5t-196 -54.5h-146v530h-144v65h144v94h87v-94h153v-65h-153v-102h71zM310 71q79 0 122 33t43 115q0 141 -161 141h-73v-289h69z" />
    <glyph glyph-name="uni0463" unicode="&#x463;" 
d="M229 655v-119h133l-11 -68h-122v-112h70q241 0 241 -176q0 -180 -242 -180h-153v468h-87v68h87v109zM309 290h-80v-222h80q67 0 104 24t37 88q0 110 -141 110z" />
    <glyph glyph-name="uni0464" unicode="&#x464;" 
d="M554 95l41 -58q-62 -48 -149 -48q-111 0 -177 85t-72 244h-69v-318h-88v688h88v-295h71q10 148 77.5 227.5t174.5 79.5q77 0 137 -41l-42 -57q-43 26 -93 26q-146 0 -165 -237h229v-74h-231q13 -255 163 -255q48 0 105 33z" />
    <glyph glyph-name="uni0465" unicode="&#x465;" 
d="M434 60q51 0 101 42l46 -52q-62 -61 -145 -61q-93 0 -149.5 65.5t-62.5 179.5h-64v-234h-84v527h84v-223h65q9 106 64.5 170t149.5 64q79 0 145 -57l-43 -52q-51 40 -104 40q-110 0 -129 -166h198v-66h-199q3 -89 37 -133t90 -44z" />
    <glyph glyph-name="uni0466" unicode="&#x466;" 
d="M486 0l-89 290h-58v-290h-82v290h-58l-89 -290h-90l225 689h110l224 -689h-93zM222 364h152l-76 248z" />
    <glyph glyph-name="uni0467" unicode="&#x467;" 
d="M476 0l-79 204h-63v-204h-72v204h-61l-79 -204h-86l217 527h97l215 -527h-89zM227 272h144l-72 186z" />
    <glyph glyph-name="uni0468" unicode="&#x468;" 
d="M514 0l-64 291h-37v-291h-73v291h-36l-65 -291h-81l70 291h-105v-291h-86v689h86v-329h107l2 -50l1 2l90 377h111l165 -689h-85zM319 360h116l-58 261z" />
    <glyph glyph-name="uni0469" unicode="&#x469;" 
d="M513 0l-57 205h-40v-205h-68v205h-36l-58 -205h-78l62 205h-103v-205h-83v527h83v-253h124l76 253h102l157 -527h-81zM331 274h105l-52 186z" />
    <glyph glyph-name="uni046A" unicode="&#x46a;" 
d="M459 379l103 -379h-80l-82 311h-57v-311h-85v311h-57l-83 -311h-80l112 379h72l-129 252v58h420v-58l-134 -252h80zM183 626l120 -247l123 247h-243z" />
    <glyph glyph-name="uni046B" unicode="&#x46b;" 
d="M469 299l109 -299h-77l-85 232h-75v-232h-83v232h-73l-84 -232h-79l109 299h91l-121 182v46h393v-46l-122 -182h97zM195 462l104 -163l104 163h-208z" />
    <glyph glyph-name="uni046C" unicode="&#x46c;" 
d="M528 379l100 -379h-82l-77 311h-46v-311h-86v311h-46l-78 -311h-82l89 311h-116v-311h-86v689h86v-310h200l-114 252v58h384v-58l-119 -252h73zM490 625h-213l106 -246z" />
    <glyph glyph-name="uni046D" unicode="&#x46d;" 
d="M511 298l101 -298h-80l-73 229h-37v-229h-78v229h-36l-75 -229h-79l80 229h-117v-229h-82v527h82v-229h193l-107 183v46h355v-46l-106 -183h59zM293 464l91 -166l88 166h-179z" />
    <glyph glyph-name="uni046E" unicode="&#x46e;" 
d="M312 754h-57l-135 108l38 43l125 -81l126 81l37 -43zM291 376q110 0 168.5 -52.5t58.5 -146.5q0 -91 -59.5 -145.5t-151.5 -63.5q-74 -8 -99.5 -19t-25.5 -34q0 -36 73 -73l-32 -56q-127 55 -127 136q0 97 167 112q164 16 164 143q0 71 -37.5 102.5t-114.5 31.5h-106v64
l211 241h-298v73h402v-73l-220 -240h27z" />
    <glyph glyph-name="uni046F" unicode="&#x46f;" 
d="M410 789l38 -41l-134 -119h-57l-135 119l40 41l124 -90zM216 -214q-130 57 -130 139q0 50 42 77.5t134 36.5q90 9 127.5 29t37.5 67q0 83 -87 83h-172v64l209 173h-297v72h409v-66l-224 -179h74q84 0 131.5 -36.5t47.5 -111.5q0 -139 -212 -163q-80 -8 -107 -19t-27 -34
q0 -36 77 -76z" />
    <glyph glyph-name="uni0470" unicode="&#x470;" 
d="M256 0v192q-122 9 -182.5 73t-60.5 165v259h89v-254q0 -79 35 -120.5t120 -48.5v423h87v-422q83 7 118.5 48.5t35.5 119.5v254h89v-259q0 -100 -61 -163.5t-181 -73.5v-193h-89z" />
    <glyph glyph-name="uni0471" unicode="&#x471;" 
d="M341 527v-464q85 10 114 56.5t29 142.5q0 115 -26 265h85q26 -143 26 -273q0 -240 -228 -260v-196l-80 -10v206q-110 8 -165 63t-55 136v334h84v-326q0 -65 30.5 -97.5t105.5 -40.5v464h80z" />
    <glyph glyph-name="uni0472" unicode="&#x472;" 
d="M553 344q0 -161 -65.5 -258t-187.5 -97q-123 0 -188 95t-65 259q0 161 65.5 259t187.5 98t187.5 -96.5t65.5 -259.5zM300 627q-78 0 -116.5 -60.5t-44.5 -182.5h321q-5 122 -43.5 182.5t-116.5 60.5zM300 62q81 0 119.5 64t41.5 192h-323q6 -256 162 -256z" />
    <glyph glyph-name="uni0473" unicode="&#x473;" 
d="M301 538q109 0 167.5 -73.5t58.5 -200.5q0 -124 -59.5 -199.5t-167.5 -75.5q-109 0 -168 73.5t-59 200.5q0 125 59.5 200t168.5 75zM301 469q-127 0 -136 -167h270q-9 167 -134 167zM435 234h-269q6 -91 39 -133.5t95 -42.5q123 0 135 176z" />
    <glyph glyph-name="uni0474" unicode="&#x474;" 
d="M566 626q-21 7 -34 7q-19 0 -30.5 -13t-19.5 -41l-154 -579h-96l-204 689h93l158 -589l125 491q15 57 43 83t75 26q34 0 72 -18z" />
    <glyph glyph-name="uni0475" unicode="&#x475;" 
d="M240 0l-183 527h92l143 -450l124 390q19 59 42.5 83t69.5 24q29 0 69 -19l-28 -56q-15 6 -31 6q-17 0 -26.5 -10t-17.5 -35l-152 -460h-102z" />
    <glyph glyph-name="uni0476" unicode="&#x476;" 
d="M238 824l-53 -28l-108 163l74 39zM403 824l-56 -26l-97 164l75 36zM566 626q-21 7 -34 7q-19 0 -30.5 -13t-19.5 -41l-154 -579h-96l-204 689h93l158 -589l125 491q15 57 43 83t75 26q34 0 72 -18z" />
    <glyph glyph-name="uni0477" unicode="&#x477;" 
d="M249 662l-53 -28l-108 163l74 39zM414 662l-56 -26l-97 164l75 36zM240 0l-183 527h92l143 -450l124 390q19 59 42.5 83t69.5 24q29 0 69 -19l-28 -56q-15 6 -31 6q-17 0 -26.5 -10t-17.5 -35l-152 -460h-102z" />
    <glyph glyph-name="uni0478" unicode="&#x478;" 
d="M164 -11q-83 0 -119 89t-36 265q0 174 36 265.5t119 91.5t119.5 -90.5t36.5 -265.5q0 -176 -36.5 -265.5t-119.5 -89.5zM164 55q44 0 59.5 65.5t15.5 223.5q0 157 -16 223t-59 66t-58.5 -66.5t-15.5 -223.5q0 -155 16.5 -221.5t57.5 -66.5zM349 -212l-11 64
q44 13 69.5 47.5t35.5 100.5h-35l-84 527h76l61 -463l56 463h77l-83 -530q-27 -169 -162 -209z" />
    <glyph glyph-name="uni0479" unicode="&#x479;" 
d="M153 -11q-153 0 -153 274q0 128 37.5 201.5t116.5 73.5q153 0 153 -274q0 -128 -37.5 -201.5t-116.5 -73.5zM270 -212l-12 63q80 16 118.5 48t54.5 101h-38l-94 527h89l66 -463l65 463h86l-92 -520q-19 -101 -78.5 -154.5t-164.5 -64.5zM153 56q39 0 54 48.5t15 159.5
t-14.5 159.5t-53.5 48.5t-54 -48.5t-15 -160.5q0 -111 14.5 -159t53.5 -48z" />
    <glyph glyph-name="uni048A" unicode="&#x48a;" 
d="M298 773q-59 0 -100 29.5t-47 82.5l57 13q20 -60 90 -60q73 0 93 60l58 -13q-6 -53 -48.5 -82.5t-102.5 -29.5zM517 69h90l-78 -216h-68l35 147h-65v349q0 133 14 257l-248 -606h-114v689h86v-349q0 -145 -14 -263l250 612h112v-620z" />
    <glyph glyph-name="uni048B" unicode="&#x48b;" 
d="M286 647q-59 0 -100 29.5t-47 82.5l57 13q20 -60 90 -60q73 0 93 60l58 -13q-6 -53 -48.5 -82.5t-102.5 -29.5zM484 66h77l-67 -213h-68l34 147h-58v246q0 115 10 203l-217 -449h-102v527h82v-247q0 -128 -14 -200l220 447h103v-461z" />
    <glyph glyph-name="uni048C" unicode="&#x48c;" 
d="M314 428q119 0 187 -52.5t68 -154.5q0 -112 -72 -166.5t-196 -54.5h-176v531h-95v63h95v95h87v-95h131v-63h-131v-103h102zM311 71q79 0 122 33t43 115q0 141 -161 141h-103v-289h99z" />
    <glyph glyph-name="uni048D" unicode="&#x48d;" 
d="M318 335q103 0 158 -42.5t55 -118.5q0 -85 -62 -129.5t-176 -44.5h-137v396h-86v68h86v63h84v-63h129l-11 -68h-118v-61h78zM304 68q64 0 100.5 23t36.5 82q0 96 -125 96h-76v-201h64z" />
    <glyph glyph-name="uni048E" unicode="&#x48e;" 
d="M557 475q0 -112 -85 -171l83 -136h-79l-65 106q-53 -18 -120 -18h-89v-256h-86v689h175q127 0 196.5 -53.5t69.5 -160.5zM298 325q44 0 76 9l-88 145h79l67 -110q31 35 31 105q0 146 -162 146h-99v-295h96z" />
    <glyph glyph-name="uni048F" unicode="&#x48f;" 
d="M529 264q0 -164 -83 -234l74 -122h-79l-55 90q-27 -9 -60 -9q-87 0 -139 60v-251l-84 -10v739h71l7 -74q61 85 157 85q191 0 191 -274zM306 59q23 0 41 3l-96 157h79l75 -123q33 43 33 168q0 206 -120 206q-75 0 -131 -84v-261q43 -66 119 -66z" />
    <glyph glyph-name="uni0490" unicode="&#x490;" 
d="M460 835h84v-146l-9 -77h-312v-612h-87v689h324v146z" />
    <glyph glyph-name="uni0491" unicode="&#x491;" 
d="M439 659h85v-132l-10 -71h-272v-456h-84v527h281v132z" />
    <glyph glyph-name="uni0492" unicode="&#x492;" 
d="M566 612h-312v-179h157v-67h-157v-366h-87v366h-101v67h101v256h408z" />
    <glyph glyph-name="uni0493" unicode="&#x493;" 
d="M544 456h-272v-154h125v-67h-125v-235h-84v235h-94v67h94v225h366z" />
    <glyph glyph-name="uni0494" unicode="&#x494;" 
d="M353 450q90 0 143 -57.5t53 -157.5v-296q0 -73 -38.5 -111.5t-106.5 -38.5q-64 0 -113 37l34 57q37 -24 75 -24q62 0 62 75v300q0 140 -124 140q-95 0 -167 -80v-294h-87v689h385l-11 -73h-287v-242q73 76 182 76z" />
    <glyph glyph-name="uni0495" unicode="&#x495;" 
d="M346 349q66 0 108.5 -42t42.5 -114v-254q0 -73 -39.5 -111.5t-106.5 -38.5q-64 0 -113 37l34 54q41 -23 75 -23q66 0 66 75v253q0 98 -85 98q-75 0 -141 -84l-1 3v-202h-84v527h322l-10 -67h-228v-188q63 77 160 77z" />
    <glyph glyph-name="uni0496" unicode="&#x496;" 
d="M563 73h47v-220h-71l-15 147h-24l1 5l-102 322h-60v-327h-78v327h-61l-104 -327h-84l123 364l-108 325h83l91 -291h60v291h78v-291h60l92 291h82l-108 -325z" />
    <glyph glyph-name="uni0497" unicode="&#x497;" 
d="M547 69h54v-216h-61l-14 147h-35l-100 247h-54v-247h-74v247h-57l-99 -247h-83l118 283l-108 244h85l88 -215h56v215h74v-215h56l91 215h82l-108 -244z" />
    <glyph glyph-name="uni0498" unicode="&#x498;" 
d="M541 205q0 -87 -61 -146t-166 -68v-48q46 -4 69.5 -27.5t23.5 -55.5q0 -47 -35.5 -72.5t-86.5 -25.5q-63 0 -105 24l27 48q30 -16 67 -16q60 0 60 41q0 26 -21 35t-65 9l6 87q-135 8 -219 96l54 49q82 -73 189 -73q80 0 124.5 37t44.5 103t-44 98.5t-117 32.5h-121l10 73
h105q63 0 105.5 28.5t42.5 84.5q0 53 -41.5 81.5t-107.5 28.5q-96 0 -182 -66l-48 51q103 86 232 86q108 0 172 -50t64 -130q0 -61 -40 -98.5t-102 -46.5q70 -6 118 -50.5t48 -119.5z" />
    <glyph glyph-name="uni0499" unicode="&#x499;" 
d="M517 157q0 -72 -53.5 -114.5t-142.5 -51.5v-48q46 -4 69.5 -27.5t23.5 -55.5q0 -47 -35.5 -72.5t-86.5 -25.5q-63 0 -105 24l27 48q30 -16 67 -16q60 0 60 41q0 26 -21 35t-65 9l6 86q-125 5 -207 73l40 54q81 -58 187 -58q71 0 108 26t37 71q0 86 -134 86h-106l5 68h95
q53 0 83.5 22t30.5 58q0 81 -124 81q-88 0 -163 -46l-40 50q85 64 206 64q91 0 150 -37.5t59 -106.5q0 -82 -107 -113q51 -1 93.5 -35t42.5 -89z" />
    <glyph glyph-name="uni049A" unicode="&#x49a;" 
d="M587 0h-1v-147h-69l-14 147h-22v1l-220 325h-80v-326h-86v689h86v-290h81l212 290h94l-232 -325l201 -291h49v-72z" />
    <glyph glyph-name="uni049B" unicode="&#x49b;" 
d="M519 69h68v-216h-70l-14 147h-36l-174 245h-103v-245h-84v527h84v-214h105l152 214h95l-178 -244z" />
    <glyph glyph-name="uni049C" unicode="&#x49c;" 
d="M228 150v176h-48v-326h-85v689h85v-291h48v172h54v-172h26l169 291h91l-192 -325l211 -364h-97l-182 326h-26v-176h-54z" />
    <glyph glyph-name="uni049D" unicode="&#x49d;" 
d="M106 0v527h85v-212h45v115h46v-115h28l144 212h88l-164 -243l191 -284h-92l-167 244h-28v-124h-46v124h-45v-244h-85z" />
    <glyph glyph-name="uni049E" unicode="&#x49e;" 
d="M353 364l231 -364h-105l-201 326h-80v-326h-86v523h-75v70h75v96h86v-96h115v-70h-115v-124h82l191 290h94z" />
    <glyph glyph-name="uni049F" unicode="&#x49f;" 
d="M357 283l204 -283h-102l-174 245h-83v-245h-84v567h-79v68h79v104l84 10v-114h149v-68h-149v-254h85l152 214h95z" />
    <glyph glyph-name="uni04A0" unicode="&#x4a0;" 
d="M289 325h-69v-325h-88v612h-121v77h209v-290h71l195 290h94l-215 -325l234 -364h-105z" />
    <glyph glyph-name="uni04A1" unicode="&#x4a1;" 
d="M382 283l206 -283h-102l-175 245h-94v-245h-84v462h-125v65h209v-214h95l154 214h94z" />
    <glyph glyph-name="uni04A2" unicode="&#x4a2;" 
d="M517 73h61v-220h-69l-14 147h-65v327h-260v-327h-87v689h87v-291h260v291h87v-616z" />
    <glyph glyph-name="uni04A3" unicode="&#x4a3;" 
d="M486 69h80v-216h-70l-14 147h-80v234h-232v-234h-84v527h84v-224h232v224h84v-458z" />
    <glyph glyph-name="uni04A4" unicode="&#x4a4;" 
d="M604 689l-8 -72h-134v-617h-87v327h-221v-327h-86v689h86v-291h221v291h229z" />
    <glyph glyph-name="uni04A5" unicode="&#x4a5;" 
d="M602 527l-8 -69h-136v-458h-84v234h-201v-234h-84v527h84v-224h201v224h228z" />
    <glyph glyph-name="uni04A6" unicode="&#x4a6;" 
d="M449 451q66 0 105 -42.5t39 -114.5v-352q0 -74 -40 -113.5t-105 -39.5q-64 0 -113 37l34 57q39 -23 75 -23q62 0 62 75v360q0 79 -70 79q-46 0 -88 -36v-338h-87v611h-147v-611h-87v689h321v-278q43 40 101 40z" />
    <glyph glyph-name="uni04A7" unicode="&#x4a7;" 
d="M466 349q57 0 93.5 -38t36.5 -100v-271q0 -73 -40 -112t-108 -39q-64 0 -113 37l34 55q39 -22 75 -22q67 0 67 75v271q0 77 -65 77q-49 0 -90 -39v-243h-86v457h-155v-457h-87v527h328v-220q44 42 110 42z" />
    <glyph glyph-name="uni04A8" unicode="&#x4a8;" 
d="M582 259q0 -70 -34.5 -134.5t-96.5 -100.5q4 -5 33 -41.5t45 -58.5l-57 -43q-14 17 -45 56t-46 59q-37 -7 -67 -7q-128 0 -203.5 92.5t-75.5 263.5q0 167 79 261t191 94q59 0 100.5 -16t83.5 -51l-45 -57q-66 51 -136 51q-77 0 -128 -67.5t-51 -214.5q0 -280 188 -280h13
q-71 106 -71 189q0 76 45.5 126.5t116.5 50.5q76 0 118.5 -47.5t42.5 -124.5zM345 255q0 -83 60 -171q86 44 88 176q0 101 -72 101q-37 0 -56.5 -28t-19.5 -78z" />
    <glyph glyph-name="uni04A9" unicode="&#x4a9;" 
d="M550 219q0 -59 -31 -111.5t-86 -83.5q17 -21 83 -100l-57 -43q-63 74 -97 116q-35 -8 -71 -8q-109 0 -171.5 71.5t-62.5 198.5t60.5 203t164.5 76q69 0 122 -30l-34 -61q-38 20 -84 20q-65 0 -101 -52t-36 -154q0 -203 145 -203q15 0 22 1q-57 85 -57 156
q0 63 39.5 106.5t107.5 43.5q66 0 105 -40t39 -106zM342 214q0 -62 50 -135q76 39 76 140q0 37 -16 58.5t-45 21.5q-32 0 -48.5 -23t-16.5 -62z" />
    <glyph glyph-name="uni04AA" unicode="&#x4aa;" 
d="M394 -10q74 -48 74 -118q0 -50 -33.5 -80.5t-91.5 -30.5q-57 0 -97 25l22 51q38 -18 70 -18q57 0 57 56q0 68 -77 117q-114 16 -184.5 108t-70.5 245q0 167 84.5 261t210.5 94q64 0 110 -16.5t90 -50.5l-49 -57q-61 51 -145 51q-93 0 -151.5 -67.5t-58.5 -214.5
q0 -146 57 -214t152 -68q87 0 160 57l45 -56q-66 -65 -174 -74z" />
    <glyph glyph-name="uni04AB" unicode="&#x4ab;" 
d="M380 -8q77 -49 77 -120q0 -50 -33.5 -80.5t-91.5 -30.5q-57 0 -97 25l22 51q38 -18 70 -18q57 0 57 56q0 68 -75 115q-103 10 -160.5 82t-57.5 189q0 122 66.5 199.5t181.5 77.5q102 0 176 -62l-41 -55q-69 46 -136 46q-71 0 -113.5 -52.5t-42.5 -153.5t42.5 -150.5
t114.5 -49.5q69 0 137 46l40 -55q-52 -46 -136 -60z" />
    <glyph glyph-name="uni04AC" unicode="&#x4ac;" 
d="M550 614h-208v-541h61v-220h-69l-14 147h-65v614h-215v75h519z" />
    <glyph glyph-name="uni04AD" unicode="&#x4ad;" 
d="M530 457h-188v-388h81v-216h-70l-14 147h-81v457h-193v70h476z" />
    <glyph glyph-name="uni04AE" unicode="&#x4ae;" 
d="M344 266v-266h-88v265l-233 424h96l183 -346l185 346h90z" />
    <glyph glyph-name="uni04AF" unicode="&#x4af;" 
d="M259 -212v228l-201 511h89l155 -430l153 430h87l-201 -511v-218z" />
    <glyph glyph-name="uni04B0" unicode="&#x4b0;" 
d="M577 689l-204 -370h99v-68h-128v-251h-88v251h-128v68h98l-203 370h96l183 -346l185 346h90z" />
    <glyph glyph-name="uni04B1" unicode="&#x4b1;" 
d="M542 527l-179 -455h83v-68h-105v-206l-82 -10v216h-105v68h83l-179 455h89l155 -430l153 430h87z" />
    <glyph glyph-name="uni04B2" unicode="&#x4b2;" 
d="M526 73h48v-220h-69l-14 147h-22l-171 311l-174 -311h-93l216 367l-198 322h100l151 -265l152 265h93l-195 -317z" />
    <glyph glyph-name="uni04B3" unicode="&#x4b3;" 
d="M152 0h-96l194 278l-171 249h100l122 -196l123 196h97l-171 -245l194 -282h-102l-145 226zM342 69v-216h-70l-14 147h-36l3 69h117z" />
    <glyph glyph-name="uni04B4" unicode="&#x4b4;" 
d="M514 73h50v-220h-71l-15 147h-350v617h-128v72h346l-9 -72h-120v-545h208v617h89v-616z" />
    <glyph glyph-name="uni04B5" unicode="&#x4b5;" 
d="M495 69h60v-216h-71l-14 147h-345v460h-125v67h339l-10 -67h-118v-390h198v457h86v-458z" />
    <glyph glyph-name="uni04B6" unicode="&#x4b6;" 
d="M517 73h61v-220h-69l-14 147h-65v282q-46 -34 -86 -48.5t-93 -14.5q-90 0 -145 55.5t-55 148.5v266h86v-259q0 -135 136 -135q94 0 157 61v333h87v-616z" />
    <glyph glyph-name="uni04B7" unicode="&#x4b7;" 
d="M479 69h81v-216h-70l-14 147h-81v223q-66 -59 -165 -59q-76 0 -115.5 40.5t-39.5 114.5v208h84v-198q0 -53 22 -76t70 -23q39 0 80 16.5t64 43.5v237h84v-458z" />
    <glyph glyph-name="uni04B8" unicode="&#x4b8;" 
d="M430 689h87v-689h-87v282q-59 -44 -112 -56v-107h-58v100h-9q-90 0 -145 55.5t-55 148.5v266h86v-259q0 -129 123 -135v243h58v-239q65 12 112 57v333z" />
    <glyph glyph-name="uni04B9" unicode="&#x4b9;" 
d="M405 527h84v-527h-84v223q-40 -37 -100 -51v-81h-54v73h-11q-76 0 -115.5 40.5t-39.5 114.5v208h84v-198q0 -50 20 -73.5t62 -25.5v159h54v-154q67 16 100 55v237z" />
    <glyph glyph-name="uni04BA" unicode="&#x4ba;" 
d="M352 450q90 0 143 -57.5t53 -157.5v-235h-87v234q0 140 -124 140q-95 0 -167 -80v-294h-87v689h87v-315q73 76 182 76z" />
    <glyph glyph-name="uni04BB" unicode="&#x4bb;" 
d="M343 477q72 0 114.5 -43t42.5 -117v-317h-84v303q0 107 -89 107q-81 0 -142 -91v-319h-84v738l84 9v-352q60 82 158 82z" />
    <glyph glyph-name="uni04BC" unicode="&#x4bc;" 
d="M567 357q0 -22 -3 -49h-344q3 -128 44 -188.5t106 -60.5q29 0 54.5 8t37.5 15t35 23l41 -52q-74 -64 -167 -64q-105 0 -169 81.5t-70 237.5q-63 1 -97 33.5t-34 80.5q0 52 39 105l57 -26q-21 -44 -21 -72q0 -50 51 -50h6q9 150 70.5 235.5t157.5 85.5q95 0 150.5 -88
t55.5 -255zM220 379h265q-10 251 -126 251q-125 0 -139 -251z" />
    <glyph glyph-name="uni04BD" unicode="&#x4bd;" 
d="M555 279q0 -23 -2 -45h-326q2 -86 42 -130.5t102 -44.5q56 0 118 40l40 -53q-69 -57 -159 -57q-100 0 -160 66.5t-67 179.5q-65 1 -98.5 31t-33.5 80q0 43 39 102l53 -27q-20 -44 -20 -71q0 -52 51 -52h9q9 106 66 173t146 67q95 0 147.5 -69t52.5 -190zM227 298h247
q-3 172 -118 172q-56 0 -90 -43.5t-39 -128.5z" />
    <glyph glyph-name="uni04BE" unicode="&#x4be;" 
d="M567 357q0 -22 -3 -49h-344q3 -128 44 -188.5t106 -60.5q29 0 54.5 8t37.5 15t35 23l41 -52q-47 -39 -92 -53q-72 -31 -98 -58t-26 -56q0 -48 56 -48q27 0 61 7l-8 -68q-42 -6 -64 -6q-56 0 -89 27.5t-33 70.5q0 73 89 123q-90 14 -143.5 94t-58.5 222q-63 1 -97 33.5
t-34 80.5q0 52 39 105l57 -26q-21 -44 -21 -72q0 -50 51 -50h6q9 150 70.5 235.5t157.5 85.5q95 0 150.5 -88t55.5 -255zM220 379h265q-10 251 -126 251q-125 0 -139 -251z" />
    <glyph glyph-name="uni04BF" unicode="&#x4bf;" 
d="M555 279q0 -23 -2 -45h-326q2 -86 42 -130.5t102 -44.5q56 0 118 40l40 -53q-36 -30 -85 -46q-72 -31 -98 -58t-26 -56q0 -48 56 -48q27 0 61 7l-8 -68q-42 -6 -64 -6q-56 0 -89 27.5t-33 70.5q0 73 89 123q-83 13 -133 77.5t-56 165.5q-65 1 -98.5 31t-33.5 80
q0 43 39 102l53 -27q-20 -44 -20 -71q0 -52 51 -52h9q9 106 66 173t146 67q95 0 147.5 -69t52.5 -190zM227 298h247q-3 172 -118 172q-56 0 -90 -43.5t-39 -128.5z" />
    <glyph glyph-name="uni04C0" unicode="&#x4c0;" 
d="M497 689v-70h-153v-550h153v-69h-394v69h153v550h-153v70h394z" />
    <glyph glyph-name="uni04C1" unicode="&#x4c1;" 
d="M298 773q-59 0 -100 29.5t-47 82.5l57 13q20 -60 90 -60q73 0 93 60l58 -13q-6 -53 -48.5 -82.5t-102.5 -29.5zM261 327h-61l-104 -327h-84l123 364l-108 325h83l91 -291h60v291h78v-291h60l92 291h82l-108 -325l123 -364h-86l-103 327h-60v-327h-78v327z" />
    <glyph glyph-name="uni04C2" unicode="&#x4c2;" 
d="M298 647q-59 0 -100 29.5t-47 82.5l57 13q20 -60 90 -60q73 0 93 60l58 -13q-6 -53 -48.5 -82.5t-102.5 -29.5zM263 0v247h-57l-104 -247h-82l122 283l-113 244h86l92 -215h56v215h74v-215h56l95 215h83l-113 -244l122 -283h-85l-104 247h-54v-247h-74z" />
    <glyph glyph-name="uni04C3" unicode="&#x4c3;" 
d="M351 383q181 -18 181 -212v-232q0 -73 -38.5 -111.5t-106.5 -38.5q-64 0 -113 37l34 57q37 -24 75 -24q62 0 62 75v236q0 142 -131 142v9l-5 -9h-139v-312h-87v689h87v-304h99l172 304h93z" />
    <glyph glyph-name="uni04C4" unicode="&#x4c4;" 
d="M343 301q145 -16 145 -165v-197q0 -73 -39.5 -111.5t-106.5 -38.5q-64 0 -113 37l34 54q41 -23 75 -23q66 0 66 75v193q0 60 -24.5 84t-84.5 24h-104v-233h-84v527h84v-226h68l141 226h91z" />
    <glyph glyph-name="uni04C5" unicode="&#x4c5;" 
d="M491 69h90l-78 -216h-68l35 147h-66v614h-155l-25 -204q-19 -156 -42 -239t-48 -115t-77 -67l-38 64q29 24 43.5 44.5t35 92t36.5 196.5l39 303h318v-620z" />
    <glyph glyph-name="uni04C6" unicode="&#x4c6;" 
d="M480 66h78l-67 -213h-68l34 147h-61v456h-167l-12 -139q-10 -118 -25.5 -179.5t-40 -91t-74.5 -57.5l-35 54q28 18 43 37t29 76t22 158l16 213h328v-461z" />
    <glyph glyph-name="uni04C7" unicode="&#x4c7;" 
d="M430 689h87v-750q0 -73 -38.5 -111.5t-106.5 -38.5q-64 0 -113 37l34 57q37 -24 75 -24q62 0 62 75v393h-260v-327h-87v689h87v-291h260v291z" />
    <glyph glyph-name="uni04C8" unicode="&#x4c8;" 
d="M416 527h84v-588q0 -73 -39.5 -111.5t-106.5 -38.5q-64 0 -113 37l34 54q41 -23 75 -23q66 0 66 75v302h-232v-234h-84v527h84v-224h232v224z" />
    <glyph glyph-name="uni04C9" unicode="&#x4c9;" 
d="M487 69h90l-78 -216h-68l35 147h-66v327h-241v-327h-87v689h87v-291h241v291h87v-620z" />
    <glyph glyph-name="uni04CA" unicode="&#x4ca;" 
d="M482 66h79l-67 -213h-68l34 147h-62v234h-212v-234h-84v527h84v-224h212v224h84v-461z" />
    <glyph glyph-name="uni04CB" unicode="&#x4cb;" 
d="M430 689h87v-689h-87v282q-46 -34 -86 -48.5t-93 -14.5q-90 0 -145 55.5t-55 148.5v266h86v-259q0 -135 136 -135q94 0 157 61v333zM264 73h99l6 -73h-22l-14 -147h-69v220z" />
    <glyph glyph-name="uni04CC" unicode="&#x4cc;" 
d="M405 527h84v-527h-70l-14 -147h-70v216h70v161q-66 -59 -165 -59q-76 0 -115.5 40.5t-39.5 114.5v201h84v-191q0 -52 22 -75t70 -23q39 0 80 16.5t64 43.5v229z" />
    <glyph glyph-name="uni04CD" unicode="&#x4cd;" 
d="M525 69h79l-77 -216h-71l35 147h-45l-22 360q-8 154 -5 243l-102 -479h-87l-108 479q0 -178 -3 -243l-19 -360h-81l39 689h121l97 -472l92 472h122z" />
    <glyph glyph-name="uni04CE" unicode="&#x4ce;" 
d="M524 66h73l-66 -213h-68l34 147h-49l-20 257q-7 93 -4 195l-89 -364h-84l-101 364q4 -85 -2 -193l-15 -259h-81l38 527h110l94 -360l86 360h111z" />
    <glyph glyph-name="uni04CF" unicode="&#x4cf;" 
d="M306 739v-609q0 -71 87 -71q41 0 88 18l22 -61q-50 -27 -125 -27q-71 0 -113.5 39t-42.5 106v538h-162v67h246z" />
    <glyph glyph-name="uni04D0" unicode="&#x4d0;" 
d="M298 773q-59 0 -100 29.5t-47 82.5l57 13q20 -60 90 -60q73 0 93 60l58 -13q-6 -53 -48.5 -82.5t-102.5 -29.5zM434 176h-273l-55 -176h-86l225 689h110l224 -689h-90zM184 248h227l-113 367z" />
    <glyph glyph-name="uni04D1" unicode="&#x4d1;" 
d="M290 647q-59 0 -100 29.5t-47 82.5l57 13q20 -60 90 -60q73 0 93 60l58 -13q-6 -53 -48.5 -82.5t-102.5 -29.5zM478 115q0 -31 10 -45.5t33 -21.5l-21 -60q-77 10 -96 75q-57 -74 -165 -74q-79 0 -124.5 44t-45.5 118q0 81 63.5 125t182.5 44h78v43q0 105 -125 105
q-60 0 -137 -27l-23 64q93 33 173 33q96 0 146.5 -45t50.5 -125v-253zM260 52q39 0 74.5 20t58.5 55v135h-76q-158 0 -158 -110q0 -100 101 -100z" />
    <glyph glyph-name="uni04D2" unicode="&#x4d2;" 
d="M196 767q-23 0 -39 15.5t-16 37.5q0 24 16 39.5t39 15.5t38.5 -15.5t15.5 -39.5q0 -23 -15.5 -38t-38.5 -15zM403 767q-23 0 -38.5 15t-15.5 38q0 24 15.5 39.5t38.5 15.5t39 -15.5t16 -39.5q0 -22 -16 -37.5t-39 -15.5zM434 176h-273l-55 -176h-86l225 689h110l224 -689
h-90zM184 248h227l-113 367z" />
    <glyph glyph-name="uni04D3" unicode="&#x4d3;" 
d="M188 648q-23 0 -39 15.5t-16 37.5q0 24 16 39.5t39 15.5t38.5 -15.5t15.5 -39.5q0 -23 -15.5 -38t-38.5 -15zM395 648q-23 0 -38.5 15t-15.5 38q0 24 15.5 39.5t38.5 15.5t39 -15.5t16 -39.5q0 -22 -16 -37.5t-39 -15.5zM478 115q0 -31 10 -45.5t33 -21.5l-21 -60
q-77 10 -96 75q-57 -74 -165 -74q-79 0 -124.5 44t-45.5 118q0 81 63.5 125t182.5 44h78v43q0 105 -125 105q-60 0 -137 -27l-23 64q93 33 173 33q96 0 146.5 -45t50.5 -125v-253zM260 52q39 0 74.5 20t58.5 55v135h-76q-158 0 -158 -110q0 -100 101 -100z" />
    <glyph glyph-name="uni04D4" unicode="&#x4d4;" 
d="M330 175h-204l-49 -175h-89l202 689h376l-10 -71h-236l51 -233h186v-71h-173l52 -243h171v-71h-241zM148 248h166l-73 372z" />
    <glyph glyph-name="uni04D5" unicode="&#x4d5;" 
d="M435 538q172 0 172 -259q0 -22 -2 -46h-269q7 -91 33.5 -132.5t79.5 -41.5q47 0 99 40l39 -58q-67 -52 -140 -52q-98 0 -148 89q-35 -48 -69.5 -68.5t-83.5 -20.5q-70 0 -111 44t-41 118q0 83 54.5 126t159.5 43h46v43q0 105 -91 105q-42 0 -105 -27l-22 63q71 34 135 34
q103 0 138 -88q14 41 46.5 64.5t79.5 23.5zM432 468q-46 0 -68 -38t-28 -131h189q-2 86 -23 127.5t-70 41.5zM254 262h-42q-69 0 -98 -27.5t-29 -78.5q0 -50 20 -76.5t54 -26.5q31 0 55.5 23t53.5 74q-14 45 -14 112z" />
    <glyph glyph-name="uni04D6" unicode="&#x4d6;" 
d="M319 773q-59 0 -100 29.5t-47 82.5l57 13q20 -60 90 -60q73 0 93 60l58 -13q-6 -53 -48.5 -82.5t-102.5 -29.5zM212 617v-232h256v-71h-256v-244h314v-70h-400v689h391l-10 -72h-295z" />
    <glyph glyph-name="uni04D7" unicode="&#x4d7;" 
d="M308 647q-59 0 -100 29.5t-47 82.5l57 13q20 -60 90 -60q73 0 93 60l58 -13q-6 -53 -48.5 -82.5t-102.5 -29.5zM167 234q3 -87 45.5 -131t107.5 -44q70 0 141 47l39 -56q-79 -61 -180 -61q-114 0 -177.5 74.5t-63.5 199.5q0 121 62.5 198t166.5 77q100 0 157.5 -69.5
t57.5 -189.5q0 -23 -2 -45h-354zM309 469q-61 0 -99 -43.5t-43 -127.5h274q-1 83 -36 127t-96 44z" />
    <glyph glyph-name="uni04D8" unicode="&#x4d8;" 
d="M45 331q0 14 2 50h415q-8 249 -172 249q-78 0 -157 -58l-45 51q91 77 205 77q126 0 192 -87.5t66 -259.5q0 -171 -68 -267.5t-186 -96.5q-119 0 -185.5 87t-66.5 255zM298 60q151 0 164 249h-333q6 -133 47 -191t122 -58z" />
    <glyph glyph-name="uni04D9" unicode="&#x4d9;" 
d="M292 538q119 0 176 -72t57 -202q0 -129 -61.5 -202t-169.5 -73q-103 0 -162 68.5t-59 189.5q0 32 2 46h359q-5 91 -40 132.5t-104 41.5q-81 0 -139 -49l-40 58q78 62 181 62zM294 57q68 0 102.5 39.5t38.5 131.5h-279v-8q0 -78 36.5 -120.5t101.5 -42.5z" />
    <glyph glyph-name="uni04DA" unicode="&#x4da;" 
d="M189 766q-23 0 -39 15.5t-16 37.5q0 24 16 39.5t39 15.5t38.5 -15.5t15.5 -39.5q0 -23 -15.5 -38t-38.5 -15zM396 766q-23 0 -38.5 15t-15.5 38q0 24 15.5 39.5t38.5 15.5t39 -15.5t16 -39.5q0 -22 -16 -37.5t-39 -15.5zM45 331q0 14 2 50h415q-8 249 -172 249
q-78 0 -157 -58l-45 51q91 77 205 77q126 0 192 -87.5t66 -259.5q0 -171 -68 -267.5t-186 -96.5q-119 0 -185.5 87t-66.5 255zM298 60q151 0 164 249h-333q6 -133 47 -191t122 -58z" />
    <glyph glyph-name="uni04DB" unicode="&#x4db;" 
d="M196 648q-23 0 -39 15.5t-16 37.5q0 24 16 39.5t39 15.5t38.5 -15.5t15.5 -39.5q0 -23 -15.5 -38t-38.5 -15zM403 648q-23 0 -38.5 15t-15.5 38q0 24 15.5 39.5t38.5 15.5t39 -15.5t16 -39.5q0 -22 -16 -37.5t-39 -15.5zM292 538q119 0 176 -72t57 -202
q0 -129 -61.5 -202t-169.5 -73q-103 0 -162 68.5t-59 189.5q0 32 2 46h359q-5 91 -40 132.5t-104 41.5q-81 0 -139 -49l-40 58q78 62 181 62zM294 57q68 0 102.5 39.5t38.5 131.5h-279v-8q0 -78 36.5 -120.5t101.5 -42.5z" />
    <glyph glyph-name="uni04DC" unicode="&#x4dc;" 
d="M196 767q-23 0 -39 15.5t-16 37.5q0 24 16 39.5t39 15.5t38.5 -15.5t15.5 -39.5q0 -23 -15.5 -38t-38.5 -15zM403 767q-23 0 -38.5 15t-15.5 38q0 24 15.5 39.5t38.5 15.5t39 -15.5t16 -39.5q0 -22 -16 -37.5t-39 -15.5zM261 327h-61l-104 -327h-84l123 364l-108 325h83
l91 -291h60v291h78v-291h60l92 291h82l-108 -325l123 -364h-86l-103 327h-60v-327h-78v327z" />
    <glyph glyph-name="uni04DD" unicode="&#x4dd;" 
d="M196 648q-23 0 -39 15.5t-16 37.5q0 24 16 39.5t39 15.5t38.5 -15.5t15.5 -39.5q0 -23 -15.5 -38t-38.5 -15zM403 648q-23 0 -38.5 15t-15.5 38q0 24 15.5 39.5t38.5 15.5t39 -15.5t16 -39.5q0 -22 -16 -37.5t-39 -15.5zM263 0v247h-57l-104 -247h-82l122 283l-113 244
h86l92 -215h56v215h74v-215h56l95 215h83l-113 -244l122 -283h-85l-104 247h-54v-247h-74z" />
    <glyph glyph-name="uni04DE" unicode="&#x4de;" 
d="M194 767q-23 0 -39 15.5t-16 37.5q0 24 16 39.5t39 15.5t38.5 -15.5t15.5 -39.5q0 -23 -15.5 -38t-38.5 -15zM401 767q-23 0 -38.5 15t-15.5 38q0 24 15.5 39.5t38.5 15.5t39 -15.5t16 -39.5q0 -22 -16 -37.5t-39 -15.5zM281 700q108 0 172 -50t64 -130q0 -61 -40 -98.5
t-102 -46.5q70 -6 118 -50.5t48 -119.5q0 -95 -71.5 -155.5t-191.5 -60.5q-151 0 -243 97l54 49q82 -73 189 -73q80 0 124.5 37t44.5 103t-44 98.5t-117 32.5h-121l10 73h105q63 0 105.5 28.5t42.5 84.5q0 53 -41.5 81.5t-107.5 28.5q-96 0 -182 -66l-48 51q103 86 232 86z
" />
    <glyph glyph-name="uni04DF" unicode="&#x4df;" 
d="M190 648q-23 0 -39 15.5t-16 37.5q0 24 16 39.5t39 15.5t38.5 -15.5t15.5 -39.5q0 -23 -15.5 -38t-38.5 -15zM397 648q-23 0 -38.5 15t-15.5 38q0 24 15.5 39.5t38.5 15.5t39 -15.5t16 -39.5q0 -22 -16 -37.5t-39 -15.5zM191 309h95q53 0 83.5 22t30.5 58q0 81 -124 81
q-88 0 -163 -46l-40 50q85 64 206 64q91 0 150 -37.5t59 -106.5q0 -82 -107 -113q51 -1 93.5 -35t42.5 -89q0 -81 -66 -124.5t-173 -43.5q-135 0 -224 73l40 54q81 -58 187 -58q71 0 108 26t37 71q0 86 -134 86h-106z" />
    <glyph glyph-name="uni04E0" unicode="&#x4e0;" 
d="M295 400q122 0 178.5 -52t56.5 -143q0 -97 -67.5 -156.5t-180.5 -59.5q-71 0 -119 18.5t-93 55.5l45 55q41 -29 77.5 -42.5t90.5 -13.5q76 0 116 38t40 107q0 124 -141 124h-120v64l222 221h-303v73h404v-73l-223 -216h17z" />
    <glyph glyph-name="uni04E1" unicode="&#x4e1;" 
d="M280 205q112 0 174.5 -51t62.5 -148q0 -98 -66.5 -158t-171.5 -60q-141 0 -217 91l51 45q36 -35 73.5 -50.5t91.5 -15.5q70 0 109 39t39 112q0 70 -39.5 101t-120.5 31h-87v63l218 251h-304v72h401v-66l-225 -256h11z" />
    <glyph glyph-name="uni04E2" unicode="&#x4e2;" 
d="M434 795h-269v64h269v-64zM83 0v689h86v-349q0 -145 -14 -263l250 612h112v-689h-86v349q0 133 14 257l-248 -606h-114z" />
    <glyph glyph-name="uni04E3" unicode="&#x4e3;" 
d="M434 676h-269v64h269v-64zM500 527v-527h-84v246q0 42 2 85t4.5 69t2.5 27l-222 -427h-103v527h84v-247q0 -36 -2 -78.5t-4 -70t-2 -28.5l219 424h105z" />
    <glyph glyph-name="uni04E4" unicode="&#x4e4;" 
d="M196 767q-23 0 -39 15.5t-16 37.5q0 24 16 39.5t39 15.5t38.5 -15.5t15.5 -39.5q0 -23 -15.5 -38t-38.5 -15zM403 767q-23 0 -38.5 15t-15.5 38q0 24 15.5 39.5t38.5 15.5t39 -15.5t16 -39.5q0 -22 -16 -37.5t-39 -15.5zM83 0v689h86v-349q0 -145 -14 -263l250 612h112
v-689h-86v349q0 133 14 257l-248 -606h-114z" />
    <glyph glyph-name="uni04E5" unicode="&#x4e5;" 
d="M196 648q-23 0 -39 15.5t-16 37.5q0 24 16 39.5t39 15.5t38.5 -15.5t15.5 -39.5q0 -23 -15.5 -38t-38.5 -15zM403 648q-23 0 -38.5 15t-15.5 38q0 24 15.5 39.5t38.5 15.5t39 -15.5t16 -39.5q0 -22 -16 -37.5t-39 -15.5zM500 527v-527h-84v246q0 42 2 85t4.5 69t2.5 27
l-222 -427h-103v527h84v-247q0 -36 -2 -78.5t-4 -70t-2 -28.5l219 424h105z" />
    <glyph glyph-name="uni04E6" unicode="&#x4e6;" 
d="M196 767q-23 0 -39 15.5t-16 37.5q0 24 16 39.5t39 15.5t38.5 -15.5t15.5 -39.5q0 -23 -15.5 -38t-38.5 -15zM403 767q-23 0 -38.5 15t-15.5 38q0 24 15.5 39.5t38.5 15.5t39 -15.5t16 -39.5q0 -22 -16 -37.5t-39 -15.5zM553 344q0 -161 -65.5 -258t-187.5 -97
q-123 0 -188 95t-65 259q0 161 65.5 259t187.5 98t187.5 -96.5t65.5 -259.5zM463 344q0 141 -39 212t-124 71t-124 -71.5t-39 -212.5q0 -281 163 -281q85 0 124 70.5t39 211.5z" />
    <glyph glyph-name="uni04E7" unicode="&#x4e7;" 
d="M196 648q-23 0 -39 15.5t-16 37.5q0 24 16 39.5t39 15.5t38.5 -15.5t15.5 -39.5q0 -23 -15.5 -38t-38.5 -15zM403 648q-23 0 -38.5 15t-15.5 38q0 24 15.5 39.5t38.5 15.5t39 -15.5t16 -39.5q0 -22 -16 -37.5t-39 -15.5zM301 538q109 0 167.5 -73.5t58.5 -200.5
q0 -124 -59.5 -199.5t-167.5 -75.5q-109 0 -168 73.5t-59 200.5q0 125 59.5 200t168.5 75zM301 469q-137 0 -137 -206q0 -205 136 -205t136 206q0 205 -135 205z" />
    <glyph glyph-name="uni04E8" unicode="&#x4e8;" 
d="M553 344q0 -161 -65.5 -258t-187.5 -97q-123 0 -188 95t-65 259q0 161 65.5 259t187.5 98t187.5 -96.5t65.5 -259.5zM300 627q-78 0 -116.5 -60.5t-44.5 -182.5h321q-5 122 -43.5 182.5t-116.5 60.5zM300 62q81 0 119.5 64t41.5 192h-323q6 -256 162 -256z" />
    <glyph glyph-name="uni04E9" unicode="&#x4e9;" 
d="M301 538q109 0 167.5 -73.5t58.5 -200.5q0 -124 -59.5 -199.5t-167.5 -75.5q-109 0 -168 73.5t-59 200.5q0 125 59.5 200t168.5 75zM301 469q-127 0 -136 -167h270q-9 167 -134 167zM435 234h-269q6 -91 39 -133.5t95 -42.5q123 0 135 176z" />
    <glyph glyph-name="uni04EA" unicode="&#x4ea;" 
d="M196 767q-23 0 -39 15.5t-16 37.5q0 24 16 39.5t39 15.5t38.5 -15.5t15.5 -39.5q0 -23 -15.5 -38t-38.5 -15zM403 767q-23 0 -38.5 15t-15.5 38q0 24 15.5 39.5t38.5 15.5t39 -15.5t16 -39.5q0 -22 -16 -37.5t-39 -15.5zM553 344q0 -161 -65.5 -258t-187.5 -97
q-123 0 -188 95t-65 259q0 161 65.5 259t187.5 98t187.5 -96.5t65.5 -259.5zM300 627q-78 0 -116.5 -60.5t-44.5 -182.5h321q-5 122 -43.5 182.5t-116.5 60.5zM300 62q81 0 119.5 64t41.5 192h-323q6 -256 162 -256z" />
    <glyph glyph-name="uni04EB" unicode="&#x4eb;" 
d="M197 648q-23 0 -39 15.5t-16 37.5q0 24 16 39.5t39 15.5t38.5 -15.5t15.5 -39.5q0 -23 -15.5 -38t-38.5 -15zM404 648q-23 0 -38.5 15t-15.5 38q0 24 15.5 39.5t38.5 15.5t39 -15.5t16 -39.5q0 -22 -16 -37.5t-39 -15.5zM301 538q109 0 167.5 -73.5t58.5 -200.5
q0 -124 -59.5 -199.5t-167.5 -75.5q-109 0 -168 73.5t-59 200.5q0 125 59.5 200t168.5 75zM301 469q-127 0 -136 -167h270q-9 167 -134 167zM435 234h-269q6 -91 39 -133.5t95 -42.5q123 0 135 176z" />
    <glyph glyph-name="uni04EC" unicode="&#x4ec;" 
d="M185 767q-23 0 -39 15.5t-16 37.5q0 24 16 39.5t39 15.5t38.5 -15.5t15.5 -39.5q0 -23 -15.5 -38t-38.5 -15zM392 767q-23 0 -38.5 15t-15.5 38q0 24 15.5 39.5t38.5 15.5t39 -15.5t16 -39.5q0 -22 -16 -37.5t-39 -15.5zM269 700q127 0 198.5 -88t71.5 -259
q0 -177 -74 -270.5t-204 -93.5q-134 0 -219 88l52 49q73 -65 162 -65q181 0 193 256h-303v74h303q-7 126 -53 182t-131 56q-89 0 -167 -65l-48 51q98 85 219 85z" />
    <glyph glyph-name="uni04ED" unicode="&#x4ed;" 
d="M190 648q-23 0 -39 15.5t-16 37.5q0 24 16 39.5t39 15.5t38.5 -15.5t15.5 -39.5q0 -23 -15.5 -38t-38.5 -15zM397 648q-23 0 -38.5 15t-15.5 38q0 24 15.5 39.5t38.5 15.5t39 -15.5t16 -39.5q0 -22 -16 -37.5t-39 -15.5zM278 538q118 0 178 -72t60 -200q0 -127 -63 -202
t-180 -75q-106 0 -182 62l41 56q64 -48 140 -48q147 0 157 178h-248v66h247q-15 167 -151 167q-78 0 -141 -47l-40 54q73 61 182 61z" />
    <glyph glyph-name="uni04EE" unicode="&#x4ee;" 
d="M444 795h-269v64h269v-64zM580 689l-211 -509q-37 -91 -90 -134.5t-157 -56.5l-13 69q87 13 123.5 41.5t58.5 90.5h-37l-228 499h91l196 -443l180 443h87z" />
    <glyph glyph-name="uni04EF" unicode="&#x4ef;" 
d="M434 676h-269v64h269v-64zM538 527l-184 -530q-31 -91 -85 -145t-151 -64l-12 67q76 13 110.5 46t56.5 99h-28l-183 527h89l151 -463l149 463h87z" />
    <glyph glyph-name="uni04F0" unicode="&#x4f0;" 
d="M206 767q-23 0 -39 15.5t-16 37.5q0 24 16 39.5t39 15.5t38.5 -15.5t15.5 -39.5q0 -23 -15.5 -38t-38.5 -15zM413 767q-23 0 -38.5 15t-15.5 38q0 24 15.5 39.5t38.5 15.5t39 -15.5t16 -39.5q0 -22 -16 -37.5t-39 -15.5zM580 689l-211 -509q-37 -91 -90 -134.5
t-157 -56.5l-13 69q87 13 123.5 41.5t58.5 90.5h-37l-228 499h91l196 -443l180 443h87z" />
    <glyph glyph-name="uni04F1" unicode="&#x4f1;" 
d="M196 648q-23 0 -39 15.5t-16 37.5q0 24 16 39.5t39 15.5t38.5 -15.5t15.5 -39.5q0 -23 -15.5 -38t-38.5 -15zM403 648q-23 0 -38.5 15t-15.5 38q0 24 15.5 39.5t38.5 15.5t39 -15.5t16 -39.5q0 -22 -16 -37.5t-39 -15.5zM538 527l-184 -530q-31 -91 -85 -145t-151 -64
l-12 67q76 13 110.5 46t56.5 99h-28l-183 527h89l151 -463l149 463h87z" />
    <glyph glyph-name="uni04F2" unicode="&#x4f2;" 
d="M192 781l78 174l75 -36l-97 -164zM357 781l87 174l74 -39l-108 -163zM580 689l-211 -509q-37 -91 -90 -134.5t-157 -56.5l-13 69q87 13 123.5 41.5t58.5 90.5h-37l-228 499h91l196 -443l180 443h87z" />
    <glyph glyph-name="uni04F3" unicode="&#x4f3;" 
d="M176 662l78 174l75 -36l-97 -164zM341 662l87 174l74 -39l-108 -163zM538 527l-184 -530q-31 -91 -85 -145t-151 -64l-12 67q76 13 110.5 46t56.5 99h-28l-183 527h89l151 -463l149 463h87z" />
    <glyph glyph-name="uni04F4" unicode="&#x4f4;" 
d="M185 767q-23 0 -39 15.5t-16 37.5q0 24 16 39.5t39 15.5t38.5 -15.5t15.5 -39.5q0 -23 -15.5 -38t-38.5 -15zM392 767q-23 0 -38.5 15t-15.5 38q0 24 15.5 39.5t38.5 15.5t39 -15.5t16 -39.5q0 -22 -16 -37.5t-39 -15.5zM430 689h87v-689h-87v282q-46 -34 -86 -48.5
t-93 -14.5q-90 0 -145 55.5t-55 148.5v266h86v-259q0 -135 136 -135q94 0 157 61v333z" />
    <glyph glyph-name="uni04F5" unicode="&#x4f5;" 
d="M183 648q-23 0 -39 15.5t-16 37.5q0 24 16 39.5t39 15.5t38.5 -15.5t15.5 -39.5q0 -23 -15.5 -38t-38.5 -15zM390 648q-23 0 -38.5 15t-15.5 38q0 24 15.5 39.5t38.5 15.5t39 -15.5t16 -39.5q0 -22 -16 -37.5t-39 -15.5zM489 527v-527h-84v223q-66 -59 -165 -59
q-76 0 -115.5 40.5t-39.5 114.5v208h84v-198q0 -53 22 -76t70 -23q39 0 80 16.5t64 43.5v237h84z" />
    <glyph glyph-name="uni04F6" unicode="&#x4f6;" 
d="M535 612h-312v-539h58v-220h-69l-14 147h-62v689h408z" />
    <glyph glyph-name="uni04F7" unicode="&#x4f7;" 
d="M514 456h-272v-387h81v-216h-70l-14 147h-81v527h366z" />
    <glyph glyph-name="uni04F8" unicode="&#x4f8;" 
d="M196 767q-23 0 -39 15.5t-16 37.5q0 24 16 39.5t39 15.5t38.5 -15.5t15.5 -39.5q0 -23 -15.5 -38t-38.5 -15zM403 767q-23 0 -38.5 15t-15.5 38q0 24 15.5 39.5t38.5 15.5t39 -15.5t16 -39.5q0 -22 -16 -37.5t-39 -15.5zM119 689v-256h63q248 0 248 -212
q0 -110 -63.5 -165.5t-182.5 -55.5h-153v689h88zM569 689v-689h-88v689h88zM191 367h-72v-298h74q72 0 108.5 35.5t36.5 115.5q0 147 -147 147z" />
    <glyph glyph-name="uni04F9" unicode="&#x4f9;" 
d="M196 648q-23 0 -39 15.5t-16 37.5q0 24 16 39.5t39 15.5t38.5 -15.5t15.5 -39.5q0 -23 -15.5 -38t-38.5 -15zM403 648q-23 0 -38.5 15t-15.5 38q0 24 15.5 39.5t38.5 15.5t39 -15.5t16 -39.5q0 -22 -16 -37.5t-39 -15.5zM142 527v-171h36q224 0 224 -173q0 -93 -59 -138
t-165 -45h-116v527h80zM538 527v-527h-81v527h81zM181 293h-39v-228h39q67 0 100.5 26t33.5 91q0 59 -32 85t-102 26z" />
    <glyph glyph-name="uni04FA" unicode="&#x4fa;" 
d="M574 612h-312v-179h157v-67h-157v-293h59v-134q0 -73 -38.5 -111.5t-106.5 -38.5q-64 0 -113 37l34 57q37 -24 75 -24q62 0 62 75v66h-59v366h-101v67h101v256h408z" />
    <glyph glyph-name="uni04FB" unicode="&#x4fb;" 
d="M544 456h-272v-154h125v-67h-125v-166h80v-130q0 -73 -39.5 -111.5t-106.5 -38.5q-64 0 -113 37l34 54q41 -23 75 -23q66 0 66 75v68h-80v235h-94v67h94v225h366z" />
    <glyph glyph-name="uni04FC" unicode="&#x4fc;" 
d="M510 73h66v-134q0 -73 -38.5 -111.5t-106.5 -38.5q-64 0 -113 37l34 57q37 -24 75 -24q62 0 62 75v66h-36l-171 311l-174 -311h-93l216 367l-198 322h100l151 -265l152 265h93l-195 -317z" />
    <glyph glyph-name="uni04FD" unicode="&#x4fd;" 
d="M550 1h1v-62q0 -73 -39.5 -111.5t-106.5 -38.5q-64 0 -113 37l34 54q41 -23 75 -23q66 0 66 75v68h-36v2l-144 224l-145 -226h-96l194 278l-171 249h100l122 -196l123 196h97l-171 -245l147 -213h63v-68z" />
    <glyph glyph-name="uni04FE" unicode="&#x4fe;" 
d="M372 335l197 -335h-100l-171 311l-174 -311h-93l197 335h-188v65h187l-178 289h100l151 -265l152 265h93l-178 -289h193v-65h-188z" />
    <glyph glyph-name="uni04FF" unicode="&#x4ff;" 
d="M371 252l173 -252h-102l-142 236l-148 -236h-96l176 252h-149v58h145l-149 217h100l121 -206l124 206h97l-151 -217h148v-58h-147z" />
    <glyph glyph-name="uni0500" unicode="&#x500;" 
d="M303 0q-113 0 -183.5 54t-70.5 156t70 159t190 57h110v263h87v-689h-203zM304 71h115v287h-112q-166 0 -166 -148q0 -139 163 -139z" />
    <glyph glyph-name="uni0501" unicode="&#x501;" 
d="M416 749l84 -10v-739h-74l-8 69q-57 -80 -149 -80q-100 0 -150.5 73t-50.5 201q0 121 55.5 198t150.5 77q87 0 142 -63v274zM296 470q-66 0 -101.5 -52t-35.5 -155q0 -207 127 -207q75 0 130 84v262q-46 68 -120 68z" />
    <glyph glyph-name="uni0502" unicode="&#x502;" 
d="M580 377q5 -65 5 -127q0 -133 -45.5 -198.5t-119.5 -65.5q-89 0 -124 80q-48 -80 -132 -80q-65 0 -110 53t-45 151q0 113 56.5 174.5t166.5 61.5h46v263h87v-534q0 -99 56 -99q77 0 77 192q0 59 -5 129h87zM180 56q32 0 54.5 21t43.5 66v216h-48q-63 0 -98.5 -42
t-35.5 -127q0 -134 84 -134z" />
    <glyph glyph-name="uni0503" unicode="&#x503;" 
d="M585 377q5 -65 5 -124q0 -136 -45 -201.5t-122 -65.5q-97 0 -130 95q-49 -92 -122 -92q-78 0 -120 73.5t-42 197.5q0 123 45.5 200.5t121.5 77.5q61 0 102 -53v264l84 -10v-578q0 -50 16.5 -77.5t45.5 -27.5q39 0 59.5 44t20.5 151q0 56 -5 126h86zM179 58q53 0 99 86
v261q-43 64 -87 64q-43 0 -67.5 -52.5t-24.5 -153.5q0 -205 80 -205z" />
    <glyph glyph-name="uni0504" unicode="&#x504;" 
d="M570 380q5 -65 5 -125q0 -136 -48 -201t-130 -65q-63 0 -105 33t-75 105l-79 168h-83v69h72q77 0 116.5 31t39.5 100q0 66 -40 95t-128 29h-90v70h91q127 0 193 -49.5t66 -144.5q0 -141 -151 -184l72 -160q24 -52 46 -73t55 -21q92 0 92 198q0 55 -5 125h86z" />
    <glyph glyph-name="uni0505" unicode="&#x505;" 
d="M571 377q5 -65 5 -124q0 -135 -51.5 -201t-134.5 -66q-64 0 -106 31.5t-81 100.5l-48 88h-106v65h99q116 0 116 96q0 49 -32 71.5t-98 22.5h-123v66h124q105 0 161 -41t56 -119q0 -106 -118 -146l50 -91q24 -42 49 -58t58 -16q99 0 99 195q0 56 -5 126h86z" />
    <glyph glyph-name="uni0506" unicode="&#x506;" 
d="M490 73h65v-220h-69l-14 147h-37l-188 295h-145v68h152q156 0 156 132q0 66 -37.5 95t-118.5 29h-181v70h171q259 0 259 -194q0 -74 -46 -122.5t-122 -67.5z" />
    <glyph glyph-name="uni0507" unicode="&#x507;" 
d="M454 69h81v-216h-70l-14 147h-47l-130 205h-159v66h150q116 0 116 96q0 49 -32.5 71.5t-98.5 22.5h-174v66h176q105 0 161 -41t56 -119q0 -106 -117 -146z" />
    <glyph glyph-name="uni0508" unicode="&#x508;" 
d="M582 377q5 -65 5 -127q0 -133 -46 -198.5t-120 -65.5q-62 0 -101.5 44t-39.5 128v458h-95l-18 -246q-7 -104 -16.5 -169t-25 -105.5t-29.5 -60t-41 -46.5l-50 60q21 22 31.5 46t22 93.5t22.5 199.5l24 301h261v-534q0 -99 57 -99q77 0 77 192q0 59 -5 129h87z" />
    <glyph glyph-name="uni0509" unicode="&#x509;" 
d="M584 377q5 -65 5 -124q0 -134 -47.5 -200.5t-123.5 -66.5q-61 0 -102.5 42t-41.5 122v306h-100l-11 -131q-9 -118 -24 -182.5t-35.5 -94.5t-62.5 -59l-36 56q22 19 33 37t22.5 76t19.5 162l16 207h264v-252h-57l57 -4v-131q0 -37 15 -60.5t44 -23.5q84 0 84 195
q0 56 -5 126h86z" />
    <glyph glyph-name="uni050A" unicode="&#x50a;" 
d="M585 377q5 -65 5 -127q0 -133 -46 -198.5t-119 -65.5q-62 0 -101.5 44t-39.5 128v169h-149v-327h-86v689h86v-290h149v290h86v-534q0 -99 57 -99q77 0 77 192q0 59 -5 129h86z" />
    <glyph glyph-name="uni050B" unicode="&#x50b;" 
d="M589 377q5 -65 5 -124q0 -134 -47.5 -200.5t-123.5 -66.5q-62 0 -103.5 42t-41.5 122v84h-147v-234h-86v527h86v-224h147v224h85v-387q0 -37 15.5 -60.5t45.5 -23.5q83 0 83 195q0 56 -5 126h87z" />
    <glyph glyph-name="uni050C" unicode="&#x50c;" 
d="M314 -11q-126 0 -197.5 90.5t-71.5 265.5q0 169 84.5 262t204.5 93q65 0 109 -18t87 -58l-52 -54q-61 57 -144 57q-84 0 -140 -67t-56 -215q0 -147 45.5 -215t137.5 -68q73 0 131 33v209h-135l-10 73h232v-328q-106 -60 -225 -60z" />
    <glyph glyph-name="uni050D" unicode="&#x50d;" 
d="M318 538q98 0 179 -63l-49 -54q-61 46 -130 46q-65 0 -110 -50.5t-45 -149.5q0 -209 143 -209q60 0 107 23v147h-101l-9 67h193v-253q-87 -52 -191 -52q-110 0 -171 70.5t-61 206.5q0 122 71.5 196.5t173.5 74.5z" />
    <glyph glyph-name="uni050E" unicode="&#x50e;" 
d="M563 379q5 -65 5 -123q0 -68 -19 -121.5t-50 -84t-67 -46t-74 -15.5q-71 0 -117.5 47.5t-46.5 134.5v442h-179v76h470l-9 -76h-195v-428q0 -128 80 -128q53 0 87 46t34 153q0 53 -5 123h86z" />
    <glyph glyph-name="uni050F" unicode="&#x50f;" 
d="M543 371q4 -72 4 -126q0 -127 -61 -193t-145 -66q-74 0 -122 47t-48 129v294h-168v71h424l-10 -71h-162v-289q0 -55 23.5 -83t63.5 -28q51 0 85 44.5t34 146.5q0 46 -4 124h86z" />
    <glyph glyph-name="uni0510" unicode="&#x510;" 
d="M320 700q130 0 231 -86l-48 -51q-86 66 -182 66q-66 0 -107.5 -28.5t-41.5 -82.5q0 -56 42 -84t106 -28h117l-10 -73h-113q-73 0 -117 -32.5t-44 -99.5q0 -65 44.5 -102t124.5 -37q106 0 191 73l52 -49q-91 -97 -246 -97q-119 0 -189.5 59t-70.5 152q0 76 48 121.5
t118 53.5q-61 9 -101.5 46.5t-40.5 95.5q0 82 66 132.5t171 50.5z" />
    <glyph glyph-name="uni0511" unicode="&#x511;" 
d="M417 309l-6 -68h-103q-134 0 -134 -86q0 -45 37 -71t108 -26q106 0 187 58l40 -54q-89 -73 -226 -73q-107 0 -172 43.5t-65 123.5q0 56 42.5 89.5t93.5 35.5q-107 31 -107 113q0 67 59 105.5t150 38.5q121 0 206 -64l-40 -50q-75 46 -163 46q-124 0 -124 -81
q0 -36 30.5 -58t83.5 -22h103z" />
    <glyph glyph-name="uni0512" unicode="&#x512;" 
d="M169 689h348v-750q0 -73 -38.5 -111.5t-106.5 -38.5q-64 0 -113 37l34 57q37 -24 75 -24q62 0 62 75v680h-185l-25 -204q-15 -119 -29 -191t-36 -117t-42.5 -66t-59.5 -47l-38 64q29 24 43.5 44.5t35 92t36.5 196.5z" />
    <glyph glyph-name="uni0513" unicode="&#x513;" 
d="M153 527h357v-588q0 -73 -39.5 -111.5t-106.5 -38.5q-64 0 -113 37l34 54q41 -23 75 -23q66 0 66 75v524h-197l-12 -139q-10 -118 -25.5 -179.5t-39.5 -91t-74 -57.5l-36 54q29 18 44 37t29 75.5t22 158.5z" />
    <glyph glyph-name="uni0514" unicode="&#x514;" 
d="M451 368l157 -368h-88l-124 307l-118 -307h-84l155 368l-107 244h-58l-18 -242q-7 -104 -16.5 -169t-25 -105.5t-29 -60t-40.5 -46.5l-51 60q21 22 31.5 46t22 93.5t22.5 199.5l24 301l5 -5l-4 5h192l106 -263l103 263h83z" />
    <glyph glyph-name="uni0515" unicode="&#x515;" 
d="M456 282l142 -282h-89l-103 226l-104 -226h-83l142 278l-90 181h-85l-11 -134q-10 -119 -24.5 -182.5t-35.5 -94t-62 -59.5l-36 56q21 19 32 37t23 76t20 162l16 207h217l86 -196l88 196h81z" />
    <glyph glyph-name="uni0516" unicode="&#x516;" 
d="M589 0h-94l-162 321q-62 -65 -158 -65h-37v-256h-83v689h120q100 0 157.5 -58.5t57.5 -153.5v-17l112 229h86l-176 -336zM172 326q136 0 136 150q0 71 -34.5 107t-96.5 36h-39v-293h34z" />
    <glyph glyph-name="uni0517" unicode="&#x517;" 
d="M596 0h-93l-107 234q-5 -112 -49 -178.5t-108 -66.5q-67 0 -107 57v-247l-88 -11v739h75l7 -64q48 75 121 75q139 0 149 -234l100 223h86l-120 -256zM223 59q39 0 64.5 49.5t25.5 155.5q0 111 -18.5 158.5t-61.5 47.5q-53 0 -101 -77v-265q45 -69 91 -69z" />
    <glyph glyph-name="uni0518" unicode="&#x518;" 
d="M383 70h215v-70h-304v277h-70l-117 -277h-99l133 297q-123 52 -123 186q0 95 65 150.5t179 55.5h327l-10 -72h-196v-231h156v-72h-156v-244zM294 348v271h-42q-66 0 -102.5 -34.5t-36.5 -100.5q0 -68 32.5 -102t88.5 -34h60z" />
    <glyph glyph-name="uni0519" unicode="&#x519;" 
d="M556 100l39 -49q-77 -62 -166 -62q-79 0 -129.5 58.5t-62.5 156.5h-49l-100 -204h-82l107 220q-93 40 -93 141q0 75 55 120.5t144 45.5h144q28 11 59 11q84 0 127.5 -68.5t43.5 -190.5q0 -23 -2 -45h-272q3 -90 33.5 -134t81.5 -44q37 0 62 9.5t60 34.5zM515 299
q-3 171 -92 171q-94 0 -104 -171h196zM103 361q0 -92 109 -92h21q2 122 54 196h-70q-114 0 -114 -104z" />
    <glyph glyph-name="uni051A" unicode="&#x51a;" 
d="M554 344q0 -239 -143 -317q74 -15 115.5 -52t66.5 -112l-92 -36q-34 85 -80 124t-131 39q-117 0 -181 95.5t-64 257.5q0 161 66 259t189 98q122 0 188 -96.5t66 -259.5zM463 344q0 141 -39 212t-124 71q-164 0 -164 -284q0 -281 164 -281q85 0 124 70.5t39 211.5z" />
    <glyph glyph-name="uni051B" unicode="&#x51b;" 
d="M274 538q92 0 147 -69l7 58h72v-739l-84 10v268q-56 -77 -149 -77q-194 0 -194 274q0 122 53 198.5t148 76.5zM295 470q-131 0 -131 -207q0 -204 121 -204q78 0 131 81v262q-44 68 -121 68z" />
    <glyph glyph-name="uni051C" unicode="&#x51c;" 
d="M595 689l-104 -689h-114l-79 520l-80 -520h-117l-96 689h87l73 -594l83 514h106l79 -514l82 594h80z" />
    <glyph glyph-name="uni051D" unicode="&#x51d;" 
d="M491 0h-119l-69 386l-74 -386h-116l-95 527h85l68 -475l84 408h99l79 -408l68 475h81z" />
    <glyph glyph-name="uni051E" unicode="&#x51e;" 
d="M330 364l251 -364h-105l-221 326h-80v-326h-86v689h86v-290h81l91 124l-120 78l38 55l121 -79l82 112h94l-110 -154l108 -70l-38 -56l-109 71z" />
    <glyph glyph-name="uni051F" unicode="&#x51f;" 
d="M362 283l205 -283h-102l-174 245h-103v-245h-84v527h84v-214h105l51 71l-88 58l36 53l89 -58l64 90h95l-96 -131l86 -56l-36 -54l-88 58z" />
    <glyph glyph-name="uni0520" unicode="&#x520;" 
d="M449 451q62 0 98 -41t36 -105v-363q0 -74 -40.5 -113.5t-105.5 -39.5q-64 0 -113 37l34 58q37 -23 75 -23q62 0 62 74v360q0 79 -60 79q-42 0 -81 -36v-338h-86v616h-95l-18 -246q-7 -104 -16.5 -169t-25 -105.5t-29.5 -60t-41 -46.5l-50 60q21 22 31.5 46t22 93.5
t22.5 199.5l24 301h261v-278q40 40 95 40z" />
    <glyph glyph-name="uni0521" unicode="&#x521;" 
d="M466 349q57 0 93.5 -38t36.5 -100v-271q0 -73 -40 -112t-108 -39q-64 0 -113 37l34 55q39 -22 75 -22q67 0 67 75v271q0 77 -65 77q-49 0 -90 -39v-243h-86v456h-110l-12 -131q-9 -118 -24 -182.5t-35.5 -94.5t-62.5 -59l-35 56q21 19 32 37t22.5 76t19.5 162l16 207h275
v-220q44 42 110 42z" />
    <glyph glyph-name="uni0522" unicode="&#x522;" 
d="M449 451q66 0 105 -42.5t39 -114.5v-352q0 -74 -40 -113.5t-105 -39.5q-64 0 -113 37l34 57q39 -23 75 -23q62 0 62 75v360q0 79 -70 79q-46 0 -89 -37v-337h-86v327h-149v-327h-86v689h86v-290h149v290h86v-279q43 41 102 41z" />
    <glyph glyph-name="uni0523" unicode="&#x523;" 
d="M466 349q57 0 93.5 -38t36.5 -100v-271q0 -73 -40 -112t-108 -39q-64 0 -113 37l34 55q39 -22 75 -22q67 0 67 75v271q0 77 -65 77q-49 0 -90 -39v-243h-85v234h-157v-234h-86v527h86v-224h157v224h85v-220q44 42 110 42z" />
    <glyph glyph-name="uni0524" unicode="&#x524;" 
d="M517 73h61v-220h-69l-14 147h-65v613h-260v-613h-87v689h434v-616z" />
    <glyph glyph-name="uni0525" unicode="&#x525;" 
d="M493 69h81v-216h-70l-14 147h-81v458h-232v-458h-84v527h400v-458z" />
    <glyph glyph-name="uni0526" unicode="&#x526;" 
d="M541 73h60v-220h-69l-14 147h-63v234q0 140 -133 140q-89 0 -152 -79v-295h-87v689h87v-310q65 71 171 71q94 0 147 -57t53 -158v-162z" />
    <glyph glyph-name="uni0527" unicode="&#x527;" 
d="M495 69h81v-216h-70l-14 147h-81v303q0 107 -89 107q-81 0 -142 -91v-319h-84v738l84 9v-352q60 82 158 82q72 0 114.5 -43t42.5 -117v-248z" />
    <glyph glyph-name="uni0528" unicode="&#x528;" 
d="M430 689h87v-689h-87v327h-260v-389q0 -73 -38.5 -111.5t-106.5 -38.5q-64 0 -113 37l34 57q37 -24 75 -24q62 0 62 75v756h87v-291h260v291z" />
    <glyph glyph-name="uni0529" unicode="&#x529;" 
d="M416 527h84v-527h-84v234h-232v-234h1v-62q0 -73 -39.5 -111.5t-106.5 -38.5q-64 0 -113 37l34 54q41 -23 75 -23q66 0 66 75v69h-1v527h84v-224h232v224z" />
    <glyph glyph-name="uni052A" unicode="&#x52a;" 
d="M515 362l97 -362h-83l-77 323h-26v-323h-59v-147h-64l-16 147h-221l-15 -147h-64v211h34q17 47 25 74t20.5 106.5t19.5 190.5l16 254h200v-294h51v294h73v-294h27l66 294h72zM229 64v558h-55l-11 -191q-8 -157 -25 -236t-48 -131h139zM353 323h-51v-259h51v259z" />
    <glyph glyph-name="uni052B" unicode="&#x52b;" 
d="M501 283l108 -283h-83l-90 244h-24v-244h-57v-147h-67l-13 147h-205l-14 -147h-66v218h23q16 15 24 30.5t17.5 70t16.5 155.5l14 200h201v-213h48v213h78v-213h25l78 213h76zM208 71v383h-51l-7 -114q-10 -145 -21 -192t-45 -77h124zM286 71h48v173h-48v-173z" />
    <glyph glyph-name="uni052C" unicode="&#x52c;" 
d="M527 73h35v-220h-69l-14 147h-343l-14 -147h-69v220h36q70 72 111 273q-70 17 -104 68.5t-35 143.5v131h89v-127q0 -58 14.5 -91.5t49.5 -48.5l9 66l25 201h279v-616zM327 614l-15 -130q-5 -48 -10 -77h138v207h-113zM177 73h263v263h-144h-6q-35 -182 -113 -263z" />
    <glyph glyph-name="uni052D" unicode="&#x52d;" 
d="M496 70h66v-217h-71l-14 147h-340l-15 -147h-71v217h38q77 46 99 191q-70 12 -102 55t-32 121v90h84v-87q0 -87 58 -105l13 192h287v-457zM288 456l-9 -116q0 -2 -0.5 -6.5t-0.5 -6.5h130v129h-120zM179 70h229v186h-139q-26 -148 -90 -186z" />
    <glyph glyph-name="uni052E" unicode="&#x52e;" 
d="M486 73h61v-220h-69l-14 147h-65v614h-166l-25 -204q-19 -156 -42 -239t-48 -115t-77 -67l-38 64q29 24 43.5 44.5t35 92t36.5 196.5l39 303h329v-616z" />
    <glyph glyph-name="uni052F" unicode="&#x52f;" 
d="M485 69h81v-216h-70l-14 147h-81v456h-178l-11 -139q-10 -118 -25.5 -179.5t-40 -91t-74.5 -57.5l-36 54q29 18 44 37t29 75.5t22 158.5l16 213h338v-458z" />
    <glyph glyph-name="Wgrave" unicode="&#x1e80;" 
d="M231 909l185 -108l-26 -46l-205 82zM595 689l-104 -689h-114l-79 520l-80 -520h-117l-96 689h87l73 -594l83 514h106l79 -514l82 594h80z" />
    <glyph glyph-name="wgrave" unicode="&#x1e81;" 
d="M387 622l-203 93l46 72l184 -119zM491 0h-119l-69 386l-74 -386h-116l-95 527h85l68 -475l84 408h99l79 -408l68 475h81z" />
    <glyph glyph-name="Wacute" unicode="&#x1e82;" 
d="M383 906l37 -72l-213 -79l-22 46zM595 689l-104 -689h-114l-79 520l-80 -520h-117l-96 689h87l73 -594l83 514h106l79 -514l82 594h80z" />
    <glyph glyph-name="wacute" unicode="&#x1e83;" 
d="M384 797l38 -72l-209 -85l-26 45zM491 0h-119l-69 386l-74 -386h-116l-95 527h85l68 -475l84 408h99l79 -408l68 475h81z" />
    <glyph glyph-name="Wdieresis" unicode="&#x1e84;" 
d="M196 767q-23 0 -39 15.5t-16 37.5q0 24 16 39.5t39 15.5t38.5 -15.5t15.5 -39.5q0 -23 -15.5 -38t-38.5 -15zM403 767q-23 0 -38.5 15t-15.5 38q0 24 15.5 39.5t38.5 15.5t39 -15.5t16 -39.5q0 -22 -16 -37.5t-39 -15.5zM595 689l-104 -689h-114l-79 520l-80 -520h-117
l-96 689h87l73 -594l83 514h106l79 -514l82 594h80z" />
    <glyph glyph-name="wdieresis" unicode="&#x1e85;" 
d="M196 648q-23 0 -39 15.5t-16 37.5q0 24 16 39.5t39 15.5t38.5 -15.5t15.5 -39.5q0 -23 -15.5 -38t-38.5 -15zM403 648q-23 0 -38.5 15t-15.5 38q0 24 15.5 39.5t38.5 15.5t39 -15.5t16 -39.5q0 -22 -16 -37.5t-39 -15.5zM491 0h-119l-69 386l-74 -386h-116l-95 527h85
l68 -475l84 408h99l79 -408l68 475h81z" />
    <glyph glyph-name="Ygrave" unicode="&#x1ef2;" 
d="M234 909l185 -108l-26 -46l-205 82zM344 266v-266h-88v265l-233 424h96l183 -346l185 346h90z" />
    <glyph glyph-name="ygrave" unicode="&#x1ef3;" 
d="M387 622l-203 93l46 72l184 -119zM538 527l-184 -530q-31 -91 -85 -145t-151 -64l-12 67q76 13 110.5 46t56.5 99h-28l-183 527h89l151 -463l149 463h87z" />
    <glyph glyph-name="uni1F00" unicode="&#x1f00;" 
d="M312 805q23 0 39 -15.5t16 -37.5q0 -20 -15 -55l-51 -107h-50l29 117q-22 17 -22 45q0 23 15.5 38t38.5 15zM255 538q70 0 110 -37.5t56 -127.5l27 154h77l-51 -281l25 -136q7 -37 45 -52l-30 -71q-34 6 -60 31t-32 65l-9 56q-50 -150 -163 -150q-92 0 -141.5 68
t-49.5 202q0 126 50.5 202.5t145.5 76.5zM261 470q-54 0 -83 -54.5t-29 -156.5q0 -202 108 -202q45 0 82 44.5t60 165.5q-20 115 -52.5 159t-85.5 44z" />
    <glyph glyph-name="uni1F01" unicode="&#x1f01;" 
d="M238 805q23 0 38.5 -15t15.5 -38q0 -28 -22 -45l29 -117h-50l-51 107q-15 35 -15 55q0 22 16 37.5t39 15.5zM255 538q70 0 110 -37.5t56 -127.5l27 154h77l-51 -281l25 -136q7 -37 45 -52l-30 -71q-34 6 -60 31t-32 65l-9 56q-50 -150 -163 -150q-92 0 -141.5 68
t-49.5 202q0 126 50.5 202.5t145.5 76.5zM261 470q-54 0 -83 -54.5t-29 -156.5q0 -202 108 -202q45 0 82 44.5t60 165.5q-20 115 -52.5 159t-85.5 44z" />
    <glyph glyph-name="uni1F02" unicode="&#x1f02;" 
d="M192 797q23 0 39 -15.5t16 -37.5q0 -20 -15 -55l-51 -107h-50l29 117q-22 17 -22 45q0 23 15.5 38t38.5 15zM355 792l48 -202l-57 -16l-68 199zM255 538q70 0 110 -37.5t56 -127.5l27 154h77l-51 -281l25 -136q7 -37 45 -52l-30 -71q-34 6 -60 31t-32 65l-9 56
q-50 -150 -163 -150q-92 0 -141.5 68t-49.5 202q0 126 50.5 202.5t145.5 76.5zM261 470q-54 0 -83 -54.5t-29 -156.5q0 -202 108 -202q45 0 82 44.5t60 165.5q-20 115 -52.5 159t-85.5 44z" />
    <glyph glyph-name="uni1F03" unicode="&#x1f03;" 
d="M168 797q23 0 38.5 -15t15.5 -38q0 -28 -22 -45l29 -117h-50l-51 107q-15 35 -15 55q0 22 16 37.5t39 15.5zM336 792l48 -202l-57 -16l-68 199zM255 538q70 0 110 -37.5t56 -127.5l27 154h77l-51 -281l25 -136q7 -37 45 -52l-30 -71q-34 6 -60 31t-32 65l-9 56
q-50 -150 -163 -150q-92 0 -141.5 68t-49.5 202q0 126 50.5 202.5t145.5 76.5zM261 470q-54 0 -83 -54.5t-29 -156.5q0 -202 108 -202q45 0 82 44.5t60 165.5q-20 115 -52.5 159t-85.5 44z" />
    <glyph glyph-name="uni1F04" unicode="&#x1f04;" 
d="M236 797q23 0 39 -15.5t16 -37.5q0 -20 -15 -55l-51 -107h-50l29 117q-22 17 -22 45q0 23 15.5 38t38.5 15zM363 792l77 -19l-68 -199l-57 16zM255 538q70 0 110 -37.5t56 -127.5l27 154h77l-51 -281l25 -136q7 -37 45 -52l-30 -71q-34 6 -60 31t-32 65l-9 56
q-50 -150 -163 -150q-92 0 -141.5 68t-49.5 202q0 126 50.5 202.5t145.5 76.5zM261 470q-54 0 -83 -54.5t-29 -156.5q0 -202 108 -202q45 0 82 44.5t60 165.5q-20 115 -52.5 159t-85.5 44z" />
    <glyph glyph-name="uni1F05" unicode="&#x1f05;" 
d="M207 799q23 0 38.5 -15t15.5 -38q0 -28 -22 -45l29 -117h-50l-51 107q-15 35 -15 55q0 22 16 37.5t39 15.5zM340 792l77 -19l-68 -199l-57 16zM255 538q70 0 110 -37.5t56 -127.5l27 154h77l-51 -281l25 -136q7 -37 45 -52l-30 -71q-34 6 -60 31t-32 65l-9 56
q-50 -150 -163 -150q-92 0 -141.5 68t-49.5 202q0 126 50.5 202.5t145.5 76.5zM261 470q-54 0 -83 -54.5t-29 -156.5q0 -202 108 -202q45 0 82 44.5t60 165.5q-20 115 -52.5 159t-85.5 44z" />
    <glyph glyph-name="uni1F06" unicode="&#x1f06;" 
d="M352 746q-28 0 -64 24t-52 24q-28 0 -53 -46l-53 26q41 85 106 85q30 0 65 -24.5t51 -24.5q27 0 53 45l54 -27q-38 -82 -107 -82zM250 577l20 62q-31 18 -31 49q0 23 16 38t40 15q23 0 38.5 -15t15.5 -38q0 -26 -29 -76l-19 -35h-51zM255 538q70 0 110 -37.5t56 -127.5
l27 154h77l-51 -281l25 -136q7 -37 45 -52l-30 -71q-34 6 -60 31t-32 65l-9 56q-50 -150 -163 -150q-92 0 -141.5 68t-49.5 202q0 126 50.5 202.5t145.5 76.5zM261 470q-54 0 -83 -54.5t-29 -156.5q0 -202 108 -202q45 0 82 44.5t60 165.5q-20 115 -52.5 159t-85.5 44z" />
    <glyph glyph-name="uni1F07" unicode="&#x1f07;" 
d="M338 747q-28 0 -64 24t-52 24q-28 0 -53 -46l-53 26q41 85 106 85q30 0 65 -24.5t51 -24.5q27 0 53 45l54 -27q-38 -82 -107 -82zM321 578h-50l-20 35q-29 52 -29 76q0 23 15.5 38t39.5 15q23 0 39 -15t16 -38q0 -32 -31 -49zM255 538q70 0 110 -37.5t56 -127.5l27 154
h77l-51 -281l25 -136q7 -37 45 -52l-30 -71q-34 6 -60 31t-32 65l-9 56q-50 -150 -163 -150q-92 0 -141.5 68t-49.5 202q0 126 50.5 202.5t145.5 76.5zM261 470q-54 0 -83 -54.5t-29 -156.5q0 -202 108 -202q45 0 82 44.5t60 165.5q-20 115 -52.5 159t-85.5 44z" />
    <glyph glyph-name="uni1F08" unicode="&#x1f08;" 
d="M118 706q23 0 39 -15.5t16 -37.5q0 -21 -15 -55l-51 -107h-50l29 117q-22 17 -22 45q0 23 15.5 38t38.5 15zM434 176h-273l-55 -176h-86l225 689h110l224 -689h-90zM184 248h227l-113 367z" />
    <glyph glyph-name="uni1F09" unicode="&#x1f09;" 
d="M96 706q23 0 38.5 -15t15.5 -38q0 -28 -22 -45l29 -117h-50l-51 107q-15 34 -15 55q0 22 16 37.5t39 15.5zM434 176h-273l-55 -176h-86l225 689h110l224 -689h-90zM184 248h227l-113 367z" />
    <glyph glyph-name="uni1F0A" unicode="&#x1f0a;" 
d="M-51 692q23 0 39 -15.5t16 -37.5q0 -21 -15 -55l-51 -107h-50l29 117q-22 17 -22 45q0 23 15.5 38t38.5 15zM434 176h-273l-55 -176h-86l225 689h110l224 -689h-90zM112 687l48 -202l-57 -16l-68 199zM184 248h227l-113 367z" />
    <glyph glyph-name="uni1F0B" unicode="&#x1f0b;" 
d="M-60 692q23 0 38.5 -15t15.5 -38q0 -28 -22 -45l29 -117h-50l-51 107q-15 34 -15 55q0 22 16 37.5t39 15.5zM434 176h-273l-55 -176h-86l225 689h110l224 -689h-90zM108 687l48 -202l-57 -16l-68 199zM184 248h227l-113 367z" />
    <glyph glyph-name="uni1F0C" unicode="&#x1f0c;" 
d="M-28 692q23 0 39 -15.5t16 -37.5q0 -21 -15 -55l-51 -107h-50l29 117q-22 17 -22 45q0 23 15.5 38t38.5 15zM434 176h-273l-55 -176h-86l225 689h110l224 -689h-90zM99 687l77 -19l-68 -199l-57 16zM184 248h227l-113 367z" />
    <glyph glyph-name="uni1F0D" unicode="&#x1f0d;" 
d="M-28 694q23 0 38.5 -15t15.5 -38q0 -28 -22 -45l29 -117h-50l-51 107q-15 34 -15 55q0 22 16 37.5t39 15.5zM434 176h-273l-55 -176h-86l225 689h110l224 -689h-90zM105 687l77 -19l-68 -199l-57 16zM184 248h227l-113 367z" />
    <glyph glyph-name="uni1F0E" unicode="&#x1f0e;" 
d="M101 584q-28 0 -64 24t-52 24q-28 0 -53 -46l-53 26q41 85 106 85q30 0 65 -24.5t51 -24.5q27 0 53 45l54 -27q-38 -82 -107 -82zM434 176h-273l-55 -176h-86l225 689h110l224 -689h-90zM184 248h227l-113 367zM-1 415l20 62q-31 18 -31 49q0 23 16 38t40 15
q23 0 38.5 -15t15.5 -38q0 -26 -29 -76l-19 -35h-51z" />
    <glyph glyph-name="uni1F0F" unicode="&#x1f0f;" 
d="M101 585q-28 0 -64 24t-52 24q-28 0 -53 -46l-53 26q41 85 106 85q30 0 65 -24.5t51 -24.5q27 0 53 45l54 -27q-38 -82 -107 -82zM434 176h-273l-55 -176h-86l225 689h110l224 -689h-90zM184 248h227l-113 367zM84 416h-50l-20 35q-29 52 -29 76q0 23 15.5 38t39.5 15
q23 0 39 -15t16 -38q0 -32 -31 -49z" />
    <glyph glyph-name="uni1F10" unicode="&#x1f10;" 
d="M351 805q23 0 39 -15.5t16 -37.5q0 -20 -15 -55l-51 -107h-50l29 117q-22 17 -22 45q0 23 15.5 38t38.5 15zM391 241h-90q-67 0 -97 -20.5t-30 -65.5t38 -71t104 -26q104 0 185 58l45 -57q-92 -70 -236 -70q-100 0 -163.5 43t-63.5 120q0 111 132 130q-54 12 -82.5 42
t-28.5 73q0 67 60.5 104t151.5 37q123 0 200 -54l-42 -52q-65 38 -155 38q-128 0 -128 -81q0 -37 31 -58.5t85 -21.5h94z" />
    <glyph glyph-name="uni1F11" unicode="&#x1f11;" 
d="M277 805q23 0 38.5 -15t15.5 -38q0 -28 -22 -45l29 -117h-50l-51 107q-15 34 -15 55q0 22 16 37.5t39 15.5zM391 241h-90q-67 0 -97 -20.5t-30 -65.5t38 -71t104 -26q104 0 185 58l45 -57q-92 -70 -236 -70q-100 0 -163.5 43t-63.5 120q0 111 132 130q-54 12 -82.5 42
t-28.5 73q0 67 60.5 104t151.5 37q123 0 200 -54l-42 -52q-65 38 -155 38q-128 0 -128 -81q0 -37 31 -58.5t85 -21.5h94z" />
    <glyph glyph-name="uni1F12" unicode="&#x1f12;" 
d="M231 797q23 0 39 -15.5t16 -37.5q0 -20 -15 -55l-51 -107h-50l29 117q-22 17 -22 45q0 23 15.5 38t38.5 15zM394 792l48 -202l-57 -16l-68 199zM391 241h-90q-67 0 -97 -20.5t-30 -65.5t38 -71t104 -26q104 0 185 58l45 -57q-92 -70 -236 -70q-100 0 -163.5 43t-63.5 120
q0 111 132 130q-54 12 -82.5 42t-28.5 73q0 67 60.5 104t151.5 37q123 0 200 -54l-42 -52q-65 38 -155 38q-128 0 -128 -81q0 -37 31 -58.5t85 -21.5h94z" />
    <glyph glyph-name="uni1F13" unicode="&#x1f13;" 
d="M207 797q23 0 38.5 -15t15.5 -38q0 -28 -22 -45l29 -117h-50l-51 107q-15 35 -15 55q0 22 16 37.5t39 15.5zM375 792l48 -202l-57 -16l-68 199zM391 241h-90q-67 0 -97 -20.5t-30 -65.5t38 -71t104 -26q104 0 185 58l45 -57q-92 -70 -236 -70q-100 0 -163.5 43t-63.5 120
q0 111 132 130q-54 12 -82.5 42t-28.5 73q0 67 60.5 104t151.5 37q123 0 200 -54l-42 -52q-65 38 -155 38q-128 0 -128 -81q0 -37 31 -58.5t85 -21.5h94z" />
    <glyph glyph-name="uni1F14" unicode="&#x1f14;" 
d="M275 797q23 0 39 -15.5t16 -37.5q0 -20 -15 -55l-51 -107h-50l29 117q-22 17 -22 45q0 23 15.5 38t38.5 15zM402 792l77 -19l-68 -199l-57 16zM391 241h-90q-67 0 -97 -20.5t-30 -65.5t38 -71t104 -26q104 0 185 58l45 -57q-92 -70 -236 -70q-100 0 -163.5 43t-63.5 120
q0 111 132 130q-54 12 -82.5 42t-28.5 73q0 67 60.5 104t151.5 37q123 0 200 -54l-42 -52q-65 38 -155 38q-128 0 -128 -81q0 -37 31 -58.5t85 -21.5h94z" />
    </font>
</defs>
</svg>
